<svg width="43" height="13" viewBox="0 0 43 13" fill="none" xmlns="http://www.w3.org/2000/svg">
<path d="M25.5625 8.125C24.2175 8.125 23.125 9.21646 23.125 10.5625C23.125 11.9085 24.2175 13 25.5625 13C26.9075 13 28 11.9085 28 10.5625C28 9.21646 26.9075 8.125 25.5625 8.125ZM26.9167 10.8333H25.8333V11.9167H25.2917V10.8333H24.2083V10.2917H25.2917V9.20833H25.8333V10.2917H26.9167V10.8333ZM23.0275 13H15.0027L15 12.3278C15 10.9628 15.1078 10.1747 16.7214 9.802C18.5441 9.38113 20.3441 9.00412 19.4785 7.40892C16.9148 2.68071 18.7473 0 21.5 0C25.1568 0 25.5658 4.11396 23.4717 7.40946C22.7718 8.50958 22.0417 9.37571 22.0417 10.5625C22.0417 11.5088 22.4187 12.3668 23.0275 13Z" fill="url(#paint0_linear_19_103)"/>
<path d="M40.5625 8.125C39.2175 8.125 38.125 9.21646 38.125 10.5625C38.125 11.9085 39.2175 13 40.5625 13C41.9075 13 43 11.9085 43 10.5625C43 9.21646 41.9075 8.125 40.5625 8.125ZM41.9167 10.8333H40.8333V11.9167H40.2917V10.8333H39.2083V10.2917H40.2917V9.20833H40.8333V10.2917H41.9167V10.8333ZM38.0275 13H30.0027L30 12.3278C30 10.9628 30.1078 10.1747 31.7214 9.802C33.5441 9.38113 35.3441 9.00412 34.4785 7.40892C31.9148 2.68071 33.7473 0 36.5 0C40.1568 0 40.5657 4.11396 38.4717 7.40946C37.7718 8.50958 37.0417 9.37571 37.0417 10.5625C37.0417 11.5088 37.4187 12.3668 38.0275 13Z" fill="white"/>
<path d="M10.5625 8.125C9.21754 8.125 8.125 9.21646 8.125 10.5625C8.125 11.9085 9.21754 13 10.5625 13C11.9075 13 13 11.9085 13 10.5625C13 9.21646 11.9075 8.125 10.5625 8.125ZM11.9167 10.8333H10.8333V11.9167H10.2917V10.8333H9.20833V10.2917H10.2917V9.20833H10.8333V10.2917H11.9167V10.8333ZM8.0275 13H0.00270833L0 12.3278C0 10.9628 0.107792 10.1747 1.72142 9.802C3.54413 9.38113 5.34408 9.00412 4.4785 7.40892C1.91479 2.68071 3.74725 0 6.5 0C10.1568 0 10.5658 4.11396 8.47167 7.40946C7.77183 8.50958 7.04167 9.37571 7.04167 10.5625C7.04167 11.5088 7.41867 12.3668 8.0275 13Z" fill="url(#paint1_linear_19_103)"/>
<defs>
<linearGradient id="paint0_linear_19_103" x1="15.2799" y1="-1.39931" x2="27.8736" y2="12.3139" gradientUnits="userSpaceOnUse">
<stop stop-color="#F40489"/>
<stop offset="0.479167" stop-color="#BF26F3"/>
<stop offset="0.59375" stop-color="#FFFDFF"/>
<stop offset="0.760417" stop-color="white" stop-opacity="0.810511"/>
<stop offset="0.9997" stop-color="white" stop-opacity="0.76906"/>
<stop offset="0.9998" stop-color="#FFF9F6" stop-opacity="0.538348"/>
<stop offset="0.9999" stop-color="#FFF9F5" stop-opacity="0.52"/>
<stop offset="1" stop-color="#FB914E"/>
</linearGradient>
<linearGradient id="paint1_linear_19_103" x1="0.279861" y1="-1.39931" x2="12.8736" y2="12.3139" gradientUnits="userSpaceOnUse">
<stop stop-color="#F40489"/>
<stop offset="0.479167" stop-color="#BF26F3"/>
<stop offset="1" stop-color="#FB914E"/>
</linearGradient>
</defs>
</svg>
