<svg width="117" height="15" viewBox="0 0 117 15" fill="none" xmlns="http://www.w3.org/2000/svg">
<path d="M14.5605 14.1211H0.439453C0.196553 14.1211 0 14.3176 0 14.5605C0 14.8034 0.196553 15 0.439453 15H14.5605C14.8034 15 15 14.8034 15 14.5605C15 14.3176 14.8034 14.1211 14.5605 14.1211Z" fill="url(#paint0_linear_19_100)"/>
<path d="M3.98438 7.06055H1.31836C1.07546 7.06055 0.878906 7.2571 0.878906 7.5V9.69727H4.42383V7.5C4.42383 7.2571 4.22728 7.06055 3.98438 7.06055Z" fill="url(#paint1_linear_19_100)"/>
<path d="M4.42383 10.5762H0.878906V13.2422H4.42383V10.5762Z" fill="url(#paint2_linear_19_100)"/>
<path d="M8.81836 3.54492H6.18164C5.93874 3.54492 5.74219 3.74147 5.74219 3.98438V9.69727H9.25781V3.98438C9.25781 3.74147 9.06126 3.54492 8.81836 3.54492Z" fill="url(#paint3_linear_19_100)"/>
<path d="M9.25781 10.5762H5.74219V13.2422H9.25781V10.5762Z" fill="url(#paint4_linear_19_100)"/>
<path d="M13.6816 0H11.0156C10.7727 0 10.5762 0.196553 10.5762 0.439453V4.42383H14.1211V0.439453C14.1211 0.196553 13.9245 0 13.6816 0Z" fill="url(#paint5_linear_19_100)"/>
<path d="M14.1211 5.30273H10.5762V13.2422H14.1211V5.30273Z" fill="url(#paint6_linear_19_100)"/>
<path d="M48.5605 14.1211H34.4395C34.1966 14.1211 34 14.3176 34 14.5605C34 14.8034 34.1966 15 34.4395 15H48.5605C48.8034 15 49 14.8034 49 14.5605C49 14.3176 48.8034 14.1211 48.5605 14.1211Z" fill="url(#paint7_linear_19_100)"/>
<path d="M37.9844 7.06055H35.3184C35.0755 7.06055 34.8789 7.2571 34.8789 7.5V9.69727H38.4238V7.5C38.4238 7.2571 38.2273 7.06055 37.9844 7.06055Z" fill="url(#paint8_linear_19_100)"/>
<path d="M38.4238 10.5762H34.8789V13.2422H38.4238V10.5762Z" fill="url(#paint9_linear_19_100)"/>
<path d="M42.8184 3.54492H40.1816C39.9387 3.54492 39.7422 3.74147 39.7422 3.98438V9.69727H43.2578V3.98438C43.2578 3.74147 43.0613 3.54492 42.8184 3.54492Z" fill="url(#paint10_linear_19_100)"/>
<path d="M43.2578 10.5762H39.7422V13.2422H43.2578V10.5762Z" fill="url(#paint11_linear_19_100)"/>
<path d="M47.6816 0H45.0156C44.7727 0 44.5762 0.196553 44.5762 0.439453V4.42383H48.1211V0.439453C48.1211 0.196553 47.9245 0 47.6816 0Z" fill="url(#paint12_linear_19_100)"/>
<path d="M48.1211 5.30273H44.5762V13.2422H48.1211V5.30273Z" fill="url(#paint13_linear_19_100)"/>
<path d="M31.5605 14.1211H17.4395C17.1966 14.1211 17 14.3176 17 14.5605C17 14.8034 17.1966 15 17.4395 15H31.5605C31.8034 15 32 14.8034 32 14.5605C32 14.3176 31.8034 14.1211 31.5605 14.1211Z" fill="url(#paint14_linear_19_100)"/>
<path d="M20.9844 7.06055H18.3184C18.0755 7.06055 17.8789 7.2571 17.8789 7.5V9.69727H21.4238V7.5C21.4238 7.2571 21.2273 7.06055 20.9844 7.06055Z" fill="url(#paint15_linear_19_100)"/>
<path d="M21.4238 10.5762H17.8789V13.2422H21.4238V10.5762Z" fill="url(#paint16_linear_19_100)"/>
<path d="M25.8184 3.54492H23.1816C22.9387 3.54492 22.7422 3.74147 22.7422 3.98438V9.69727H26.2578V3.98438C26.2578 3.74147 26.0613 3.54492 25.8184 3.54492Z" fill="url(#paint17_linear_19_100)"/>
<path d="M26.2578 10.5762H22.7422V13.2422H26.2578V10.5762Z" fill="url(#paint18_linear_19_100)"/>
<path d="M30.6816 0H28.0156C27.7727 0 27.5762 0.196553 27.5762 0.439453V4.42383H31.1211V0.439453C31.1211 0.196553 30.9245 0 30.6816 0Z" fill="url(#paint19_linear_19_100)"/>
<path d="M31.1211 5.30273H27.5762V13.2422H31.1211V5.30273Z" fill="url(#paint20_linear_19_100)"/>
<path d="M65.5605 14.1211H51.4395C51.1966 14.1211 51 14.3176 51 14.5605C51 14.8034 51.1966 15 51.4395 15H65.5605C65.8034 15 66 14.8034 66 14.5605C66 14.3176 65.8034 14.1211 65.5605 14.1211Z" fill="url(#paint21_linear_19_100)"/>
<path d="M54.9844 7.06055H52.3184C52.0755 7.06055 51.8789 7.2571 51.8789 7.5V9.69727H55.4238V7.5C55.4238 7.2571 55.2273 7.06055 54.9844 7.06055Z" fill="url(#paint22_linear_19_100)"/>
<path d="M55.4238 10.5762H51.8789V13.2422H55.4238V10.5762Z" fill="url(#paint23_linear_19_100)"/>
<path d="M59.8184 3.54492H57.1816C56.9387 3.54492 56.7422 3.74147 56.7422 3.98438V9.69727H60.2578V3.98438C60.2578 3.74147 60.0613 3.54492 59.8184 3.54492Z" fill="url(#paint24_linear_19_100)"/>
<path d="M60.2578 10.5762H56.7422V13.2422H60.2578V10.5762Z" fill="url(#paint25_linear_19_100)"/>
<path d="M64.6816 0H62.0156C61.7727 0 61.5762 0.196553 61.5762 0.439453V4.42383H65.1211V0.439453C65.1211 0.196553 64.9245 0 64.6816 0Z" fill="url(#paint26_linear_19_100)"/>
<path d="M65.1211 5.30273H61.5762V13.2422H65.1211V5.30273Z" fill="url(#paint27_linear_19_100)"/>
<path d="M82.5605 14.1211H68.4395C68.1966 14.1211 68 14.3176 68 14.5605C68 14.8034 68.1966 15 68.4395 15H82.5605C82.8034 15 83 14.8034 83 14.5605C83 14.3176 82.8034 14.1211 82.5605 14.1211Z" fill="url(#paint28_linear_19_100)"/>
<path d="M71.9844 7.06055H69.3184C69.0755 7.06055 68.8789 7.2571 68.8789 7.5V9.69727H72.4238V7.5C72.4238 7.2571 72.2273 7.06055 71.9844 7.06055Z" fill="url(#paint29_linear_19_100)"/>
<path d="M72.4238 10.5762H68.8789V13.2422H72.4238V10.5762Z" fill="url(#paint30_linear_19_100)"/>
<path d="M76.8184 3.54492H74.1816C73.9387 3.54492 73.7422 3.74147 73.7422 3.98438V9.69727H77.2578V3.98438C77.2578 3.74147 77.0613 3.54492 76.8184 3.54492Z" fill="url(#paint31_linear_19_100)"/>
<path d="M77.2578 10.5762H73.7422V13.2422H77.2578V10.5762Z" fill="url(#paint32_linear_19_100)"/>
<path d="M81.6816 0H79.0156C78.7727 0 78.5762 0.196553 78.5762 0.439453V4.42383H82.1211V0.439453C82.1211 0.196553 81.9245 0 81.6816 0Z" fill="url(#paint33_linear_19_100)"/>
<path d="M82.1211 5.30273H78.5762V13.2422H82.1211V5.30273Z" fill="url(#paint34_linear_19_100)"/>
<path d="M99.5605 14.1211H85.4395C85.1966 14.1211 85 14.3176 85 14.5605C85 14.8034 85.1966 15 85.4395 15H99.5605C99.8034 15 100 14.8034 100 14.5605C100 14.3176 99.8034 14.1211 99.5605 14.1211Z" fill="url(#paint35_linear_19_100)"/>
<path d="M88.9844 7.06055H86.3184C86.0755 7.06055 85.8789 7.2571 85.8789 7.5V9.69727H89.4238V7.5C89.4238 7.2571 89.2273 7.06055 88.9844 7.06055Z" fill="url(#paint36_linear_19_100)"/>
<path d="M89.4238 10.5762H85.8789V13.2422H89.4238V10.5762Z" fill="url(#paint37_linear_19_100)"/>
<path d="M93.8184 3.54492H91.1816C90.9387 3.54492 90.7422 3.74147 90.7422 3.98438V9.69727H94.2578V3.98438C94.2578 3.74147 94.0613 3.54492 93.8184 3.54492Z" fill="url(#paint38_linear_19_100)"/>
<path d="M94.2578 10.5762H90.7422V13.2422H94.2578V10.5762Z" fill="url(#paint39_linear_19_100)"/>
<path d="M98.6816 0H96.0156C95.7727 0 95.5762 0.196553 95.5762 0.439453V4.42383H99.1211V0.439453C99.1211 0.196553 98.9245 0 98.6816 0Z" fill="url(#paint40_linear_19_100)"/>
<path d="M99.1211 5.30273H95.5762V13.2422H99.1211V5.30273Z" fill="url(#paint41_linear_19_100)"/>
<path d="M116.561 14.1211H102.439C102.197 14.1211 102 14.3176 102 14.5605C102 14.8034 102.197 15 102.439 15H116.561C116.803 15 117 14.8034 117 14.5605C117 14.3176 116.803 14.1211 116.561 14.1211Z" fill="white"/>
<path d="M105.984 7.06055H103.318C103.075 7.06055 102.879 7.2571 102.879 7.5V9.69727H106.424V7.5C106.424 7.2571 106.227 7.06055 105.984 7.06055Z" fill="white"/>
<path d="M106.424 10.5762H102.879V13.2422H106.424V10.5762Z" fill="white"/>
<path d="M110.818 3.54492H108.182C107.939 3.54492 107.742 3.74147 107.742 3.98438V9.69727H111.258V3.98438C111.258 3.74147 111.061 3.54492 110.818 3.54492Z" fill="white"/>
<path d="M111.258 10.5762H107.742V13.2422H111.258V10.5762Z" fill="white"/>
<path d="M115.682 0H113.016C112.773 0 112.576 0.196553 112.576 0.439453V4.42383H116.121V0.439453C116.121 0.196553 115.925 0 115.682 0Z" fill="white"/>
<path d="M116.121 5.30273H112.576V13.2422H116.121V5.30273Z" fill="white"/>
<defs>
<linearGradient id="paint0_linear_19_100" x1="2.1875" y1="5" x2="13.125" y2="13.75" gradientUnits="userSpaceOnUse">
<stop stop-color="#F40489"/>
<stop offset="0.479167" stop-color="#BE26F3"/>
<stop offset="0.96468" stop-color="#FC9B4A"/>
</linearGradient>
<linearGradient id="paint1_linear_19_100" x1="2.1875" y1="5" x2="13.125" y2="13.75" gradientUnits="userSpaceOnUse">
<stop stop-color="#F40489"/>
<stop offset="0.479167" stop-color="#BE26F3"/>
<stop offset="0.96468" stop-color="#FC9B4A"/>
</linearGradient>
<linearGradient id="paint2_linear_19_100" x1="2.1875" y1="5" x2="13.125" y2="13.75" gradientUnits="userSpaceOnUse">
<stop stop-color="#F40489"/>
<stop offset="0.479167" stop-color="#BE26F3"/>
<stop offset="0.96468" stop-color="#FC9B4A"/>
</linearGradient>
<linearGradient id="paint3_linear_19_100" x1="2.1875" y1="5" x2="13.125" y2="13.75" gradientUnits="userSpaceOnUse">
<stop stop-color="#F40489"/>
<stop offset="0.479167" stop-color="#BE26F3"/>
<stop offset="0.96468" stop-color="#FC9B4A"/>
</linearGradient>
<linearGradient id="paint4_linear_19_100" x1="2.1875" y1="5" x2="13.125" y2="13.75" gradientUnits="userSpaceOnUse">
<stop stop-color="#F40489"/>
<stop offset="0.479167" stop-color="#BE26F3"/>
<stop offset="0.96468" stop-color="#FC9B4A"/>
</linearGradient>
<linearGradient id="paint5_linear_19_100" x1="2.1875" y1="5" x2="13.125" y2="13.75" gradientUnits="userSpaceOnUse">
<stop stop-color="#F40489"/>
<stop offset="0.479167" stop-color="#BE26F3"/>
<stop offset="0.96468" stop-color="#FC9B4A"/>
</linearGradient>
<linearGradient id="paint6_linear_19_100" x1="2.1875" y1="5" x2="13.125" y2="13.75" gradientUnits="userSpaceOnUse">
<stop stop-color="#F40489"/>
<stop offset="0.479167" stop-color="#BE26F3"/>
<stop offset="0.96468" stop-color="#FC9B4A"/>
</linearGradient>
<linearGradient id="paint7_linear_19_100" x1="34" y1="0" x2="49" y2="0" gradientUnits="userSpaceOnUse">
<stop stop-color="#F40489"/>
<stop offset="0.479067" stop-color="white"/>
<stop offset="0.479167" stop-color="#FEFBFF"/>
<stop offset="0.578125" stop-color="#FFFDFF"/>
<stop offset="0.96468" stop-color="#FC9B4A"/>
</linearGradient>
<linearGradient id="paint8_linear_19_100" x1="34" y1="0" x2="49" y2="0" gradientUnits="userSpaceOnUse">
<stop stop-color="#F40489"/>
<stop offset="0.479067" stop-color="white"/>
<stop offset="0.479167" stop-color="#FEFBFF"/>
<stop offset="0.578125" stop-color="#FFFDFF"/>
<stop offset="0.96468" stop-color="#FC9B4A"/>
</linearGradient>
<linearGradient id="paint9_linear_19_100" x1="34" y1="0" x2="49" y2="0" gradientUnits="userSpaceOnUse">
<stop stop-color="#F40489"/>
<stop offset="0.479067" stop-color="white"/>
<stop offset="0.479167" stop-color="#FEFBFF"/>
<stop offset="0.578125" stop-color="#FFFDFF"/>
<stop offset="0.96468" stop-color="#FC9B4A"/>
</linearGradient>
<linearGradient id="paint10_linear_19_100" x1="34" y1="0" x2="49" y2="0" gradientUnits="userSpaceOnUse">
<stop stop-color="#F40489"/>
<stop offset="0.479067" stop-color="white"/>
<stop offset="0.479167" stop-color="#FEFBFF"/>
<stop offset="0.578125" stop-color="#FFFDFF"/>
<stop offset="0.96468" stop-color="#FC9B4A"/>
</linearGradient>
<linearGradient id="paint11_linear_19_100" x1="34" y1="0" x2="49" y2="0" gradientUnits="userSpaceOnUse">
<stop stop-color="#F40489"/>
<stop offset="0.479067" stop-color="white"/>
<stop offset="0.479167" stop-color="#FEFBFF"/>
<stop offset="0.578125" stop-color="#FFFDFF"/>
<stop offset="0.96468" stop-color="#FC9B4A"/>
</linearGradient>
<linearGradient id="paint12_linear_19_100" x1="34" y1="0" x2="49" y2="0" gradientUnits="userSpaceOnUse">
<stop stop-color="#F40489"/>
<stop offset="0.479067" stop-color="white"/>
<stop offset="0.479167" stop-color="#FEFBFF"/>
<stop offset="0.578125" stop-color="#FFFDFF"/>
<stop offset="0.96468" stop-color="#FC9B4A"/>
</linearGradient>
<linearGradient id="paint13_linear_19_100" x1="34" y1="0" x2="49" y2="0" gradientUnits="userSpaceOnUse">
<stop stop-color="#F40489"/>
<stop offset="0.479067" stop-color="white"/>
<stop offset="0.479167" stop-color="#FEFBFF"/>
<stop offset="0.578125" stop-color="#FFFDFF"/>
<stop offset="0.96468" stop-color="#FC9B4A"/>
</linearGradient>
<linearGradient id="paint14_linear_19_100" x1="18" y1="0" x2="33" y2="0" gradientUnits="userSpaceOnUse">
<stop stop-color="#F40489"/>
<stop offset="0.0260417" stop-color="#F1068F"/>
<stop offset="0.234375" stop-color="#DA15BD"/>
<stop offset="0.255208" stop-color="#D716C1"/>
<stop offset="0.291667" stop-color="#D319CA"/>
<stop offset="0.645833" stop-color="#FFF9FC"/>
<stop offset="0.755108" stop-color="#FFFEFF"/>
<stop offset="0.96468" stop-color="#FFFDFB"/>
</linearGradient>
<linearGradient id="paint15_linear_19_100" x1="18" y1="0" x2="33" y2="0" gradientUnits="userSpaceOnUse">
<stop stop-color="#F40489"/>
<stop offset="0.0260417" stop-color="#F1068F"/>
<stop offset="0.234375" stop-color="#DA15BD"/>
<stop offset="0.255208" stop-color="#D716C1"/>
<stop offset="0.291667" stop-color="#D319CA"/>
<stop offset="0.645833" stop-color="#FFF9FC"/>
<stop offset="0.755108" stop-color="#FFFEFF"/>
<stop offset="0.96468" stop-color="#FFFDFB"/>
</linearGradient>
<linearGradient id="paint16_linear_19_100" x1="18" y1="0" x2="33" y2="0" gradientUnits="userSpaceOnUse">
<stop stop-color="#F40489"/>
<stop offset="0.0260417" stop-color="#F1068F"/>
<stop offset="0.234375" stop-color="#DA15BD"/>
<stop offset="0.255208" stop-color="#D716C1"/>
<stop offset="0.291667" stop-color="#D319CA"/>
<stop offset="0.645833" stop-color="#FFF9FC"/>
<stop offset="0.755108" stop-color="#FFFEFF"/>
<stop offset="0.96468" stop-color="#FFFDFB"/>
</linearGradient>
<linearGradient id="paint17_linear_19_100" x1="18" y1="0" x2="33" y2="0" gradientUnits="userSpaceOnUse">
<stop stop-color="#F40489"/>
<stop offset="0.0260417" stop-color="#F1068F"/>
<stop offset="0.234375" stop-color="#DA15BD"/>
<stop offset="0.255208" stop-color="#D716C1"/>
<stop offset="0.291667" stop-color="#D319CA"/>
<stop offset="0.645833" stop-color="#FFF9FC"/>
<stop offset="0.755108" stop-color="#FFFEFF"/>
<stop offset="0.96468" stop-color="#FFFDFB"/>
</linearGradient>
<linearGradient id="paint18_linear_19_100" x1="18" y1="0" x2="33" y2="0" gradientUnits="userSpaceOnUse">
<stop stop-color="#F40489"/>
<stop offset="0.0260417" stop-color="#F1068F"/>
<stop offset="0.234375" stop-color="#DA15BD"/>
<stop offset="0.255208" stop-color="#D716C1"/>
<stop offset="0.291667" stop-color="#D319CA"/>
<stop offset="0.645833" stop-color="#FFF9FC"/>
<stop offset="0.755108" stop-color="#FFFEFF"/>
<stop offset="0.96468" stop-color="#FFFDFB"/>
</linearGradient>
<linearGradient id="paint19_linear_19_100" x1="18" y1="0" x2="33" y2="0" gradientUnits="userSpaceOnUse">
<stop stop-color="#F40489"/>
<stop offset="0.0260417" stop-color="#F1068F"/>
<stop offset="0.234375" stop-color="#DA15BD"/>
<stop offset="0.255208" stop-color="#D716C1"/>
<stop offset="0.291667" stop-color="#D319CA"/>
<stop offset="0.645833" stop-color="#FFF9FC"/>
<stop offset="0.755108" stop-color="#FFFEFF"/>
<stop offset="0.96468" stop-color="#FFFDFB"/>
</linearGradient>
<linearGradient id="paint20_linear_19_100" x1="18" y1="0" x2="33" y2="0" gradientUnits="userSpaceOnUse">
<stop stop-color="#F40489"/>
<stop offset="0.0260417" stop-color="#F1068F"/>
<stop offset="0.234375" stop-color="#DA15BD"/>
<stop offset="0.255208" stop-color="#D716C1"/>
<stop offset="0.291667" stop-color="#D319CA"/>
<stop offset="0.645833" stop-color="#FFF9FC"/>
<stop offset="0.755108" stop-color="#FFFEFF"/>
<stop offset="0.96468" stop-color="#FFFDFB"/>
</linearGradient>
<linearGradient id="paint21_linear_19_100" x1="52" y1="0" x2="67" y2="0" gradientUnits="userSpaceOnUse">
<stop stop-color="#F40489"/>
<stop offset="0.0260417" stop-color="#F1068F"/>
<stop offset="0.234375" stop-color="#DA15BD"/>
<stop offset="0.255208" stop-color="#D716C1"/>
<stop offset="0.291667" stop-color="#FFFCFF"/>
<stop offset="0.645833" stop-color="#FFF9FC"/>
<stop offset="0.755108" stop-color="#FFFEFF"/>
<stop offset="0.96468" stop-color="#FFFDFB"/>
</linearGradient>
<linearGradient id="paint22_linear_19_100" x1="52" y1="0" x2="67" y2="0" gradientUnits="userSpaceOnUse">
<stop stop-color="#F40489"/>
<stop offset="0.0260417" stop-color="#F1068F"/>
<stop offset="0.234375" stop-color="#DA15BD"/>
<stop offset="0.255208" stop-color="#D716C1"/>
<stop offset="0.291667" stop-color="#FFFCFF"/>
<stop offset="0.645833" stop-color="#FFF9FC"/>
<stop offset="0.755108" stop-color="#FFFEFF"/>
<stop offset="0.96468" stop-color="#FFFDFB"/>
</linearGradient>
<linearGradient id="paint23_linear_19_100" x1="52" y1="0" x2="67" y2="0" gradientUnits="userSpaceOnUse">
<stop stop-color="#F40489"/>
<stop offset="0.0260417" stop-color="#F1068F"/>
<stop offset="0.234375" stop-color="#DA15BD"/>
<stop offset="0.255208" stop-color="#D716C1"/>
<stop offset="0.291667" stop-color="#FFFCFF"/>
<stop offset="0.645833" stop-color="#FFF9FC"/>
<stop offset="0.755108" stop-color="#FFFEFF"/>
<stop offset="0.96468" stop-color="#FFFDFB"/>
</linearGradient>
<linearGradient id="paint24_linear_19_100" x1="52" y1="0" x2="67" y2="0" gradientUnits="userSpaceOnUse">
<stop stop-color="#F40489"/>
<stop offset="0.0260417" stop-color="#F1068F"/>
<stop offset="0.234375" stop-color="#DA15BD"/>
<stop offset="0.255208" stop-color="#D716C1"/>
<stop offset="0.291667" stop-color="#FFFCFF"/>
<stop offset="0.645833" stop-color="#FFF9FC"/>
<stop offset="0.755108" stop-color="#FFFEFF"/>
<stop offset="0.96468" stop-color="#FFFDFB"/>
</linearGradient>
<linearGradient id="paint25_linear_19_100" x1="52" y1="0" x2="67" y2="0" gradientUnits="userSpaceOnUse">
<stop stop-color="#F40489"/>
<stop offset="0.0260417" stop-color="#F1068F"/>
<stop offset="0.234375" stop-color="#DA15BD"/>
<stop offset="0.255208" stop-color="#D716C1"/>
<stop offset="0.291667" stop-color="#FFFCFF"/>
<stop offset="0.645833" stop-color="#FFF9FC"/>
<stop offset="0.755108" stop-color="#FFFEFF"/>
<stop offset="0.96468" stop-color="#FFFDFB"/>
</linearGradient>
<linearGradient id="paint26_linear_19_100" x1="52" y1="0" x2="67" y2="0" gradientUnits="userSpaceOnUse">
<stop stop-color="#F40489"/>
<stop offset="0.0260417" stop-color="#F1068F"/>
<stop offset="0.234375" stop-color="#DA15BD"/>
<stop offset="0.255208" stop-color="#D716C1"/>
<stop offset="0.291667" stop-color="#FFFCFF"/>
<stop offset="0.645833" stop-color="#FFF9FC"/>
<stop offset="0.755108" stop-color="#FFFEFF"/>
<stop offset="0.96468" stop-color="#FFFDFB"/>
</linearGradient>
<linearGradient id="paint27_linear_19_100" x1="52" y1="0" x2="67" y2="0" gradientUnits="userSpaceOnUse">
<stop stop-color="#F40489"/>
<stop offset="0.0260417" stop-color="#F1068F"/>
<stop offset="0.234375" stop-color="#DA15BD"/>
<stop offset="0.255208" stop-color="#D716C1"/>
<stop offset="0.291667" stop-color="#FFFCFF"/>
<stop offset="0.645833" stop-color="#FFF9FC"/>
<stop offset="0.755108" stop-color="#FFFEFF"/>
<stop offset="0.96468" stop-color="#FFFDFB"/>
</linearGradient>
<linearGradient id="paint28_linear_19_100" x1="69" y1="0" x2="84" y2="0" gradientUnits="userSpaceOnUse">
<stop offset="0.234275" stop-color="white"/>
<stop offset="0.234375" stop-color="#DA15BD"/>
<stop offset="0.255208" stop-color="#D716C1"/>
<stop offset="0.291667" stop-color="#D319CA"/>
<stop offset="0.369792" stop-color="#DD4AD5"/>
<stop offset="0.645833" stop-color="#FFF9FC"/>
<stop offset="0.755108" stop-color="#FFFEFF"/>
<stop offset="0.96468" stop-color="#FFFDFB"/>
</linearGradient>
<linearGradient id="paint29_linear_19_100" x1="69" y1="0" x2="84" y2="0" gradientUnits="userSpaceOnUse">
<stop offset="0.234275" stop-color="white"/>
<stop offset="0.234375" stop-color="#DA15BD"/>
<stop offset="0.255208" stop-color="#D716C1"/>
<stop offset="0.291667" stop-color="#D319CA"/>
<stop offset="0.369792" stop-color="#DD4AD5"/>
<stop offset="0.645833" stop-color="#FFF9FC"/>
<stop offset="0.755108" stop-color="#FFFEFF"/>
<stop offset="0.96468" stop-color="#FFFDFB"/>
</linearGradient>
<linearGradient id="paint30_linear_19_100" x1="69" y1="0" x2="84" y2="0" gradientUnits="userSpaceOnUse">
<stop offset="0.234275" stop-color="white"/>
<stop offset="0.234375" stop-color="#DA15BD"/>
<stop offset="0.255208" stop-color="#D716C1"/>
<stop offset="0.291667" stop-color="#D319CA"/>
<stop offset="0.369792" stop-color="#DD4AD5"/>
<stop offset="0.645833" stop-color="#FFF9FC"/>
<stop offset="0.755108" stop-color="#FFFEFF"/>
<stop offset="0.96468" stop-color="#FFFDFB"/>
</linearGradient>
<linearGradient id="paint31_linear_19_100" x1="69" y1="0" x2="84" y2="0" gradientUnits="userSpaceOnUse">
<stop offset="0.234275" stop-color="white"/>
<stop offset="0.234375" stop-color="#DA15BD"/>
<stop offset="0.255208" stop-color="#D716C1"/>
<stop offset="0.291667" stop-color="#D319CA"/>
<stop offset="0.369792" stop-color="#DD4AD5"/>
<stop offset="0.645833" stop-color="#FFF9FC"/>
<stop offset="0.755108" stop-color="#FFFEFF"/>
<stop offset="0.96468" stop-color="#FFFDFB"/>
</linearGradient>
<linearGradient id="paint32_linear_19_100" x1="69" y1="0" x2="84" y2="0" gradientUnits="userSpaceOnUse">
<stop offset="0.234275" stop-color="white"/>
<stop offset="0.234375" stop-color="#DA15BD"/>
<stop offset="0.255208" stop-color="#D716C1"/>
<stop offset="0.291667" stop-color="#D319CA"/>
<stop offset="0.369792" stop-color="#DD4AD5"/>
<stop offset="0.645833" stop-color="#FFF9FC"/>
<stop offset="0.755108" stop-color="#FFFEFF"/>
<stop offset="0.96468" stop-color="#FFFDFB"/>
</linearGradient>
<linearGradient id="paint33_linear_19_100" x1="69" y1="0" x2="84" y2="0" gradientUnits="userSpaceOnUse">
<stop offset="0.234275" stop-color="white"/>
<stop offset="0.234375" stop-color="#DA15BD"/>
<stop offset="0.255208" stop-color="#D716C1"/>
<stop offset="0.291667" stop-color="#D319CA"/>
<stop offset="0.369792" stop-color="#DD4AD5"/>
<stop offset="0.645833" stop-color="#FFF9FC"/>
<stop offset="0.755108" stop-color="#FFFEFF"/>
<stop offset="0.96468" stop-color="#FFFDFB"/>
</linearGradient>
<linearGradient id="paint34_linear_19_100" x1="69" y1="0" x2="84" y2="0" gradientUnits="userSpaceOnUse">
<stop offset="0.234275" stop-color="white"/>
<stop offset="0.234375" stop-color="#DA15BD"/>
<stop offset="0.255208" stop-color="#D716C1"/>
<stop offset="0.291667" stop-color="#D319CA"/>
<stop offset="0.369792" stop-color="#DD4AD5"/>
<stop offset="0.645833" stop-color="#FFF9FC"/>
<stop offset="0.755108" stop-color="#FFFEFF"/>
<stop offset="0.96468" stop-color="#FFFDFB"/>
</linearGradient>
<linearGradient id="paint35_linear_19_100" x1="80.5" y1="3.5" x2="101.5" y2="3.5" gradientUnits="userSpaceOnUse">
<stop stop-color="#F40489"/>
<stop offset="0.0001" stop-color="#FEFDFF"/>
<stop offset="0.505208" stop-color="#FEFCFF"/>
<stop offset="0.682292" stop-color="#FFFDFF"/>
<stop offset="0.713542" stop-color="#C737DA"/>
<stop offset="0.744792" stop-color="#C839D8"/>
<stop offset="0.817708" stop-color="#E9787D"/>
<stop offset="0.859375" stop-color="#EF826F"/>
<stop offset="0.96468" stop-color="#FC9B4A"/>
</linearGradient>
<linearGradient id="paint36_linear_19_100" x1="80.5" y1="3.5" x2="101.5" y2="3.5" gradientUnits="userSpaceOnUse">
<stop stop-color="#F40489"/>
<stop offset="0.0001" stop-color="#FEFDFF"/>
<stop offset="0.505208" stop-color="#FEFCFF"/>
<stop offset="0.682292" stop-color="#FFFDFF"/>
<stop offset="0.713542" stop-color="#C737DA"/>
<stop offset="0.744792" stop-color="#C839D8"/>
<stop offset="0.817708" stop-color="#E9787D"/>
<stop offset="0.859375" stop-color="#EF826F"/>
<stop offset="0.96468" stop-color="#FC9B4A"/>
</linearGradient>
<linearGradient id="paint37_linear_19_100" x1="80.5" y1="3.5" x2="101.5" y2="3.5" gradientUnits="userSpaceOnUse">
<stop stop-color="#F40489"/>
<stop offset="0.0001" stop-color="#FEFDFF"/>
<stop offset="0.505208" stop-color="#FEFCFF"/>
<stop offset="0.682292" stop-color="#FFFDFF"/>
<stop offset="0.713542" stop-color="#C737DA"/>
<stop offset="0.744792" stop-color="#C839D8"/>
<stop offset="0.817708" stop-color="#E9787D"/>
<stop offset="0.859375" stop-color="#EF826F"/>
<stop offset="0.96468" stop-color="#FC9B4A"/>
</linearGradient>
<linearGradient id="paint38_linear_19_100" x1="80.5" y1="3.5" x2="101.5" y2="3.5" gradientUnits="userSpaceOnUse">
<stop stop-color="#F40489"/>
<stop offset="0.0001" stop-color="#FEFDFF"/>
<stop offset="0.505208" stop-color="#FEFCFF"/>
<stop offset="0.682292" stop-color="#FFFDFF"/>
<stop offset="0.713542" stop-color="#C737DA"/>
<stop offset="0.744792" stop-color="#C839D8"/>
<stop offset="0.817708" stop-color="#E9787D"/>
<stop offset="0.859375" stop-color="#EF826F"/>
<stop offset="0.96468" stop-color="#FC9B4A"/>
</linearGradient>
<linearGradient id="paint39_linear_19_100" x1="80.5" y1="3.5" x2="101.5" y2="3.5" gradientUnits="userSpaceOnUse">
<stop stop-color="#F40489"/>
<stop offset="0.0001" stop-color="#FEFDFF"/>
<stop offset="0.505208" stop-color="#FEFCFF"/>
<stop offset="0.682292" stop-color="#FFFDFF"/>
<stop offset="0.713542" stop-color="#C737DA"/>
<stop offset="0.744792" stop-color="#C839D8"/>
<stop offset="0.817708" stop-color="#E9787D"/>
<stop offset="0.859375" stop-color="#EF826F"/>
<stop offset="0.96468" stop-color="#FC9B4A"/>
</linearGradient>
<linearGradient id="paint40_linear_19_100" x1="80.5" y1="3.5" x2="101.5" y2="3.5" gradientUnits="userSpaceOnUse">
<stop stop-color="#F40489"/>
<stop offset="0.0001" stop-color="#FEFDFF"/>
<stop offset="0.505208" stop-color="#FEFCFF"/>
<stop offset="0.682292" stop-color="#FFFDFF"/>
<stop offset="0.713542" stop-color="#C737DA"/>
<stop offset="0.744792" stop-color="#C839D8"/>
<stop offset="0.817708" stop-color="#E9787D"/>
<stop offset="0.859375" stop-color="#EF826F"/>
<stop offset="0.96468" stop-color="#FC9B4A"/>
</linearGradient>
<linearGradient id="paint41_linear_19_100" x1="80.5" y1="3.5" x2="101.5" y2="3.5" gradientUnits="userSpaceOnUse">
<stop stop-color="#F40489"/>
<stop offset="0.0001" stop-color="#FEFDFF"/>
<stop offset="0.505208" stop-color="#FEFCFF"/>
<stop offset="0.682292" stop-color="#FFFDFF"/>
<stop offset="0.713542" stop-color="#C737DA"/>
<stop offset="0.744792" stop-color="#C839D8"/>
<stop offset="0.817708" stop-color="#E9787D"/>
<stop offset="0.859375" stop-color="#EF826F"/>
<stop offset="0.96468" stop-color="#FC9B4A"/>
</linearGradient>
</defs>
</svg>
