<svg width="68" height="14" viewBox="0 0 68 14" fill="none" xmlns="http://www.w3.org/2000/svg">
<path d="M12.0598 1.21291C10.8483 0.182527 8.93189 0.007865 8.84986 0.00158195C8.72266 -0.00972702 8.60139 0.0656668 8.54908 0.190066C8.54433 0.197606 8.50272 0.299387 8.45635 0.457714C9.25764 0.600962 10.242 0.888714 11.1325 1.47301C11.2751 1.566 11.3191 1.76454 11.2311 1.91532C11.1729 2.01459 11.0742 2.06863 10.972 2.06863C10.9173 2.06863 10.8614 2.05229 10.8115 2.01962C9.28023 1.01563 7.36855 0.965364 7 0.965364C6.63145 0.965364 4.71858 1.01563 3.18852 2.01962C3.04586 2.11386 2.85802 2.06737 2.77004 1.91658C2.68088 1.76454 2.72486 1.56726 2.86753 1.47301C3.75798 0.889971 4.74236 0.600962 5.54365 0.45897C5.49728 0.299387 5.45567 0.198862 5.45211 0.190066C5.39861 0.0656668 5.27853 -0.01224 5.15014 0.00158195C5.0681 0.007865 3.15166 0.182527 1.92357 1.22673C1.28278 1.85375 0 5.51788 0 8.68567C0 8.74222 0.0142663 8.79625 0.0404213 8.84526C0.924932 10.4888 3.3395 10.9186 3.88995 10.9374C3.89232 10.9374 3.89589 10.9374 3.89946 10.9374C3.99694 10.9374 4.08848 10.8884 4.14555 10.8055L4.70194 9.99627C3.20041 9.58663 2.43359 8.89049 2.38961 8.84903C2.26359 8.73217 2.2517 8.5286 2.36345 8.39541C2.47401 8.26221 2.66661 8.24965 2.79263 8.36651C2.81046 8.3841 4.22283 9.65071 7 9.65071C9.78193 9.65071 11.1943 8.37907 11.2086 8.36651C11.3346 8.2509 11.526 8.26221 11.6377 8.39667C11.7483 8.52986 11.7364 8.73217 11.6104 8.84903C11.5664 8.89049 10.7996 9.58663 9.29806 9.99627L9.85445 10.8055C9.91151 10.8884 10.0031 10.9374 10.1005 10.9374C10.1041 10.9374 10.1077 10.9374 10.1101 10.9374C10.6605 10.9186 13.0751 10.4888 13.9596 8.84526C13.9857 8.79625 14 8.74222 14 8.68567C14 5.51788 12.7172 1.85375 12.0598 1.21291ZM5.02174 7.39896C4.43325 7.39896 3.95652 6.82345 3.95652 6.11224C3.95652 5.40102 4.43325 4.82552 5.02174 4.82552C5.61022 4.82552 6.08696 5.40102 6.08696 6.11224C6.08696 6.82345 5.61022 7.39896 5.02174 7.39896ZM8.97826 7.39896C8.38978 7.39896 7.91304 6.82345 7.91304 6.11224C7.91304 5.40102 8.38978 4.82552 8.97826 4.82552C9.56675 4.82552 10.0435 5.40102 10.0435 6.11224C10.0435 6.82345 9.56675 7.39896 8.97826 7.39896Z" fill="url(#paint0_linear_18_67)"/>
<ellipse cx="7.37712" cy="10.9376" rx="2.89747" ry="3.06248" fill="#0D0027"/>
<path d="M7.37703 8.74996C6.23408 8.74996 5.3074 9.72941 5.3074 10.9374C5.3074 12.1455 6.23408 13.1249 7.37703 13.1249C8.51998 13.1249 9.44665 12.1455 9.44665 10.9374C9.44665 9.72941 8.51998 8.74996 7.37703 8.74996ZM8.41184 11.1197H7.5495V12.0312C7.5495 12.132 7.47223 12.2135 7.37703 12.2135C7.28182 12.2135 7.20456 12.132 7.20456 12.0312V11.1197H6.34222C6.24701 11.1197 6.16975 11.0383 6.16975 10.9374C6.16975 10.8366 6.24701 10.7552 6.34222 10.7552H7.20456V9.8437C7.20456 9.7429 7.28182 9.66141 7.37703 9.66141C7.47223 9.66141 7.5495 9.7429 7.5495 9.8437V10.7552H8.41184C8.50704 10.7552 8.58431 10.8366 8.58431 10.9374C8.58431 11.0383 8.50704 11.1197 8.41184 11.1197Z" fill="url(#paint1_linear_18_67)"/>
<path d="M48.0598 1.2129C46.8483 0.182526 44.9319 0.00786496 44.8499 0.00158194C44.7227 -0.00972698 44.6014 0.0656665 44.5491 0.190066C44.5443 0.197605 44.5027 0.299386 44.4564 0.457712C45.2576 0.600959 46.242 0.88871 47.1325 1.47301C47.2751 1.56599 47.3191 1.76453 47.2311 1.91532C47.1729 2.01458 47.0742 2.06862 46.972 2.06862C46.9173 2.06862 46.8614 2.05228 46.8115 2.01961C45.2802 1.01562 43.3685 0.96536 43 0.96536C42.6315 0.96536 40.7186 1.01562 39.1885 2.01961C39.0459 2.11385 38.858 2.06736 38.77 1.91657C38.6809 1.76453 38.7249 1.56725 38.8675 1.47301C39.758 0.889967 40.7424 0.600959 41.5436 0.458968C41.4973 0.299386 41.4557 0.198862 41.4521 0.190066C41.3986 0.0656665 41.2785 -0.0122399 41.1501 0.00158194C41.0681 0.00786496 39.1517 0.182526 37.9236 1.22672C37.2828 1.85375 36 5.51786 36 8.68564C36 8.74218 36.0143 8.79622 36.0404 8.84522C36.9249 10.4888 39.3395 10.9185 39.8899 10.9374C39.8923 10.9374 39.8959 10.9374 39.8995 10.9374C39.9969 10.9374 40.0885 10.8884 40.1456 10.8054L40.7019 9.99623C39.2004 9.58659 38.4336 8.89046 38.3896 8.84899C38.2636 8.73213 38.2517 8.52857 38.3635 8.39537C38.474 8.26218 38.6666 8.24961 38.7926 8.36647C38.8105 8.38406 40.2228 9.65067 43 9.65067C45.7819 9.65067 47.1943 8.37904 47.2086 8.36647C47.3346 8.25087 47.526 8.26218 47.6377 8.39663C47.7483 8.52983 47.7364 8.73213 47.6104 8.84899C47.5664 8.89046 46.7996 9.58659 45.2981 9.99623L45.8545 10.8054C45.9115 10.8884 46.0031 10.9374 46.1005 10.9374C46.1041 10.9374 46.1077 10.9374 46.1101 10.9374C46.6605 10.9185 49.0751 10.4888 49.9596 8.84522C49.9857 8.79622 50 8.74218 50 8.68564C50 5.51786 48.7172 1.85375 48.0598 1.2129ZM41.0217 7.39893C40.4333 7.39893 39.9565 6.82342 39.9565 6.11221C39.9565 5.401 40.4333 4.8255 41.0217 4.8255C41.6102 4.8255 42.087 5.401 42.087 6.11221C42.087 6.82342 41.6102 7.39893 41.0217 7.39893ZM44.9783 7.39893C44.3898 7.39893 43.913 6.82342 43.913 6.11221C43.913 5.401 44.3898 4.8255 44.9783 4.8255C45.5667 4.8255 46.0435 5.401 46.0435 6.11221C46.0435 6.82342 45.5667 7.39893 44.9783 7.39893Z" fill="white"/>
<ellipse cx="43.3771" cy="10.9375" rx="2.89747" ry="3.06246" fill="#0D0027"/>
<path d="M43.377 8.74993C42.234 8.74993 41.3074 9.72937 41.3074 10.9374C41.3074 12.1454 42.234 13.1249 43.377 13.1249C44.5199 13.1249 45.4466 12.1454 45.4466 10.9374C45.4466 9.72937 44.5199 8.74993 43.377 8.74993ZM44.4118 11.1197H43.5495V12.0311C43.5495 12.1319 43.4722 12.2134 43.377 12.2134C43.2818 12.2134 43.2045 12.1319 43.2045 12.0311V11.1197H42.3422C42.247 11.1197 42.1697 11.0382 42.1697 10.9374C42.1697 10.8366 42.247 10.7551 42.3422 10.7551H43.2045V9.84367C43.2045 9.74286 43.2818 9.66138 43.377 9.66138C43.4722 9.66138 43.5495 9.74286 43.5495 9.84367V10.7551H44.4118C44.507 10.7551 44.5843 10.8366 44.5843 10.9374C44.5843 11.0382 44.507 11.1197 44.4118 11.1197Z" fill="url(#paint2_linear_18_67)"/>
<path d="M30.0598 1.21291C28.8483 0.182527 26.9319 0.007865 26.8499 0.00158195C26.7227 -0.00972702 26.6014 0.0656668 26.5491 0.190066C26.5443 0.197606 26.5027 0.299387 26.4564 0.457714C27.2576 0.600962 28.242 0.888714 29.1325 1.47301C29.2751 1.566 29.3191 1.76454 29.2311 1.91532C29.1729 2.01459 29.0742 2.06863 28.972 2.06863C28.9173 2.06863 28.8614 2.05229 28.8115 2.01962C27.2802 1.01563 25.3685 0.965364 25 0.965364C24.6315 0.965364 22.7186 1.01563 21.1885 2.01962C21.0459 2.11386 20.858 2.06737 20.77 1.91658C20.6809 1.76454 20.7249 1.56726 20.8675 1.47301C21.758 0.889971 22.7424 0.600962 23.5436 0.45897C23.4973 0.299387 23.4557 0.198862 23.4521 0.190066C23.3986 0.0656668 23.2785 -0.01224 23.1501 0.00158195C23.0681 0.007865 21.1517 0.182527 19.9236 1.22673C19.2828 1.85375 18 5.51788 18 8.68567C18 8.74222 18.0143 8.79625 18.0404 8.84526C18.9249 10.4888 21.3395 10.9186 21.8899 10.9374C21.8923 10.9374 21.8959 10.9374 21.8995 10.9374C21.9969 10.9374 22.0885 10.8884 22.1456 10.8055L22.7019 9.99627C21.2004 9.58663 20.4336 8.89049 20.3896 8.84903C20.2636 8.73217 20.2517 8.5286 20.3635 8.39541C20.474 8.26221 20.6666 8.24965 20.7926 8.36651C20.8105 8.3841 22.2228 9.65071 25 9.65071C27.7819 9.65071 29.1943 8.37907 29.2086 8.36651C29.3346 8.2509 29.526 8.26221 29.6377 8.39667C29.7483 8.52986 29.7364 8.73217 29.6104 8.84903C29.5664 8.89049 28.7996 9.58663 27.2981 9.99627L27.8544 10.8055C27.9115 10.8884 28.0031 10.9374 28.1005 10.9374C28.1041 10.9374 28.1077 10.9374 28.1101 10.9374C28.6605 10.9186 31.0751 10.4888 31.9596 8.84526C31.9857 8.79625 32 8.74222 32 8.68567C32 5.51788 30.7172 1.85375 30.0598 1.21291ZM23.0217 7.39896C22.4333 7.39896 21.9565 6.82345 21.9565 6.11224C21.9565 5.40102 22.4333 4.82552 23.0217 4.82552C23.6102 4.82552 24.087 5.40102 24.087 6.11224C24.087 6.82345 23.6102 7.39896 23.0217 7.39896ZM26.9783 7.39896C26.3898 7.39896 25.913 6.82345 25.913 6.11224C25.913 5.40102 26.3898 4.82552 26.9783 4.82552C27.5667 4.82552 28.0435 5.40102 28.0435 6.11224C28.0435 6.82345 27.5667 7.39896 26.9783 7.39896Z" fill="url(#paint3_linear_18_67)"/>
<ellipse cx="25.3771" cy="10.9376" rx="2.89747" ry="3.06248" fill="#0D0027"/>
<path d="M25.377 8.74996C24.234 8.74996 23.3074 9.72941 23.3074 10.9374C23.3074 12.1455 24.234 13.1249 25.377 13.1249C26.5199 13.1249 27.4466 12.1455 27.4466 10.9374C27.4466 9.72941 26.5199 8.74996 25.377 8.74996ZM26.4118 11.1197H25.5495V12.0312C25.5495 12.132 25.4722 12.2135 25.377 12.2135C25.2818 12.2135 25.2045 12.132 25.2045 12.0312V11.1197H24.3422C24.247 11.1197 24.1697 11.0383 24.1697 10.9374C24.1697 10.8366 24.247 10.7552 24.3422 10.7552H25.2045V9.8437C25.2045 9.7429 25.2818 9.66141 25.377 9.66141C25.4722 9.66141 25.5495 9.7429 25.5495 9.8437V10.7552H26.4118C26.507 10.7552 26.5843 10.8366 26.5843 10.9374C26.5843 11.0383 26.507 11.1197 26.4118 11.1197Z" fill="white"/>
<path d="M66.0598 1.21291C64.8483 0.182527 62.9319 0.007865 62.8499 0.00158195C62.7227 -0.00972702 62.6014 0.0656668 62.5491 0.190066C62.5443 0.197606 62.5027 0.299387 62.4564 0.457714C63.2576 0.600962 64.242 0.888714 65.1325 1.47301C65.2751 1.566 65.3191 1.76454 65.2311 1.91532C65.1729 2.01459 65.0742 2.06863 64.972 2.06863C64.9173 2.06863 64.8614 2.05229 64.8115 2.01962C63.2802 1.01563 61.3685 0.965364 61 0.965364C60.6315 0.965364 58.7186 1.01563 57.1885 2.01962C57.0459 2.11386 56.858 2.06737 56.77 1.91658C56.6809 1.76454 56.7249 1.56726 56.8675 1.47301C57.758 0.889971 58.7424 0.600962 59.5436 0.45897C59.4973 0.299387 59.4557 0.198862 59.4521 0.190066C59.3986 0.0656668 59.2785 -0.01224 59.1501 0.00158195C59.0681 0.007865 57.1517 0.182527 55.9236 1.22673C55.2828 1.85375 54 5.51788 54 8.68567C54 8.74222 54.0143 8.79625 54.0404 8.84526C54.9249 10.4888 57.3395 10.9186 57.8899 10.9374C57.8923 10.9374 57.8959 10.9374 57.8995 10.9374C57.9969 10.9374 58.0885 10.8884 58.1456 10.8055L58.7019 9.99627C57.2004 9.58663 56.4336 8.89049 56.3896 8.84903C56.2636 8.73217 56.2517 8.5286 56.3635 8.39541C56.474 8.26221 56.6666 8.24965 56.7926 8.36651C56.8105 8.3841 58.2228 9.65071 61 9.65071C63.7819 9.65071 65.1943 8.37907 65.2086 8.36651C65.3346 8.2509 65.526 8.26221 65.6377 8.39667C65.7483 8.52986 65.7364 8.73217 65.6104 8.84903C65.5664 8.89049 64.7996 9.58663 63.2981 9.99627L63.8544 10.8055C63.9115 10.8884 64.0031 10.9374 64.1005 10.9374C64.1041 10.9374 64.1077 10.9374 64.1101 10.9374C64.6605 10.9186 67.0751 10.4888 67.9596 8.84526C67.9857 8.79625 68 8.74222 68 8.68567C68 5.51788 66.7172 1.85375 66.0598 1.21291ZM59.0217 7.39896C58.4333 7.39896 57.9565 6.82345 57.9565 6.11224C57.9565 5.40102 58.4333 4.82552 59.0217 4.82552C59.6102 4.82552 60.087 5.40102 60.087 6.11224C60.087 6.82345 59.6102 7.39896 59.0217 7.39896ZM62.9783 7.39896C62.3898 7.39896 61.913 6.82345 61.913 6.11224C61.913 5.40102 62.3898 4.82552 62.9783 4.82552C63.5667 4.82552 64.0435 5.40102 64.0435 6.11224C64.0435 6.82345 63.5667 7.39896 62.9783 7.39896Z" fill="white"/>
<ellipse cx="61.3771" cy="10.9376" rx="2.89747" ry="3.06248" fill="#0D0027"/>
<path d="M61.377 8.74996C60.234 8.74996 59.3074 9.72941 59.3074 10.9374C59.3074 12.1455 60.234 13.1249 61.377 13.1249C62.5199 13.1249 63.4466 12.1455 63.4466 10.9374C63.4466 9.72941 62.5199 8.74996 61.377 8.74996ZM62.4118 11.1197H61.5495V12.0312C61.5495 12.132 61.4722 12.2135 61.377 12.2135C61.2818 12.2135 61.2045 12.132 61.2045 12.0312V11.1197H60.3422C60.247 11.1197 60.1697 11.0383 60.1697 10.9374C60.1697 10.8366 60.247 10.7552 60.3422 10.7552H61.2045V9.8437C61.2045 9.7429 61.2818 9.66141 61.377 9.66141C61.4722 9.66141 61.5495 9.7429 61.5495 9.8437V10.7552H62.4118C62.507 10.7552 62.5843 10.8366 62.5843 10.9374C62.5843 11.0383 62.507 11.1197 62.4118 11.1197Z" fill="white"/>
<defs>
<linearGradient id="paint0_linear_18_67" x1="7" y1="0" x2="7" y2="10.9374" gradientUnits="userSpaceOnUse">
<stop offset="0.109375" stop-color="#DD13B9"/>
<stop offset="0.5" stop-color="#C734E1"/>
<stop offset="0.822917" stop-color="#FB8F4F"/>
</linearGradient>
<linearGradient id="paint1_linear_18_67" x1="7.37703" y1="8.74996" x2="7.37703" y2="13.1249" gradientUnits="userSpaceOnUse">
<stop offset="0.109375" stop-color="#DD13B9"/>
<stop offset="0.5" stop-color="#C734E1"/>
<stop offset="0.822917" stop-color="#FB8F4F"/>
</linearGradient>
<linearGradient id="paint2_linear_18_67" x1="41.4838" y1="5.79603" x2="43.759" y2="12.9717" gradientUnits="userSpaceOnUse">
<stop offset="0.161082" stop-color="#DD13B9"/>
<stop offset="0.5" stop-color="#C734E1"/>
<stop offset="0.822917" stop-color="#FB8F4F"/>
</linearGradient>
<linearGradient id="paint3_linear_18_67" x1="25" y1="0" x2="25" y2="10.9374" gradientUnits="userSpaceOnUse">
<stop offset="0.109375" stop-color="#DD13B9"/>
<stop offset="0.5" stop-color="#C734E1"/>
<stop offset="0.822917" stop-color="#FB8F4F"/>
</linearGradient>
</defs>
</svg>
