<svg width="94" height="15" viewBox="0 0 94 15" fill="none" xmlns="http://www.w3.org/2000/svg">
<path d="M4.64075 5.44889C4.97002 5.17453 5.3353 4.94828 5.72382 4.76954C7.88922 3.77519 10.6659 4.30393 12.058 6.06262L10.3734 7.4657C9.89036 6.54761 8.69103 6.02512 7.4977 6.24762C7.04842 6.33136 6.62164 6.51823 6.27286 6.80885L3.04464 9.50002C2.06433 10.3169 2.06433 11.6456 3.04464 12.4624C4.02496 13.2793 5.61957 13.2793 6.59988 12.4624L7.5952 11.6331C8.50051 11.9324 9.47108 12.0518 10.4296 11.9924L8.23275 13.823C6.34937 15.3923 3.29591 15.3923 1.41253 13.823C-0.470844 12.2537 -0.470844 9.70938 1.41253 8.14006L4.64075 5.44889ZM9.7681 1.17653L7.5712 3.00709C8.52901 2.9471 9.50033 3.06709 10.4056 3.36583L11.4002 2.53711C12.3805 1.72026 13.9751 1.72026 14.9555 2.53711C15.9358 3.35396 15.9358 4.68267 14.9555 5.49952L11.7265 8.19006C10.7432 9.00941 9.14631 9.00253 8.17124 8.19006C7.94398 8.00069 7.74821 7.76507 7.62595 7.5332L5.94134 8.93628C6.11835 9.16003 6.30211 9.35315 6.53838 9.55001C7.14742 10.0575 7.92297 10.4356 8.81553 10.615C9.97211 10.8468 11.2112 10.7187 12.2755 10.2294C12.664 10.0506 13.0293 9.82438 13.3586 9.55001L16.5868 6.85947C18.4709 5.29015 18.4709 2.74585 16.5876 1.17653C14.7042 -0.392175 11.6515 -0.392175 9.7681 1.17653Z" fill="url(#paint0_linear_12_11)"/>
<path d="M23.6408 5.44889C23.97 5.17453 24.3353 4.94828 24.7238 4.76954C26.8892 3.77519 29.6659 4.30393 31.058 6.06262L29.3734 7.4657C28.8904 6.54761 27.691 6.02512 26.4977 6.24762C26.0484 6.33136 25.6216 6.51823 25.2729 6.80885L22.0446 9.50002C21.0643 10.3169 21.0643 11.6456 22.0446 12.4624C23.025 13.2793 24.6196 13.2793 25.5999 12.4624L26.5952 11.6331C27.5005 11.9324 28.4711 12.0518 29.4296 11.9924L27.2327 13.823C25.3494 15.3923 22.2959 15.3923 20.4125 13.823C18.5292 12.2537 18.5292 9.70938 20.4125 8.14006L23.6408 5.44889ZM28.7681 1.17653L26.5712 3.00709C27.529 2.9471 28.5003 3.06709 29.4056 3.36583L30.4002 2.53711C31.3805 1.72026 32.9751 1.72026 33.9555 2.53711C34.9358 3.35396 34.9358 4.68267 33.9555 5.49952L30.7265 8.19006C29.7432 9.00941 28.1463 9.00253 27.1712 8.19006C26.944 8.00069 26.7482 7.76507 26.626 7.5332L24.9413 8.93628C25.1184 9.16003 25.3021 9.35315 25.5384 9.55001C26.1474 10.0575 26.923 10.4356 27.8155 10.615C28.9721 10.8468 30.2112 10.7187 31.2755 10.2294C31.664 10.0506 32.0293 9.82438 32.3586 9.55001L35.5868 6.85947C37.4709 5.29015 37.4709 2.74585 35.5876 1.17653C33.7042 -0.392175 30.6515 -0.392175 28.7681 1.17653Z" fill="url(#paint1_linear_12_11)"/>
<path d="M42.6408 5.44889C42.97 5.17453 43.3353 4.94828 43.7238 4.76954C45.8892 3.77519 48.6659 4.30393 50.058 6.06262L48.3734 7.4657C47.8904 6.54761 46.691 6.02512 45.4977 6.24762C45.0484 6.33136 44.6216 6.51823 44.2729 6.80885L41.0446 9.50002C40.0643 10.3169 40.0643 11.6456 41.0446 12.4624C42.025 13.2793 43.6196 13.2793 44.5999 12.4624L45.5952 11.6331C46.5005 11.9324 47.4711 12.0518 48.4296 11.9924L46.2327 13.823C44.3494 15.3923 41.2959 15.3923 39.4125 13.823C37.5292 12.2537 37.5292 9.70938 39.4125 8.14006L42.6408 5.44889ZM47.7681 1.17653L45.5712 3.00709C46.529 2.9471 47.5003 3.06709 48.4056 3.36583L49.4002 2.53711C50.3805 1.72026 51.9751 1.72026 52.9555 2.53711C53.9358 3.35396 53.9358 4.68267 52.9555 5.49952L49.7265 8.19006C48.7432 9.00941 47.1463 9.00253 46.1712 8.19006C45.944 8.00069 45.7482 7.76507 45.626 7.5332L43.9413 8.93628C44.1184 9.16003 44.3021 9.35315 44.5384 9.55001C45.1474 10.0575 45.923 10.4356 46.8155 10.615C47.9721 10.8468 49.2112 10.7187 50.2755 10.2294C50.664 10.0506 51.0293 9.82438 51.3586 9.55001L54.5868 6.85947C56.4709 5.29015 56.4709 2.74585 54.5876 1.17653C52.7042 -0.392175 49.6515 -0.392175 47.7681 1.17653Z" fill="url(#paint2_linear_12_11)"/>
<path d="M61.6408 5.44889C61.97 5.17453 62.3353 4.94828 62.7238 4.76954C64.8892 3.77519 67.6659 4.30393 69.058 6.06262L67.3734 7.4657C66.8904 6.54761 65.691 6.02512 64.4977 6.24762C64.0484 6.33136 63.6216 6.51823 63.2729 6.80885L60.0446 9.50002C59.0643 10.3169 59.0643 11.6456 60.0446 12.4624C61.025 13.2793 62.6196 13.2793 63.5999 12.4624L64.5952 11.6331C65.5005 11.9324 66.4711 12.0518 67.4296 11.9924L65.2327 13.823C63.3494 15.3923 60.2959 15.3923 58.4125 13.823C56.5292 12.2537 56.5292 9.70938 58.4125 8.14006L61.6408 5.44889ZM66.7681 1.17653L64.5712 3.00709C65.529 2.9471 66.5003 3.06709 67.4056 3.36583L68.4002 2.53711C69.3805 1.72026 70.9751 1.72026 71.9555 2.53711C72.9358 3.35396 72.9358 4.68267 71.9555 5.49952L68.7265 8.19006C67.7432 9.00941 66.1463 9.00253 65.1712 8.19006C64.944 8.00069 64.7482 7.76507 64.626 7.5332L62.9413 8.93628C63.1184 9.16003 63.3021 9.35315 63.5384 9.55001C64.1474 10.0575 64.923 10.4356 65.8155 10.615C66.9721 10.8468 68.2112 10.7187 69.2755 10.2294C69.664 10.0506 70.0293 9.82438 70.3586 9.55001L73.5868 6.85947C75.4709 5.29015 75.4709 2.74585 73.5876 1.17653C71.7042 -0.392175 68.6515 -0.392175 66.7681 1.17653Z" fill="url(#paint3_linear_12_11)"/>
<path d="M80.6408 5.44889C80.97 5.17453 81.3353 4.94828 81.7238 4.76954C83.8892 3.77519 86.6659 4.30393 88.058 6.06262L86.3734 7.4657C85.8904 6.54761 84.691 6.02512 83.4977 6.24762C83.0484 6.33136 82.6216 6.51823 82.2729 6.80885L79.0446 9.50002C78.0643 10.3169 78.0643 11.6456 79.0446 12.4624C80.025 13.2793 81.6196 13.2793 82.5999 12.4624L83.5952 11.6331C84.5005 11.9324 85.4711 12.0518 86.4296 11.9924L84.2327 13.823C82.3494 15.3923 79.2959 15.3923 77.4125 13.823C75.5292 12.2537 75.5292 9.70938 77.4125 8.14006L80.6408 5.44889ZM85.7681 1.17653L83.5712 3.00709C84.529 2.9471 85.5003 3.06709 86.4056 3.36583L87.4002 2.53711C88.3805 1.72026 89.9751 1.72026 90.9555 2.53711C91.9358 3.35396 91.9358 4.68267 90.9555 5.49952L87.7265 8.19006C86.7432 9.00941 85.1463 9.00253 84.1712 8.19006C83.944 8.00069 83.7482 7.76507 83.626 7.5332L81.9413 8.93628C82.1184 9.16003 82.3021 9.35315 82.5384 9.55001C83.1474 10.0575 83.923 10.4356 84.8155 10.615C85.9721 10.8468 87.2112 10.7187 88.2755 10.2294C88.664 10.0506 89.0293 9.82438 89.3586 9.55001L92.5868 6.85947C94.4709 5.29015 94.4709 2.74585 92.5876 1.17653C90.7042 -0.392175 87.6515 -0.392175 85.7681 1.17653Z" fill="white"/>
<defs>
<linearGradient id="paint0_linear_12_11" x1="19.5" y1="-3.125" x2="2.08775" y2="18.5028" gradientUnits="userSpaceOnUse">
<stop stop-color="#F40289"/>
<stop offset="0.458333" stop-color="#C027F4"/>
<stop offset="0.8517" stop-color="#FB8F4E"/>
</linearGradient>
<linearGradient id="paint1_linear_12_11" x1="38.5" y1="-3.125" x2="21.0877" y2="18.5028" gradientUnits="userSpaceOnUse">
<stop offset="0.192708" stop-color="#FBFBFB"/>
<stop offset="0.421875" stop-color="#C027F4"/>
<stop offset="0.8517" stop-color="#FB8F4E"/>
</linearGradient>
<linearGradient id="paint2_linear_12_11" x1="52.9187" y1="0.85592" x2="37.348" y2="16.9457" gradientUnits="userSpaceOnUse">
<stop stop-color="white"/>
<stop offset="0.0360575" stop-color="white"/>
<stop offset="0.4375" stop-color="#CC3DD2"/>
<stop offset="0.765625" stop-color="#FB8F4E"/>
</linearGradient>
<linearGradient id="paint3_linear_12_11" x1="71.9187" y1="0.85592" x2="56.348" y2="16.9457" gradientUnits="userSpaceOnUse">
<stop offset="0.342247" stop-color="white"/>
<stop offset="0.562516" stop-color="#CC3DD2"/>
<stop offset="0.76375" stop-color="#FB8F4E"/>
</linearGradient>
</defs>
</svg>
