<svg width="58" height="13" viewBox="0 0 58 13" fill="none" xmlns="http://www.w3.org/2000/svg">
<path d="M52.4444 4.875L58 9.03229L55.6467 9.41688L57.1239 12.3538L55.7683 13L54.2822 10.0349L52.4444 11.5857V4.875V4.875ZM52.4444 2.16667C51.2172 2.16667 50.2222 3.13679 50.2222 4.33333C50.2222 5.13338 50.6722 5.824 51.3333 6.19938V5.53583C50.995 5.23792 50.7778 4.81163 50.7778 4.33333C50.7778 3.43742 51.5256 2.70833 52.4444 2.70833C53.3633 2.70833 54.1111 3.43742 54.1111 4.33333C54.1111 4.46658 54.09 4.59387 54.0589 4.71737L54.5267 5.06729C54.6122 4.83762 54.6667 4.59225 54.6667 4.33333C54.6667 3.13679 53.6717 2.16667 52.4444 2.16667V2.16667ZM51.3333 7.39375C50.0406 6.94633 49.1111 5.74492 49.1111 4.33333C49.1111 2.54096 50.6061 1.08333 52.4444 1.08333C54.2828 1.08333 55.7778 2.54096 55.7778 4.33333C55.7778 4.84196 55.6539 5.32133 55.4394 5.75088L56.3378 6.42308C56.6883 5.80288 56.8889 5.09113 56.8889 4.33333C56.8889 1.94025 54.8994 0 52.4444 0C49.99 0 48 1.94025 48 4.33333C48 6.35213 49.4172 8.04321 51.3333 8.52475V7.39375V7.39375Z" fill="white"/>
<path d="M28.4444 4.875L34 9.03229L31.6467 9.41688L33.1239 12.3538L31.7683 13L30.2822 10.0349L28.4444 11.5857V4.875ZM28.4444 2.16667C27.2172 2.16667 26.2222 3.13679 26.2222 4.33333C26.2222 5.13338 26.6722 5.824 27.3333 6.19937V5.53583C26.995 5.23792 26.7778 4.81163 26.7778 4.33333C26.7778 3.43742 27.5256 2.70833 28.4444 2.70833C29.3633 2.70833 30.1111 3.43742 30.1111 4.33333C30.1111 4.46658 30.09 4.59387 30.0589 4.71737L30.5267 5.06729C30.6122 4.83762 30.6667 4.59225 30.6667 4.33333C30.6667 3.13679 29.6717 2.16667 28.4444 2.16667ZM27.3333 7.39375C26.0406 6.94633 25.1111 5.74492 25.1111 4.33333C25.1111 2.54096 26.6061 1.08333 28.4444 1.08333C30.2828 1.08333 31.7778 2.54096 31.7778 4.33333C31.7778 4.84196 31.6539 5.32133 31.4394 5.75087L32.3378 6.42308C32.6883 5.80288 32.8889 5.09113 32.8889 4.33333C32.8889 1.94025 30.8994 0 28.4444 0C25.99 0 24 1.94025 24 4.33333C24 6.35213 25.4172 8.04321 27.3333 8.52475V7.39375Z" fill="url(#paint0_linear_14_19)"/>
<path d="M40.4444 4.875L46 9.03229L43.6467 9.41688L45.1239 12.3538L43.7683 13L42.2822 10.0349L40.4444 11.5857V4.875V4.875ZM40.4444 2.16667C39.2172 2.16667 38.2222 3.13679 38.2222 4.33333C38.2222 5.13338 38.6722 5.824 39.3333 6.19938V5.53583C38.995 5.23792 38.7778 4.81163 38.7778 4.33333C38.7778 3.43742 39.5256 2.70833 40.4444 2.70833C41.3633 2.70833 42.1111 3.43742 42.1111 4.33333C42.1111 4.46658 42.09 4.59387 42.0589 4.71737L42.5267 5.06729C42.6122 4.83762 42.6667 4.59225 42.6667 4.33333C42.6667 3.13679 41.6717 2.16667 40.4444 2.16667V2.16667ZM39.3333 7.39375C38.0406 6.94633 37.1111 5.74492 37.1111 4.33333C37.1111 2.54096 38.6061 1.08333 40.4444 1.08333C42.2828 1.08333 43.7778 2.54096 43.7778 4.33333C43.7778 4.84196 43.6539 5.32133 43.4394 5.75088L44.3378 6.42308C44.6883 5.80288 44.8889 5.09113 44.8889 4.33333C44.8889 1.94025 42.8994 0 40.4444 0C37.99 0 36 1.94025 36 4.33333C36 6.35213 37.4172 8.04321 39.3333 8.52475V7.39375V7.39375Z" fill="url(#paint1_linear_14_19)"/>
<path d="M16.4444 4.875L22 9.03229L19.6467 9.41688L21.1239 12.3538L19.7683 13L18.2822 10.0349L16.4444 11.5857V4.875ZM16.4444 2.16667C15.2172 2.16667 14.2222 3.13679 14.2222 4.33333C14.2222 5.13338 14.6722 5.824 15.3333 6.19937V5.53583C14.995 5.23792 14.7778 4.81163 14.7778 4.33333C14.7778 3.43742 15.5256 2.70833 16.4444 2.70833C17.3633 2.70833 18.1111 3.43742 18.1111 4.33333C18.1111 4.46658 18.09 4.59387 18.0589 4.71737L18.5267 5.06729C18.6122 4.83762 18.6667 4.59225 18.6667 4.33333C18.6667 3.13679 17.6717 2.16667 16.4444 2.16667ZM15.3333 7.39375C14.0406 6.94633 13.1111 5.74492 13.1111 4.33333C13.1111 2.54096 14.6061 1.08333 16.4444 1.08333C18.2828 1.08333 19.7778 2.54096 19.7778 4.33333C19.7778 4.84196 19.6539 5.32133 19.4394 5.75087L20.3378 6.42308C20.6883 5.80287 20.8889 5.09113 20.8889 4.33333C20.8889 1.94025 18.8994 0 16.4444 0C13.99 0 12 1.94025 12 4.33333C12 6.35213 13.4172 8.04321 15.3333 8.52475V7.39375Z" fill="url(#paint2_linear_14_19)"/>
<path d="M4.44444 4.875L10 9.03229L7.64667 9.41688L9.12389 12.3538L7.76833 13L6.28222 10.0349L4.44444 11.5857V4.875ZM4.44444 2.16667C3.21722 2.16667 2.22222 3.13679 2.22222 4.33333C2.22222 5.13338 2.67222 5.824 3.33333 6.19937V5.53583C2.995 5.23792 2.77778 4.81163 2.77778 4.33333C2.77778 3.43742 3.52556 2.70833 4.44444 2.70833C5.36333 2.70833 6.11111 3.43742 6.11111 4.33333C6.11111 4.46658 6.09 4.59387 6.05889 4.71737L6.52667 5.06729C6.61222 4.83762 6.66667 4.59225 6.66667 4.33333C6.66667 3.13679 5.67167 2.16667 4.44444 2.16667ZM3.33333 7.39375C2.04056 6.94633 1.11111 5.74492 1.11111 4.33333C1.11111 2.54096 2.60611 1.08333 4.44444 1.08333C6.28278 1.08333 7.77778 2.54096 7.77778 4.33333C7.77778 4.84196 7.65389 5.32133 7.43945 5.75087L8.33778 6.42308C8.68833 5.80288 8.88889 5.09113 8.88889 4.33333C8.88889 1.94025 6.89944 0 4.44444 0C1.99 0 0 1.94025 0 4.33333C0 6.35213 1.41722 8.04321 3.33333 8.52475V7.39375Z" fill="url(#paint3_linear_14_19)"/>
<defs>
<linearGradient id="paint0_linear_14_19" x1="26.8983" y1="3.16935" x2="32.0763" y2="11.1294" gradientUnits="userSpaceOnUse">
<stop stop-color="white"/>
<stop offset="0.302752" stop-color="#F40688"/>
<stop offset="0.536257" stop-color="#C026F3"/>
<stop offset="1" stop-color="#FB914E"/>
</linearGradient>
<linearGradient id="paint1_linear_14_19" x1="39.9518" y1="4.2258" x2="45.2416" y2="13.3686" gradientUnits="userSpaceOnUse">
<stop stop-color="white"/>
<stop offset="0.124208" stop-color="white"/>
<stop offset="0.472446" stop-color="#C22AEE"/>
<stop offset="0.753385" stop-color="#FB914E"/>
</linearGradient>
<linearGradient id="paint2_linear_14_19" x1="11.4444" y1="2.22857" x2="20.0809" y2="11.1182" gradientUnits="userSpaceOnUse">
<stop offset="0.161458" stop-color="#FFFCFE"/>
<stop offset="0.489583" stop-color="#C026F3"/>
<stop offset="1" stop-color="#FB914E"/>
</linearGradient>
<linearGradient id="paint3_linear_14_19" x1="-0.555556" y1="2.22857" x2="8.08091" y2="11.1182" gradientUnits="userSpaceOnUse">
<stop stop-color="#F40688"/>
<stop offset="0.489583" stop-color="#C026F3"/>
<stop offset="1" stop-color="#FB914E"/>
</linearGradient>
</defs>
</svg>
