<svg width="93" height="16" viewBox="0 0 93 16" fill="none" xmlns="http://www.w3.org/2000/svg">
<path d="M12.0417 6.95112V5.38976C11.2129 5.10544 10.6909 5.02635 10.4267 4.41408C10.1625 3.80044 10.4762 3.38317 10.8517 2.6243L9.70558 1.52044C8.92287 1.87839 8.48512 2.18453 7.8455 1.92953C7.208 1.67521 7.12513 1.16862 6.83188 0.374985H5.20979C4.91796 1.16453 4.83437 1.67521 4.19617 1.92953C3.55867 2.18453 3.12588 1.8818 2.33608 1.52044L1.19071 2.6243C1.564 3.38112 1.87992 3.79976 1.61571 4.41408C1.35008 5.02839 0.82025 5.10885 0 5.38976V6.95044C0.818125 7.23135 1.35079 7.31248 1.615 7.92612C1.88133 8.54521 1.55762 8.97203 1.19 9.71589L2.33608 10.8198C3.12021 10.4618 3.55725 10.1557 4.19546 10.4107C4.83296 10.665 4.91725 11.1729 5.20979 11.9652H6.83117C7.123 11.1757 7.20658 10.6663 7.84904 10.4093C8.48229 10.1557 8.91296 10.4577 9.70487 10.8198L10.851 9.71589C10.4791 8.96112 10.161 8.54112 10.4253 7.92612C10.6902 7.31317 11.2228 7.23135 12.0417 6.95112ZM6.02083 8.10271C4.913 8.10271 4.01412 7.23748 4.01412 6.17044C4.01412 5.10339 4.913 4.23817 6.02083 4.23817C7.12867 4.23817 8.02754 5.10339 8.02754 6.17044C8.02754 7.23748 7.12867 8.10271 6.02083 8.10271ZM17 10.9698V10.2354C16.6104 10.1018 16.3646 10.0643 16.24 9.77658C16.1153 9.48748 16.2633 9.2918 16.4397 8.93385L15.9 8.4143C15.5316 8.58339 15.3255 8.72658 15.0252 8.60726C14.7248 8.48794 14.6859 8.2493 14.5477 7.87567H13.7856C13.6482 8.24726 13.6085 8.48726 13.3082 8.60726C13.0078 8.72726 12.8045 8.58476 12.4334 8.4143L11.8936 8.93385C12.0693 9.29044 12.218 9.48748 12.0934 9.77658C11.9687 10.0657 11.7194 10.1032 11.3333 10.2354V10.9698C11.7187 11.1013 11.9687 11.1402 12.0934 11.4286C12.2187 11.7198 12.0665 11.9209 11.8936 12.2713L12.4334 12.7909C12.8024 12.6218 13.0085 12.4786 13.3082 12.5979C13.6085 12.7173 13.6475 12.9566 13.7856 13.3295H14.5477C14.6852 12.9579 14.7248 12.7179 15.0266 12.5973C15.3248 12.4779 15.5274 12.6204 15.9 12.7909L16.4397 12.2713C16.2647 11.9161 16.1153 11.7177 16.24 11.4293C16.3646 11.1409 16.6147 11.1013 17 10.9698ZM14.1667 11.5111C13.6453 11.5111 13.2225 11.1041 13.2225 10.6023C13.2225 10.1004 13.6453 9.69339 14.1667 9.69339C14.688 9.69339 15.1109 10.1004 15.1109 10.6023C15.1109 11.1041 14.688 11.5111 14.1667 11.5111ZM11.3333 13.605V13.0541C11.0415 12.9538 10.8566 12.9259 10.7631 12.7098C10.6696 12.4936 10.7801 12.3463 10.9133 12.0777L10.5081 11.6884C10.2326 11.8152 10.0782 11.9229 9.85221 11.8329C9.62625 11.7429 9.59792 11.5643 9.49379 11.2841H8.92217C8.81875 11.5629 8.789 11.7429 8.56375 11.8329C8.33921 11.9229 8.18621 11.8166 7.90783 11.6884L7.50267 12.0777C7.63512 12.3457 7.74633 12.4929 7.65283 12.7098C7.55933 12.9266 7.37233 12.9545 7.08262 13.0541V13.605C7.37162 13.7038 7.55933 13.7332 7.65283 13.9493C7.74704 14.1675 7.633 14.3188 7.50267 14.5813L7.90783 14.9707C8.18408 14.8438 8.3385 14.7361 8.56375 14.8261C8.789 14.9161 8.81804 15.0954 8.92217 15.375H9.49379C9.59721 15.0961 9.62696 14.9161 9.85292 14.8261C10.076 14.7368 10.2283 14.8432 10.5081 14.9713L10.9133 14.582C10.7815 14.3154 10.6696 14.1668 10.7631 13.95C10.8566 13.7332 11.0443 13.7038 11.3333 13.605ZM9.20833 14.0113C8.81733 14.0113 8.5 13.7066 8.5 13.3295C8.5 12.9525 8.81733 12.6477 9.20833 12.6477C9.59933 12.6477 9.91667 12.9525 9.91667 13.3295C9.91667 13.7066 9.59933 14.0113 9.20833 14.0113Z" fill="url(#paint0_linear_19_102)"/>
<path d="M31.0417 6.57614V5.01477C30.2129 4.73045 29.6909 4.65136 29.4267 4.03909C29.1625 3.42545 29.4762 3.00818 29.8517 2.24932L28.7056 1.14545C27.9229 1.50341 27.4851 1.80955 26.8455 1.55455C26.208 1.30023 26.1251 0.793636 25.8319 0H24.2098C23.918 0.789545 23.8344 1.30023 23.1962 1.55455C22.5587 1.80955 22.1259 1.50682 21.3361 1.14545L20.1907 2.24932C20.564 3.00614 20.8799 3.42477 20.6157 4.03909C20.3501 4.65341 19.8202 4.73386 19 5.01477V6.57545C19.8181 6.85636 20.3508 6.9375 20.615 7.55114C20.8813 8.17023 20.5576 8.59705 20.19 9.34091L21.3361 10.4448C22.1202 10.0868 22.5572 9.78068 23.1955 10.0357C23.833 10.29 23.9173 10.798 24.2098 11.5902H25.8312C26.123 10.8007 26.2066 10.2914 26.849 10.0343C27.4823 9.78068 27.913 10.0827 28.7049 10.4448L29.851 9.34091C29.4791 8.58614 29.161 8.16614 29.4253 7.55114C29.6902 6.93818 30.2228 6.85636 31.0417 6.57614ZM25.0208 7.72773C23.913 7.72773 23.0141 6.8625 23.0141 5.79545C23.0141 4.72841 23.913 3.86318 25.0208 3.86318C26.1287 3.86318 27.0275 4.72841 27.0275 5.79545C27.0275 6.8625 26.1287 7.72773 25.0208 7.72773ZM36 10.5948V9.86045C35.6104 9.72682 35.3646 9.68932 35.24 9.40159C35.1153 9.1125 35.2633 8.91682 35.4397 8.55886L34.9 8.03932C34.5316 8.20841 34.3255 8.35159 34.0252 8.23227C33.7248 8.11295 33.6859 7.87432 33.5477 7.50068H32.7856C32.6482 7.87227 32.6085 8.11227 32.3082 8.23227C32.0078 8.35227 31.8045 8.20977 31.4334 8.03932L30.8936 8.55886C31.0693 8.91545 31.218 9.1125 31.0934 9.40159C30.9687 9.69068 30.7194 9.72818 30.3333 9.86045V10.5948C30.7187 10.7264 30.9687 10.7652 31.0934 11.0536C31.2187 11.3448 31.0665 11.5459 30.8936 11.8964L31.4334 12.4159C31.8024 12.2468 32.0085 12.1036 32.3082 12.223C32.6085 12.3423 32.6475 12.5816 32.7856 12.9545H33.5477C33.6852 12.583 33.7248 12.343 34.0266 12.2223C34.3248 12.103 34.5274 12.2455 34.9 12.4159L35.4397 11.8964C35.2647 11.5411 35.1153 11.3427 35.24 11.0543C35.3646 10.7659 35.6147 10.7264 36 10.5948ZM33.1667 11.1361C32.6453 11.1361 32.2225 10.7291 32.2225 10.2273C32.2225 9.72545 32.6453 9.31841 33.1667 9.31841C33.688 9.31841 34.1109 9.72545 34.1109 10.2273C34.1109 10.7291 33.688 11.1361 33.1667 11.1361ZM30.3333 13.23V12.6791C30.0415 12.5789 29.8566 12.5509 29.7631 12.3348C29.6696 12.1186 29.7801 11.9714 29.9133 11.7027L29.5081 11.3134C29.2326 11.4402 29.0782 11.548 28.8522 11.458C28.6262 11.368 28.5979 11.1893 28.4938 10.9091H27.9222C27.8187 11.188 27.789 11.368 27.5638 11.458C27.3392 11.548 27.1862 11.4416 26.9078 11.3134L26.5027 11.7027C26.6351 11.9707 26.7463 12.118 26.6528 12.3348C26.5593 12.5516 26.3723 12.5795 26.0826 12.6791V13.23C26.3716 13.3289 26.5593 13.3582 26.6528 13.5743C26.747 13.7925 26.633 13.9439 26.5027 14.2064L26.9078 14.5957C27.1841 14.4689 27.3385 14.3611 27.5638 14.4511C27.789 14.5411 27.818 14.7205 27.9222 15H28.4938C28.5972 14.7211 28.627 14.5411 28.8529 14.4511C29.076 14.3618 29.2283 14.4682 29.5081 14.5964L29.9133 14.207C29.7815 13.9405 29.6696 13.7918 29.7631 13.575C29.8566 13.3582 30.0443 13.3289 30.3333 13.23ZM28.2083 13.6364C27.8173 13.6364 27.5 13.3316 27.5 12.9545C27.5 12.5775 27.8173 12.2727 28.2083 12.2727C28.5993 12.2727 28.9167 12.5775 28.9167 12.9545C28.9167 13.3316 28.5993 13.6364 28.2083 13.6364Z" fill="url(#paint1_linear_19_102)"/>
<path d="M69.0417 6.57614V5.01477C68.2129 4.73045 67.6909 4.65136 67.4267 4.03909C67.1625 3.42545 67.4762 3.00818 67.8517 2.24932L66.7056 1.14545C65.9229 1.50341 65.4851 1.80955 64.8455 1.55455C64.208 1.30023 64.1251 0.793636 63.8319 0H62.2098C61.918 0.789545 61.8344 1.30023 61.1962 1.55455C60.5587 1.80955 60.1259 1.50682 59.3361 1.14545L58.1907 2.24932C58.564 3.00614 58.8799 3.42477 58.6157 4.03909C58.3501 4.65341 57.8202 4.73386 57 5.01477V6.57545C57.8181 6.85636 58.3508 6.9375 58.615 7.55114C58.8813 8.17023 58.5576 8.59705 58.19 9.34091L59.3361 10.4448C60.1202 10.0868 60.5572 9.78068 61.1955 10.0357C61.833 10.29 61.9173 10.798 62.2098 11.5902H63.8312C64.123 10.8007 64.2066 10.2914 64.849 10.0343C65.4823 9.78068 65.913 10.0827 66.7049 10.4448L67.851 9.34091C67.4791 8.58614 67.161 8.16614 67.4253 7.55114C67.6902 6.93818 68.2228 6.85636 69.0417 6.57614ZM63.0208 7.72773C61.913 7.72773 61.0141 6.8625 61.0141 5.79545C61.0141 4.72841 61.913 3.86318 63.0208 3.86318C64.1287 3.86318 65.0275 4.72841 65.0275 5.79545C65.0275 6.8625 64.1287 7.72773 63.0208 7.72773ZM74 10.5948V9.86045C73.6104 9.72682 73.3646 9.68932 73.24 9.40159C73.1153 9.1125 73.2633 8.91682 73.4397 8.55886L72.9 8.03932C72.5316 8.20841 72.3255 8.35159 72.0252 8.23227C71.7248 8.11295 71.6859 7.87432 71.5477 7.50068H70.7856C70.6482 7.87227 70.6085 8.11227 70.3082 8.23227C70.0078 8.35227 69.8045 8.20977 69.4334 8.03932L68.8936 8.55886C69.0693 8.91545 69.218 9.1125 69.0934 9.40159C68.9687 9.69068 68.7194 9.72818 68.3333 9.86045V10.5948C68.7187 10.7264 68.9687 10.7652 69.0934 11.0536C69.2187 11.3448 69.0665 11.5459 68.8936 11.8964L69.4334 12.4159C69.8024 12.2468 70.0085 12.1036 70.3082 12.223C70.6085 12.3423 70.6475 12.5816 70.7856 12.9545H71.5477C71.6852 12.583 71.7248 12.343 72.0266 12.2223C72.3248 12.103 72.5274 12.2455 72.9 12.4159L73.4397 11.8964C73.2647 11.5411 73.1153 11.3427 73.24 11.0543C73.3646 10.7659 73.6147 10.7264 74 10.5948ZM71.1667 11.1361C70.6453 11.1361 70.2225 10.7291 70.2225 10.2273C70.2225 9.72545 70.6453 9.31841 71.1667 9.31841C71.688 9.31841 72.1109 9.72545 72.1109 10.2273C72.1109 10.7291 71.688 11.1361 71.1667 11.1361ZM68.3333 13.23V12.6791C68.0415 12.5789 67.8566 12.5509 67.7631 12.3348C67.6696 12.1186 67.7801 11.9714 67.9133 11.7027L67.5081 11.3134C67.2326 11.4402 67.0782 11.548 66.8522 11.458C66.6262 11.368 66.5979 11.1893 66.4938 10.9091H65.9222C65.8187 11.188 65.789 11.368 65.5638 11.458C65.3392 11.548 65.1862 11.4416 64.9078 11.3134L64.5027 11.7027C64.6351 11.9707 64.7463 12.118 64.6528 12.3348C64.5593 12.5516 64.3723 12.5795 64.0826 12.6791V13.23C64.3716 13.3289 64.5593 13.3582 64.6528 13.5743C64.747 13.7925 64.633 13.9439 64.5027 14.2064L64.9078 14.5957C65.1841 14.4689 65.3385 14.3611 65.5638 14.4511C65.789 14.5411 65.818 14.7205 65.9222 15H66.4938C66.5972 14.7211 66.627 14.5411 66.8529 14.4511C67.076 14.3618 67.2283 14.4682 67.5081 14.5964L67.9133 14.207C67.7815 13.9405 67.6696 13.7918 67.7631 13.575C67.8566 13.3582 68.0443 13.3289 68.3333 13.23ZM66.2083 13.6364C65.8173 13.6364 65.5 13.3316 65.5 12.9545C65.5 12.5775 65.8173 12.2727 66.2083 12.2727C66.5993 12.2727 66.9167 12.5775 66.9167 12.9545C66.9167 13.3316 66.5993 13.6364 66.2083 13.6364Z" fill="url(#paint2_linear_19_102)"/>
<path d="M50.0417 6.57614V5.01477C49.2129 4.73045 48.6909 4.65136 48.4267 4.03909C48.1625 3.42545 48.4762 3.00818 48.8517 2.24932L47.7056 1.14545C46.9229 1.50341 46.4851 1.80955 45.8455 1.55455C45.208 1.30023 45.1251 0.793636 44.8319 0H43.2098C42.918 0.789545 42.8344 1.30023 42.1962 1.55455C41.5587 1.80955 41.1259 1.50682 40.3361 1.14545L39.1907 2.24932C39.564 3.00614 39.8799 3.42477 39.6157 4.03909C39.3501 4.65341 38.8202 4.73386 38 5.01477V6.57545C38.8181 6.85636 39.3508 6.9375 39.615 7.55114C39.8813 8.17023 39.5576 8.59705 39.19 9.34091L40.3361 10.4448C41.1202 10.0868 41.5572 9.78068 42.1955 10.0357C42.833 10.29 42.9173 10.798 43.2098 11.5902H44.8312C45.123 10.8007 45.2066 10.2914 45.849 10.0343C46.4823 9.78068 46.913 10.0827 47.7049 10.4448L48.851 9.34091C48.4791 8.58614 48.161 8.16614 48.4253 7.55114C48.6902 6.93818 49.2228 6.85636 50.0417 6.57614ZM44.0208 7.72773C42.913 7.72773 42.0141 6.8625 42.0141 5.79545C42.0141 4.72841 42.913 3.86318 44.0208 3.86318C45.1287 3.86318 46.0275 4.72841 46.0275 5.79545C46.0275 6.8625 45.1287 7.72773 44.0208 7.72773ZM55 10.5948V9.86045C54.6104 9.72682 54.3646 9.68932 54.24 9.40159C54.1153 9.1125 54.2633 8.91682 54.4397 8.55886L53.9 8.03932C53.5316 8.20841 53.3255 8.35159 53.0252 8.23227C52.7248 8.11295 52.6859 7.87432 52.5477 7.50068H51.7856C51.6482 7.87227 51.6085 8.11227 51.3082 8.23227C51.0078 8.35227 50.8045 8.20977 50.4334 8.03932L49.8936 8.55886C50.0693 8.91545 50.218 9.1125 50.0934 9.40159C49.9687 9.69068 49.7194 9.72818 49.3333 9.86045V10.5948C49.7187 10.7264 49.9687 10.7652 50.0934 11.0536C50.2187 11.3448 50.0665 11.5459 49.8936 11.8964L50.4334 12.4159C50.8024 12.2468 51.0085 12.1036 51.3082 12.223C51.6085 12.3423 51.6475 12.5816 51.7856 12.9545H52.5477C52.6852 12.583 52.7248 12.343 53.0266 12.2223C53.3248 12.103 53.5274 12.2455 53.9 12.4159L54.4397 11.8964C54.2647 11.5411 54.1153 11.3427 54.24 11.0543C54.3646 10.7659 54.6147 10.7264 55 10.5948ZM52.1667 11.1361C51.6453 11.1361 51.2225 10.7291 51.2225 10.2273C51.2225 9.72545 51.6453 9.31841 52.1667 9.31841C52.688 9.31841 53.1109 9.72545 53.1109 10.2273C53.1109 10.7291 52.688 11.1361 52.1667 11.1361ZM49.3333 13.23V12.6791C49.0415 12.5789 48.8566 12.5509 48.7631 12.3348C48.6696 12.1186 48.7801 11.9714 48.9133 11.7027L48.5081 11.3134C48.2326 11.4402 48.0782 11.548 47.8522 11.458C47.6262 11.368 47.5979 11.1893 47.4938 10.9091H46.9222C46.8187 11.188 46.789 11.368 46.5638 11.458C46.3392 11.548 46.1862 11.4416 45.9078 11.3134L45.5027 11.7027C45.6351 11.9707 45.7463 12.118 45.6528 12.3348C45.5593 12.5516 45.3723 12.5795 45.0826 12.6791V13.23C45.3716 13.3289 45.5593 13.3582 45.6528 13.5743C45.747 13.7925 45.633 13.9439 45.5027 14.2064L45.9078 14.5957C46.1841 14.4689 46.3385 14.3611 46.5638 14.4511C46.789 14.5411 46.818 14.7205 46.9222 15H47.4938C47.5972 14.7211 47.627 14.5411 47.8529 14.4511C48.076 14.3618 48.2283 14.4682 48.5081 14.5964L48.9133 14.207C48.7815 13.9405 48.6696 13.7918 48.7631 13.575C48.8566 13.3582 49.0443 13.3289 49.3333 13.23ZM47.2083 13.6364C46.8173 13.6364 46.5 13.3316 46.5 12.9545C46.5 12.5775 46.8173 12.2727 47.2083 12.2727C47.5993 12.2727 47.9167 12.5775 47.9167 12.9545C47.9167 13.3316 47.5993 13.6364 47.2083 13.6364Z" fill="url(#paint3_linear_19_102)"/>
<path d="M88.0417 6.57614V5.01477C87.2129 4.73045 86.6909 4.65136 86.4267 4.03909C86.1625 3.42545 86.4762 3.00818 86.8517 2.24932L85.7056 1.14545C84.9229 1.50341 84.4851 1.80955 83.8455 1.55455C83.208 1.30023 83.1251 0.793636 82.8319 0H81.2098C80.918 0.789545 80.8344 1.30023 80.1962 1.55455H80.1955C79.558 1.80955 79.1259 1.50682 78.3361 1.14545L77.1907 2.24932C77.564 3.00614 77.8799 3.42477 77.6157 4.03909C77.3501 4.65341 76.8202 4.73386 76 5.01477V6.57545C76.8181 6.85636 77.3508 6.9375 77.615 7.55114C77.8813 8.17023 77.5576 8.59705 77.19 9.34091L78.3361 10.4448C79.1202 10.0868 79.5572 9.78068 80.1955 10.0357H80.1962C80.8337 10.29 80.9172 10.798 81.2098 11.5902H82.8312C83.123 10.8007 83.2066 10.2914 83.849 10.0343H83.8497C84.483 9.78068 84.913 10.0827 85.7049 10.4448L86.851 9.34091C86.4791 8.58614 86.161 8.16614 86.4252 7.55114C86.6902 6.93818 87.2228 6.85636 88.0417 6.57614ZM82.0208 7.72773C80.913 7.72773 80.0141 6.8625 80.0141 5.79545C80.0141 4.72841 80.913 3.86318 82.0208 3.86318C83.1287 3.86318 84.0275 4.72841 84.0275 5.79545C84.0275 6.8625 83.1287 7.72773 82.0208 7.72773ZM93 10.5948V9.86045C92.6104 9.72682 92.3646 9.68932 92.24 9.40159C92.1153 9.1125 92.2633 8.91682 92.4397 8.55886L91.9 8.03932C91.5316 8.20841 91.3255 8.35159 91.0252 8.23227C90.7248 8.11295 90.6859 7.87432 90.5477 7.50068H89.7856C89.6482 7.87227 89.6085 8.11227 89.3082 8.23227C89.0078 8.35227 88.8045 8.20977 88.4334 8.03932L87.8936 8.55886C88.0693 8.91545 88.218 9.1125 88.0934 9.40159C87.9687 9.69068 87.7194 9.72818 87.3333 9.86045V10.5948C87.7187 10.7264 87.9687 10.7652 88.0934 11.0536C88.2187 11.3448 88.0665 11.5459 87.8936 11.8964L88.4334 12.4159C88.8024 12.2468 89.0085 12.1036 89.3082 12.223C89.6085 12.3423 89.6475 12.5816 89.7856 12.9545H90.5477C90.6852 12.583 90.7248 12.343 91.0266 12.2223H91.0273C91.3255 12.103 91.5274 12.2455 91.9 12.4159L92.4397 11.8964C92.2647 11.5411 92.1153 11.3427 92.24 11.0543C92.3646 10.7659 92.6147 10.7264 93 10.5948ZM90.1667 11.1361C89.6453 11.1361 89.2225 10.7291 89.2225 10.2273C89.2225 9.72545 89.6453 9.31841 90.1667 9.31841C90.688 9.31841 91.1109 9.72545 91.1109 10.2273C91.1109 10.7291 90.688 11.1361 90.1667 11.1361ZM87.3333 13.23V12.6791C87.0415 12.5789 86.8566 12.5509 86.7631 12.3348C86.6696 12.1186 86.7801 11.9714 86.9133 11.7027L86.5081 11.3134C86.2326 11.4402 86.0782 11.548 85.8522 11.458C85.6263 11.368 85.5979 11.1893 85.4938 10.9091H84.9222C84.8187 11.188 84.789 11.368 84.5637 11.458C84.3392 11.548 84.1862 11.4416 83.9078 11.3134L83.5027 11.7027C83.6351 11.9707 83.7463 12.118 83.6528 12.3348C83.5593 12.5516 83.3723 12.5795 83.0826 12.6791V13.23C83.3716 13.3289 83.5593 13.3582 83.6528 13.5743C83.747 13.7925 83.633 13.9439 83.5027 14.2064L83.9078 14.5957C84.1841 14.4689 84.3385 14.3611 84.5637 14.4511C84.789 14.5411 84.818 14.7205 84.9222 15H85.4938C85.5972 14.7211 85.627 14.5411 85.8529 14.4511H85.8536C86.0767 14.3618 86.2283 14.4682 86.5081 14.5964L86.9133 14.207C86.7815 13.9405 86.6696 13.7918 86.7631 13.575C86.8566 13.3582 87.0443 13.3289 87.3333 13.23V13.23ZM85.2083 13.6364C84.8173 13.6364 84.5 13.3316 84.5 12.9545C84.5 12.5775 84.8173 12.2727 85.2083 12.2727C85.5993 12.2727 85.9167 12.5775 85.9167 12.9545C85.9167 13.3316 85.5993 13.6364 85.2083 13.6364Z" fill="white"/>
<defs>
<linearGradient id="paint0_linear_19_102" x1="-1.5" y1="1.37762" x2="14.0792" y2="13.0106" gradientUnits="userSpaceOnUse">
<stop offset="0.0945158" stop-color="#F40588"/>
<stop offset="0.447917" stop-color="#C227F4"/>
<stop offset="1" stop-color="#FB924D"/>
</linearGradient>
<linearGradient id="paint1_linear_19_102" x1="22.5" y1="-5" x2="37.5463" y2="7.54423" gradientUnits="userSpaceOnUse">
<stop offset="0.369792" stop-color="#FFFCFE"/>
<stop offset="0.447917" stop-color="#C227F4"/>
<stop offset="1" stop-color="#FB924D"/>
</linearGradient>
<linearGradient id="paint2_linear_19_102" x1="64" y1="-8.90206e-08" x2="71.0567" y2="12.2552" gradientUnits="userSpaceOnUse">
<stop offset="0.0945158" stop-color="#FFFAFD"/>
<stop offset="0.197917" stop-color="#FFFEFF"/>
<stop offset="0.515625" stop-color="#FFFEFF"/>
<stop offset="0.713442" stop-color="#FFFEFF"/>
<stop offset="0.713542" stop-color="#DD5AA4"/>
<stop offset="0.734275" stop-color="#DF5E9F"/>
<stop offset="0.734375" stop-color="#E05F9D"/>
<stop offset="0.755208" stop-color="#E26397"/>
<stop offset="1" stop-color="#FB924D"/>
</linearGradient>
<linearGradient id="paint3_linear_19_102" x1="36.5" y1="1.00263" x2="52.0792" y2="12.6357" gradientUnits="userSpaceOnUse">
<stop stop-color="#F40588"/>
<stop offset="0.0945158" stop-color="#F40588"/>
<stop offset="0.447917" stop-color="#C227F4"/>
<stop offset="0.765425" stop-color="#FFFCFD"/>
<stop offset="0.765525" stop-color="#E26397"/>
<stop offset="0.765625" stop-color="#E36594"/>
<stop offset="0.765725" stop-color="#FFFCFD"/>
<stop offset="0.791167" stop-color="#FFFEFE"/>
<stop offset="0.791267" stop-color="#FFFBFC"/>
<stop offset="0.791367" stop-color="#EEA2BF"/>
<stop offset="0.791467" stop-color="#FFFEFE"/>
<stop offset="0.791567" stop-color="#E5698E"/>
<stop offset="0.791667" stop-color="#E56A8C"/>
<stop offset="0.791767" stop-color="#E66B8A"/>
<stop offset="0.791867" stop-color="#FFFCFD"/>
<stop offset="0.817608" stop-color="#FFFCFD"/>
<stop offset="0.817708" stop-color="white"/>
<stop offset="0.817808" stop-color="white"/>
<stop offset="0.848858" stop-color="#FFFAFA"/>
<stop offset="0.848958" stop-color="#EB757B"/>
<stop offset="0.849058" stop-color="#FFFCFC"/>
<stop offset="0.9999" stop-color="#FFFAFA"/>
<stop offset="1" stop-color="#FFFDFC"/>
</linearGradient>
</defs>
</svg>
