<svg width="83" height="15" viewBox="0 0 83 15" fill="none" xmlns="http://www.w3.org/2000/svg">
<path fill-rule="evenodd" clip-rule="evenodd" d="M9.52875 10.625C8.94937 12.9381 7.93688 14.375 7.5 15C7.06312 14.375 6.05 12.9388 5.47125 10.625H9.52875ZM14.3187 10.625C13.345 12.7444 11.4125 14.3331 9.0775 14.8331C9.89937 13.5406 10.4787 12.1069 10.8131 10.625H14.3187ZM0.68125 10.625H4.18687C4.52375 12.1162 5.10562 13.5488 5.9225 14.8331C3.5875 14.3331 1.655 12.7444 0.68125 10.625ZM9.775 9.375H5.225C5.04375 8.13437 5.04375 6.86625 5.225 5.625H9.77563C9.95563 6.86625 9.95563 8.13437 9.775 9.375ZM3.96312 9.375H0.236875C0.081875 8.77625 0 8.1475 0 7.5C0 6.8525 0.081875 6.22438 0.236875 5.625H3.96312C3.79875 6.8675 3.79875 8.1325 3.96312 9.375ZM14.7631 9.375H11.0363C11.2019 8.1325 11.2019 6.8675 11.0369 5.625H14.7631C14.9175 6.22438 15 6.8525 15 7.5C15 8.1475 14.9175 8.77625 14.7631 9.375ZM9.52875 4.375H5.47125C6.04937 2.06125 7.0625 0.625 7.5 0C8.24625 1.0675 9.0275 2.37438 9.52875 4.375ZM4.18625 4.37437H0.680625C1.655 2.25562 3.5875 0.666875 5.9225 0.16625C5.14937 1.37875 4.53875 2.81437 4.18625 4.37437ZM14.3187 4.37437H10.8131C10.465 2.83562 9.8675 1.40563 9.07687 0.16625C11.4119 0.666875 13.345 2.25562 14.3187 4.37437Z" fill="url(#paint0_linear_16_53)"/>
<path fill-rule="evenodd" clip-rule="evenodd" d="M9.52875 10.625C8.94937 12.9381 7.93688 14.375 7.5 15C7.06312 14.375 6.05 12.9388 5.47125 10.625H9.52875ZM14.3187 10.625C13.345 12.7444 11.4125 14.3331 9.0775 14.8331C9.89937 13.5406 10.4787 12.1069 10.8131 10.625H14.3187ZM0.68125 10.625H4.18687C4.52375 12.1162 5.10562 13.5488 5.9225 14.8331C3.5875 14.3331 1.655 12.7444 0.68125 10.625ZM9.775 9.375H5.225C5.04375 8.13437 5.04375 6.86625 5.225 5.625H9.77563C9.95563 6.86625 9.95563 8.13437 9.775 9.375ZM3.96312 9.375H0.236875C0.081875 8.77625 0 8.1475 0 7.5C0 6.8525 0.081875 6.22438 0.236875 5.625H3.96312C3.79875 6.8675 3.79875 8.1325 3.96312 9.375ZM14.7631 9.375H11.0363C11.2019 8.1325 11.2019 6.8675 11.0369 5.625H14.7631C14.9175 6.22438 15 6.8525 15 7.5C15 8.1475 14.9175 8.77625 14.7631 9.375ZM9.52875 4.375H5.47125C6.04937 2.06125 7.0625 0.625 7.5 0C8.24625 1.0675 9.0275 2.37438 9.52875 4.375ZM4.18625 4.37437H0.680625C1.655 2.25562 3.5875 0.666875 5.9225 0.16625C5.14937 1.37875 4.53875 2.81437 4.18625 4.37437ZM14.3187 4.37437H10.8131C10.465 2.83562 9.8675 1.40563 9.07687 0.16625C11.4119 0.666875 13.345 2.25562 14.3187 4.37437Z" fill="url(#paint1_linear_16_53)"/>
<path fill-rule="evenodd" clip-rule="evenodd" d="M43.5287 10.625C42.9494 12.9381 41.9369 14.375 41.5 15C41.0631 14.375 40.05 12.9388 39.4712 10.625H43.5287ZM48.3187 10.625C47.345 12.7444 45.4125 14.3331 43.0775 14.8331C43.8994 13.5406 44.4787 12.1069 44.8131 10.625H48.3187ZM34.6812 10.625H38.1869C38.5237 12.1162 39.1056 13.5488 39.9225 14.8331C37.5875 14.3331 35.655 12.7444 34.6812 10.625ZM43.775 9.375H39.225C39.0437 8.13437 39.0437 6.86625 39.225 5.625H43.7756C43.9556 6.86625 43.9556 8.13437 43.775 9.375ZM37.9631 9.375H34.2369C34.0819 8.77625 34 8.1475 34 7.5C34 6.8525 34.0819 6.22438 34.2369 5.625H37.9631C37.7987 6.8675 37.7987 8.1325 37.9631 9.375ZM48.7631 9.375H45.0363C45.2019 8.1325 45.2019 6.8675 45.0369 5.625H48.7631C48.9175 6.22438 49 6.8525 49 7.5C49 8.1475 48.9175 8.77625 48.7631 9.375ZM43.5287 4.375H39.4712C40.0494 2.06125 41.0625 0.625 41.5 0C42.2462 1.0675 43.0275 2.37438 43.5287 4.375ZM38.1862 4.37437H34.6806C35.655 2.25562 37.5875 0.666875 39.9225 0.16625C39.1494 1.37875 38.5387 2.81437 38.1862 4.37437ZM48.3187 4.37437H44.8131C44.465 2.83562 43.8675 1.40563 43.0769 0.16625C45.4119 0.666875 47.345 2.25562 48.3187 4.37437Z" fill="url(#paint2_linear_16_53)"/>
<path fill-rule="evenodd" clip-rule="evenodd" d="M43.5287 10.625C42.9494 12.9381 41.9369 14.375 41.5 15C41.0631 14.375 40.05 12.9388 39.4712 10.625H43.5287ZM48.3187 10.625C47.345 12.7444 45.4125 14.3331 43.0775 14.8331C43.8994 13.5406 44.4787 12.1069 44.8131 10.625H48.3187ZM34.6812 10.625H38.1869C38.5237 12.1162 39.1056 13.5488 39.9225 14.8331C37.5875 14.3331 35.655 12.7444 34.6812 10.625ZM43.775 9.375H39.225C39.0437 8.13437 39.0437 6.86625 39.225 5.625H43.7756C43.9556 6.86625 43.9556 8.13437 43.775 9.375ZM37.9631 9.375H34.2369C34.0819 8.77625 34 8.1475 34 7.5C34 6.8525 34.0819 6.22438 34.2369 5.625H37.9631C37.7987 6.8675 37.7987 8.1325 37.9631 9.375ZM48.7631 9.375H45.0363C45.2019 8.1325 45.2019 6.8675 45.0369 5.625H48.7631C48.9175 6.22438 49 6.8525 49 7.5C49 8.1475 48.9175 8.77625 48.7631 9.375ZM43.5287 4.375H39.4712C40.0494 2.06125 41.0625 0.625 41.5 0C42.2462 1.0675 43.0275 2.37438 43.5287 4.375ZM38.1862 4.37437H34.6806C35.655 2.25562 37.5875 0.666875 39.9225 0.16625C39.1494 1.37875 38.5387 2.81437 38.1862 4.37437ZM48.3187 4.37437H44.8131C44.465 2.83562 43.8675 1.40563 43.0769 0.16625C45.4119 0.666875 47.345 2.25562 48.3187 4.37437Z" fill="url(#paint3_linear_16_53)"/>
<path fill-rule="evenodd" clip-rule="evenodd" d="M60.5287 10.625C59.9494 12.9381 58.9369 14.375 58.5 15C58.0631 14.375 57.05 12.9388 56.4712 10.625H60.5287ZM65.3187 10.625C64.345 12.7444 62.4125 14.3331 60.0775 14.8331C60.8994 13.5406 61.4787 12.1069 61.8131 10.625H65.3187ZM51.6812 10.625H55.1869C55.5237 12.1162 56.1056 13.5488 56.9225 14.8331C54.5875 14.3331 52.655 12.7444 51.6812 10.625ZM60.775 9.375H56.225C56.0437 8.13437 56.0437 6.86625 56.225 5.625H60.7756C60.9556 6.86625 60.9556 8.13437 60.775 9.375ZM54.9631 9.375H51.2369C51.0819 8.77625 51 8.1475 51 7.5C51 6.8525 51.0819 6.22438 51.2369 5.625H54.9631C54.7987 6.8675 54.7987 8.1325 54.9631 9.375ZM65.7631 9.375H62.0363C62.2019 8.1325 62.2019 6.8675 62.0369 5.625H65.7631C65.9175 6.22438 66 6.8525 66 7.5C66 8.1475 65.9175 8.77625 65.7631 9.375ZM60.5287 4.375H56.4712C57.0494 2.06125 58.0625 0.625 58.5 0C59.2462 1.0675 60.0275 2.37438 60.5287 4.375ZM55.1862 4.37437H51.6806C52.655 2.25562 54.5875 0.666875 56.9225 0.16625C56.1494 1.37875 55.5387 2.81437 55.1862 4.37437ZM65.3187 4.37437H61.8131C61.465 2.83562 60.8675 1.40563 60.0769 0.16625C62.4119 0.666875 64.345 2.25562 65.3187 4.37437Z" fill="url(#paint4_linear_16_53)"/>
<path fill-rule="evenodd" clip-rule="evenodd" d="M60.5287 10.625C59.9494 12.9381 58.9369 14.375 58.5 15C58.0631 14.375 57.05 12.9388 56.4712 10.625H60.5287ZM65.3187 10.625C64.345 12.7444 62.4125 14.3331 60.0775 14.8331C60.8994 13.5406 61.4787 12.1069 61.8131 10.625H65.3187ZM51.6812 10.625H55.1869C55.5237 12.1162 56.1056 13.5488 56.9225 14.8331C54.5875 14.3331 52.655 12.7444 51.6812 10.625ZM60.775 9.375H56.225C56.0437 8.13437 56.0437 6.86625 56.225 5.625H60.7756C60.9556 6.86625 60.9556 8.13437 60.775 9.375ZM54.9631 9.375H51.2369C51.0819 8.77625 51 8.1475 51 7.5C51 6.8525 51.0819 6.22438 51.2369 5.625H54.9631C54.7987 6.8675 54.7987 8.1325 54.9631 9.375ZM65.7631 9.375H62.0363C62.2019 8.1325 62.2019 6.8675 62.0369 5.625H65.7631C65.9175 6.22438 66 6.8525 66 7.5C66 8.1475 65.9175 8.77625 65.7631 9.375ZM60.5287 4.375H56.4712C57.0494 2.06125 58.0625 0.625 58.5 0C59.2462 1.0675 60.0275 2.37438 60.5287 4.375ZM55.1862 4.37437H51.6806C52.655 2.25562 54.5875 0.666875 56.9225 0.16625C56.1494 1.37875 55.5387 2.81437 55.1862 4.37437ZM65.3187 4.37437H61.8131C61.465 2.83562 60.8675 1.40563 60.0769 0.16625C62.4119 0.666875 64.345 2.25562 65.3187 4.37437Z" fill="url(#paint5_linear_16_53)"/>
<path fill-rule="evenodd" clip-rule="evenodd" d="M26.5287 10.625C25.9494 12.9381 24.9369 14.375 24.5 15C24.0631 14.375 23.05 12.9388 22.4712 10.625H26.5287ZM31.3187 10.625C30.345 12.7444 28.4125 14.3331 26.0775 14.8331C26.8994 13.5406 27.4787 12.1069 27.8131 10.625H31.3187ZM17.6812 10.625H21.1869C21.5237 12.1162 22.1056 13.5488 22.9225 14.8331C20.5875 14.3331 18.655 12.7444 17.6812 10.625ZM26.775 9.375H22.225C22.0437 8.13437 22.0437 6.86625 22.225 5.625H26.7756C26.9556 6.86625 26.9556 8.13437 26.775 9.375ZM20.9631 9.375H17.2369C17.0819 8.77625 17 8.1475 17 7.5C17 6.8525 17.0819 6.22438 17.2369 5.625H20.9631C20.7987 6.8675 20.7987 8.1325 20.9631 9.375ZM31.7631 9.375H28.0363C28.2019 8.1325 28.2019 6.8675 28.0369 5.625H31.7631C31.9175 6.22438 32 6.8525 32 7.5C32 8.1475 31.9175 8.77625 31.7631 9.375ZM26.5287 4.375H22.4712C23.0494 2.06125 24.0625 0.625 24.5 0C25.2462 1.0675 26.0275 2.37438 26.5287 4.375ZM21.1862 4.37437H17.6806C18.655 2.25562 20.5875 0.666875 22.9225 0.16625C22.1494 1.37875 21.5387 2.81437 21.1862 4.37437ZM31.3187 4.37437H27.8131C27.465 2.83562 26.8675 1.40563 26.0769 0.16625C28.4119 0.666875 30.345 2.25562 31.3187 4.37437Z" fill="url(#paint6_linear_16_53)"/>
<path fill-rule="evenodd" clip-rule="evenodd" d="M26.5287 10.625C25.9494 12.9381 24.9369 14.375 24.5 15C24.0631 14.375 23.05 12.9388 22.4712 10.625H26.5287ZM31.3187 10.625C30.345 12.7444 28.4125 14.3331 26.0775 14.8331C26.8994 13.5406 27.4787 12.1069 27.8131 10.625H31.3187ZM17.6812 10.625H21.1869C21.5237 12.1162 22.1056 13.5488 22.9225 14.8331C20.5875 14.3331 18.655 12.7444 17.6812 10.625ZM26.775 9.375H22.225C22.0437 8.13437 22.0437 6.86625 22.225 5.625H26.7756C26.9556 6.86625 26.9556 8.13437 26.775 9.375ZM20.9631 9.375H17.2369C17.0819 8.77625 17 8.1475 17 7.5C17 6.8525 17.0819 6.22438 17.2369 5.625H20.9631C20.7987 6.8675 20.7987 8.1325 20.9631 9.375ZM31.7631 9.375H28.0363C28.2019 8.1325 28.2019 6.8675 28.0369 5.625H31.7631C31.9175 6.22438 32 6.8525 32 7.5C32 8.1475 31.9175 8.77625 31.7631 9.375ZM26.5287 4.375H22.4712C23.0494 2.06125 24.0625 0.625 24.5 0C25.2462 1.0675 26.0275 2.37438 26.5287 4.375ZM21.1862 4.37437H17.6806C18.655 2.25562 20.5875 0.666875 22.9225 0.16625C22.1494 1.37875 21.5387 2.81437 21.1862 4.37437ZM31.3187 4.37437H27.8131C27.465 2.83562 26.8675 1.40563 26.0769 0.16625C28.4119 0.666875 30.345 2.25562 31.3187 4.37437Z" fill="url(#paint7_linear_16_53)"/>
<path fill-rule="evenodd" clip-rule="evenodd" d="M77.5287 10.625C76.9494 12.9381 75.9369 14.375 75.5 15C75.0631 14.375 74.05 12.9387 73.4712 10.625H77.5287ZM82.3187 10.625C81.345 12.7444 79.4125 14.3331 77.0775 14.8331C77.8994 13.5406 78.4788 12.1069 78.8131 10.625H82.3187ZM68.6813 10.625H72.1869C72.5237 12.1162 73.1056 13.5487 73.9225 14.8331C71.5875 14.3331 69.655 12.7444 68.6813 10.625ZM77.775 9.375H73.225C73.0437 8.13437 73.0437 6.86625 73.225 5.625H77.7756C77.9556 6.86625 77.9556 8.13437 77.775 9.375ZM71.9631 9.375H68.2369C68.0819 8.77625 68 8.1475 68 7.5C68 6.8525 68.0819 6.22438 68.2369 5.625H71.9631C71.7987 6.8675 71.7987 8.1325 71.9631 9.375ZM82.7631 9.375H79.0363C79.2019 8.1325 79.2019 6.8675 79.0369 5.625H82.7631C82.9175 6.22438 83 6.8525 83 7.5C83 8.1475 82.9175 8.77625 82.7631 9.375ZM77.5287 4.375H73.4712C74.0494 2.06125 75.0625 0.625 75.5 0C76.2462 1.0675 77.0275 2.37438 77.5287 4.375ZM72.1862 4.37437H68.6806C69.655 2.25562 71.5875 0.666875 73.9225 0.16625C73.1494 1.37875 72.5387 2.81437 72.1862 4.37437ZM82.3187 4.37437H78.8131C78.465 2.83563 77.8675 1.40563 77.0769 0.16625C79.4119 0.666875 81.345 2.25562 82.3187 4.37437Z" fill="white"/>
<defs>
<linearGradient id="paint0_linear_16_53" x1="-1.5625" y1="6.17001e-08" x2="10.3125" y2="14.0625" gradientUnits="userSpaceOnUse">
<stop stop-color="#F40588"/>
<stop offset="0.536458" stop-color="#BF26F3"/>
<stop offset="1" stop-color="#FB904E"/>
</linearGradient>
<linearGradient id="paint1_linear_16_53" x1="-1.5625" y1="6.17001e-08" x2="10.3125" y2="14.0625" gradientUnits="userSpaceOnUse">
<stop stop-color="#F40588"/>
<stop offset="0.536458" stop-color="#BF26F3"/>
<stop offset="1" stop-color="#FB904E"/>
</linearGradient>
<linearGradient id="paint2_linear_16_53" x1="32.4375" y1="5.82077e-09" x2="49" y2="-5.58793e-08" gradientUnits="userSpaceOnUse">
<stop stop-color="#F40588"/>
<stop offset="0.0001" stop-color="#F9F9F9"/>
<stop offset="0.0259417" stop-color="#FEFEFE"/>
<stop offset="0.0260417" stop-color="white"/>
<stop offset="0.046875" stop-color="#FDFDFD"/>
<stop offset="0.0729167" stop-color="#FCFCFC"/>
<stop offset="0.104167" stop-color="#FEFEFE"/>
<stop offset="0.125" stop-color="#FCFCFC"/>
<stop offset="0.161458" stop-color="white"/>
<stop offset="0.213542" stop-color="#FFFEFF"/>
<stop offset="0.286458" stop-color="white"/>
<stop offset="0.322917" stop-color="white"/>
<stop offset="0.354167" stop-color="white"/>
<stop offset="0.3748" stop-color="white"/>
<stop offset="0.3749" stop-color="#DB55DE"/>
<stop offset="0.375" stop-color="#CF1CD3"/>
<stop offset="0.3751" stop-color="#CE1CD4"/>
<stop offset="0.3752" stop-color="#FCE0FD"/>
<stop offset="0.458333" stop-color="#C721E3"/>
<stop offset="0.536458" stop-color="#BF26F3"/>
<stop offset="0.604167" stop-color="#C835DB"/>
<stop offset="0.682292" stop-color="#D247BF"/>
<stop offset="0.744692" stop-color="white"/>
<stop offset="0.744792" stop-color="white"/>
<stop offset="0.791667" stop-color="white"/>
<stop offset="0.822917" stop-color="white"/>
<stop offset="0.859375" stop-color="white"/>
<stop offset="0.890625" stop-color="#FCFCFC"/>
<stop offset="0.911458" stop-color="white"/>
<stop offset="0.942708" stop-color="white"/>
<stop offset="0.963542" stop-color="white"/>
<stop offset="0.963642" stop-color="white"/>
<stop offset="0.9999" stop-color="white"/>
<stop offset="1" stop-color="#FB904E"/>
</linearGradient>
<linearGradient id="paint3_linear_16_53" x1="32.4375" y1="5.82077e-09" x2="49" y2="-5.58793e-08" gradientUnits="userSpaceOnUse">
<stop stop-color="#F40588"/>
<stop offset="0.0001" stop-color="#F9F9F9"/>
<stop offset="0.0259417" stop-color="#FEFEFE"/>
<stop offset="0.0260417" stop-color="white"/>
<stop offset="0.046875" stop-color="#FDFDFD"/>
<stop offset="0.0729167" stop-color="#FCFCFC"/>
<stop offset="0.104167" stop-color="#FEFEFE"/>
<stop offset="0.125" stop-color="#FCFCFC"/>
<stop offset="0.161458" stop-color="white"/>
<stop offset="0.213542" stop-color="#FFFEFF"/>
<stop offset="0.286458" stop-color="white"/>
<stop offset="0.322917" stop-color="white"/>
<stop offset="0.354167" stop-color="white"/>
<stop offset="0.3748" stop-color="white"/>
<stop offset="0.3749" stop-color="#DB55DE"/>
<stop offset="0.375" stop-color="#CF1CD3"/>
<stop offset="0.3751" stop-color="#CE1CD4"/>
<stop offset="0.3752" stop-color="#FCE0FD"/>
<stop offset="0.458333" stop-color="#C721E3"/>
<stop offset="0.536458" stop-color="#BF26F3"/>
<stop offset="0.604167" stop-color="#C835DB"/>
<stop offset="0.682292" stop-color="#D247BF"/>
<stop offset="0.744692" stop-color="white"/>
<stop offset="0.744792" stop-color="white"/>
<stop offset="0.791667" stop-color="white"/>
<stop offset="0.822917" stop-color="white"/>
<stop offset="0.859375" stop-color="white"/>
<stop offset="0.890625" stop-color="#FCFCFC"/>
<stop offset="0.911458" stop-color="white"/>
<stop offset="0.942708" stop-color="white"/>
<stop offset="0.963542" stop-color="white"/>
<stop offset="0.963642" stop-color="white"/>
<stop offset="0.9999" stop-color="white"/>
<stop offset="1" stop-color="#FB904E"/>
</linearGradient>
<linearGradient id="paint4_linear_16_53" x1="49.4375" y1="5.19361e-09" x2="68" y2="-5.65066e-08" gradientUnits="userSpaceOnUse">
<stop offset="0.583333" stop-color="#FFFCFE"/>
<stop offset="0.609375" stop-color="#BF26F3"/>
<stop offset="1" stop-color="#FB904E"/>
</linearGradient>
<linearGradient id="paint5_linear_16_53" x1="49.4375" y1="5.19361e-09" x2="68" y2="-5.65066e-08" gradientUnits="userSpaceOnUse">
<stop offset="0.583333" stop-color="#FFFCFE"/>
<stop offset="0.609375" stop-color="#BF26F3"/>
<stop offset="1" stop-color="#FB904E"/>
</linearGradient>
<linearGradient id="paint6_linear_16_53" x1="36" y1="2.33063e-07" x2="13" y2="-4.90658e-08" gradientUnits="userSpaceOnUse">
<stop stop-color="white"/>
<stop offset="0.09375" stop-color="#FFFAFD"/>
<stop offset="0.192708" stop-color="#FFFAFE"/>
<stop offset="0.322917" stop-color="#FFFAFF"/>
<stop offset="0.46875" stop-color="#FEFBFF"/>
<stop offset="0.572917" stop-color="#FEFAFF"/>
<stop offset="0.606901" stop-color="#CA1FDC"/>
<stop offset="1" stop-color="#FB904E"/>
</linearGradient>
<linearGradient id="paint7_linear_16_53" x1="36" y1="2.33063e-07" x2="13" y2="-4.90658e-08" gradientUnits="userSpaceOnUse">
<stop stop-color="white"/>
<stop offset="0.09375" stop-color="#FFFAFD"/>
<stop offset="0.192708" stop-color="#FFFAFE"/>
<stop offset="0.322917" stop-color="#FFFAFF"/>
<stop offset="0.46875" stop-color="#FEFBFF"/>
<stop offset="0.572917" stop-color="#FEFAFF"/>
<stop offset="0.606901" stop-color="#CA1FDC"/>
<stop offset="1" stop-color="#FB904E"/>
</linearGradient>
</defs>
</svg>
