<svg width="98" height="15" viewBox="0 0 98 15" fill="none" xmlns="http://www.w3.org/2000/svg">
<path d="M18 1.77579C17.3377 2.07727 16.626 2.2803 15.879 2.37182C16.6418 1.90346 17.2275 1.1613 17.5027 0.276866C16.7895 0.710624 15.999 1.02594 15.1575 1.19591C14.4847 0.459906 13.524 0 12.462 0C10.0777 0 8.32575 2.28107 8.86425 4.64905C5.796 4.49139 3.075 2.984 1.25325 0.692935C0.28575 2.39489 0.7515 4.62136 2.3955 5.74882C1.791 5.72882 1.221 5.55886 0.72375 5.27507C0.68325 7.02933 1.9095 8.67053 3.6855 9.03584C3.16575 9.18042 2.5965 9.21426 2.0175 9.10044C2.487 10.6047 3.8505 11.6991 5.4675 11.7299C3.915 12.9781 1.959 13.5357 0 13.2988C1.63425 14.3732 3.576 15 5.661 15C12.5175 15 16.3912 9.06199 16.1572 3.73616C16.8787 3.20165 17.505 2.53486 18 1.77579V1.77579Z" fill="url(#paint0_linear_19_98)"/>
<path d="M57 1.77579C56.3377 2.07727 55.626 2.2803 54.879 2.37182C55.6418 1.90346 56.2275 1.1613 56.5028 0.276866C55.7895 0.710624 54.999 1.02594 54.1575 1.19591C53.4847 0.459906 52.524 0 51.462 0C49.0777 0 47.3258 2.28107 47.8643 4.64905C44.796 4.49139 42.075 2.984 40.2533 0.692935C39.2858 2.39489 39.7515 4.62136 41.3955 5.74882C40.791 5.72882 40.221 5.55886 39.7237 5.27507C39.6832 7.02933 40.9095 8.67053 42.6855 9.03584C42.1658 9.18042 41.5965 9.21426 41.0175 9.10044C41.487 10.6047 42.8505 11.6991 44.4675 11.7299C42.915 12.9781 40.959 13.5357 39 13.2988C40.6342 14.3732 42.576 15 44.661 15C51.5175 15 55.3912 9.06199 55.1572 3.73616C55.8787 3.20165 56.505 2.53486 57 1.77579Z" fill="url(#paint1_linear_19_98)"/>
<path d="M37 1.77579C36.3377 2.07727 35.626 2.2803 34.879 2.37182C35.6418 1.90346 36.2275 1.1613 36.5028 0.276866C35.7895 0.710624 34.999 1.02594 34.1575 1.19591C33.4847 0.459906 32.524 0 31.462 0C29.0777 0 27.3258 2.28107 27.8643 4.64905C24.796 4.49139 22.075 2.984 20.2533 0.692935C19.2858 2.39489 19.7515 4.62136 21.3955 5.74882C20.791 5.72882 20.221 5.55886 19.7237 5.27507C19.6832 7.02933 20.9095 8.67053 22.6855 9.03584C22.1658 9.18042 21.5965 9.21426 21.0175 9.10044C21.487 10.6047 22.8505 11.6991 24.4675 11.7299C22.915 12.9781 20.959 13.5357 19 13.2988C20.6342 14.3732 22.576 15 24.661 15C31.5175 15 35.3912 9.06199 35.1572 3.73616C35.8787 3.20165 36.505 2.53486 37 1.77579Z" fill="url(#paint2_linear_19_98)"/>
<path d="M98 1.77579C97.3377 2.07727 96.626 2.2803 95.879 2.37182C96.6418 1.90346 97.2275 1.1613 97.5027 0.276866C96.7895 0.710624 95.999 1.02594 95.1575 1.19591C94.4847 0.459906 93.524 0 92.462 0C90.0777 0 88.3258 2.28107 88.8643 4.64905C85.796 4.49139 83.075 2.984 81.2533 0.692935C80.2858 2.39489 80.7515 4.62136 82.3955 5.74882C81.791 5.72882 81.221 5.55886 80.7237 5.27507C80.6832 7.02933 81.9095 8.67053 83.6855 9.03584C83.1658 9.18042 82.5965 9.21426 82.0175 9.10044C82.487 10.6047 83.8505 11.6991 85.4675 11.7299C83.915 12.9781 81.959 13.5357 80 13.2988C81.6342 14.3732 83.576 15 85.661 15C92.5175 15 96.3912 9.06199 96.1572 3.73616C96.8787 3.20165 97.505 2.53486 98 1.77579V1.77579Z" fill="white"/>
<defs>
<linearGradient id="paint0_linear_19_98" x1="-1.73077" y1="-0.309201" x2="10.383" y2="13.5888" gradientUnits="userSpaceOnUse">
<stop offset="0.137702" stop-color="#F40489"/>
<stop offset="0.500863" stop-color="#C127F4"/>
<stop offset="1" stop-color="#FB954C"/>
</linearGradient>
<linearGradient id="paint1_linear_19_98" x1="45" y1="-4" x2="56.3029" y2="8.21983" gradientUnits="userSpaceOnUse">
<stop offset="0.137702" stop-color="#F40489"/>
<stop offset="0.500863" stop-color="#C127F4"/>
<stop offset="0.671875" stop-color="#F3D2FB"/>
<stop offset="0.693519" stop-color="#FFFCFE"/>
<stop offset="1" stop-color="#FFFDFB"/>
</linearGradient>
<linearGradient id="paint2_linear_19_98" x1="28" y1="-5" x2="39.8645" y2="9.70591" gradientUnits="userSpaceOnUse">
<stop offset="0.137702" stop-color="#F40489"/>
<stop offset="0.498156" stop-color="#C127F4"/>
<stop offset="0.536158" stop-color="#DB82F9"/>
<stop offset="0.536258" stop-color="#E5A3FB"/>
<stop offset="0.536358" stop-color="#FDF9FF"/>
<stop offset="0.536458" stop-color="#DF89FC"/>
<stop offset="0.536558" stop-color="#DF89FC"/>
<stop offset="0.557192" stop-color="#E7A6FD"/>
<stop offset="0.619792" stop-color="#E59FFC"/>
<stop offset="0.640625" stop-color="#FFFCFA"/>
</linearGradient>
</defs>
</svg>
