<svg width="90" height="15" viewBox="0 0 90 15" fill="none" xmlns="http://www.w3.org/2000/svg">
<path d="M57.1875 9.375C55.6356 9.375 54.375 10.6344 54.375 12.1875C54.375 13.7406 55.6356 15 57.1875 15C58.7394 15 60 13.7406 60 12.1875C60 10.6344 58.7394 9.375 57.1875 9.375ZM58.75 12.5H57.5V13.75H56.875V12.5H55.625V11.875H56.875V10.625H57.5V11.875H58.75V12.5ZM54.2625 15H45.0031L45 14.2244C45 12.6494 45.1244 11.74 46.9862 11.31C49.0894 10.8244 51.1662 10.3894 50.1675 8.54875C47.2094 3.09312 49.3238 0 52.5 0C56.7194 0 57.1913 4.74687 54.775 8.54937C53.9675 9.81875 53.125 10.8181 53.125 12.1875C53.125 13.2794 53.56 14.2694 54.2625 15Z" fill="url(#paint0_linear_19_103)"/>
<path d="M87.1875 9.375C85.6356 9.375 84.375 10.6344 84.375 12.1875C84.375 13.7406 85.6356 15 87.1875 15C88.7394 15 90 13.7406 90 12.1875C90 10.6344 88.7394 9.375 87.1875 9.375ZM88.75 12.5H87.5V13.75H86.875V12.5H85.625V11.875H86.875V10.625H87.5V11.875H88.75V12.5ZM84.2625 15H75.0031L75 14.2244C75 12.6494 75.1244 11.74 76.9862 11.31C79.0894 10.8244 81.1662 10.3894 80.1675 8.54875C77.2094 3.09313 79.3238 0 82.5 0C86.7194 0 87.1912 4.74688 84.775 8.54937C83.9675 9.81875 83.125 10.8181 83.125 12.1875C83.125 13.2794 83.56 14.2694 84.2625 15Z" fill="white"/>
<path d="M12.1875 9.375C10.6356 9.375 9.375 10.6344 9.375 12.1875C9.375 13.7406 10.6356 15 12.1875 15C13.7394 15 15 13.7406 15 12.1875C15 10.6344 13.7394 9.375 12.1875 9.375ZM13.75 12.5H12.5V13.75H11.875V12.5H10.625V11.875H11.875V10.625H12.5V11.875H13.75V12.5ZM9.2625 15H0.003125L0 14.2244C0 12.6494 0.124375 11.74 1.98625 11.31C4.08938 10.8244 6.16625 10.3894 5.1675 8.54875C2.20937 3.09312 4.32375 0 7.5 0C11.7194 0 12.1913 4.74687 9.775 8.54937C8.9675 9.81875 8.125 10.8181 8.125 12.1875C8.125 13.2794 8.56 14.2694 9.2625 15Z" fill="url(#paint1_linear_19_103)"/>
<path d="M42.1875 9.375C40.6356 9.375 39.375 10.6344 39.375 12.1875C39.375 13.7406 40.6356 15 42.1875 15C43.7394 15 45 13.7406 45 12.1875C45 10.6344 43.7394 9.375 42.1875 9.375ZM43.75 12.5H42.5V13.75H41.875V12.5H40.625V11.875H41.875V10.625H42.5V11.875H43.75V12.5ZM39.2625 15H30.0031L30 14.2244C30 12.6494 30.1244 11.74 31.9862 11.31C34.0894 10.8244 36.1662 10.3894 35.1675 8.54875C32.2094 3.09312 34.3238 0 37.5 0C41.7194 0 42.1913 4.74687 39.775 8.54937C38.9675 9.81875 38.125 10.8181 38.125 12.1875C38.125 13.2794 38.56 14.2694 39.2625 15Z" fill="url(#paint2_linear_19_103)"/>
<path d="M27.1875 9.375C25.6356 9.375 24.375 10.6344 24.375 12.1875C24.375 13.7406 25.6356 15 27.1875 15C28.7394 15 30 13.7406 30 12.1875C30 10.6344 28.7394 9.375 27.1875 9.375ZM28.75 12.5H27.5V13.75H26.875V12.5H25.625V11.875H26.875V10.625H27.5V11.875H28.75V12.5ZM24.2625 15H15.0031L15 14.2244C15 12.6494 15.1244 11.74 16.9862 11.31C19.0894 10.8244 21.1662 10.3894 20.1675 8.54875C17.2094 3.09312 19.3238 0 22.5 0C26.7194 0 27.1913 4.74687 24.775 8.54937C23.9675 9.81875 23.125 10.8181 23.125 12.1875C23.125 13.2794 23.56 14.2694 24.2625 15Z" fill="url(#paint3_linear_19_103)"/>
<path d="M72.1875 9.375C70.6356 9.375 69.375 10.6344 69.375 12.1875C69.375 13.7406 70.6356 15 72.1875 15C73.7394 15 75 13.7406 75 12.1875C75 10.6344 73.7394 9.375 72.1875 9.375ZM73.75 12.5H72.5V13.75H71.875V12.5H70.625V11.875H71.875V10.625H72.5V11.875H73.75V12.5ZM69.2625 15H60.0031L60 14.2244C60 12.6494 60.1244 11.74 61.9862 11.31C64.0894 10.8244 66.1662 10.3894 65.1675 8.54875C62.2094 3.09312 64.3238 0 67.5 0C71.7194 0 72.1913 4.74687 69.775 8.54937C68.9675 9.81875 68.125 10.8181 68.125 12.1875C68.125 13.2794 68.56 14.2694 69.2625 15Z" fill="url(#paint4_linear_19_103)"/>
<defs>
<linearGradient id="paint0_linear_19_103" x1="45.3229" y1="-1.61458" x2="59.8542" y2="14.2083" gradientUnits="userSpaceOnUse">
<stop stop-color="#F40489"/>
<stop offset="0.479167" stop-color="#BF26F3"/>
<stop offset="0.59375" stop-color="#FFFDFF"/>
<stop offset="0.760417" stop-color="white" stop-opacity="0.810511"/>
<stop offset="0.9997" stop-color="white" stop-opacity="0.76906"/>
<stop offset="0.9998" stop-color="#FFF9F6" stop-opacity="0.538348"/>
<stop offset="0.9999" stop-color="#FFF9F5" stop-opacity="0.52"/>
<stop offset="1" stop-color="#FB914E"/>
</linearGradient>
<linearGradient id="paint1_linear_19_103" x1="0.322917" y1="-1.61458" x2="14.8542" y2="14.2083" gradientUnits="userSpaceOnUse">
<stop stop-color="#F40489"/>
<stop offset="0.479167" stop-color="#BF26F3"/>
<stop offset="1" stop-color="#FB914E"/>
</linearGradient>
<linearGradient id="paint2_linear_19_103" x1="31.7308" y1="-3.46154" x2="47.3077" y2="13.8462" gradientUnits="userSpaceOnUse">
<stop stop-color="#FFFBFD"/>
<stop offset="0.53125" stop-color="#FEFBFF"/>
<stop offset="0.6875" stop-color="#BF26F3"/>
<stop offset="1" stop-color="#FB914E"/>
</linearGradient>
<linearGradient id="paint3_linear_19_103" x1="16.7308" y1="-3.46154" x2="32.3077" y2="13.8462" gradientUnits="userSpaceOnUse">
<stop stop-color="#FFFBFD"/>
<stop offset="0.385417" stop-color="#FEF8FF"/>
<stop offset="0.557292" stop-color="#BF26F3"/>
<stop offset="1" stop-color="#FB914E"/>
</linearGradient>
<linearGradient id="paint4_linear_19_103" x1="55.3846" y1="-5.76923" x2="80.7692" y2="8.07692" gradientUnits="userSpaceOnUse">
<stop stop-color="#FFFAFD"/>
<stop offset="0.673708" stop-color="#FEFCFF"/>
<stop offset="0.786458" stop-color="#E26592"/>
<stop offset="1" stop-color="#FB914E"/>
</linearGradient>
</defs>
</svg>
