<svg width="90" height="15" viewBox="0 0 90 15" fill="none" xmlns="http://www.w3.org/2000/svg">
<path d="M14.5605 14.1211H0.439453C0.196553 14.1211 0 14.3176 0 14.5605C0 14.8034 0.196553 15 0.439453 15H14.5605C14.8034 15 15 14.8034 15 14.5605C15 14.3176 14.8034 14.1211 14.5605 14.1211Z" fill="url(#paint0_linear_19_100)"/>
<path d="M3.98438 7.06055H1.31836C1.07546 7.06055 0.878906 7.2571 0.878906 7.5V9.69727H4.42383V7.5C4.42383 7.2571 4.22728 7.06055 3.98438 7.06055Z" fill="url(#paint1_linear_19_100)"/>
<path d="M4.42383 10.5762H0.878906V13.2422H4.42383V10.5762Z" fill="url(#paint2_linear_19_100)"/>
<path d="M8.81836 3.54492H6.18164C5.93874 3.54492 5.74219 3.74147 5.74219 3.98438V9.69727H9.25781V3.98438C9.25781 3.74147 9.06126 3.54492 8.81836 3.54492Z" fill="url(#paint3_linear_19_100)"/>
<path d="M9.25781 10.5762H5.74219V13.2422H9.25781V10.5762Z" fill="url(#paint4_linear_19_100)"/>
<path d="M13.6816 0H11.0156C10.7727 0 10.5762 0.196553 10.5762 0.439453V4.42383H14.1211V0.439453C14.1211 0.196553 13.9245 0 13.6816 0Z" fill="url(#paint5_linear_19_100)"/>
<path d="M14.1211 5.30273H10.5762V13.2422H14.1211V5.30273Z" fill="url(#paint6_linear_19_100)"/>
<path d="M44.5605 14.1211H30.4395C30.1966 14.1211 30 14.3176 30 14.5605C30 14.8034 30.1966 15 30.4395 15H44.5605C44.8034 15 45 14.8034 45 14.5605C45 14.3176 44.8034 14.1211 44.5605 14.1211Z" fill="url(#paint7_linear_19_100)"/>
<path d="M33.9844 7.06055H31.3184C31.0755 7.06055 30.8789 7.2571 30.8789 7.5V9.69727H34.4238V7.5C34.4238 7.2571 34.2273 7.06055 33.9844 7.06055Z" fill="url(#paint8_linear_19_100)"/>
<path d="M34.4238 10.5762H30.8789V13.2422H34.4238V10.5762Z" fill="url(#paint9_linear_19_100)"/>
<path d="M38.8184 3.54492H36.1816C35.9387 3.54492 35.7422 3.74147 35.7422 3.98438V9.69727H39.2578V3.98438C39.2578 3.74147 39.0613 3.54492 38.8184 3.54492Z" fill="url(#paint10_linear_19_100)"/>
<path d="M39.2578 10.5762H35.7422V13.2422H39.2578V10.5762Z" fill="url(#paint11_linear_19_100)"/>
<path d="M43.6816 0H41.0156C40.7727 0 40.5762 0.196553 40.5762 0.439453V4.42383H44.1211V0.439453C44.1211 0.196553 43.9245 0 43.6816 0Z" fill="url(#paint12_linear_19_100)"/>
<path d="M44.1211 5.30273H40.5762V13.2422H44.1211V5.30273Z" fill="url(#paint13_linear_19_100)"/>
<path d="M29.5605 14.1211H15.4395C15.1966 14.1211 15 14.3176 15 14.5605C15 14.8034 15.1966 15 15.4395 15H29.5605C29.8034 15 30 14.8034 30 14.5605C30 14.3176 29.8034 14.1211 29.5605 14.1211Z" fill="url(#paint14_linear_19_100)"/>
<path d="M18.9844 7.06055H16.3184C16.0755 7.06055 15.8789 7.2571 15.8789 7.5V9.69727H19.4238V7.5C19.4238 7.2571 19.2273 7.06055 18.9844 7.06055Z" fill="url(#paint15_linear_19_100)"/>
<path d="M19.4238 10.5762H15.8789V13.2422H19.4238V10.5762Z" fill="url(#paint16_linear_19_100)"/>
<path d="M23.8184 3.54492H21.1816C20.9387 3.54492 20.7422 3.74147 20.7422 3.98438V9.69727H24.2578V3.98438C24.2578 3.74147 24.0613 3.54492 23.8184 3.54492Z" fill="url(#paint17_linear_19_100)"/>
<path d="M24.2578 10.5762H20.7422V13.2422H24.2578V10.5762Z" fill="url(#paint18_linear_19_100)"/>
<path d="M28.6816 0H26.0156C25.7727 0 25.5762 0.196553 25.5762 0.439453V4.42383H29.1211V0.439453C29.1211 0.196553 28.9245 0 28.6816 0Z" fill="url(#paint19_linear_19_100)"/>
<path d="M29.1211 5.30273H25.5762V13.2422H29.1211V5.30273Z" fill="url(#paint20_linear_19_100)"/>
<path d="M59.5605 14.1211H45.4395C45.1966 14.1211 45 14.3176 45 14.5605C45 14.8034 45.1966 15 45.4395 15H59.5605C59.8034 15 60 14.8034 60 14.5605C60 14.3176 59.8034 14.1211 59.5605 14.1211Z" fill="url(#paint21_linear_19_100)"/>
<path d="M48.9844 7.06055H46.3184C46.0755 7.06055 45.8789 7.2571 45.8789 7.5V9.69727H49.4238V7.5C49.4238 7.2571 49.2273 7.06055 48.9844 7.06055Z" fill="url(#paint22_linear_19_100)"/>
<path d="M49.4238 10.5762H45.8789V13.2422H49.4238V10.5762Z" fill="url(#paint23_linear_19_100)"/>
<path d="M53.8184 3.54492H51.1816C50.9387 3.54492 50.7422 3.74147 50.7422 3.98438V9.69727H54.2578V3.98438C54.2578 3.74147 54.0613 3.54492 53.8184 3.54492Z" fill="url(#paint24_linear_19_100)"/>
<path d="M54.2578 10.5762H50.7422V13.2422H54.2578V10.5762Z" fill="url(#paint25_linear_19_100)"/>
<path d="M58.6816 0H56.0156C55.7727 0 55.5762 0.196553 55.5762 0.439453V4.42383H59.1211V0.439453C59.1211 0.196553 58.9245 0 58.6816 0Z" fill="url(#paint26_linear_19_100)"/>
<path d="M59.1211 5.30273H55.5762V13.2422H59.1211V5.30273Z" fill="url(#paint27_linear_19_100)"/>
<path d="M74.5605 14.1211H60.4395C60.1966 14.1211 60 14.3176 60 14.5605C60 14.8034 60.1966 15 60.4395 15H74.5605C74.8034 15 75 14.8034 75 14.5605C75 14.3176 74.8034 14.1211 74.5605 14.1211Z" fill="url(#paint28_linear_19_100)"/>
<path d="M63.9844 7.06055H61.3184C61.0755 7.06055 60.8789 7.2571 60.8789 7.5V9.69727H64.4238V7.5C64.4238 7.2571 64.2273 7.06055 63.9844 7.06055Z" fill="url(#paint29_linear_19_100)"/>
<path d="M64.4238 10.5762H60.8789V13.2422H64.4238V10.5762Z" fill="url(#paint30_linear_19_100)"/>
<path d="M68.8184 3.54492H66.1816C65.9387 3.54492 65.7422 3.74147 65.7422 3.98438V9.69727H69.2578V3.98438C69.2578 3.74147 69.0613 3.54492 68.8184 3.54492Z" fill="url(#paint31_linear_19_100)"/>
<path d="M69.2578 10.5762H65.7422V13.2422H69.2578V10.5762Z" fill="url(#paint32_linear_19_100)"/>
<path d="M73.6816 0H71.0156C70.7727 0 70.5762 0.196553 70.5762 0.439453V4.42383H74.1211V0.439453C74.1211 0.196553 73.9245 0 73.6816 0Z" fill="url(#paint33_linear_19_100)"/>
<path d="M74.1211 5.30273H70.5762V13.2422H74.1211V5.30273Z" fill="url(#paint34_linear_19_100)"/>
<path d="M89.5605 14.1211H75.4395C75.1966 14.1211 75 14.3176 75 14.5605C75 14.8034 75.1966 15 75.4395 15H89.5605C89.8034 15 90 14.8034 90 14.5605C90 14.3176 89.8034 14.1211 89.5605 14.1211Z" fill="white"/>
<path d="M78.9844 7.06055H76.3184C76.0755 7.06055 75.8789 7.2571 75.8789 7.5V9.69727H79.4238V7.5C79.4238 7.2571 79.2273 7.06055 78.9844 7.06055Z" fill="white"/>
<path d="M79.4238 10.5762H75.8789V13.2422H79.4238V10.5762Z" fill="white"/>
<path d="M83.8184 3.54492H81.1816C80.9387 3.54492 80.7422 3.74147 80.7422 3.98438V9.69727H84.2578V3.98438C84.2578 3.74147 84.0613 3.54492 83.8184 3.54492Z" fill="white"/>
<path d="M84.2578 10.5762H80.7422V13.2422H84.2578V10.5762Z" fill="white"/>
<path d="M88.6816 0H86.0156C85.7727 0 85.5762 0.196553 85.5762 0.439453V4.42383H89.1211V0.439453C89.1211 0.196553 88.9245 0 88.6816 0Z" fill="white"/>
<path d="M89.1211 5.30273H85.5762V13.2422H89.1211V5.30273Z" fill="white"/>
<defs>
<linearGradient id="paint0_linear_19_100" x1="2.1875" y1="5" x2="13.125" y2="13.75" gradientUnits="userSpaceOnUse">
<stop stop-color="#F40489"/>
<stop offset="0.479167" stop-color="#BE26F3"/>
<stop offset="0.96468" stop-color="#FC9B4A"/>
</linearGradient>
<linearGradient id="paint1_linear_19_100" x1="2.1875" y1="5" x2="13.125" y2="13.75" gradientUnits="userSpaceOnUse">
<stop stop-color="#F40489"/>
<stop offset="0.479167" stop-color="#BE26F3"/>
<stop offset="0.96468" stop-color="#FC9B4A"/>
</linearGradient>
<linearGradient id="paint2_linear_19_100" x1="2.1875" y1="5" x2="13.125" y2="13.75" gradientUnits="userSpaceOnUse">
<stop stop-color="#F40489"/>
<stop offset="0.479167" stop-color="#BE26F3"/>
<stop offset="0.96468" stop-color="#FC9B4A"/>
</linearGradient>
<linearGradient id="paint3_linear_19_100" x1="2.1875" y1="5" x2="13.125" y2="13.75" gradientUnits="userSpaceOnUse">
<stop stop-color="#F40489"/>
<stop offset="0.479167" stop-color="#BE26F3"/>
<stop offset="0.96468" stop-color="#FC9B4A"/>
</linearGradient>
<linearGradient id="paint4_linear_19_100" x1="2.1875" y1="5" x2="13.125" y2="13.75" gradientUnits="userSpaceOnUse">
<stop stop-color="#F40489"/>
<stop offset="0.479167" stop-color="#BE26F3"/>
<stop offset="0.96468" stop-color="#FC9B4A"/>
</linearGradient>
<linearGradient id="paint5_linear_19_100" x1="2.1875" y1="5" x2="13.125" y2="13.75" gradientUnits="userSpaceOnUse">
<stop stop-color="#F40489"/>
<stop offset="0.479167" stop-color="#BE26F3"/>
<stop offset="0.96468" stop-color="#FC9B4A"/>
</linearGradient>
<linearGradient id="paint6_linear_19_100" x1="2.1875" y1="5" x2="13.125" y2="13.75" gradientUnits="userSpaceOnUse">
<stop stop-color="#F40489"/>
<stop offset="0.479167" stop-color="#BE26F3"/>
<stop offset="0.96468" stop-color="#FC9B4A"/>
</linearGradient>
<linearGradient id="paint7_linear_19_100" x1="30" y1="0" x2="45" y2="0" gradientUnits="userSpaceOnUse">
<stop stop-color="#F40489"/>
<stop offset="0.479067" stop-color="white"/>
<stop offset="0.479167" stop-color="#FEFBFF"/>
<stop offset="0.578125" stop-color="#FFFDFF"/>
<stop offset="0.96468" stop-color="#FC9B4A"/>
</linearGradient>
<linearGradient id="paint8_linear_19_100" x1="30" y1="0" x2="45" y2="0" gradientUnits="userSpaceOnUse">
<stop stop-color="#F40489"/>
<stop offset="0.479067" stop-color="white"/>
<stop offset="0.479167" stop-color="#FEFBFF"/>
<stop offset="0.578125" stop-color="#FFFDFF"/>
<stop offset="0.96468" stop-color="#FC9B4A"/>
</linearGradient>
<linearGradient id="paint9_linear_19_100" x1="30" y1="0" x2="45" y2="0" gradientUnits="userSpaceOnUse">
<stop stop-color="#F40489"/>
<stop offset="0.479067" stop-color="white"/>
<stop offset="0.479167" stop-color="#FEFBFF"/>
<stop offset="0.578125" stop-color="#FFFDFF"/>
<stop offset="0.96468" stop-color="#FC9B4A"/>
</linearGradient>
<linearGradient id="paint10_linear_19_100" x1="30" y1="0" x2="45" y2="0" gradientUnits="userSpaceOnUse">
<stop stop-color="#F40489"/>
<stop offset="0.479067" stop-color="white"/>
<stop offset="0.479167" stop-color="#FEFBFF"/>
<stop offset="0.578125" stop-color="#FFFDFF"/>
<stop offset="0.96468" stop-color="#FC9B4A"/>
</linearGradient>
<linearGradient id="paint11_linear_19_100" x1="30" y1="0" x2="45" y2="0" gradientUnits="userSpaceOnUse">
<stop stop-color="#F40489"/>
<stop offset="0.479067" stop-color="white"/>
<stop offset="0.479167" stop-color="#FEFBFF"/>
<stop offset="0.578125" stop-color="#FFFDFF"/>
<stop offset="0.96468" stop-color="#FC9B4A"/>
</linearGradient>
<linearGradient id="paint12_linear_19_100" x1="30" y1="0" x2="45" y2="0" gradientUnits="userSpaceOnUse">
<stop stop-color="#F40489"/>
<stop offset="0.479067" stop-color="white"/>
<stop offset="0.479167" stop-color="#FEFBFF"/>
<stop offset="0.578125" stop-color="#FFFDFF"/>
<stop offset="0.96468" stop-color="#FC9B4A"/>
</linearGradient>
<linearGradient id="paint13_linear_19_100" x1="30" y1="0" x2="45" y2="0" gradientUnits="userSpaceOnUse">
<stop stop-color="#F40489"/>
<stop offset="0.479067" stop-color="white"/>
<stop offset="0.479167" stop-color="#FEFBFF"/>
<stop offset="0.578125" stop-color="#FFFDFF"/>
<stop offset="0.96468" stop-color="#FC9B4A"/>
</linearGradient>
<linearGradient id="paint14_linear_19_100" x1="16" y1="0" x2="31" y2="0" gradientUnits="userSpaceOnUse">
<stop stop-color="#F40489"/>
<stop offset="0.0260417" stop-color="#F1068F"/>
<stop offset="0.234375" stop-color="#DA15BD"/>
<stop offset="0.255208" stop-color="#D716C1"/>
<stop offset="0.291667" stop-color="#D319CA"/>
<stop offset="0.645833" stop-color="#FFF9FC"/>
<stop offset="0.755108" stop-color="#FFFEFF"/>
<stop offset="0.96468" stop-color="#FFFDFB"/>
</linearGradient>
<linearGradient id="paint15_linear_19_100" x1="16" y1="0" x2="31" y2="0" gradientUnits="userSpaceOnUse">
<stop stop-color="#F40489"/>
<stop offset="0.0260417" stop-color="#F1068F"/>
<stop offset="0.234375" stop-color="#DA15BD"/>
<stop offset="0.255208" stop-color="#D716C1"/>
<stop offset="0.291667" stop-color="#D319CA"/>
<stop offset="0.645833" stop-color="#FFF9FC"/>
<stop offset="0.755108" stop-color="#FFFEFF"/>
<stop offset="0.96468" stop-color="#FFFDFB"/>
</linearGradient>
<linearGradient id="paint16_linear_19_100" x1="16" y1="0" x2="31" y2="0" gradientUnits="userSpaceOnUse">
<stop stop-color="#F40489"/>
<stop offset="0.0260417" stop-color="#F1068F"/>
<stop offset="0.234375" stop-color="#DA15BD"/>
<stop offset="0.255208" stop-color="#D716C1"/>
<stop offset="0.291667" stop-color="#D319CA"/>
<stop offset="0.645833" stop-color="#FFF9FC"/>
<stop offset="0.755108" stop-color="#FFFEFF"/>
<stop offset="0.96468" stop-color="#FFFDFB"/>
</linearGradient>
<linearGradient id="paint17_linear_19_100" x1="16" y1="0" x2="31" y2="0" gradientUnits="userSpaceOnUse">
<stop stop-color="#F40489"/>
<stop offset="0.0260417" stop-color="#F1068F"/>
<stop offset="0.234375" stop-color="#DA15BD"/>
<stop offset="0.255208" stop-color="#D716C1"/>
<stop offset="0.291667" stop-color="#D319CA"/>
<stop offset="0.645833" stop-color="#FFF9FC"/>
<stop offset="0.755108" stop-color="#FFFEFF"/>
<stop offset="0.96468" stop-color="#FFFDFB"/>
</linearGradient>
<linearGradient id="paint18_linear_19_100" x1="16" y1="0" x2="31" y2="0" gradientUnits="userSpaceOnUse">
<stop stop-color="#F40489"/>
<stop offset="0.0260417" stop-color="#F1068F"/>
<stop offset="0.234375" stop-color="#DA15BD"/>
<stop offset="0.255208" stop-color="#D716C1"/>
<stop offset="0.291667" stop-color="#D319CA"/>
<stop offset="0.645833" stop-color="#FFF9FC"/>
<stop offset="0.755108" stop-color="#FFFEFF"/>
<stop offset="0.96468" stop-color="#FFFDFB"/>
</linearGradient>
<linearGradient id="paint19_linear_19_100" x1="16" y1="0" x2="31" y2="0" gradientUnits="userSpaceOnUse">
<stop stop-color="#F40489"/>
<stop offset="0.0260417" stop-color="#F1068F"/>
<stop offset="0.234375" stop-color="#DA15BD"/>
<stop offset="0.255208" stop-color="#D716C1"/>
<stop offset="0.291667" stop-color="#D319CA"/>
<stop offset="0.645833" stop-color="#FFF9FC"/>
<stop offset="0.755108" stop-color="#FFFEFF"/>
<stop offset="0.96468" stop-color="#FFFDFB"/>
</linearGradient>
<linearGradient id="paint20_linear_19_100" x1="16" y1="0" x2="31" y2="0" gradientUnits="userSpaceOnUse">
<stop stop-color="#F40489"/>
<stop offset="0.0260417" stop-color="#F1068F"/>
<stop offset="0.234375" stop-color="#DA15BD"/>
<stop offset="0.255208" stop-color="#D716C1"/>
<stop offset="0.291667" stop-color="#D319CA"/>
<stop offset="0.645833" stop-color="#FFF9FC"/>
<stop offset="0.755108" stop-color="#FFFEFF"/>
<stop offset="0.96468" stop-color="#FFFDFB"/>
</linearGradient>
<linearGradient id="paint21_linear_19_100" x1="46" y1="0" x2="61" y2="0" gradientUnits="userSpaceOnUse">
<stop offset="0.234275" stop-color="white"/>
<stop offset="0.234375" stop-color="#DA15BD"/>
<stop offset="0.255208" stop-color="#D716C1"/>
<stop offset="0.291667" stop-color="#D319CA"/>
<stop offset="0.369792" stop-color="#DD4AD5"/>
<stop offset="0.645833" stop-color="#FFF9FC"/>
<stop offset="0.755108" stop-color="#FFFEFF"/>
<stop offset="0.96468" stop-color="#FFFDFB"/>
</linearGradient>
<linearGradient id="paint22_linear_19_100" x1="46" y1="0" x2="61" y2="0" gradientUnits="userSpaceOnUse">
<stop offset="0.234275" stop-color="white"/>
<stop offset="0.234375" stop-color="#DA15BD"/>
<stop offset="0.255208" stop-color="#D716C1"/>
<stop offset="0.291667" stop-color="#D319CA"/>
<stop offset="0.369792" stop-color="#DD4AD5"/>
<stop offset="0.645833" stop-color="#FFF9FC"/>
<stop offset="0.755108" stop-color="#FFFEFF"/>
<stop offset="0.96468" stop-color="#FFFDFB"/>
</linearGradient>
<linearGradient id="paint23_linear_19_100" x1="46" y1="0" x2="61" y2="0" gradientUnits="userSpaceOnUse">
<stop offset="0.234275" stop-color="white"/>
<stop offset="0.234375" stop-color="#DA15BD"/>
<stop offset="0.255208" stop-color="#D716C1"/>
<stop offset="0.291667" stop-color="#D319CA"/>
<stop offset="0.369792" stop-color="#DD4AD5"/>
<stop offset="0.645833" stop-color="#FFF9FC"/>
<stop offset="0.755108" stop-color="#FFFEFF"/>
<stop offset="0.96468" stop-color="#FFFDFB"/>
</linearGradient>
<linearGradient id="paint24_linear_19_100" x1="46" y1="0" x2="61" y2="0" gradientUnits="userSpaceOnUse">
<stop offset="0.234275" stop-color="white"/>
<stop offset="0.234375" stop-color="#DA15BD"/>
<stop offset="0.255208" stop-color="#D716C1"/>
<stop offset="0.291667" stop-color="#D319CA"/>
<stop offset="0.369792" stop-color="#DD4AD5"/>
<stop offset="0.645833" stop-color="#FFF9FC"/>
<stop offset="0.755108" stop-color="#FFFEFF"/>
<stop offset="0.96468" stop-color="#FFFDFB"/>
</linearGradient>
<linearGradient id="paint25_linear_19_100" x1="46" y1="0" x2="61" y2="0" gradientUnits="userSpaceOnUse">
<stop offset="0.234275" stop-color="white"/>
<stop offset="0.234375" stop-color="#DA15BD"/>
<stop offset="0.255208" stop-color="#D716C1"/>
<stop offset="0.291667" stop-color="#D319CA"/>
<stop offset="0.369792" stop-color="#DD4AD5"/>
<stop offset="0.645833" stop-color="#FFF9FC"/>
<stop offset="0.755108" stop-color="#FFFEFF"/>
<stop offset="0.96468" stop-color="#FFFDFB"/>
</linearGradient>
<linearGradient id="paint26_linear_19_100" x1="46" y1="0" x2="61" y2="0" gradientUnits="userSpaceOnUse">
<stop offset="0.234275" stop-color="white"/>
<stop offset="0.234375" stop-color="#DA15BD"/>
<stop offset="0.255208" stop-color="#D716C1"/>
<stop offset="0.291667" stop-color="#D319CA"/>
<stop offset="0.369792" stop-color="#DD4AD5"/>
<stop offset="0.645833" stop-color="#FFF9FC"/>
<stop offset="0.755108" stop-color="#FFFEFF"/>
<stop offset="0.96468" stop-color="#FFFDFB"/>
</linearGradient>
<linearGradient id="paint27_linear_19_100" x1="46" y1="0" x2="61" y2="0" gradientUnits="userSpaceOnUse">
<stop offset="0.234275" stop-color="white"/>
<stop offset="0.234375" stop-color="#DA15BD"/>
<stop offset="0.255208" stop-color="#D716C1"/>
<stop offset="0.291667" stop-color="#D319CA"/>
<stop offset="0.369792" stop-color="#DD4AD5"/>
<stop offset="0.645833" stop-color="#FFF9FC"/>
<stop offset="0.755108" stop-color="#FFFEFF"/>
<stop offset="0.96468" stop-color="#FFFDFB"/>
</linearGradient>
<linearGradient id="paint28_linear_19_100" x1="55.5" y1="3.5" x2="76.5" y2="3.5" gradientUnits="userSpaceOnUse">
<stop stop-color="#F40489"/>
<stop offset="0.0001" stop-color="#FEFDFF"/>
<stop offset="0.505208" stop-color="#FEFCFF"/>
<stop offset="0.682292" stop-color="#FFFDFF"/>
<stop offset="0.713542" stop-color="#C737DA"/>
<stop offset="0.744792" stop-color="#C839D8"/>
<stop offset="0.817708" stop-color="#E9787D"/>
<stop offset="0.859375" stop-color="#EF826F"/>
<stop offset="0.96468" stop-color="#FC9B4A"/>
</linearGradient>
<linearGradient id="paint29_linear_19_100" x1="55.5" y1="3.5" x2="76.5" y2="3.5" gradientUnits="userSpaceOnUse">
<stop stop-color="#F40489"/>
<stop offset="0.0001" stop-color="#FEFDFF"/>
<stop offset="0.505208" stop-color="#FEFCFF"/>
<stop offset="0.682292" stop-color="#FFFDFF"/>
<stop offset="0.713542" stop-color="#C737DA"/>
<stop offset="0.744792" stop-color="#C839D8"/>
<stop offset="0.817708" stop-color="#E9787D"/>
<stop offset="0.859375" stop-color="#EF826F"/>
<stop offset="0.96468" stop-color="#FC9B4A"/>
</linearGradient>
<linearGradient id="paint30_linear_19_100" x1="55.5" y1="3.5" x2="76.5" y2="3.5" gradientUnits="userSpaceOnUse">
<stop stop-color="#F40489"/>
<stop offset="0.0001" stop-color="#FEFDFF"/>
<stop offset="0.505208" stop-color="#FEFCFF"/>
<stop offset="0.682292" stop-color="#FFFDFF"/>
<stop offset="0.713542" stop-color="#C737DA"/>
<stop offset="0.744792" stop-color="#C839D8"/>
<stop offset="0.817708" stop-color="#E9787D"/>
<stop offset="0.859375" stop-color="#EF826F"/>
<stop offset="0.96468" stop-color="#FC9B4A"/>
</linearGradient>
<linearGradient id="paint31_linear_19_100" x1="55.5" y1="3.5" x2="76.5" y2="3.5" gradientUnits="userSpaceOnUse">
<stop stop-color="#F40489"/>
<stop offset="0.0001" stop-color="#FEFDFF"/>
<stop offset="0.505208" stop-color="#FEFCFF"/>
<stop offset="0.682292" stop-color="#FFFDFF"/>
<stop offset="0.713542" stop-color="#C737DA"/>
<stop offset="0.744792" stop-color="#C839D8"/>
<stop offset="0.817708" stop-color="#E9787D"/>
<stop offset="0.859375" stop-color="#EF826F"/>
<stop offset="0.96468" stop-color="#FC9B4A"/>
</linearGradient>
<linearGradient id="paint32_linear_19_100" x1="55.5" y1="3.5" x2="76.5" y2="3.5" gradientUnits="userSpaceOnUse">
<stop stop-color="#F40489"/>
<stop offset="0.0001" stop-color="#FEFDFF"/>
<stop offset="0.505208" stop-color="#FEFCFF"/>
<stop offset="0.682292" stop-color="#FFFDFF"/>
<stop offset="0.713542" stop-color="#C737DA"/>
<stop offset="0.744792" stop-color="#C839D8"/>
<stop offset="0.817708" stop-color="#E9787D"/>
<stop offset="0.859375" stop-color="#EF826F"/>
<stop offset="0.96468" stop-color="#FC9B4A"/>
</linearGradient>
<linearGradient id="paint33_linear_19_100" x1="55.5" y1="3.5" x2="76.5" y2="3.5" gradientUnits="userSpaceOnUse">
<stop stop-color="#F40489"/>
<stop offset="0.0001" stop-color="#FEFDFF"/>
<stop offset="0.505208" stop-color="#FEFCFF"/>
<stop offset="0.682292" stop-color="#FFFDFF"/>
<stop offset="0.713542" stop-color="#C737DA"/>
<stop offset="0.744792" stop-color="#C839D8"/>
<stop offset="0.817708" stop-color="#E9787D"/>
<stop offset="0.859375" stop-color="#EF826F"/>
<stop offset="0.96468" stop-color="#FC9B4A"/>
</linearGradient>
<linearGradient id="paint34_linear_19_100" x1="55.5" y1="3.5" x2="76.5" y2="3.5" gradientUnits="userSpaceOnUse">
<stop stop-color="#F40489"/>
<stop offset="0.0001" stop-color="#FEFDFF"/>
<stop offset="0.505208" stop-color="#FEFCFF"/>
<stop offset="0.682292" stop-color="#FFFDFF"/>
<stop offset="0.713542" stop-color="#C737DA"/>
<stop offset="0.744792" stop-color="#C839D8"/>
<stop offset="0.817708" stop-color="#E9787D"/>
<stop offset="0.859375" stop-color="#EF826F"/>
<stop offset="0.96468" stop-color="#FC9B4A"/>
</linearGradient>
</defs>
</svg>
