<svg width="90" height="15" viewBox="0 0 90 15" fill="none" xmlns="http://www.w3.org/2000/svg">
<path d="M12.9212 1.29954C11.6232 0.195565 9.56989 0.00842678 9.482 0.00169495C9.3457 -0.0104218 9.21578 0.0703573 9.15973 0.203643C9.15464 0.21172 9.11005 0.320772 9.06038 0.490408C9.9189 0.643888 10.9736 0.952194 11.9276 1.57823C12.0805 1.67786 12.1276 1.89058 12.0334 2.05213C11.971 2.15849 11.8652 2.21638 11.7557 2.21638C11.6971 2.21638 11.6372 2.19888 11.5837 2.16388C9.9431 1.08817 7.89487 1.03432 7.5 1.03432C7.10513 1.03432 5.05562 1.08817 3.41627 2.16388C3.26342 2.26485 3.06216 2.21504 2.9679 2.05348C2.87237 1.89058 2.9195 1.6792 3.07235 1.57823C4.02641 0.95354 5.0811 0.643888 5.93962 0.491754C5.88995 0.320772 5.84536 0.213067 5.84154 0.203643C5.78422 0.0703573 5.65557 -0.0131143 5.518 0.00169495C5.43011 0.00842678 3.37678 0.195564 2.06097 1.31435C1.37441 1.98616 0 5.91202 0 9.30608C0 9.36666 0.0152853 9.42456 0.0433086 9.47706C0.990999 11.238 3.57804 11.6985 4.1678 11.7187C4.17035 11.7187 4.17417 11.7187 4.17799 11.7187C4.28244 11.7187 4.38052 11.6662 4.44166 11.5773L5.03779 10.7103C3.42901 10.2714 2.60742 9.52553 2.56029 9.4811C2.42527 9.35589 2.41253 9.13779 2.53227 8.99508C2.65073 8.85237 2.85708 8.83891 2.9921 8.96412C3.01121 8.98296 4.52446 10.3401 7.5 10.3401C10.4806 10.3401 11.9939 8.97758 12.0092 8.96412C12.1442 8.84026 12.3493 8.85237 12.469 8.99643C12.5875 9.13914 12.5747 9.35589 12.4397 9.4811C12.3926 9.52553 11.571 10.2714 9.96221 10.7103L10.5583 11.5773C10.6195 11.6662 10.7176 11.7187 10.822 11.7187C10.8258 11.7187 10.8297 11.7187 10.8322 11.7187C11.422 11.6985 14.009 11.238 14.9567 9.47706C14.9847 9.42456 15 9.36666 15 9.30608C15 5.91202 13.6256 1.98616 12.9212 1.29954ZM5.38043 7.92745C4.74992 7.92745 4.23913 7.31084 4.23913 6.54883C4.23913 5.78681 4.74992 5.1702 5.38043 5.1702C6.01095 5.1702 6.52174 5.78681 6.52174 6.54883C6.52174 7.31084 6.01095 7.92745 5.38043 7.92745ZM9.61957 7.92745C8.98905 7.92745 8.47826 7.31084 8.47826 6.54883C8.47826 5.78681 8.98905 5.1702 9.61957 5.1702C10.2501 5.1702 10.7609 5.78681 10.7609 6.54883C10.7609 7.31084 10.2501 7.92745 9.61957 7.92745Z" fill="url(#paint0_linear_18_67)"/>
<ellipse cx="7.90406" cy="11.7188" rx="3.10444" ry="3.28122" fill="#0D0027"/>
<path d="M7.90395 9.37496C6.67936 9.37496 5.68649 10.4244 5.68649 11.7187C5.68649 13.013 6.67936 14.0624 7.90395 14.0624C9.12854 14.0624 10.1214 13.013 10.1214 11.7187C10.1214 10.4244 9.12854 9.37496 7.90395 9.37496ZM9.01267 11.914H8.08874V12.8906C8.08874 12.9986 8.00595 13.0859 7.90395 13.0859C7.80194 13.0859 7.71916 12.9986 7.71916 12.8906V11.914H6.79522C6.69322 11.914 6.61043 11.8267 6.61043 11.7187C6.61043 11.6107 6.69322 11.5234 6.79522 11.5234H7.71916V10.5468C7.71916 10.4388 7.80194 10.3515 7.90395 10.3515C8.00595 10.3515 8.08874 10.4388 8.08874 10.5468V11.5234H9.01267C9.11468 11.5234 9.19746 11.6107 9.19746 11.7187C9.19746 11.8267 9.11468 11.914 9.01267 11.914Z" fill="url(#paint1_linear_18_67)"/>
<path d="M72.9212 1.29954C71.6232 0.195564 69.5699 0.00842675 69.482 0.00169494C69.3457 -0.0104218 69.2158 0.070357 69.1597 0.203642C69.1546 0.211719 69.1101 0.320771 69.0604 0.490405C69.9189 0.643885 70.9736 0.95219 71.9276 1.57822C72.0805 1.67785 72.1276 1.89057 72.0334 2.05212C71.971 2.15848 71.8652 2.21637 71.7557 2.21637C71.6971 2.21637 71.6372 2.19887 71.5837 2.16387C69.9431 1.08817 67.8949 1.03431 67.5 1.03431C67.1051 1.03431 65.0556 1.08817 63.4163 2.16387C63.2634 2.26484 63.0622 2.21503 62.9679 2.05347C62.8724 1.89057 62.9195 1.6792 63.0724 1.57822C64.0264 0.953536 65.0811 0.643885 65.9396 0.491752C65.8899 0.320771 65.8454 0.213066 65.8415 0.203642C65.7842 0.070357 65.6556 -0.0131142 65.518 0.00169494C65.4301 0.00842675 63.3768 0.195564 62.061 1.31435C61.3744 1.98616 60 5.91199 60 9.30604C60 9.36662 60.0153 9.42452 60.0433 9.47702C60.991 11.238 63.578 11.6984 64.1678 11.7186C64.1703 11.7186 64.1742 11.7186 64.178 11.7186C64.2824 11.7186 64.3805 11.6661 64.4417 11.5773L65.0378 10.7102C63.429 10.2713 62.6074 9.52549 62.5603 9.48106C62.4253 9.35585 62.4125 9.13775 62.5323 8.99504C62.6507 8.85233 62.8571 8.83887 62.9921 8.96408C63.0112 8.98293 64.5245 10.34 67.5 10.34C70.4806 10.34 71.9939 8.97754 72.0092 8.96408C72.1442 8.84022 72.3493 8.85233 72.469 8.99639C72.5875 9.1391 72.5747 9.35585 72.4397 9.48106C72.3926 9.52549 71.571 10.2713 69.9622 10.7102L70.5583 11.5773C70.6195 11.6661 70.7176 11.7186 70.822 11.7186C70.8258 11.7186 70.8297 11.7186 70.8322 11.7186C71.422 11.6984 74.009 11.238 74.9567 9.47702C74.9847 9.42452 75 9.36662 75 9.30604C75 5.91199 73.6256 1.98616 72.9212 1.29954ZM65.3804 7.92742C64.7499 7.92742 64.2391 7.31081 64.2391 6.5488C64.2391 5.78679 64.7499 5.17018 65.3804 5.17018C66.011 5.17018 66.5217 5.78679 66.5217 6.5488C66.5217 7.31081 66.011 7.92742 65.3804 7.92742ZM69.6196 7.92742C68.989 7.92742 68.4783 7.31081 68.4783 6.5488C68.4783 5.78679 68.989 5.17018 69.6196 5.17018C70.2501 5.17018 70.7609 5.78679 70.7609 6.5488C70.7609 7.31081 70.2501 7.92742 69.6196 7.92742Z" fill="white"/>
<ellipse cx="67.9041" cy="11.7188" rx="3.10444" ry="3.28121" fill="#0D0027"/>
<path d="M67.9039 9.37492C66.6793 9.37492 65.6865 10.4243 65.6865 11.7186C65.6865 13.013 66.6793 14.0624 67.9039 14.0624C69.1285 14.0624 70.1214 13.013 70.1214 11.7186C70.1214 10.4243 69.1285 9.37492 67.9039 9.37492ZM69.0126 11.914H68.0887V12.8905C68.0887 12.9985 68.0059 13.0858 67.9039 13.0858C67.8019 13.0858 67.7191 12.9985 67.7191 12.8905V11.914H66.7952C66.6932 11.914 66.6104 11.8267 66.6104 11.7186C66.6104 11.6106 66.6932 11.5233 66.7952 11.5233H67.7191V10.5468C67.7191 10.4388 67.8019 10.3515 67.9039 10.3515C68.0059 10.3515 68.0887 10.4388 68.0887 10.5468V11.5233H69.0126C69.1146 11.5233 69.1974 11.6106 69.1974 11.7186C69.1974 11.8267 69.1146 11.914 69.0126 11.914Z" fill="url(#paint2_linear_18_67)"/>
<path d="M57.9212 1.29954C56.6232 0.195565 54.5699 0.00842678 54.482 0.00169495C54.3457 -0.0104218 54.2158 0.0703573 54.1597 0.203643C54.1546 0.21172 54.1101 0.320772 54.0604 0.490408C54.9189 0.643888 55.9736 0.952194 56.9276 1.57823C57.0805 1.67786 57.1276 1.89058 57.0334 2.05213C56.971 2.15849 56.8652 2.21638 56.7557 2.21638C56.6971 2.21638 56.6372 2.19888 56.5837 2.16388C54.9431 1.08817 52.8949 1.03432 52.5 1.03432C52.1051 1.03432 50.0556 1.08817 48.4163 2.16388C48.2634 2.26485 48.0622 2.21504 47.9679 2.05348C47.8724 1.89058 47.9195 1.6792 48.0724 1.57823C49.0264 0.95354 50.0811 0.643888 50.9396 0.491754C50.8899 0.320772 50.8454 0.213067 50.8415 0.203643C50.7842 0.0703573 50.6556 -0.0131143 50.518 0.00169495C50.4301 0.00842678 48.3768 0.195564 47.061 1.31435C46.3744 1.98616 45 5.91202 45 9.30608C45 9.36666 45.0153 9.42456 45.0433 9.47706C45.991 11.238 48.578 11.6985 49.1678 11.7187C49.1703 11.7187 49.1742 11.7187 49.178 11.7187C49.2824 11.7187 49.3805 11.6662 49.4417 11.5773L50.0378 10.7103C48.429 10.2714 47.6074 9.52553 47.5603 9.4811C47.4253 9.35589 47.4125 9.13779 47.5323 8.99508C47.6507 8.85237 47.8571 8.83891 47.9921 8.96412C48.0112 8.98296 49.5245 10.3401 52.5 10.3401C55.4806 10.3401 56.9939 8.97758 57.0092 8.96412C57.1442 8.84026 57.3493 8.85237 57.469 8.99643C57.5875 9.13914 57.5747 9.35589 57.4397 9.4811C57.3926 9.52553 56.571 10.2714 54.9622 10.7103L55.5583 11.5773C55.6195 11.6662 55.7176 11.7187 55.822 11.7187C55.8258 11.7187 55.8297 11.7187 55.8322 11.7187C56.422 11.6985 59.009 11.238 59.9567 9.47706C59.9847 9.42456 60 9.36666 60 9.30608C60 5.91202 58.6256 1.98616 57.9212 1.29954ZM50.3804 7.92745C49.7499 7.92745 49.2391 7.31084 49.2391 6.54883C49.2391 5.78681 49.7499 5.1702 50.3804 5.1702C51.011 5.1702 51.5217 5.78681 51.5217 6.54883C51.5217 7.31084 51.011 7.92745 50.3804 7.92745ZM54.6196 7.92745C53.989 7.92745 53.4783 7.31084 53.4783 6.54883C53.4783 5.78681 53.989 5.1702 54.6196 5.1702C55.2501 5.1702 55.7609 5.78681 55.7609 6.54883C55.7609 7.31084 55.2501 7.92745 54.6196 7.92745Z" fill="url(#paint3_linear_18_67)"/>
<ellipse cx="52.9041" cy="11.7188" rx="3.10444" ry="3.28122" fill="#0D0027"/>
<path d="M52.9039 9.37496C51.6793 9.37496 50.6865 10.4244 50.6865 11.7187C50.6865 13.013 51.6793 14.0624 52.9039 14.0624C54.1285 14.0624 55.1214 13.013 55.1214 11.7187C55.1214 10.4244 54.1285 9.37496 52.9039 9.37496ZM54.0126 11.914H53.0887V12.8906C53.0887 12.9986 53.0059 13.0859 52.9039 13.0859C52.8019 13.0859 52.7191 12.9986 52.7191 12.8906V11.914H51.7952C51.6932 11.914 51.6104 11.8267 51.6104 11.7187C51.6104 11.6107 51.6932 11.5234 51.7952 11.5234H52.7191V10.5468C52.7191 10.4388 52.8019 10.3515 52.9039 10.3515C53.0059 10.3515 53.0887 10.4388 53.0887 10.5468V11.5234H54.0126C54.1146 11.5234 54.1974 11.6107 54.1974 11.7187C54.1974 11.8267 54.1146 11.914 54.0126 11.914Z" fill="white"/>
<path d="M42.9212 1.29954C41.6232 0.195565 39.5699 0.00842678 39.482 0.00169495C39.3457 -0.0104218 39.2158 0.0703573 39.1597 0.203643C39.1546 0.21172 39.1101 0.320772 39.0604 0.490408C39.9189 0.643888 40.9736 0.952194 41.9276 1.57823C42.0805 1.67786 42.1276 1.89058 42.0334 2.05213C41.971 2.15849 41.8652 2.21638 41.7557 2.21638C41.6971 2.21638 41.6372 2.19888 41.5837 2.16388C39.9431 1.08817 37.8949 1.03432 37.5 1.03432C37.1051 1.03432 35.0556 1.08817 33.4163 2.16388C33.2634 2.26485 33.0622 2.21504 32.9679 2.05348C32.8724 1.89058 32.9195 1.6792 33.0724 1.57823C34.0264 0.95354 35.0811 0.643888 35.9396 0.491754C35.8899 0.320772 35.8454 0.213067 35.8415 0.203643C35.7842 0.0703573 35.6556 -0.0131143 35.518 0.00169495C35.4301 0.00842678 33.3768 0.195564 32.061 1.31435C31.3744 1.98616 30 5.91202 30 9.30608C30 9.36666 30.0153 9.42456 30.0433 9.47706C30.991 11.238 33.578 11.6985 34.1678 11.7187C34.1703 11.7187 34.1742 11.7187 34.178 11.7187C34.2824 11.7187 34.3805 11.6662 34.4417 11.5773L35.0378 10.7103C33.429 10.2714 32.6074 9.52553 32.5603 9.4811C32.4253 9.35589 32.4125 9.13779 32.5323 8.99508C32.6507 8.85237 32.8571 8.83891 32.9921 8.96412C33.0112 8.98296 34.5245 10.3401 37.5 10.3401C40.4806 10.3401 41.9939 8.97758 42.0092 8.96412C42.1442 8.84026 42.3493 8.85237 42.469 8.99643C42.5875 9.13914 42.5747 9.35589 42.4397 9.4811C42.3926 9.52553 41.571 10.2714 39.9622 10.7103L40.5583 11.5773C40.6195 11.6662 40.7176 11.7187 40.822 11.7187C40.8258 11.7187 40.8297 11.7187 40.8322 11.7187C41.422 11.6985 44.009 11.238 44.9567 9.47706C44.9847 9.42456 45 9.36666 45 9.30608C45 5.91202 43.6256 1.98616 42.9212 1.29954ZM35.3804 7.92745C34.7499 7.92745 34.2391 7.31084 34.2391 6.54883C34.2391 5.78681 34.7499 5.1702 35.3804 5.1702C36.011 5.1702 36.5217 5.78681 36.5217 6.54883C36.5217 7.31084 36.011 7.92745 35.3804 7.92745ZM39.6196 7.92745C38.989 7.92745 38.4783 7.31084 38.4783 6.54883C38.4783 5.78681 38.989 5.1702 39.6196 5.1702C40.2501 5.1702 40.7609 5.78681 40.7609 6.54883C40.7609 7.31084 40.2501 7.92745 39.6196 7.92745Z" fill="url(#paint4_linear_18_67)"/>
<ellipse cx="37.9041" cy="11.7188" rx="3.10444" ry="3.28122" fill="#0D0027"/>
<path d="M37.9039 9.37496C36.6794 9.37496 35.6865 10.4244 35.6865 11.7187C35.6865 13.013 36.6794 14.0624 37.9039 14.0624C39.1285 14.0624 40.1214 13.013 40.1214 11.7187C40.1214 10.4244 39.1285 9.37496 37.9039 9.37496ZM39.0127 11.914H38.0887V12.8906C38.0887 12.9986 38.006 13.0859 37.9039 13.0859C37.8019 13.0859 37.7192 12.9986 37.7192 12.8906V11.914H36.7952C36.6932 11.914 36.6104 11.8267 36.6104 11.7187C36.6104 11.6107 36.6932 11.5234 36.7952 11.5234H37.7192V10.5468C37.7192 10.4388 37.8019 10.3515 37.9039 10.3515C38.006 10.3515 38.0887 10.4388 38.0887 10.5468V11.5234H39.0127C39.1147 11.5234 39.1975 11.6107 39.1975 11.7187C39.1975 11.8267 39.1147 11.914 39.0127 11.914Z" fill="url(#paint5_linear_18_67)"/>
<path d="M87.9212 1.29954C86.6232 0.195565 84.5699 0.00842678 84.482 0.00169495C84.3457 -0.0104218 84.2158 0.0703573 84.1597 0.203643C84.1546 0.21172 84.1101 0.320772 84.0604 0.490408C84.9189 0.643888 85.9736 0.952194 86.9276 1.57823C87.0805 1.67786 87.1276 1.89058 87.0334 2.05213C86.971 2.15849 86.8652 2.21638 86.7557 2.21638C86.6971 2.21638 86.6372 2.19888 86.5837 2.16388C84.9431 1.08817 82.8949 1.03432 82.5 1.03432C82.1051 1.03432 80.0556 1.08817 78.4163 2.16388C78.2634 2.26485 78.0622 2.21504 77.9679 2.05348C77.8724 1.89058 77.9195 1.6792 78.0724 1.57823C79.0264 0.95354 80.0811 0.643888 80.9396 0.491754C80.8899 0.320772 80.8454 0.213067 80.8415 0.203643C80.7842 0.0703573 80.6556 -0.0131143 80.518 0.00169495C80.4301 0.00842678 78.3768 0.195564 77.061 1.31435C76.3744 1.98616 75 5.91202 75 9.30608C75 9.36666 75.0153 9.42456 75.0433 9.47706C75.991 11.238 78.578 11.6985 79.1678 11.7187C79.1703 11.7187 79.1742 11.7187 79.178 11.7187C79.2824 11.7187 79.3805 11.6662 79.4417 11.5773L80.0378 10.7103C78.429 10.2714 77.6074 9.52553 77.5603 9.4811C77.4253 9.35589 77.4125 9.13779 77.5323 8.99508C77.6507 8.85237 77.8571 8.83891 77.9921 8.96412C78.0112 8.98296 79.5245 10.3401 82.5 10.3401C85.4806 10.3401 86.9939 8.97758 87.0092 8.96412C87.1442 8.84026 87.3493 8.85237 87.469 8.99643C87.5875 9.13914 87.5747 9.35589 87.4397 9.4811C87.3926 9.52553 86.571 10.2714 84.9622 10.7103L85.5583 11.5773C85.6195 11.6662 85.7176 11.7187 85.822 11.7187C85.8258 11.7187 85.8297 11.7187 85.8322 11.7187C86.422 11.6985 89.009 11.238 89.9567 9.47706C89.9847 9.42456 90 9.36666 90 9.30608C90 5.91202 88.6256 1.98616 87.9212 1.29954ZM80.3804 7.92745C79.7499 7.92745 79.2391 7.31084 79.2391 6.54883C79.2391 5.78681 79.7499 5.1702 80.3804 5.1702C81.011 5.1702 81.5217 5.78681 81.5217 6.54883C81.5217 7.31084 81.011 7.92745 80.3804 7.92745ZM84.6196 7.92745C83.989 7.92745 83.4783 7.31084 83.4783 6.54883C83.4783 5.78681 83.989 5.1702 84.6196 5.1702C85.2501 5.1702 85.7609 5.78681 85.7609 6.54883C85.7609 7.31084 85.2501 7.92745 84.6196 7.92745Z" fill="white"/>
<ellipse cx="82.9041" cy="11.7188" rx="3.10444" ry="3.28122" fill="#0D0027"/>
<path d="M82.9039 9.37496C81.6793 9.37496 80.6865 10.4244 80.6865 11.7187C80.6865 13.013 81.6793 14.0624 82.9039 14.0624C84.1285 14.0624 85.1214 13.013 85.1214 11.7187C85.1214 10.4244 84.1285 9.37496 82.9039 9.37496ZM84.0126 11.914H83.0887V12.8906C83.0887 12.9986 83.0059 13.0859 82.9039 13.0859C82.8019 13.0859 82.7191 12.9986 82.7191 12.8906V11.914H81.7952C81.6932 11.914 81.6104 11.8267 81.6104 11.7187C81.6104 11.6107 81.6932 11.5234 81.7952 11.5234H82.7191V10.5468C82.7191 10.4388 82.8019 10.3515 82.9039 10.3515C83.0059 10.3515 83.0887 10.4388 83.0887 10.5468V11.5234H84.0126C84.1146 11.5234 84.1974 11.6107 84.1974 11.7187C84.1974 11.8267 84.1146 11.914 84.0126 11.914Z" fill="white"/>
<path d="M27.9212 1.29954C26.6232 0.195565 24.5699 0.00842678 24.482 0.00169495C24.3457 -0.0104218 24.2158 0.0703573 24.1597 0.203643C24.1546 0.21172 24.1101 0.320772 24.0604 0.490408C24.9189 0.643888 25.9736 0.952194 26.9276 1.57823C27.0805 1.67786 27.1276 1.89058 27.0334 2.05213C26.971 2.15849 26.8652 2.21638 26.7557 2.21638C26.6971 2.21638 26.6372 2.19888 26.5837 2.16388C24.9431 1.08817 22.8949 1.03432 22.5 1.03432C22.1051 1.03432 20.0556 1.08817 18.4163 2.16388C18.2634 2.26485 18.0622 2.21504 17.9679 2.05348C17.8724 1.89058 17.9195 1.6792 18.0724 1.57823C19.0264 0.95354 20.0811 0.643888 20.9396 0.491754C20.8899 0.320772 20.8454 0.213067 20.8415 0.203643C20.7842 0.0703573 20.6556 -0.0131143 20.518 0.00169495C20.4301 0.00842678 18.3768 0.195564 17.061 1.31435C16.3744 1.98616 15 5.91202 15 9.30608C15 9.36666 15.0153 9.42456 15.0433 9.47706C15.991 11.238 18.578 11.6985 19.1678 11.7187C19.1703 11.7187 19.1742 11.7187 19.178 11.7187C19.2824 11.7187 19.3805 11.6662 19.4417 11.5773L20.0378 10.7103C18.429 10.2714 17.6074 9.52553 17.5603 9.4811C17.4253 9.35589 17.4125 9.13779 17.5323 8.99508C17.6507 8.85237 17.8571 8.83891 17.9921 8.96412C18.0112 8.98296 19.5245 10.3401 22.5 10.3401C25.4806 10.3401 26.9939 8.97758 27.0092 8.96412C27.1442 8.84026 27.3493 8.85237 27.469 8.99643C27.5875 9.13914 27.5747 9.35589 27.4397 9.4811C27.3926 9.52553 26.571 10.2714 24.9622 10.7103L25.5583 11.5773C25.6195 11.6662 25.7176 11.7187 25.822 11.7187C25.8258 11.7187 25.8297 11.7187 25.8322 11.7187C26.422 11.6985 29.009 11.238 29.9567 9.47706C29.9847 9.42456 30 9.36666 30 9.30608C30 5.91202 28.6256 1.98616 27.9212 1.29954ZM20.3804 7.92745C19.7499 7.92745 19.2391 7.31084 19.2391 6.54883C19.2391 5.78681 19.7499 5.1702 20.3804 5.1702C21.011 5.1702 21.5217 5.78681 21.5217 6.54883C21.5217 7.31084 21.011 7.92745 20.3804 7.92745ZM24.6196 7.92745C23.989 7.92745 23.4783 7.31084 23.4783 6.54883C23.4783 5.78681 23.989 5.1702 24.6196 5.1702C25.2501 5.1702 25.7609 5.78681 25.7609 6.54883C25.7609 7.31084 25.2501 7.92745 24.6196 7.92745Z" fill="url(#paint6_linear_18_67)"/>
<ellipse cx="22.9041" cy="11.7188" rx="3.10444" ry="3.28122" fill="#0D0027"/>
<path d="M22.9039 9.37496C21.6794 9.37496 20.6865 10.4244 20.6865 11.7187C20.6865 13.013 21.6794 14.0624 22.9039 14.0624C24.1285 14.0624 25.1214 13.013 25.1214 11.7187C25.1214 10.4244 24.1285 9.37496 22.9039 9.37496ZM24.0127 11.914H23.0887V12.8906C23.0887 12.9986 23.006 13.0859 22.9039 13.0859C22.8019 13.0859 22.7192 12.9986 22.7192 12.8906V11.914H21.7952C21.6932 11.914 21.6104 11.8267 21.6104 11.7187C21.6104 11.6107 21.6932 11.5234 21.7952 11.5234H22.7192V10.5468C22.7192 10.4388 22.8019 10.3515 22.9039 10.3515C23.006 10.3515 23.0887 10.4388 23.0887 10.5468V11.5234H24.0127C24.1147 11.5234 24.1975 11.6107 24.1975 11.7187C24.1975 11.8267 24.1147 11.914 24.0127 11.914Z" fill="url(#paint7_linear_18_67)"/>
<defs>
<linearGradient id="paint0_linear_18_67" x1="7.5" y1="0" x2="7.5" y2="11.7187" gradientUnits="userSpaceOnUse">
<stop offset="0.109375" stop-color="#DD13B9"/>
<stop offset="0.5" stop-color="#C734E1"/>
<stop offset="0.822917" stop-color="#FB8F4F"/>
</linearGradient>
<linearGradient id="paint1_linear_18_67" x1="7.90395" y1="9.37496" x2="7.90395" y2="14.0624" gradientUnits="userSpaceOnUse">
<stop offset="0.109375" stop-color="#DD13B9"/>
<stop offset="0.5" stop-color="#C734E1"/>
<stop offset="0.822917" stop-color="#FB8F4F"/>
</linearGradient>
<linearGradient id="paint2_linear_18_67" x1="65.8754" y1="6.21003" x2="68.3132" y2="13.8982" gradientUnits="userSpaceOnUse">
<stop offset="0.161082" stop-color="#DD13B9"/>
<stop offset="0.5" stop-color="#C734E1"/>
<stop offset="0.822917" stop-color="#FB8F4F"/>
</linearGradient>
<linearGradient id="paint3_linear_18_67" x1="52.5" y1="0" x2="52.5" y2="11.7187" gradientUnits="userSpaceOnUse">
<stop offset="0.109375" stop-color="#DD13B9"/>
<stop offset="0.5" stop-color="#C734E1"/>
<stop offset="0.822917" stop-color="#FB8F4F"/>
</linearGradient>
<linearGradient id="paint4_linear_18_67" x1="37.5" y1="0" x2="37.5" y2="11.7187" gradientUnits="userSpaceOnUse">
<stop offset="0.109375" stop-color="#FFFAFE"/>
<stop offset="0.520833" stop-color="#FFFBFF"/>
<stop offset="0.5625" stop-color="#C734E1"/>
<stop offset="0.822917" stop-color="#FB8F4F"/>
</linearGradient>
<linearGradient id="paint5_linear_18_67" x1="37.9039" y1="9.37496" x2="37.9039" y2="14.0624" gradientUnits="userSpaceOnUse">
<stop offset="0.109375" stop-color="#DD13B9"/>
<stop offset="0.5" stop-color="#C734E1"/>
<stop offset="0.822917" stop-color="#FB8F4F"/>
</linearGradient>
<linearGradient id="paint6_linear_18_67" x1="22.5" y1="0" x2="22.5" y2="11.7187" gradientUnits="userSpaceOnUse">
<stop offset="0.109375" stop-color="#FFF9FE"/>
<stop offset="0.260417" stop-color="#FEFBFF"/>
<stop offset="0.53125" stop-color="#C734E1"/>
<stop offset="0.822917" stop-color="#FB8F4F"/>
</linearGradient>
<linearGradient id="paint7_linear_18_67" x1="22.9039" y1="9.37496" x2="22.9039" y2="14.0624" gradientUnits="userSpaceOnUse">
<stop offset="0.109375" stop-color="#DD13B9"/>
<stop offset="0.5" stop-color="#C734E1"/>
<stop offset="0.822917" stop-color="#FB8F4F"/>
</linearGradient>
</defs>
</svg>
