<svg width="108" height="15" viewBox="0 0 108 15" fill="none" xmlns="http://www.w3.org/2000/svg">
<path d="M4.64075 5.44889C4.97002 5.17453 5.3353 4.94828 5.72382 4.76954C7.88922 3.77519 10.6659 4.30393 12.058 6.06262L10.3734 7.4657C9.89036 6.54761 8.69103 6.02512 7.4977 6.24762C7.04842 6.33136 6.62164 6.51823 6.27286 6.80885L3.04464 9.50002C2.06433 10.3169 2.06433 11.6456 3.04464 12.4624C4.02496 13.2793 5.61957 13.2793 6.59988 12.4624L7.5952 11.6331C8.50051 11.9324 9.47108 12.0518 10.4296 11.9924L8.23275 13.823C6.34937 15.3923 3.29591 15.3923 1.41253 13.823C-0.470844 12.2537 -0.470844 9.70938 1.41253 8.14006L4.64075 5.44889ZM9.7681 1.17653L7.5712 3.00709C8.52901 2.9471 9.50033 3.06709 10.4056 3.36583L11.4002 2.53711C12.3805 1.72026 13.9751 1.72026 14.9555 2.53711C15.9358 3.35396 15.9358 4.68267 14.9555 5.49952L11.7265 8.19006C10.7432 9.00941 9.14631 9.00253 8.17124 8.19006C7.94398 8.00069 7.74821 7.76507 7.62595 7.5332L5.94134 8.93628C6.11835 9.16003 6.30211 9.35315 6.53838 9.55001C7.14742 10.0575 7.92297 10.4356 8.81553 10.615C9.97211 10.8468 11.2112 10.7187 12.2755 10.2294C12.664 10.0506 13.0293 9.82438 13.3586 9.55001L16.5868 6.85947C18.4709 5.29015 18.4709 2.74585 16.5876 1.17653C14.7042 -0.392175 11.6515 -0.392175 9.7681 1.17653Z" fill="url(#paint0_linear_12_11)"/>
<path d="M22.6408 5.44889C22.97 5.17453 23.3353 4.94828 23.7238 4.76954C25.8892 3.77519 28.6659 4.30393 30.058 6.06262L28.3734 7.4657C27.8904 6.54761 26.691 6.02512 25.4977 6.24762C25.0484 6.33136 24.6216 6.51823 24.2729 6.80885L21.0446 9.50002C20.0643 10.3169 20.0643 11.6456 21.0446 12.4624C22.025 13.2793 23.6196 13.2793 24.5999 12.4624L25.5952 11.6331C26.5005 11.9324 27.4711 12.0518 28.4296 11.9924L26.2327 13.823C24.3494 15.3923 21.2959 15.3923 19.4125 13.823C17.5292 12.2537 17.5292 9.70938 19.4125 8.14006L22.6408 5.44889ZM27.7681 1.17653L25.5712 3.00709C26.529 2.9471 27.5003 3.06709 28.4056 3.36583L29.4002 2.53711C30.3805 1.72026 31.9751 1.72026 32.9555 2.53711C33.9358 3.35396 33.9358 4.68267 32.9555 5.49952L29.7265 8.19006C28.7432 9.00941 27.1463 9.00253 26.1712 8.19006C25.944 8.00069 25.7482 7.76507 25.626 7.5332L23.9413 8.93628C24.1184 9.16003 24.3021 9.35315 24.5384 9.55001C25.1474 10.0575 25.923 10.4356 26.8155 10.615C27.9721 10.8468 29.2112 10.7187 30.2755 10.2294C30.664 10.0506 31.0293 9.82438 31.3586 9.55001L34.5868 6.85947C36.4709 5.29015 36.4709 2.74585 34.5876 1.17653C32.7042 -0.392175 29.6515 -0.392175 27.7681 1.17653Z" fill="url(#paint1_linear_12_11)"/>
<path d="M40.6408 5.44889C40.97 5.17453 41.3353 4.94828 41.7238 4.76954C43.8892 3.77519 46.6659 4.30393 48.058 6.06262L46.3734 7.4657C45.8904 6.54761 44.691 6.02512 43.4977 6.24762C43.0484 6.33136 42.6216 6.51823 42.2729 6.80885L39.0446 9.50002C38.0643 10.3169 38.0643 11.6456 39.0446 12.4624C40.025 13.2793 41.6196 13.2793 42.5999 12.4624L43.5952 11.6331C44.5005 11.9324 45.4711 12.0518 46.4296 11.9924L44.2327 13.823C42.3494 15.3923 39.2959 15.3923 37.4125 13.823C35.5292 12.2537 35.5292 9.70938 37.4125 8.14006L40.6408 5.44889ZM45.7681 1.17653L43.5712 3.00709C44.529 2.9471 45.5003 3.06709 46.4056 3.36583L47.4002 2.53711C48.3805 1.72026 49.9751 1.72026 50.9555 2.53711C51.9358 3.35396 51.9358 4.68267 50.9555 5.49952L47.7265 8.19006C46.7432 9.00941 45.1463 9.00253 44.1712 8.19006C43.944 8.00069 43.7482 7.76507 43.626 7.5332L41.9413 8.93628C42.1184 9.16003 42.3021 9.35315 42.5384 9.55001C43.1474 10.0575 43.923 10.4356 44.8155 10.615C45.9721 10.8468 47.2112 10.7187 48.2755 10.2294C48.664 10.0506 49.0293 9.82438 49.3586 9.55001L52.5868 6.85947C54.4709 5.29015 54.4709 2.74585 52.5876 1.17653C50.7042 -0.392175 47.6515 -0.392175 45.7681 1.17653Z" fill="url(#paint2_linear_12_11)"/>
<path d="M58.6408 5.44889C58.97 5.17453 59.3353 4.94828 59.7238 4.76954C61.8892 3.77519 64.6659 4.30393 66.058 6.06262L64.3734 7.4657C63.8904 6.54761 62.691 6.02512 61.4977 6.24762C61.0484 6.33136 60.6216 6.51823 60.2729 6.80885L57.0446 9.50002C56.0643 10.3169 56.0643 11.6456 57.0446 12.4624C58.025 13.2793 59.6196 13.2793 60.5999 12.4624L61.5952 11.6331C62.5005 11.9324 63.4711 12.0518 64.4296 11.9924L62.2327 13.823C60.3494 15.3923 57.2959 15.3923 55.4125 13.823C53.5292 12.2537 53.5292 9.70938 55.4125 8.14006L58.6408 5.44889ZM63.7681 1.17653L61.5712 3.00709C62.529 2.9471 63.5003 3.06709 64.4056 3.36583L65.4002 2.53711C66.3805 1.72026 67.9751 1.72026 68.9555 2.53711C69.9358 3.35396 69.9358 4.68267 68.9555 5.49952L65.7265 8.19006C64.7432 9.00941 63.1463 9.00253 62.1712 8.19006C61.944 8.00069 61.7482 7.76507 61.626 7.5332L59.9413 8.93628C60.1184 9.16003 60.3021 9.35315 60.5384 9.55001C61.1474 10.0575 61.923 10.4356 62.8155 10.615C63.9721 10.8468 65.2112 10.7187 66.2755 10.2294C66.664 10.0506 67.0293 9.82438 67.3586 9.55001L70.5868 6.85947C72.4709 5.29015 72.4709 2.74585 70.5876 1.17653C68.7042 -0.392175 65.6515 -0.392175 63.7681 1.17653Z" fill="url(#paint3_linear_12_11)"/>
<path d="M76.6408 5.44889C76.97 5.17453 77.3353 4.94828 77.7238 4.76954C79.8892 3.77519 82.6659 4.30393 84.058 6.06262L82.3734 7.4657C81.8904 6.54761 80.691 6.02512 79.4977 6.24762C79.0484 6.33136 78.6216 6.51823 78.2729 6.80885L75.0446 9.50002C74.0643 10.3169 74.0643 11.6456 75.0446 12.4624C76.025 13.2793 77.6196 13.2793 78.5999 12.4624L79.5952 11.6331C80.5005 11.9324 81.4711 12.0518 82.4296 11.9924L80.2327 13.823C78.3494 15.3923 75.2959 15.3923 73.4125 13.823C71.5292 12.2537 71.5292 9.70938 73.4125 8.14006L76.6408 5.44889ZM81.7681 1.17653L79.5712 3.00709C80.529 2.9471 81.5003 3.06709 82.4056 3.36583L83.4002 2.53711C84.3805 1.72026 85.9751 1.72026 86.9555 2.53711C87.9358 3.35396 87.9358 4.68267 86.9555 5.49952L83.7265 8.19006C82.7432 9.00941 81.1463 9.00253 80.1712 8.19006C79.944 8.00069 79.7482 7.76507 79.626 7.5332L77.9413 8.93628C78.1184 9.16003 78.3021 9.35315 78.5384 9.55001C79.1474 10.0575 79.923 10.4356 80.8155 10.615C81.9721 10.8468 83.2112 10.7187 84.2755 10.2294C84.664 10.0506 85.0293 9.82438 85.3586 9.55001L88.5868 6.85947C90.4709 5.29015 90.4709 2.74585 88.5876 1.17653C86.7042 -0.392175 83.6515 -0.392175 81.7681 1.17653Z" fill="url(#paint4_linear_12_11)"/>
<path d="M94.6408 5.44889C94.97 5.17453 95.3353 4.94828 95.7238 4.76954C97.8892 3.77519 100.666 4.30393 102.058 6.06262L100.373 7.4657C99.8904 6.54761 98.691 6.02512 97.4977 6.24762C97.0484 6.33136 96.6216 6.51823 96.2729 6.80885L93.0446 9.50002C92.0643 10.3169 92.0643 11.6456 93.0446 12.4624C94.025 13.2793 95.6196 13.2793 96.5999 12.4624L97.5952 11.6331C98.5005 11.9324 99.4711 12.0518 100.43 11.9924L98.2327 13.823C96.3494 15.3923 93.2959 15.3923 91.4125 13.823C89.5292 12.2537 89.5292 9.70938 91.4125 8.14006L94.6408 5.44889ZM99.7681 1.17653L97.5712 3.00709C98.529 2.9471 99.5003 3.06709 100.406 3.36583L101.4 2.53711C102.381 1.72026 103.975 1.72026 104.955 2.53711C105.936 3.35396 105.936 4.68267 104.955 5.49952L101.726 8.19006C100.743 9.00941 99.1463 9.00253 98.1712 8.19006C97.944 8.00069 97.7482 7.76507 97.626 7.5332L95.9413 8.93628C96.1184 9.16003 96.3021 9.35315 96.5384 9.55001C97.1474 10.0575 97.923 10.4356 98.8155 10.615C99.9721 10.8468 101.211 10.7187 102.276 10.2294C102.664 10.0506 103.029 9.82438 103.359 9.55001L106.587 6.85947C108.471 5.29015 108.471 2.74585 106.588 1.17653C104.704 -0.392175 101.651 -0.392175 99.7681 1.17653Z" fill="white"/>
<defs>
<linearGradient id="paint0_linear_12_11" x1="19.5" y1="-3.125" x2="2.08775" y2="18.5028" gradientUnits="userSpaceOnUse">
<stop stop-color="#F40289"/>
<stop offset="0.458333" stop-color="#C027F4"/>
<stop offset="0.8517" stop-color="#FB8F4E"/>
</linearGradient>
<linearGradient id="paint1_linear_12_11" x1="37.5" y1="-3.125" x2="20.0877" y2="18.5028" gradientUnits="userSpaceOnUse">
<stop offset="0.192708" stop-color="#FBFBFB"/>
<stop offset="0.421875" stop-color="#C027F4"/>
<stop offset="0.8517" stop-color="#FB8F4E"/>
</linearGradient>
<linearGradient id="paint2_linear_12_11" x1="50.9187" y1="0.85592" x2="35.348" y2="16.9457" gradientUnits="userSpaceOnUse">
<stop stop-color="white"/>
<stop offset="0.0360575" stop-color="white"/>
<stop offset="0.4375" stop-color="#CC3DD2"/>
<stop offset="0.765625" stop-color="#FB8F4E"/>
</linearGradient>
<linearGradient id="paint3_linear_12_11" x1="68.9187" y1="0.85592" x2="53.348" y2="16.9457" gradientUnits="userSpaceOnUse">
<stop stop-color="white"/>
<stop offset="0.21875" stop-color="white"/>
<stop offset="0.4375" stop-color="#CC3DD2"/>
<stop offset="0.765625" stop-color="#FB8F4E"/>
</linearGradient>
<linearGradient id="paint4_linear_12_11" x1="86.9187" y1="0.85592" x2="71.348" y2="16.9457" gradientUnits="userSpaceOnUse">
<stop offset="0.562416" stop-color="white"/>
<stop offset="0.562516" stop-color="#CC3DD2"/>
<stop offset="0.76375" stop-color="#FB8F4E"/>
</linearGradient>
</defs>
</svg>
