<svg width="90" height="15" viewBox="0 0 90 15" fill="none" xmlns="http://www.w3.org/2000/svg">
<path d="M3.86729 5.44889C4.14169 5.17453 4.44608 4.94828 4.76985 4.76954C6.57435 3.77519 8.88826 4.30393 10.0483 6.06262L8.64449 7.4657C8.24196 6.54761 7.24252 6.02512 6.24808 6.24762C5.87368 6.33136 5.51803 6.51823 5.22739 6.80885L2.5372 9.50002C1.72027 10.3169 1.72027 11.6456 2.5372 12.4624C3.35413 13.2793 4.68297 13.2793 5.4999 12.4624L6.32933 11.6331C7.08376 11.9324 7.89257 12.0518 8.69137 11.9924L6.86062 13.823C5.29114 15.3923 2.74659 15.3923 1.17711 13.823C-0.39237 12.2537 -0.39237 9.70938 1.17711 8.14006L3.86729 5.44889ZM8.14008 1.17653L6.30933 3.00709C7.10751 2.9471 7.91694 3.06709 8.67137 3.36583L9.50017 2.53711C10.3171 1.72026 11.6459 1.72026 12.4629 2.53711C13.2798 3.35396 13.2798 4.68267 12.4629 5.49952L9.77207 8.19006C8.95264 9.00941 7.62192 9.00253 6.80937 8.19006C6.61998 8.00069 6.45684 7.76507 6.35496 7.5332L4.95112 8.93628C5.09863 9.16003 5.25176 9.35315 5.44865 9.55001C5.95618 10.0575 6.60248 10.4356 7.34628 10.615C8.31009 10.8468 9.34266 10.7187 10.2296 10.2294C10.5534 10.0506 10.8578 9.82438 11.1322 9.55001L13.8223 6.85947C15.3924 5.29015 15.3924 2.74585 13.823 1.17653C12.2535 -0.392175 9.70956 -0.392175 8.14008 1.17653Z" fill="url(#paint0_linear_12_11)"/>
<path d="M18.8673 5.44889C19.1417 5.17453 19.4461 4.94828 19.7699 4.76954C21.5744 3.77519 23.8883 4.30393 25.0483 6.06262L23.6445 7.4657C23.242 6.54761 22.2425 6.02512 21.2481 6.24762C20.8737 6.33136 20.518 6.51823 20.2274 6.80885L17.5372 9.50002C16.7203 10.3169 16.7203 11.6456 17.5372 12.4624C18.3541 13.2793 19.683 13.2793 20.4999 12.4624L21.3293 11.6331C22.0838 11.9324 22.8926 12.0518 23.6914 11.9924L21.8606 13.823C20.2911 15.3923 17.7466 15.3923 16.1771 13.823C14.6076 12.2537 14.6076 9.70938 16.1771 8.14006L18.8673 5.44889ZM23.1401 1.17653L21.3093 3.00709C22.1075 2.9471 22.9169 3.06709 23.6714 3.36583L24.5002 2.53711C25.3171 1.72026 26.6459 1.72026 27.4629 2.53711C28.2798 3.35396 28.2798 4.68267 27.4629 5.49952L24.7721 8.19006C23.9526 9.00941 22.6219 9.00253 21.8094 8.19006C21.62 8.00069 21.4568 7.76507 21.355 7.5332L19.9511 8.93628C20.0986 9.16003 20.2518 9.35315 20.4487 9.55001C20.9562 10.0575 21.6025 10.4356 22.3463 10.615C23.3101 10.8468 24.3427 10.7187 25.2296 10.2294C25.5534 10.0506 25.8578 9.82438 26.1322 9.55001L28.8223 6.85947C30.3924 5.29015 30.3924 2.74585 28.823 1.17653C27.2535 -0.392175 24.7096 -0.392175 23.1401 1.17653Z" fill="url(#paint1_linear_12_11)"/>
<path d="M33.8673 5.44889C34.1417 5.17453 34.4461 4.94828 34.7699 4.76954C36.5744 3.77519 38.8883 4.30393 40.0483 6.06262L38.6445 7.4657C38.242 6.54761 37.2425 6.02512 36.2481 6.24762C35.8737 6.33136 35.518 6.51823 35.2274 6.80885L32.5372 9.50002C31.7203 10.3169 31.7203 11.6456 32.5372 12.4624C33.3541 13.2793 34.683 13.2793 35.4999 12.4624L36.3293 11.6331C37.0838 11.9324 37.8926 12.0518 38.6914 11.9924L36.8606 13.823C35.2911 15.3923 32.7466 15.3923 31.1771 13.823C29.6076 12.2537 29.6076 9.70938 31.1771 8.14006L33.8673 5.44889ZM38.1401 1.17653L36.3093 3.00709C37.1075 2.9471 37.9169 3.06709 38.6714 3.36583L39.5002 2.53711C40.3171 1.72026 41.6459 1.72026 42.4629 2.53711C43.2798 3.35396 43.2798 4.68267 42.4629 5.49952L39.7721 8.19006C38.9526 9.00941 37.6219 9.00253 36.8094 8.19006C36.62 8.00069 36.4568 7.76507 36.355 7.5332L34.9511 8.93628C35.0986 9.16003 35.2518 9.35315 35.4487 9.55001C35.9562 10.0575 36.6025 10.4356 37.3463 10.615C38.3101 10.8468 39.3427 10.7187 40.2296 10.2294C40.5534 10.0506 40.8578 9.82438 41.1322 9.55001L43.8223 6.85947C45.3924 5.29015 45.3924 2.74585 43.823 1.17653C42.2535 -0.392175 39.7096 -0.392175 38.1401 1.17653Z" fill="url(#paint2_linear_12_11)"/>
<path d="M48.8673 5.44889C49.1417 5.17453 49.4461 4.94828 49.7699 4.76954C51.5744 3.77519 53.8883 4.30393 55.0483 6.06262L53.6445 7.4657C53.242 6.54761 52.2425 6.02512 51.2481 6.24762C50.8737 6.33136 50.518 6.51823 50.2274 6.80885L47.5372 9.50002C46.7203 10.3169 46.7203 11.6456 47.5372 12.4624C48.3541 13.2793 49.683 13.2793 50.4999 12.4624L51.3293 11.6331C52.0838 11.9324 52.8926 12.0518 53.6914 11.9924L51.8606 13.823C50.2911 15.3923 47.7466 15.3923 46.1771 13.823C44.6076 12.2537 44.6076 9.70938 46.1771 8.14006L48.8673 5.44889ZM53.1401 1.17653L51.3093 3.00709C52.1075 2.9471 52.9169 3.06709 53.6714 3.36583L54.5002 2.53711C55.3171 1.72026 56.6459 1.72026 57.4629 2.53711C58.2798 3.35396 58.2798 4.68267 57.4629 5.49952L54.7721 8.19006C53.9526 9.00941 52.6219 9.00253 51.8094 8.19006C51.62 8.00069 51.4568 7.76507 51.355 7.5332L49.9511 8.93628C50.0986 9.16003 50.2518 9.35315 50.4487 9.55001C50.9562 10.0575 51.6025 10.4356 52.3463 10.615C53.3101 10.8468 54.3427 10.7187 55.2296 10.2294C55.5534 10.0506 55.8578 9.82438 56.1322 9.55001L58.8223 6.85947C60.3924 5.29015 60.3924 2.74585 58.823 1.17653C57.2535 -0.392175 54.7096 -0.392175 53.1401 1.17653Z" fill="url(#paint3_linear_12_11)"/>
<path d="M63.8673 5.44889C64.1417 5.17453 64.4461 4.94828 64.7699 4.76954C66.5744 3.77519 68.8883 4.30393 70.0483 6.06262L68.6445 7.4657C68.242 6.54761 67.2425 6.02512 66.2481 6.24762C65.8737 6.33136 65.518 6.51823 65.2274 6.80885L62.5372 9.50002C61.7203 10.3169 61.7203 11.6456 62.5372 12.4624C63.3541 13.2793 64.683 13.2793 65.4999 12.4624L66.3293 11.6331C67.0838 11.9324 67.8926 12.0518 68.6914 11.9924L66.8606 13.823C65.2911 15.3923 62.7466 15.3923 61.1771 13.823C59.6076 12.2537 59.6076 9.70938 61.1771 8.14006L63.8673 5.44889ZM68.1401 1.17653L66.3093 3.00709C67.1075 2.9471 67.9169 3.06709 68.6714 3.36583L69.5002 2.53711C70.3171 1.72026 71.6459 1.72026 72.4629 2.53711C73.2798 3.35396 73.2798 4.68267 72.4629 5.49952L69.7721 8.19006C68.9526 9.00941 67.6219 9.00253 66.8094 8.19006C66.62 8.00069 66.4568 7.76507 66.355 7.5332L64.9511 8.93628C65.0986 9.16003 65.2518 9.35315 65.4487 9.55001C65.9562 10.0575 66.6025 10.4356 67.3463 10.615C68.3101 10.8468 69.3427 10.7187 70.2296 10.2294C70.5534 10.0506 70.8578 9.82438 71.1322 9.55001L73.8223 6.85947C75.3924 5.29015 75.3924 2.74585 73.823 1.17653C72.2535 -0.392175 69.7096 -0.392175 68.1401 1.17653Z" fill="url(#paint4_linear_12_11)"/>
<path d="M78.8673 5.44889C79.1417 5.17453 79.4461 4.94828 79.7699 4.76954C81.5744 3.77519 83.8883 4.30393 85.0483 6.06262L83.6445 7.4657C83.242 6.54761 82.2425 6.02512 81.2481 6.24762C80.8737 6.33136 80.518 6.51823 80.2274 6.80885L77.5372 9.50002C76.7203 10.3169 76.7203 11.6456 77.5372 12.4624C78.3541 13.2793 79.683 13.2793 80.4999 12.4624L81.3293 11.6331C82.0838 11.9324 82.8926 12.0518 83.6914 11.9924L81.8606 13.823C80.2911 15.3923 77.7466 15.3923 76.1771 13.823C74.6076 12.2537 74.6076 9.70938 76.1771 8.14006L78.8673 5.44889ZM83.1401 1.17653L81.3093 3.00709C82.1075 2.9471 82.9169 3.06709 83.6714 3.36583L84.5002 2.53711C85.3171 1.72026 86.6459 1.72026 87.4629 2.53711C88.2798 3.35396 88.2798 4.68267 87.4629 5.49952L84.7721 8.19006C83.9526 9.00941 82.6219 9.00253 81.8094 8.19006C81.62 8.00069 81.4568 7.76507 81.355 7.5332L79.9511 8.93628C80.0986 9.16003 80.2518 9.35315 80.4487 9.55001C80.9562 10.0575 81.6025 10.4356 82.3463 10.615C83.3101 10.8468 84.3427 10.7187 85.2296 10.2294C85.5534 10.0506 85.8578 9.82438 86.1322 9.55001L88.8223 6.85947C90.3924 5.29015 90.3924 2.74585 88.823 1.17653C87.2535 -0.392175 84.7096 -0.392175 83.1401 1.17653Z" fill="white"/>
<defs>
<linearGradient id="paint0_linear_12_11" x1="16.25" y1="-3.125" x2="-1.5625" y2="15.3125" gradientUnits="userSpaceOnUse">
<stop stop-color="#F40289"/>
<stop offset="0.458333" stop-color="#C027F4"/>
<stop offset="0.8517" stop-color="#FB8F4E"/>
</linearGradient>
<linearGradient id="paint1_linear_12_11" x1="31.25" y1="-3.125" x2="13.4375" y2="15.3125" gradientUnits="userSpaceOnUse">
<stop offset="0.192708" stop-color="#FBFBFB"/>
<stop offset="0.421875" stop-color="#C027F4"/>
<stop offset="0.8517" stop-color="#FB8F4E"/>
</linearGradient>
<linearGradient id="paint2_linear_12_11" x1="42.4323" y1="0.85592" x2="27.0257" y2="14.1227" gradientUnits="userSpaceOnUse">
<stop stop-color="white"/>
<stop offset="0.0360575" stop-color="white"/>
<stop offset="0.4375" stop-color="#CC3DD2"/>
<stop offset="0.765625" stop-color="#FB8F4E"/>
</linearGradient>
<linearGradient id="paint3_linear_12_11" x1="57.4323" y1="0.85592" x2="42.0257" y2="14.1227" gradientUnits="userSpaceOnUse">
<stop stop-color="white"/>
<stop offset="0.21875" stop-color="white"/>
<stop offset="0.4375" stop-color="#CC3DD2"/>
<stop offset="0.765625" stop-color="#FB8F4E"/>
</linearGradient>
<linearGradient id="paint4_linear_12_11" x1="72.4323" y1="0.85592" x2="57.0257" y2="14.1227" gradientUnits="userSpaceOnUse">
<stop offset="0.562416" stop-color="white"/>
<stop offset="0.562516" stop-color="#CC3DD2"/>
<stop offset="0.76375" stop-color="#FB8F4E"/>
</linearGradient>
</defs>
</svg>
