<svg width="90" height="15" viewBox="0 0 90 15" fill="none" xmlns="http://www.w3.org/2000/svg">
<path d="M73.0539 12.4584C72.405 11.4578 71.5558 10.7113 70.6604 10.0477C69.9341 9.50993 69.1069 9.62484 68.3357 9.97557C67.8633 10.1907 67.3966 10.2162 66.9431 10.06C66.3382 9.85198 65.7297 9.82953 65.1119 9.82699C64.8472 9.82594 64.6272 9.93128 64.4697 10.1674C64.3817 10.3001 65.1029 10.849 65.721 10.849C65.6061 11.1096 63.607 10.5576 63.3405 10.5801L61.8274 10.36C61.2902 10.3107 61.2908 10.0793 60.7624 10.4192C60.7443 10.4315 60.7186 10.4315 60.6965 10.4294C60.4027 10.4104 60.2362 10.5165 60.0731 10.7381C59.9785 10.8657 59.9864 11.0228 60.0366 11.1719C60.0898 11.3279 60.2244 11.2874 60.3354 11.3377C61.012 11.6417 61.2298 11.7907 62.1474 12.0484C62.7999 12.2317 63.4352 12.456 64.0871 12.623C64.3565 12.6926 64.6301 12.7448 64.8733 12.8999C65.3895 13.2303 65.9379 13.3307 66.5275 13.2999C67.1965 13.2652 67.8677 13.2959 68.5381 13.2917C69.715 13.2855 70.6093 13.8212 71.214 15L75.0001 14.9907C74.1737 13.8921 73.8094 13.6253 73.0539 12.4584Z" fill="url(#paint0_linear_63_34)"/>
<path d="M66.2768 7.01523L63.749 5.31706L66.2764 9.36926L68.8063 5.31706L66.2757 7.01523H66.2768V7.01523ZM66.3152 0L63.7867 4.77169L66.3149 6.47143L68.843 4.77325L66.3152 0Z" fill="url(#paint1_linear_63_34)"/>
<path d="M88.0539 12.4584C87.405 11.4578 86.5558 10.7113 85.6604 10.0477C84.9341 9.50993 84.1069 9.62484 83.3357 9.97557C82.8633 10.1907 82.3966 10.2162 81.9431 10.06C81.3382 9.85198 80.7297 9.82953 80.1119 9.82699C79.8472 9.82594 79.6272 9.93128 79.4697 10.1674C79.3817 10.3001 80.1029 10.849 80.721 10.849C80.6061 11.1096 78.607 10.5576 78.3405 10.5801L76.8274 10.36C76.2902 10.3107 76.2908 10.0793 75.7624 10.4192C75.7443 10.4315 75.7186 10.4315 75.6965 10.4294C75.4027 10.4104 75.2362 10.5165 75.0731 10.7381C74.9785 10.8657 74.9864 11.0228 75.0366 11.1719C75.0898 11.3279 75.2244 11.2874 75.3354 11.3377C76.012 11.6417 76.2298 11.7907 77.1474 12.0484C77.7999 12.2317 78.4352 12.456 79.0871 12.623C79.3565 12.6926 79.6301 12.7448 79.8733 12.8999C80.3895 13.2303 80.9379 13.3307 81.5275 13.2999C82.1965 13.2652 82.8677 13.2959 83.5381 13.2917C84.715 13.2855 85.6093 13.8212 86.214 15L90.0001 14.9907C89.1737 13.8921 88.8094 13.6253 88.0539 12.4584Z" fill="white"/>
<path d="M81.2768 7.01524L78.749 5.31706L81.2764 9.36926L83.8063 5.31706L81.2757 7.01524H81.2768V7.01524ZM81.3152 0L78.7867 4.77169L81.3149 6.47143L83.843 4.77325L81.3152 0Z" fill="white"/>
<path d="M13.0539 12.4584C12.405 11.4578 11.5558 10.7113 10.6604 10.0477C9.9341 9.50993 9.10692 9.62484 8.33566 9.97557C7.86332 10.1907 7.39664 10.2162 6.94312 10.06C6.33817 9.85198 5.72966 9.82953 5.11194 9.82699C4.84722 9.82594 4.62723 9.93128 4.46974 10.1674C4.38172 10.3001 5.10286 10.849 5.72097 10.849C5.60611 11.1096 3.60704 10.5576 3.34048 10.5801L1.82743 10.36C1.29023 10.3107 1.29076 10.0793 0.762373 10.4192C0.744348 10.4315 0.71856 10.4315 0.696457 10.4294C0.402661 10.4104 0.236226 10.5165 0.0730792 10.7381C-0.0215194 10.8657 -0.0136252 11.0228 0.0366344 11.1719C0.0897886 11.3279 0.224384 11.2874 0.335429 11.3377C1.01196 11.6417 1.22984 11.7907 2.14741 12.0484C2.79986 12.2317 3.43521 12.456 4.08714 12.623C4.35646 12.6926 4.63013 12.7448 4.87327 12.8999C5.38955 13.2303 5.93793 13.3307 6.52749 13.2999C7.19653 13.2652 7.86766 13.2959 8.53814 13.2917C9.71503 13.2855 10.6093 13.8212 11.214 15L15.0001 14.9907C14.1737 13.8921 13.8094 13.6253 13.0539 12.4584Z" fill="url(#paint2_linear_63_34)"/>
<path d="M6.27678 7.01523L3.74896 5.31706L6.27644 9.36926L8.80631 5.31706L6.27575 7.01523H6.27678V7.01523ZM6.31523 0L3.78672 4.77169L6.31488 6.47143L8.84304 4.77325L6.31523 0Z" fill="url(#paint3_linear_63_34)"/>
<path d="M58.0539 12.4584C57.405 11.4578 56.5558 10.7113 55.6604 10.0477C54.9341 9.50993 54.1069 9.62484 53.3357 9.97557C52.8633 10.1907 52.3966 10.2162 51.9431 10.06C51.3382 9.85198 50.7297 9.82953 50.1119 9.82699C49.8472 9.82594 49.6272 9.93128 49.4697 10.1674C49.3817 10.3001 50.1029 10.849 50.721 10.849C50.6061 11.1096 48.607 10.5576 48.3405 10.5801L46.8274 10.36C46.2902 10.3107 46.2908 10.0793 45.7624 10.4192C45.7443 10.4315 45.7186 10.4315 45.6965 10.4294C45.4027 10.4104 45.2362 10.5165 45.0731 10.7381C44.9785 10.8657 44.9864 11.0228 45.0366 11.1719C45.0898 11.3279 45.2244 11.2874 45.3354 11.3377C46.012 11.6417 46.2298 11.7907 47.1474 12.0484C47.7999 12.2317 48.4352 12.456 49.0871 12.623C49.3565 12.6926 49.6301 12.7448 49.8733 12.8999C50.3895 13.2303 50.9379 13.3307 51.5275 13.2999C52.1965 13.2652 52.8677 13.2959 53.5381 13.2917C54.715 13.2855 55.6093 13.8212 56.214 15L60.0001 14.9907C59.1737 13.8921 58.8094 13.6253 58.0539 12.4584Z" fill="url(#paint4_linear_63_34)"/>
<path d="M51.2768 7.01523L48.749 5.31706L51.2764 9.36926L53.8063 5.31706L51.2757 7.01523H51.2768V7.01523ZM51.3152 0L48.7867 4.77169L51.3149 6.47143L53.843 4.77325L51.3152 0Z" fill="white"/>
<path d="M43.0539 12.4584C42.405 11.4578 41.5558 10.7113 40.6604 10.0477C39.9341 9.50993 39.1069 9.62484 38.3357 9.97557C37.8633 10.1907 37.3966 10.2162 36.9431 10.06C36.3382 9.85198 35.7297 9.82953 35.1119 9.82699C34.8472 9.82594 34.6272 9.93128 34.4697 10.1674C34.3817 10.3001 35.1029 10.849 35.721 10.849C35.6061 11.1096 33.607 10.5576 33.3405 10.5801L31.8274 10.36C31.2902 10.3107 31.2908 10.0793 30.7624 10.4192C30.7443 10.4315 30.7186 10.4315 30.6965 10.4294C30.4027 10.4104 30.2362 10.5165 30.0731 10.7381C29.9785 10.8657 29.9864 11.0228 30.0366 11.1719C30.0898 11.3279 30.2244 11.2874 30.3354 11.3377C31.012 11.6417 31.2298 11.7907 32.1474 12.0484C32.7999 12.2317 33.4352 12.456 34.0871 12.623C34.3565 12.6926 34.6301 12.7448 34.8733 12.8999C35.3895 13.2303 35.9379 13.3307 36.5275 13.2999C37.1965 13.2652 37.8677 13.2959 38.5381 13.2917C39.715 13.2855 40.6093 13.8212 41.214 15L45.0001 14.9907C44.1737 13.8921 43.8094 13.6253 43.0539 12.4584Z" fill="url(#paint5_linear_63_34)"/>
<path d="M36.2768 7.01523L33.749 5.31706L36.2764 9.36926L38.8063 5.31706L36.2757 7.01523H36.2768V7.01523ZM36.3152 0L33.7867 4.77169L36.3149 6.47143L38.843 4.77325L36.3152 0Z" fill="url(#paint6_linear_63_34)"/>
<path d="M28.0539 12.4584C27.405 11.4578 26.5558 10.7113 25.6604 10.0477C24.9341 9.50993 24.1069 9.62484 23.3357 9.97557C22.8633 10.1907 22.3966 10.2162 21.9431 10.06C21.3382 9.85198 20.7297 9.82953 20.1119 9.82699C19.8472 9.82594 19.6272 9.93128 19.4697 10.1674C19.3817 10.3001 20.1029 10.849 20.721 10.849C20.6061 11.1096 18.607 10.5576 18.3405 10.5801L16.8274 10.36C16.2902 10.3107 16.2908 10.0793 15.7624 10.4192C15.7443 10.4315 15.7186 10.4315 15.6965 10.4294C15.4027 10.4104 15.2362 10.5165 15.0731 10.7381C14.9785 10.8657 14.9864 11.0228 15.0366 11.1719C15.0898 11.3279 15.2244 11.2874 15.3354 11.3377C16.012 11.6417 16.2298 11.7907 17.1474 12.0484C17.7999 12.2317 18.4352 12.456 19.0871 12.623C19.3565 12.6926 19.6301 12.7448 19.8733 12.8999C20.3895 13.2303 20.9379 13.3307 21.5275 13.2999C22.1965 13.2652 22.8677 13.2959 23.5381 13.2917C24.715 13.2855 25.6093 13.8212 26.214 15L30.0001 14.9907C29.1737 13.8921 28.8094 13.6253 28.0539 12.4584Z" fill="url(#paint7_linear_63_34)"/>
<path d="M21.2768 7.01523L18.749 5.31706L21.2764 9.36926L23.8063 5.31706L21.2757 7.01523H21.2768V7.01523ZM21.3152 0L18.7867 4.77169L21.3149 6.47143L23.843 4.77325L21.3152 0Z" fill="url(#paint8_linear_63_34)"/>
<defs>
<linearGradient id="paint0_linear_63_34" x1="60" y1="10.2688" x2="63.8836" y2="19.5375" gradientUnits="userSpaceOnUse">
<stop offset="0.288044" stop-color="white"/>
<stop offset="0.44765" stop-color="white"/>
<stop offset="0.859375" stop-color="#FCA449"/>
</linearGradient>
<linearGradient id="paint1_linear_63_34" x1="63.749" y1="1.03966" x2="71.0359" y2="4.39432" gradientUnits="userSpaceOnUse">
<stop offset="0.498068" stop-color="white"/>
<stop offset="0.762115" stop-color="white"/>
<stop offset="0.859375" stop-color="#FCA449"/>
</linearGradient>
<linearGradient id="paint2_linear_63_34" x1="-3.49813" y1="9.62109" x2="14.1918" y2="13.1765" gradientUnits="userSpaceOnUse">
<stop stop-color="white"/>
<stop offset="0.409895" stop-color="#CC3ADE"/>
<stop offset="1" stop-color="#FCA449"/>
</linearGradient>
<linearGradient id="paint3_linear_63_34" x1="4.49759" y1="2.2328" x2="7.57472" y2="8.1854" gradientUnits="userSpaceOnUse">
<stop offset="0.06583" stop-color="#F4048B"/>
<stop offset="0.512024" stop-color="#C027F4"/>
<stop offset="1" stop-color="#FCA748"/>
</linearGradient>
<linearGradient id="paint4_linear_63_34" x1="41.5019" y1="9.62109" x2="59.1918" y2="13.1765" gradientUnits="userSpaceOnUse">
<stop stop-color="white"/>
<stop offset="0.409895" stop-color="#CC3ADE"/>
<stop offset="1" stop-color="#FCA449"/>
</linearGradient>
<linearGradient id="paint5_linear_63_34" x1="26.5019" y1="9.62109" x2="44.1918" y2="13.1765" gradientUnits="userSpaceOnUse">
<stop stop-color="white"/>
<stop offset="0.409895" stop-color="#CC3ADE"/>
<stop offset="1" stop-color="#FCA449"/>
</linearGradient>
<linearGradient id="paint6_linear_63_34" x1="33.4981" y1="0.527814" x2="37.7718" y2="8.04345" gradientUnits="userSpaceOnUse">
<stop stop-color="white"/>
<stop offset="0.447917" stop-color="white" stop-opacity="0.552083"/>
<stop offset="1" stop-color="#FCA748"/>
</linearGradient>
<linearGradient id="paint7_linear_63_34" x1="11.5019" y1="9.62109" x2="29.1918" y2="13.1765" gradientUnits="userSpaceOnUse">
<stop stop-color="white"/>
<stop offset="0.409895" stop-color="#CC3ADE"/>
<stop offset="1" stop-color="#FCA449"/>
</linearGradient>
<linearGradient id="paint8_linear_63_34" x1="19.9973" y1="2.80113" x2="22.4821" y2="8.2634" gradientUnits="userSpaceOnUse">
<stop offset="0.06583" stop-color="white"/>
<stop offset="0.512024" stop-color="#C027F4"/>
<stop offset="1" stop-color="#FCA748"/>
</linearGradient>
</defs>
</svg>
