<svg width="84" height="15" viewBox="0 0 84 15" fill="none" xmlns="http://www.w3.org/2000/svg">
<path d="M76.2222 5.625L84 10.4219L80.7053 10.8656L82.7734 14.2544L80.8757 15L78.7951 11.5787L76.2222 13.3681V5.625ZM76.2222 2.5C74.5041 2.5 73.1111 3.61937 73.1111 5C73.1111 5.92313 73.7411 6.72 74.6667 7.15312V6.3875C74.193 6.04375 73.8889 5.55187 73.8889 5C73.8889 3.96625 74.9358 3.125 76.2222 3.125C77.5087 3.125 78.5556 3.96625 78.5556 5C78.5556 5.15375 78.526 5.30062 78.4824 5.44312L79.1373 5.84687C79.2571 5.58187 79.3333 5.29875 79.3333 5C79.3333 3.61937 77.9403 2.5 76.2222 2.5ZM74.6667 8.53125C72.8568 8.015 71.5556 6.62875 71.5556 5C71.5556 2.93187 73.6486 1.25 76.2222 1.25C78.7959 1.25 80.8889 2.93187 80.8889 5C80.8889 5.58688 80.7154 6.14 80.4152 6.63562L81.6729 7.41125C82.1637 6.69563 82.4444 5.87438 82.4444 5C82.4444 2.23875 79.6592 0 76.2222 0C72.786 0 70 2.23875 70 5C70 7.32938 71.9841 9.28063 74.6667 9.83625V8.53125Z" fill="white"/>
<path d="M34.2222 5.625L42 10.4219L38.7053 10.8656L40.7734 14.2544L38.8757 15L36.7951 11.5787L34.2222 13.3681V5.625ZM34.2222 2.5C32.5041 2.5 31.1111 3.61937 31.1111 5C31.1111 5.92313 31.7411 6.72 32.6667 7.15312V6.3875C32.193 6.04375 31.8889 5.55187 31.8889 5C31.8889 3.96625 32.9358 3.125 34.2222 3.125C35.5087 3.125 36.5556 3.96625 36.5556 5C36.5556 5.15375 36.526 5.30062 36.4824 5.44312L37.1373 5.84687C37.2571 5.58187 37.3333 5.29875 37.3333 5C37.3333 3.61937 35.9403 2.5 34.2222 2.5ZM32.6667 8.53125C30.8568 8.015 29.5556 6.62875 29.5556 5C29.5556 2.93187 31.6486 1.25 34.2222 1.25C36.7959 1.25 38.8889 2.93187 38.8889 5C38.8889 5.58688 38.7154 6.14 38.4152 6.63562L39.6729 7.41125C40.1637 6.69563 40.4444 5.87438 40.4444 5C40.4444 2.23875 37.6592 0 34.2222 0C30.786 0 28 2.23875 28 5C28 7.32938 29.9841 9.28063 32.6667 9.83625V8.53125Z" fill="url(#paint0_linear_14_19)"/>
<path d="M48.2222 5.625L56 10.4219L52.7053 10.8656L54.7734 14.2544L52.8757 15L50.7951 11.5787L48.2222 13.3681V5.625ZM48.2222 2.5C46.5041 2.5 45.1111 3.61937 45.1111 5C45.1111 5.92313 45.7411 6.72 46.6667 7.15312V6.3875C46.193 6.04375 45.8889 5.55187 45.8889 5C45.8889 3.96625 46.9358 3.125 48.2222 3.125C49.5087 3.125 50.5556 3.96625 50.5556 5C50.5556 5.15375 50.526 5.30062 50.4824 5.44312L51.1373 5.84687C51.2571 5.58187 51.3333 5.29875 51.3333 5C51.3333 3.61937 49.9403 2.5 48.2222 2.5ZM46.6667 8.53125C44.8568 8.015 43.5556 6.62875 43.5556 5C43.5556 2.93187 45.6486 1.25 48.2222 1.25C50.7959 1.25 52.8889 2.93187 52.8889 5C52.8889 5.58688 52.7154 6.14 52.4152 6.63562L53.6729 7.41125C54.1637 6.69563 54.4444 5.87438 54.4444 5C54.4444 2.23875 51.6592 0 48.2222 0C44.786 0 42 2.23875 42 5C42 7.32938 43.9841 9.28063 46.6667 9.83625V8.53125Z" fill="url(#paint1_linear_14_19)"/>
<path d="M62.2222 5.625L70 10.4219L66.7053 10.8656L68.7734 14.2544L66.8757 15L64.7951 11.5787L62.2222 13.3681V5.625ZM62.2222 2.5C60.5041 2.5 59.1111 3.61937 59.1111 5C59.1111 5.92313 59.7411 6.72 60.6667 7.15312V6.3875C60.193 6.04375 59.8889 5.55187 59.8889 5C59.8889 3.96625 60.9358 3.125 62.2222 3.125C63.5087 3.125 64.5556 3.96625 64.5556 5C64.5556 5.15375 64.526 5.30062 64.4824 5.44312L65.1373 5.84687C65.2571 5.58187 65.3333 5.29875 65.3333 5C65.3333 3.61937 63.9403 2.5 62.2222 2.5ZM60.6667 8.53125C58.8568 8.015 57.5556 6.62875 57.5556 5C57.5556 2.93187 59.6486 1.25 62.2222 1.25C64.7959 1.25 66.8889 2.93187 66.8889 5C66.8889 5.58688 66.7154 6.14 66.4152 6.63562L67.6729 7.41125C68.1637 6.69563 68.4444 5.87438 68.4444 5C68.4444 2.23875 65.6592 0 62.2222 0C58.786 0 56 2.23875 56 5C56 7.32938 57.9841 9.28063 60.6667 9.83625V8.53125Z" fill="url(#paint2_linear_14_19)"/>
<path d="M20.2222 5.625L28 10.4219L24.7053 10.8656L26.7734 14.2544L24.8757 15L22.7951 11.5788L20.2222 13.3681V5.625ZM20.2222 2.5C18.5041 2.5 17.1111 3.61937 17.1111 5C17.1111 5.92313 17.7411 6.72 18.6667 7.15312V6.3875C18.193 6.04375 17.8889 5.55187 17.8889 5C17.8889 3.96625 18.9358 3.125 20.2222 3.125C21.5087 3.125 22.5556 3.96625 22.5556 5C22.5556 5.15375 22.526 5.30062 22.4824 5.44312L23.1373 5.84687C23.2571 5.58187 23.3333 5.29875 23.3333 5C23.3333 3.61937 21.9403 2.5 20.2222 2.5ZM18.6667 8.53125C16.8568 8.015 15.5556 6.62875 15.5556 5C15.5556 2.93187 17.6486 1.25 20.2222 1.25C22.7959 1.25 24.8889 2.93187 24.8889 5C24.8889 5.58688 24.7154 6.14 24.4152 6.63562L25.6729 7.41125C26.1637 6.69563 26.4444 5.87438 26.4444 5C26.4444 2.23875 23.6592 0 20.2222 0C16.786 0 14 2.23875 14 5C14 7.32938 15.9841 9.28063 18.6667 9.83625V8.53125Z" fill="url(#paint3_linear_14_19)"/>
<path d="M6.22222 5.625L14 10.4219L10.7053 10.8656L12.7734 14.2544L10.8757 15L8.79511 11.5787L6.22222 13.3681V5.625ZM6.22222 2.5C4.50411 2.5 3.11111 3.61937 3.11111 5C3.11111 5.92313 3.74111 6.72 4.66667 7.15312V6.3875C4.193 6.04375 3.88889 5.55187 3.88889 5C3.88889 3.96625 4.93578 3.125 6.22222 3.125C7.50867 3.125 8.55555 3.96625 8.55555 5C8.55555 5.15375 8.526 5.30062 8.48244 5.44312L9.13733 5.84687C9.25711 5.58187 9.33333 5.29875 9.33333 5C9.33333 3.61937 7.94033 2.5 6.22222 2.5ZM4.66667 8.53125C2.85678 8.015 1.55556 6.62875 1.55556 5C1.55556 2.93187 3.64856 1.25 6.22222 1.25C8.79589 1.25 10.8889 2.93187 10.8889 5C10.8889 5.58688 10.7154 6.14 10.4152 6.63562L11.6729 7.41125C12.1637 6.69563 12.4444 5.87438 12.4444 5C12.4444 2.23875 9.65922 0 6.22222 0C2.786 0 0 2.23875 0 5C0 7.32938 1.98411 9.28063 4.66667 9.83625V8.53125Z" fill="url(#paint4_linear_14_19)"/>
<defs>
<linearGradient id="paint0_linear_14_19" x1="32.0577" y1="3.65694" x2="37.5008" y2="13.8098" gradientUnits="userSpaceOnUse">
<stop stop-color="white"/>
<stop offset="0.302752" stop-color="#F40688"/>
<stop offset="0.536257" stop-color="#C026F3"/>
<stop offset="1" stop-color="#FB914E"/>
</linearGradient>
<linearGradient id="paint1_linear_14_19" x1="47.5325" y1="4.87592" x2="53.0029" y2="16.3481" gradientUnits="userSpaceOnUse">
<stop stop-color="white"/>
<stop offset="0.124208" stop-color="white"/>
<stop offset="0.472446" stop-color="#C22AEE"/>
<stop offset="0.753385" stop-color="#FB914E"/>
</linearGradient>
<linearGradient id="paint2_linear_14_19" x1="58.6923" y1="1.5" x2="66.3561" y2="16.7243" gradientUnits="userSpaceOnUse">
<stop stop-color="white"/>
<stop offset="0.473958" stop-color="#FEFBFF"/>
<stop offset="0.526042" stop-color="#C22AEE"/>
<stop offset="0.753385" stop-color="#FB914E"/>
</linearGradient>
<linearGradient id="paint3_linear_14_19" x1="13.2222" y1="2.57143" x2="22.9502" y2="14.7208" gradientUnits="userSpaceOnUse">
<stop offset="0.161458" stop-color="#FFFCFE"/>
<stop offset="0.489583" stop-color="#C026F3"/>
<stop offset="1" stop-color="#FB914E"/>
</linearGradient>
<linearGradient id="paint4_linear_14_19" x1="-0.777778" y1="2.57143" x2="8.95024" y2="14.7208" gradientUnits="userSpaceOnUse">
<stop stop-color="#F40688"/>
<stop offset="0.489583" stop-color="#C026F3"/>
<stop offset="1" stop-color="#FB914E"/>
</linearGradient>
</defs>
</svg>
