<svg width="78" height="15" viewBox="0 0 78 15" fill="none" xmlns="http://www.w3.org/2000/svg">
<path d="M70.7778 5.625L78 10.4219L74.9407 10.8656L76.8611 14.2544L75.0988 15L73.1669 11.5787L70.7778 13.3681V5.625V5.625ZM70.7778 2.5C69.1824 2.5 67.8889 3.61937 67.8889 5C67.8889 5.92312 68.4739 6.72 69.3333 7.15312V6.3875C68.8935 6.04375 68.6111 5.55188 68.6111 5C68.6111 3.96625 69.5832 3.125 70.7778 3.125C71.9723 3.125 72.9444 3.96625 72.9444 5C72.9444 5.15375 72.917 5.30062 72.8766 5.44312L73.4847 5.84687C73.5959 5.58187 73.6667 5.29875 73.6667 5C73.6667 3.61937 72.3732 2.5 70.7778 2.5V2.5ZM69.3333 8.53125C67.6527 8.015 66.4444 6.62875 66.4444 5C66.4444 2.93187 68.3879 1.25 70.7778 1.25C73.1676 1.25 75.1111 2.93187 75.1111 5C75.1111 5.58688 74.9501 6.14 74.6713 6.63562L75.8391 7.41125C76.2948 6.69562 76.5556 5.87438 76.5556 5C76.5556 2.23875 73.9693 0 70.7778 0C67.587 0 65 2.23875 65 5C65 7.32937 66.8424 9.28062 69.3333 9.83625V8.53125V8.53125Z" fill="white"/>
<path d="M31.7778 5.625L39 10.4219L35.9407 10.8656L37.8611 14.2544L36.0988 15L34.1669 11.5787L31.7778 13.3681V5.625ZM31.7778 2.5C30.1824 2.5 28.8889 3.61937 28.8889 5C28.8889 5.92313 29.4739 6.72 30.3333 7.15312V6.3875C29.8935 6.04375 29.6111 5.55187 29.6111 5C29.6111 3.96625 30.5832 3.125 31.7778 3.125C32.9723 3.125 33.9444 3.96625 33.9444 5C33.9444 5.15375 33.917 5.30062 33.8766 5.44312L34.4847 5.84687C34.5959 5.58187 34.6667 5.29875 34.6667 5C34.6667 3.61937 33.3732 2.5 31.7778 2.5ZM30.3333 8.53125C28.6527 8.015 27.4444 6.62875 27.4444 5C27.4444 2.93187 29.3879 1.25 31.7778 1.25C34.1676 1.25 36.1111 2.93187 36.1111 5C36.1111 5.58688 35.9501 6.14 35.6713 6.63562L36.8391 7.41125C37.2948 6.69563 37.5556 5.87438 37.5556 5C37.5556 2.23875 34.9693 0 31.7778 0C28.587 0 26 2.23875 26 5C26 7.32938 27.8424 9.28063 30.3333 9.83625V8.53125Z" fill="url(#paint0_linear_14_19)"/>
<path d="M44.7778 5.625L52 10.4219L48.9407 10.8656L50.8611 14.2544L49.0988 15L47.1669 11.5787L44.7778 13.3681V5.625ZM44.7778 2.5C43.1824 2.5 41.8889 3.61937 41.8889 5C41.8889 5.92313 42.4739 6.72 43.3333 7.15312V6.3875C42.8935 6.04375 42.6111 5.55187 42.6111 5C42.6111 3.96625 43.5832 3.125 44.7778 3.125C45.9723 3.125 46.9444 3.96625 46.9444 5C46.9444 5.15375 46.917 5.30062 46.8766 5.44312L47.4847 5.84687C47.5959 5.58187 47.6667 5.29875 47.6667 5C47.6667 3.61937 46.3732 2.5 44.7778 2.5ZM43.3333 8.53125C41.6527 8.015 40.4444 6.62875 40.4444 5C40.4444 2.93187 42.3879 1.25 44.7778 1.25C47.1676 1.25 49.1111 2.93187 49.1111 5C49.1111 5.58688 48.9501 6.14 48.6713 6.63562L49.8391 7.41125C50.2948 6.69563 50.5556 5.87438 50.5556 5C50.5556 2.23875 47.9693 0 44.7778 0C41.587 0 39 2.23875 39 5C39 7.32938 40.8424 9.28063 43.3333 9.83625V8.53125Z" fill="url(#paint1_linear_14_19)"/>
<path d="M57.7778 5.625L65 10.4219L61.9407 10.8656L63.8611 14.2544L62.0988 15L60.1669 11.5787L57.7778 13.3681V5.625ZM57.7778 2.5C56.1824 2.5 54.8889 3.61937 54.8889 5C54.8889 5.92313 55.4739 6.72 56.3333 7.15312V6.3875C55.8935 6.04375 55.6111 5.55187 55.6111 5C55.6111 3.96625 56.5832 3.125 57.7778 3.125C58.9723 3.125 59.9444 3.96625 59.9444 5C59.9444 5.15375 59.917 5.30062 59.8766 5.44312L60.4847 5.84687C60.5959 5.58187 60.6667 5.29875 60.6667 5C60.6667 3.61937 59.3732 2.5 57.7778 2.5ZM56.3333 8.53125C54.6527 8.015 53.4444 6.62875 53.4444 5C53.4444 2.93187 55.3879 1.25 57.7778 1.25C60.1676 1.25 62.1111 2.93187 62.1111 5C62.1111 5.58688 61.9501 6.14 61.6713 6.63562L62.8391 7.41125C63.2948 6.69563 63.5556 5.87438 63.5556 5C63.5556 2.23875 60.9693 0 57.7778 0C54.587 0 52 2.23875 52 5C52 7.32938 53.8424 9.28063 56.3333 9.83625V8.53125Z" fill="url(#paint2_linear_14_19)"/>
<path d="M18.7778 5.625L26 10.4219L22.9407 10.8656L24.8611 14.2544L23.0988 15L21.1669 11.5788L18.7778 13.3681V5.625ZM18.7778 2.5C17.1824 2.5 15.8889 3.61937 15.8889 5C15.8889 5.92313 16.4739 6.72 17.3333 7.15312V6.3875C16.8935 6.04375 16.6111 5.55187 16.6111 5C16.6111 3.96625 17.5832 3.125 18.7778 3.125C19.9723 3.125 20.9444 3.96625 20.9444 5C20.9444 5.15375 20.917 5.30062 20.8766 5.44312L21.4847 5.84687C21.5959 5.58187 21.6667 5.29875 21.6667 5C21.6667 3.61937 20.3732 2.5 18.7778 2.5ZM17.3333 8.53125C15.6527 8.015 14.4444 6.62875 14.4444 5C14.4444 2.93187 16.3879 1.25 18.7778 1.25C21.1676 1.25 23.1111 2.93187 23.1111 5C23.1111 5.58688 22.9501 6.14 22.6713 6.63562L23.8391 7.41125C24.2948 6.69563 24.5556 5.87438 24.5556 5C24.5556 2.23875 21.9693 0 18.7778 0C15.587 0 13 2.23875 13 5C13 7.32938 14.8424 9.28063 17.3333 9.83625V8.53125Z" fill="url(#paint3_linear_14_19)"/>
<path d="M5.77778 5.625L13 10.4219L9.94067 10.8656L11.8611 14.2544L10.0988 15L8.16689 11.5787L5.77778 13.3681V5.625ZM5.77778 2.5C4.18239 2.5 2.88889 3.61937 2.88889 5C2.88889 5.92313 3.47389 6.72 4.33333 7.15312V6.3875C3.8935 6.04375 3.61111 5.55187 3.61111 5C3.61111 3.96625 4.58322 3.125 5.77778 3.125C6.97233 3.125 7.94444 3.96625 7.94444 5C7.94444 5.15375 7.917 5.30062 7.87656 5.44312L8.48467 5.84687C8.59589 5.58187 8.66667 5.29875 8.66667 5C8.66667 3.61937 7.37317 2.5 5.77778 2.5ZM4.33333 8.53125C2.65272 8.015 1.44444 6.62875 1.44444 5C1.44444 2.93187 3.38794 1.25 5.77778 1.25C8.16761 1.25 10.1111 2.93187 10.1111 5C10.1111 5.58688 9.95006 6.14 9.67128 6.63562L10.8391 7.41125C11.2948 6.69563 11.5556 5.87438 11.5556 5C11.5556 2.23875 8.96928 0 5.77778 0C2.587 0 0 2.23875 0 5C0 7.32938 1.84239 9.28063 4.33333 9.83625V8.53125Z" fill="url(#paint4_linear_14_19)"/>
<defs>
<linearGradient id="paint0_linear_14_19" x1="29.7678" y1="3.65694" x2="35.4278" y2="13.4601" gradientUnits="userSpaceOnUse">
<stop stop-color="white"/>
<stop offset="0.302752" stop-color="#F40688"/>
<stop offset="0.536257" stop-color="#C026F3"/>
<stop offset="1" stop-color="#FB914E"/>
</linearGradient>
<linearGradient id="paint1_linear_14_19" x1="44.1373" y1="4.87592" x2="49.8592" y2="16.0184" gradientUnits="userSpaceOnUse">
<stop stop-color="white"/>
<stop offset="0.124208" stop-color="white"/>
<stop offset="0.472446" stop-color="#C22AEE"/>
<stop offset="0.753385" stop-color="#FB914E"/>
</linearGradient>
<linearGradient id="paint2_linear_14_19" x1="54.5" y1="1.5" x2="62.495" y2="16.248" gradientUnits="userSpaceOnUse">
<stop stop-color="white"/>
<stop offset="0.473958" stop-color="#FEFBFF"/>
<stop offset="0.526042" stop-color="#C22AEE"/>
<stop offset="0.753385" stop-color="#FB914E"/>
</linearGradient>
<linearGradient id="paint3_linear_14_19" x1="12.2778" y1="2.57143" x2="22.1387" y2="14.0071" gradientUnits="userSpaceOnUse">
<stop offset="0.161458" stop-color="#FFFCFE"/>
<stop offset="0.489583" stop-color="#C026F3"/>
<stop offset="1" stop-color="#FB914E"/>
</linearGradient>
<linearGradient id="paint4_linear_14_19" x1="-0.722222" y1="2.57143" x2="9.13866" y2="14.0071" gradientUnits="userSpaceOnUse">
<stop stop-color="#F40688"/>
<stop offset="0.489583" stop-color="#C026F3"/>
<stop offset="1" stop-color="#FB914E"/>
</linearGradient>
</defs>
</svg>
