<svg width="83" height="15" viewBox="0 0 83 15" fill="none" xmlns="http://www.w3.org/2000/svg">
<path d="M75.7778 5.625L83 10.4219L79.9407 10.8656L81.8611 14.2544L80.0988 15L78.1669 11.5787L75.7778 13.3681V5.625ZM75.7778 2.5C74.1824 2.5 72.8889 3.61937 72.8889 5C72.8889 5.92313 73.4739 6.72 74.3333 7.15312V6.3875C73.8935 6.04375 73.6111 5.55188 73.6111 5C73.6111 3.96625 74.5832 3.125 75.7778 3.125C76.9723 3.125 77.9444 3.96625 77.9444 5C77.9444 5.15375 77.917 5.30062 77.8766 5.44312L78.4847 5.84687C78.5959 5.58187 78.6667 5.29875 78.6667 5C78.6667 3.61937 77.3732 2.5 75.7778 2.5ZM74.3333 8.53125C72.6527 8.015 71.4444 6.62875 71.4444 5C71.4444 2.93187 73.3879 1.25 75.7778 1.25C78.1676 1.25 80.1111 2.93187 80.1111 5C80.1111 5.58687 79.9501 6.14 79.6713 6.63562L80.8391 7.41125C81.2948 6.69563 81.5556 5.87437 81.5556 5C81.5556 2.23875 78.9693 0 75.7778 0C72.587 0 70 2.23875 70 5C70 7.32938 71.8424 9.28063 74.3333 9.83625V8.53125Z" fill="white"/>
<path d="M33.7778 5.625L41 10.4219L37.9407 10.8656L39.8611 14.2544L38.0988 15L36.1669 11.5787L33.7778 13.3681V5.625ZM33.7778 2.5C32.1824 2.5 30.8889 3.61937 30.8889 5C30.8889 5.92313 31.4739 6.72 32.3333 7.15312V6.3875C31.8935 6.04375 31.6111 5.55188 31.6111 5C31.6111 3.96625 32.5832 3.125 33.7778 3.125C34.9723 3.125 35.9444 3.96625 35.9444 5C35.9444 5.15375 35.917 5.30062 35.8766 5.44312L36.4847 5.84687C36.5959 5.58187 36.6667 5.29875 36.6667 5C36.6667 3.61937 35.3732 2.5 33.7778 2.5ZM32.3333 8.53125C30.6527 8.015 29.4444 6.62875 29.4444 5C29.4444 2.93187 31.3879 1.25 33.7778 1.25C36.1676 1.25 38.1111 2.93187 38.1111 5C38.1111 5.58687 37.9501 6.14 37.6713 6.63562L38.8391 7.41125C39.2948 6.69563 39.5556 5.87437 39.5556 5C39.5556 2.23875 36.9693 0 33.7778 0C30.587 0 28 2.23875 28 5C28 7.32938 29.8424 9.28063 32.3333 9.83625V8.53125Z" fill="url(#paint0_linear_14_19)"/>
<path d="M47.7778 5.625L55 10.4219L51.9407 10.8656L53.8611 14.2544L52.0988 15L50.1669 11.5787L47.7778 13.3681V5.625ZM47.7778 2.5C46.1824 2.5 44.8889 3.61937 44.8889 5C44.8889 5.92313 45.4739 6.72 46.3333 7.15312V6.3875C45.8935 6.04375 45.6111 5.55188 45.6111 5C45.6111 3.96625 46.5832 3.125 47.7778 3.125C48.9723 3.125 49.9444 3.96625 49.9444 5C49.9444 5.15375 49.917 5.30062 49.8766 5.44312L50.4847 5.84687C50.5959 5.58187 50.6667 5.29875 50.6667 5C50.6667 3.61937 49.3732 2.5 47.7778 2.5ZM46.3333 8.53125C44.6527 8.015 43.4444 6.62875 43.4444 5C43.4444 2.93187 45.3879 1.25 47.7778 1.25C50.1676 1.25 52.1111 2.93187 52.1111 5C52.1111 5.58687 51.9501 6.14 51.6713 6.63562L52.8391 7.41125C53.2948 6.69563 53.5556 5.87437 53.5556 5C53.5556 2.23875 50.9693 0 47.7778 0C44.587 0 42 2.23875 42 5C42 7.32938 43.8424 9.28063 46.3333 9.83625V8.53125Z" fill="url(#paint1_linear_14_19)"/>
<path d="M61.7778 5.625L69 10.4219L65.9407 10.8656L67.8611 14.2544L66.0988 15L64.1669 11.5787L61.7778 13.3681V5.625ZM61.7778 2.5C60.1824 2.5 58.8889 3.61937 58.8889 5C58.8889 5.92313 59.4739 6.72 60.3333 7.15312V6.3875C59.8935 6.04375 59.6111 5.55188 59.6111 5C59.6111 3.96625 60.5832 3.125 61.7778 3.125C62.9723 3.125 63.9444 3.96625 63.9444 5C63.9444 5.15375 63.917 5.30062 63.8766 5.44312L64.4847 5.84687C64.5959 5.58187 64.6667 5.29875 64.6667 5C64.6667 3.61937 63.3732 2.5 61.7778 2.5ZM60.3333 8.53125C58.6527 8.015 57.4444 6.62875 57.4444 5C57.4444 2.93187 59.3879 1.25 61.7778 1.25C64.1676 1.25 66.1111 2.93187 66.1111 5C66.1111 5.58687 65.9501 6.14 65.6713 6.63562L66.8391 7.41125C67.2948 6.69563 67.5556 5.87437 67.5556 5C67.5556 2.23875 64.9693 0 61.7778 0C58.587 0 56 2.23875 56 5C56 7.32938 57.8424 9.28063 60.3333 9.83625V8.53125Z" fill="url(#paint2_linear_14_19)"/>
<path d="M19.7778 5.625L27 10.4219L23.9407 10.8656L25.8611 14.2544L24.0988 15L22.1669 11.5788L19.7778 13.3681V5.625ZM19.7778 2.5C18.1824 2.5 16.8889 3.61937 16.8889 5C16.8889 5.92313 17.4739 6.72 18.3333 7.15312V6.3875C17.8935 6.04375 17.6111 5.55188 17.6111 5C17.6111 3.96625 18.5832 3.125 19.7778 3.125C20.9723 3.125 21.9444 3.96625 21.9444 5C21.9444 5.15375 21.917 5.30062 21.8766 5.44312L22.4847 5.84687C22.5959 5.58187 22.6667 5.29875 22.6667 5C22.6667 3.61937 21.3732 2.5 19.7778 2.5ZM18.3333 8.53125C16.6527 8.015 15.4444 6.62875 15.4444 5C15.4444 2.93187 17.3879 1.25 19.7778 1.25C22.1676 1.25 24.1111 2.93187 24.1111 5C24.1111 5.58687 23.9501 6.14 23.6713 6.63562L24.8391 7.41125C25.2948 6.69563 25.5556 5.87437 25.5556 5C25.5556 2.23875 22.9693 0 19.7778 0C16.587 0 14 2.23875 14 5C14 7.32938 15.8424 9.28063 18.3333 9.83625V8.53125Z" fill="url(#paint3_linear_14_19)"/>
<path d="M5.77778 5.625L13 10.4219L9.94067 10.8656L11.8611 14.2544L10.0988 15L8.16689 11.5787L5.77778 13.3681V5.625ZM5.77778 2.5C4.18239 2.5 2.88889 3.61937 2.88889 5C2.88889 5.92313 3.47389 6.72 4.33333 7.15312V6.3875C3.8935 6.04375 3.61111 5.55188 3.61111 5C3.61111 3.96625 4.58322 3.125 5.77778 3.125C6.97233 3.125 7.94444 3.96625 7.94444 5C7.94444 5.15375 7.917 5.30062 7.87656 5.44312L8.48467 5.84687C8.59589 5.58187 8.66667 5.29875 8.66667 5C8.66667 3.61937 7.37317 2.5 5.77778 2.5ZM4.33333 8.53125C2.65272 8.015 1.44444 6.62875 1.44444 5C1.44444 2.93187 3.38794 1.25 5.77778 1.25C8.16761 1.25 10.1111 2.93187 10.1111 5C10.1111 5.58687 9.95006 6.14 9.67128 6.63562L10.8391 7.41125C11.2948 6.69563 11.5556 5.87437 11.5556 5C11.5556 2.23875 8.96928 0 5.77778 0C2.587 0 0 2.23875 0 5C0 7.32938 1.84239 9.28063 4.33333 9.83625V8.53125Z" fill="url(#paint4_linear_14_19)"/>
<defs>
<linearGradient id="paint0_linear_14_19" x1="31.7678" y1="3.65694" x2="37.4278" y2="13.4601" gradientUnits="userSpaceOnUse">
<stop stop-color="white"/>
<stop offset="0.302752" stop-color="#F40688"/>
<stop offset="0.536257" stop-color="#C026F3"/>
<stop offset="1" stop-color="#FB914E"/>
</linearGradient>
<linearGradient id="paint1_linear_14_19" x1="47.1373" y1="4.87592" x2="52.8592" y2="16.0184" gradientUnits="userSpaceOnUse">
<stop stop-color="white"/>
<stop offset="0.124208" stop-color="white"/>
<stop offset="0.472446" stop-color="#C22AEE"/>
<stop offset="0.753385" stop-color="#FB914E"/>
</linearGradient>
<linearGradient id="paint2_linear_14_19" x1="58.5" y1="1.5" x2="66.495" y2="16.248" gradientUnits="userSpaceOnUse">
<stop stop-color="white"/>
<stop offset="0.473958" stop-color="#FEFBFF"/>
<stop offset="0.526042" stop-color="#C22AEE"/>
<stop offset="0.753385" stop-color="#FB914E"/>
</linearGradient>
<linearGradient id="paint3_linear_14_19" x1="13.2778" y1="2.57143" x2="23.1387" y2="14.0071" gradientUnits="userSpaceOnUse">
<stop offset="0.161458" stop-color="#FFFCFE"/>
<stop offset="0.489583" stop-color="#C026F3"/>
<stop offset="1" stop-color="#FB914E"/>
</linearGradient>
<linearGradient id="paint4_linear_14_19" x1="-0.722222" y1="2.57143" x2="9.13866" y2="14.0071" gradientUnits="userSpaceOnUse">
<stop stop-color="#F40688"/>
<stop offset="0.489583" stop-color="#C026F3"/>
<stop offset="1" stop-color="#FB914E"/>
</linearGradient>
</defs>
</svg>
