<svg width="90" height="15" viewBox="0 0 90 15" fill="none" xmlns="http://www.w3.org/2000/svg">
<path d="M81.6667 5.625L90 10.4219L86.47 10.8656L88.6858 14.2544L86.6525 15L84.4233 11.5787L81.6667 13.3681V5.625ZM81.6667 2.5C79.8258 2.5 78.3333 3.61937 78.3333 5C78.3333 5.92313 79.0083 6.72 80 7.15312V6.3875C79.4925 6.04375 79.1667 5.55187 79.1667 5C79.1667 3.96625 80.2883 3.125 81.6667 3.125C83.045 3.125 84.1667 3.96625 84.1667 5C84.1667 5.15375 84.135 5.30062 84.0883 5.44312L84.79 5.84687C84.9183 5.58187 85 5.29875 85 5C85 3.61937 83.5075 2.5 81.6667 2.5ZM80 8.53125C78.0608 8.015 76.6667 6.62875 76.6667 5C76.6667 2.93187 78.9092 1.25 81.6667 1.25C84.4242 1.25 86.6667 2.93187 86.6667 5C86.6667 5.58688 86.4808 6.14 86.1592 6.63562L87.5067 7.41125C88.0325 6.69563 88.3333 5.87438 88.3333 5C88.3333 2.23875 85.3492 0 81.6667 0C77.985 0 75 2.23875 75 5C75 7.32938 77.1258 9.28063 80 9.83625V8.53125Z" fill="white"/>
<path d="M36.6667 5.625L45 10.4219L41.47 10.8656L43.6858 14.2544L41.6525 15L39.4233 11.5787L36.6667 13.3681V5.625ZM36.6667 2.5C34.8258 2.5 33.3333 3.61937 33.3333 5C33.3333 5.92313 34.0083 6.72 35 7.15312V6.3875C34.4925 6.04375 34.1667 5.55187 34.1667 5C34.1667 3.96625 35.2883 3.125 36.6667 3.125C38.045 3.125 39.1667 3.96625 39.1667 5C39.1667 5.15375 39.135 5.30062 39.0883 5.44312L39.79 5.84687C39.9183 5.58187 40 5.29875 40 5C40 3.61937 38.5075 2.5 36.6667 2.5ZM35 8.53125C33.0608 8.015 31.6667 6.62875 31.6667 5C31.6667 2.93187 33.9092 1.25 36.6667 1.25C39.4242 1.25 41.6667 2.93187 41.6667 5C41.6667 5.58688 41.4808 6.14 41.1592 6.63562L42.5067 7.41125C43.0325 6.69563 43.3333 5.87438 43.3333 5C43.3333 2.23875 40.3492 0 36.6667 0C32.985 0 30 2.23875 30 5C30 7.32938 32.1258 9.28063 35 9.83625V8.53125Z" fill="url(#paint0_linear_14_19)"/>
<path d="M51.6667 5.625L60 10.4219L56.47 10.8656L58.6858 14.2544L56.6525 15L54.4233 11.5787L51.6667 13.3681V5.625ZM51.6667 2.5C49.8258 2.5 48.3333 3.61937 48.3333 5C48.3333 5.92313 49.0083 6.72 50 7.15312V6.3875C49.4925 6.04375 49.1667 5.55187 49.1667 5C49.1667 3.96625 50.2883 3.125 51.6667 3.125C53.045 3.125 54.1667 3.96625 54.1667 5C54.1667 5.15375 54.135 5.30062 54.0883 5.44312L54.79 5.84687C54.9183 5.58187 55 5.29875 55 5C55 3.61937 53.5075 2.5 51.6667 2.5ZM50 8.53125C48.0608 8.015 46.6667 6.62875 46.6667 5C46.6667 2.93187 48.9092 1.25 51.6667 1.25C54.4242 1.25 56.6667 2.93187 56.6667 5C56.6667 5.58688 56.4808 6.14 56.1592 6.63562L57.5067 7.41125C58.0325 6.69563 58.3333 5.87438 58.3333 5C58.3333 2.23875 55.3492 0 51.6667 0C47.985 0 45 2.23875 45 5C45 7.32938 47.1258 9.28063 50 9.83625V8.53125Z" fill="url(#paint1_linear_14_19)"/>
<path d="M66.6667 5.625L75 10.4219L71.47 10.8656L73.6858 14.2544L71.6525 15L69.4233 11.5787L66.6667 13.3681V5.625ZM66.6667 2.5C64.8258 2.5 63.3333 3.61937 63.3333 5C63.3333 5.92313 64.0083 6.72 65 7.15312V6.3875C64.4925 6.04375 64.1667 5.55187 64.1667 5C64.1667 3.96625 65.2883 3.125 66.6667 3.125C68.045 3.125 69.1667 3.96625 69.1667 5C69.1667 5.15375 69.135 5.30062 69.0883 5.44312L69.79 5.84687C69.9183 5.58187 70 5.29875 70 5C70 3.61937 68.5075 2.5 66.6667 2.5ZM65 8.53125C63.0608 8.015 61.6667 6.62875 61.6667 5C61.6667 2.93187 63.9092 1.25 66.6667 1.25C69.4242 1.25 71.6667 2.93187 71.6667 5C71.6667 5.58688 71.4808 6.14 71.1592 6.63562L72.5067 7.41125C73.0325 6.69563 73.3333 5.87438 73.3333 5C73.3333 2.23875 70.3492 0 66.6667 0C62.985 0 60 2.23875 60 5C60 7.32938 62.1258 9.28063 65 9.83625V8.53125Z" fill="url(#paint2_linear_14_19)"/>
<path d="M21.6667 5.625L30 10.4219L26.47 10.8656L28.6858 14.2544L26.6525 15L24.4233 11.5788L21.6667 13.3681V5.625ZM21.6667 2.5C19.8258 2.5 18.3333 3.61937 18.3333 5C18.3333 5.92313 19.0083 6.72 20 7.15312V6.3875C19.4925 6.04375 19.1667 5.55187 19.1667 5C19.1667 3.96625 20.2883 3.125 21.6667 3.125C23.045 3.125 24.1667 3.96625 24.1667 5C24.1667 5.15375 24.135 5.30062 24.0883 5.44312L24.79 5.84687C24.9183 5.58187 25 5.29875 25 5C25 3.61937 23.5075 2.5 21.6667 2.5ZM20 8.53125C18.0608 8.015 16.6667 6.62875 16.6667 5C16.6667 2.93187 18.9092 1.25 21.6667 1.25C24.4242 1.25 26.6667 2.93187 26.6667 5C26.6667 5.58688 26.4808 6.14 26.1592 6.63562L27.5067 7.41125C28.0325 6.69563 28.3333 5.87438 28.3333 5C28.3333 2.23875 25.3492 0 21.6667 0C17.985 0 15 2.23875 15 5C15 7.32938 17.1258 9.28063 20 9.83625V8.53125Z" fill="url(#paint3_linear_14_19)"/>
<path d="M6.66667 5.625L15 10.4219L11.47 10.8656L13.6858 14.2544L11.6525 15L9.42333 11.5787L6.66667 13.3681V5.625ZM6.66667 2.5C4.82583 2.5 3.33333 3.61937 3.33333 5C3.33333 5.92313 4.00833 6.72 5 7.15312V6.3875C4.4925 6.04375 4.16667 5.55187 4.16667 5C4.16667 3.96625 5.28833 3.125 6.66667 3.125C8.045 3.125 9.16667 3.96625 9.16667 5C9.16667 5.15375 9.135 5.30062 9.08833 5.44312L9.79 5.84687C9.91833 5.58187 10 5.29875 10 5C10 3.61937 8.5075 2.5 6.66667 2.5ZM5 8.53125C3.06083 8.015 1.66667 6.62875 1.66667 5C1.66667 2.93187 3.90917 1.25 6.66667 1.25C9.42417 1.25 11.6667 2.93187 11.6667 5C11.6667 5.58688 11.4808 6.14 11.1592 6.63562L12.5067 7.41125C13.0325 6.69563 13.3333 5.87438 13.3333 5C13.3333 2.23875 10.3492 0 6.66667 0C2.985 0 0 2.23875 0 5C0 7.32938 2.12583 9.28063 5 9.83625V8.53125Z" fill="url(#paint4_linear_14_19)"/>
<defs>
<linearGradient id="paint0_linear_14_19" x1="34.3475" y1="3.65694" x2="39.5783" y2="14.1106" gradientUnits="userSpaceOnUse">
<stop stop-color="white"/>
<stop offset="0.302752" stop-color="#F40688"/>
<stop offset="0.536257" stop-color="#C026F3"/>
<stop offset="1" stop-color="#FB914E"/>
</linearGradient>
<linearGradient id="paint1_linear_14_19" x1="50.9277" y1="4.87592" x2="56.1583" y2="16.6288" gradientUnits="userSpaceOnUse">
<stop stop-color="white"/>
<stop offset="0.124208" stop-color="white"/>
<stop offset="0.472446" stop-color="#C22AEE"/>
<stop offset="0.753385" stop-color="#FB914E"/>
</linearGradient>
<linearGradient id="paint2_linear_14_19" x1="62.8846" y1="1.5" x2="70.2288" y2="17.1316" gradientUnits="userSpaceOnUse">
<stop stop-color="white"/>
<stop offset="0.473958" stop-color="#FEFBFF"/>
<stop offset="0.526042" stop-color="#C22AEE"/>
<stop offset="0.753385" stop-color="#FB914E"/>
</linearGradient>
<linearGradient id="paint3_linear_14_19" x1="14.1667" y1="2.57143" x2="23.7276" y2="15.365" gradientUnits="userSpaceOnUse">
<stop offset="0.161458" stop-color="#FFFCFE"/>
<stop offset="0.489583" stop-color="#C026F3"/>
<stop offset="1" stop-color="#FB914E"/>
</linearGradient>
<linearGradient id="paint4_linear_14_19" x1="-0.833333" y1="2.57143" x2="8.72756" y2="15.365" gradientUnits="userSpaceOnUse">
<stop stop-color="#F40688"/>
<stop offset="0.489583" stop-color="#C026F3"/>
<stop offset="1" stop-color="#FB914E"/>
</linearGradient>
</defs>
</svg>
