<svg width="108" height="15" viewBox="0 0 108 15" fill="none" xmlns="http://www.w3.org/2000/svg">
<path d="M90 3.933C87.6968 1.503 84.5145 0 81 0C77.4848 0 74.3033 1.503 72 3.933L73.5293 5.5455C75.441 3.5295 78.0825 2.2815 81 2.2815C83.9175 2.2815 86.559 3.5295 88.4708 5.5455L90 3.933ZM85.71 8.4585C84.5048 7.1865 82.8398 6.4005 81 6.4005C79.1603 6.4005 77.4952 7.1865 76.29 8.4585L74.7203 6.8025C76.3275 5.10675 78.5475 4.05825 81 4.05825C83.4525 4.05825 85.6725 5.10675 87.2798 6.8025L85.71 8.4585ZM82.9665 11.3527C82.4633 10.8217 81.768 10.494 81 10.494C80.2328 10.494 79.5368 10.8217 79.0335 11.3527L77.4907 9.72525C78.3885 8.778 79.629 8.19225 80.9993 8.19225C82.3695 8.19225 83.61 8.77875 84.5078 9.72525L82.9665 11.3527ZM81 12.1155C81.7965 12.1155 82.4423 12.7613 82.4423 13.5578C82.4423 14.3543 81.7965 15 81 15C80.2035 15 79.5578 14.3543 79.5578 13.5578C79.5578 12.7613 80.2035 12.1155 81 12.1155Z" fill="url(#paint0_linear_13_2)"/>
<path d="M108 3.933C105.697 1.503 102.515 0 99 0C95.4848 0 92.3033 1.503 90 3.933L91.5293 5.5455C93.441 3.5295 96.0825 2.2815 99 2.2815C101.918 2.2815 104.559 3.5295 106.471 5.5455L108 3.933ZM103.71 8.4585C102.505 7.1865 100.84 6.4005 99 6.4005C97.1603 6.4005 95.4952 7.1865 94.29 8.4585L92.7203 6.8025C94.3275 5.10675 96.5475 4.05825 99 4.05825C101.453 4.05825 103.673 5.10675 105.28 6.8025L103.71 8.4585ZM100.967 11.3527C100.463 10.8217 99.768 10.494 99 10.494C98.2328 10.494 97.5368 10.8217 97.0335 11.3527L95.4907 9.72525C96.3885 8.778 97.629 8.19225 98.9993 8.19225C100.37 8.19225 101.61 8.77875 102.508 9.72525L100.967 11.3527ZM99 12.1155C99.7965 12.1155 100.442 12.7613 100.442 13.5578C100.442 14.3543 99.7965 15 99 15C98.2035 15 97.5578 14.3543 97.5578 13.5578C97.5578 12.7613 98.2035 12.1155 99 12.1155Z" fill="white"/>
<path d="M72 3.933C69.6968 1.503 66.5145 0 63 0C59.4848 0 56.3033 1.503 54 3.933L55.5293 5.5455C57.441 3.5295 60.0825 2.2815 63 2.2815C65.9175 2.2815 68.559 3.5295 70.4708 5.5455L72 3.933ZM67.71 8.4585C66.5048 7.1865 64.8398 6.4005 63 6.4005C61.1603 6.4005 59.4952 7.1865 58.29 8.4585L56.7203 6.8025C58.3275 5.10675 60.5475 4.05825 63 4.05825C65.4525 4.05825 67.6725 5.10675 69.2798 6.8025L67.71 8.4585ZM64.9665 11.3527C64.4633 10.8217 63.768 10.494 63 10.494C62.2328 10.494 61.5368 10.8217 61.0335 11.3527L59.4907 9.72525C60.3885 8.778 61.629 8.19225 62.9993 8.19225C64.3695 8.19225 65.61 8.77875 66.5078 9.72525L64.9665 11.3527ZM63 12.1155C63.7965 12.1155 64.4423 12.7613 64.4423 13.5578C64.4423 14.3543 63.7965 15 63 15C62.2035 15 61.5578 14.3543 61.5578 13.5578C61.5578 12.7613 62.2035 12.1155 63 12.1155Z" fill="url(#paint1_linear_13_2)"/>
<path d="M18 3.933C15.6967 1.503 12.5145 0 9 0C5.48475 0 2.30325 1.503 0 3.933L1.52925 5.5455C3.441 3.5295 6.0825 2.2815 9 2.2815C11.9175 2.2815 14.559 3.5295 16.4707 5.5455L18 3.933ZM13.71 8.4585C12.5048 7.1865 10.8398 6.4005 9 6.4005C7.16025 6.4005 5.49525 7.1865 4.29 8.4585L2.72025 6.8025C4.3275 5.10675 6.5475 4.05825 9 4.05825C11.4525 4.05825 13.6725 5.10675 15.2797 6.8025L13.71 8.4585ZM10.9665 11.3527C10.4632 10.8217 9.768 10.494 9 10.494C8.23275 10.494 7.53675 10.8217 7.0335 11.3527L5.49075 9.72525C6.3885 8.778 7.629 8.19225 8.99925 8.19225C10.3695 8.19225 11.61 8.77875 12.5078 9.72525L10.9665 11.3527ZM9 12.1155C9.7965 12.1155 10.4423 12.7612 10.4423 13.5577C10.4423 14.3542 9.7965 15 9 15C8.2035 15 7.55775 14.3542 7.55775 13.5577C7.55775 12.7612 8.2035 12.1155 9 12.1155Z" fill="url(#paint2_linear_13_2)"/>
<path d="M54 3.933C51.6967 1.503 48.5145 0 45 0C41.4847 0 38.3032 1.503 36 3.933L37.5292 5.5455C39.441 3.5295 42.0825 2.2815 45 2.2815C47.9175 2.2815 50.559 3.5295 52.4707 5.5455L54 3.933ZM49.71 8.4585C48.5047 7.1865 46.8397 6.4005 45 6.4005C43.1602 6.4005 41.4952 7.1865 40.29 8.4585L38.7202 6.8025C40.3275 5.10675 42.5475 4.05825 45 4.05825C47.4525 4.05825 49.6725 5.10675 51.2797 6.8025L49.71 8.4585ZM46.9665 11.3527C46.4632 10.8217 45.768 10.494 45 10.494C44.2327 10.494 43.5367 10.8217 43.0335 11.3527L41.4907 9.72525C42.3885 8.778 43.629 8.19225 44.9992 8.19225C46.3695 8.19225 47.61 8.77875 48.5077 9.72525L46.9665 11.3527ZM45 12.1155C45.7965 12.1155 46.4423 12.7612 46.4423 13.5577C46.4423 14.3542 45.7965 15 45 15C44.2035 15 43.5577 14.3542 43.5577 13.5577C43.5577 12.7612 44.2035 12.1155 45 12.1155Z" fill="url(#paint3_linear_13_2)"/>
<path d="M36 3.933C33.6967 1.503 30.5145 0 27 0C23.4847 0 20.3033 1.503 18 3.933L19.5292 5.5455C21.441 3.5295 24.0825 2.2815 27 2.2815C29.9175 2.2815 32.559 3.5295 34.4707 5.5455L36 3.933ZM31.71 8.4585C30.5047 7.1865 28.8398 6.4005 27 6.4005C25.1602 6.4005 23.4952 7.1865 22.29 8.4585L20.7202 6.8025C22.3275 5.10675 24.5475 4.05825 27 4.05825C29.4525 4.05825 31.6725 5.10675 33.2797 6.8025L31.71 8.4585ZM28.9665 11.3527C28.4632 10.8217 27.768 10.494 27 10.494C26.2327 10.494 25.5367 10.8217 25.0335 11.3527L23.4907 9.72525C24.3885 8.778 25.629 8.19225 26.9992 8.19225C28.3695 8.19225 29.61 8.77875 30.5077 9.72525L28.9665 11.3527ZM27 12.1155C27.7965 12.1155 28.4423 12.7612 28.4423 13.5577C28.4423 14.3542 27.7965 15 27 15C26.2035 15 25.5577 14.3542 25.5577 13.5577C25.5577 12.7612 26.2035 12.1155 27 12.1155Z" fill="url(#paint4_linear_13_2)"/>
<defs>
<linearGradient id="paint0_linear_13_2" x1="80.625" y1="-1.5" x2="80.9487" y2="13.8593" gradientUnits="userSpaceOnUse">
<stop stop-color="white"/>
<stop offset="0.453025" stop-color="white"/>
<stop offset="0.832792" stop-color="white"/>
<stop offset="0.907745" stop-color="#FB944D"/>
</linearGradient>
<linearGradient id="paint1_linear_13_2" x1="62.7602" y1="7.73972" x2="62.7602" y2="11.8462" gradientUnits="userSpaceOnUse">
<stop offset="0.150304" stop-color="white"/>
<stop offset="0.271473" stop-color="#BF26F3"/>
<stop offset="0.777532" stop-color="#FB944D"/>
</linearGradient>
<linearGradient id="paint2_linear_13_2" x1="8.625" y1="-1.5" x2="8.625" y2="11.25" gradientUnits="userSpaceOnUse">
<stop stop-color="#F40489"/>
<stop offset="0.453125" stop-color="#BF26F3"/>
<stop offset="1" stop-color="#FB944D"/>
</linearGradient>
<linearGradient id="paint3_linear_13_2" x1="44.7602" y1="1.06672" x2="44.7602" y2="13.3861" gradientUnits="userSpaceOnUse">
<stop offset="0.234489" stop-color="white"/>
<stop offset="0.328125" stop-color="white"/>
<stop offset="0.43649" stop-color="#BF26F3"/>
<stop offset="0.716319" stop-color="#FB944D"/>
</linearGradient>
<linearGradient id="paint4_linear_13_2" x1="26.7602" y1="1.06672" x2="26.7602" y2="13.3861" gradientUnits="userSpaceOnUse">
<stop offset="0.0164512" stop-color="white"/>
<stop offset="0.234489" stop-color="white"/>
<stop offset="0.43649" stop-color="#BF26F3"/>
<stop offset="0.716319" stop-color="#FB944D"/>
</linearGradient>
</defs>
</svg>
