<svg width="90" height="15" viewBox="0 0 90 15" fill="none" xmlns="http://www.w3.org/2000/svg">
<path d="M75 3.933C73.0806 1.503 70.4288 0 67.5 0C64.5706 0 61.9194 1.503 60 3.933L61.2744 5.5455C62.8675 3.5295 65.0688 2.2815 67.5 2.2815C69.9313 2.2815 72.1325 3.5295 73.7256 5.5455L75 3.933ZM71.425 8.4585C70.4206 7.1865 69.0331 6.4005 67.5 6.4005C65.9669 6.4005 64.5794 7.1865 63.575 8.4585L62.2669 6.8025C63.6063 5.10675 65.4563 4.05825 67.5 4.05825C69.5438 4.05825 71.3938 5.10675 72.7331 6.8025L71.425 8.4585ZM69.1388 11.3527C68.7194 10.8217 68.14 10.494 67.5 10.494C66.8606 10.494 66.2806 10.8217 65.8613 11.3527L64.5756 9.72525C65.3237 8.778 66.3575 8.19225 67.4994 8.19225C68.6413 8.19225 69.675 8.77875 70.4231 9.72525L69.1388 11.3527ZM67.5 12.1155C68.1638 12.1155 68.7019 12.7613 68.7019 13.5578C68.7019 14.3543 68.1638 15 67.5 15C66.8363 15 66.2981 14.3543 66.2981 13.5578C66.2981 12.7613 66.8363 12.1155 67.5 12.1155Z" fill="url(#paint0_linear_13_2)"/>
<path d="M90 3.933C88.0806 1.503 85.4288 0 82.5 0C79.5706 0 76.9194 1.503 75 3.933L76.2744 5.5455C77.8675 3.5295 80.0688 2.2815 82.5 2.2815C84.9313 2.2815 87.1325 3.5295 88.7256 5.5455L90 3.933ZM86.425 8.4585C85.4206 7.1865 84.0331 6.4005 82.5 6.4005C80.9669 6.4005 79.5794 7.1865 78.575 8.4585L77.2669 6.8025C78.6063 5.10675 80.4563 4.05825 82.5 4.05825C84.5438 4.05825 86.3938 5.10675 87.7331 6.8025L86.425 8.4585ZM84.1388 11.3527C83.7194 10.8217 83.14 10.494 82.5 10.494C81.8606 10.494 81.2806 10.8217 80.8613 11.3527L79.5756 9.72525C80.3237 8.778 81.3575 8.19225 82.4994 8.19225C83.6413 8.19225 84.675 8.77875 85.4231 9.72525L84.1388 11.3527ZM82.5 12.1155C83.1638 12.1155 83.7019 12.7613 83.7019 13.5578C83.7019 14.3543 83.1638 15 82.5 15C81.8363 15 81.2981 14.3543 81.2981 13.5578C81.2981 12.7613 81.8363 12.1155 82.5 12.1155Z" fill="white"/>
<path d="M60 3.933C58.0806 1.503 55.4288 0 52.5 0C49.5706 0 46.9194 1.503 45 3.933L46.2744 5.5455C47.8675 3.5295 50.0688 2.2815 52.5 2.2815C54.9313 2.2815 57.1325 3.5295 58.7256 5.5455L60 3.933ZM56.425 8.4585C55.4206 7.1865 54.0331 6.4005 52.5 6.4005C50.9669 6.4005 49.5794 7.1865 48.575 8.4585L47.2669 6.8025C48.6063 5.10675 50.4563 4.05825 52.5 4.05825C54.5438 4.05825 56.3938 5.10675 57.7331 6.8025L56.425 8.4585ZM54.1388 11.3527C53.7194 10.8217 53.14 10.494 52.5 10.494C51.8606 10.494 51.2806 10.8217 50.8613 11.3527L49.5756 9.72525C50.3237 8.778 51.3575 8.19225 52.4994 8.19225C53.6413 8.19225 54.675 8.77875 55.4231 9.72525L54.1388 11.3527ZM52.5 12.1155C53.1638 12.1155 53.7019 12.7613 53.7019 13.5578C53.7019 14.3543 53.1638 15 52.5 15C51.8363 15 51.2981 14.3543 51.2981 13.5578C51.2981 12.7613 51.8363 12.1155 52.5 12.1155Z" fill="url(#paint1_linear_13_2)"/>
<path d="M15 3.933C13.0806 1.503 10.4288 0 7.5 0C4.57063 0 1.91938 1.503 3.57628e-07 3.933L1.27437 5.5455C2.8675 3.5295 5.06875 2.2815 7.5 2.2815C9.93125 2.2815 12.1325 3.5295 13.7256 5.5455L15 3.933ZM11.425 8.4585C10.4206 7.1865 9.03313 6.4005 7.5 6.4005C5.96688 6.4005 4.57937 7.1865 3.575 8.4585L2.26688 6.8025C3.60625 5.10675 5.45625 4.05825 7.5 4.05825C9.54375 4.05825 11.3937 5.10675 12.7331 6.8025L11.425 8.4585ZM9.13875 11.3527C8.71937 10.8217 8.14 10.494 7.5 10.494C6.86063 10.494 6.28063 10.8217 5.86125 11.3527L4.57562 9.72525C5.32375 8.778 6.3575 8.19225 7.49937 8.19225C8.64125 8.19225 9.675 8.77875 10.4231 9.72525L9.13875 11.3527ZM7.5 12.1155C8.16375 12.1155 8.70188 12.7612 8.70188 13.5577C8.70188 14.3542 8.16375 15 7.5 15C6.83625 15 6.29812 14.3542 6.29812 13.5577C6.29812 12.7612 6.83625 12.1155 7.5 12.1155Z" fill="url(#paint2_linear_13_2)"/>
<path d="M45 3.933C43.0806 1.503 40.4288 0 37.5 0C34.5706 0 31.9194 1.503 30 3.933L31.2744 5.5455C32.8675 3.5295 35.0687 2.2815 37.5 2.2815C39.9313 2.2815 42.1325 3.5295 43.7256 5.5455L45 3.933ZM41.425 8.4585C40.4206 7.1865 39.0331 6.4005 37.5 6.4005C35.9669 6.4005 34.5794 7.1865 33.575 8.4585L32.2669 6.8025C33.6062 5.10675 35.4562 4.05825 37.5 4.05825C39.5438 4.05825 41.3937 5.10675 42.7331 6.8025L41.425 8.4585ZM39.1387 11.3527C38.7194 10.8217 38.14 10.494 37.5 10.494C36.8606 10.494 36.2806 10.8217 35.8613 11.3527L34.5756 9.72525C35.3237 8.778 36.3575 8.19225 37.4994 8.19225C38.6412 8.19225 39.675 8.77875 40.4231 9.72525L39.1387 11.3527ZM37.5 12.1155C38.1637 12.1155 38.7019 12.7612 38.7019 13.5577C38.7019 14.3542 38.1637 15 37.5 15C36.8362 15 36.2981 14.3542 36.2981 13.5577C36.2981 12.7612 36.8362 12.1155 37.5 12.1155Z" fill="url(#paint3_linear_13_2)"/>
<path d="M30 3.933C28.0806 1.503 25.4288 0 22.5 0C19.5706 0 16.9194 1.503 15 3.933L16.2744 5.5455C17.8675 3.5295 20.0688 2.2815 22.5 2.2815C24.9313 2.2815 27.1325 3.5295 28.7256 5.5455L30 3.933ZM26.425 8.4585C25.4206 7.1865 24.0331 6.4005 22.5 6.4005C20.9669 6.4005 19.5794 7.1865 18.575 8.4585L17.2669 6.8025C18.6062 5.10675 20.4563 4.05825 22.5 4.05825C24.5438 4.05825 26.3937 5.10675 27.7331 6.8025L26.425 8.4585ZM24.1387 11.3527C23.7194 10.8217 23.14 10.494 22.5 10.494C21.8606 10.494 21.2806 10.8217 20.8612 11.3527L19.5756 9.72525C20.3237 8.778 21.3575 8.19225 22.4994 8.19225C23.6412 8.19225 24.675 8.77875 25.4231 9.72525L24.1387 11.3527ZM22.5 12.1155C23.1638 12.1155 23.7019 12.7612 23.7019 13.5577C23.7019 14.3542 23.1638 15 22.5 15C21.8363 15 21.2981 14.3542 21.2981 13.5577C21.2981 12.7612 21.8363 12.1155 22.5 12.1155Z" fill="url(#paint4_linear_13_2)"/>
<defs>
<linearGradient id="paint0_linear_13_2" x1="67.1875" y1="-1.5" x2="67.5758" y2="13.8563" gradientUnits="userSpaceOnUse">
<stop stop-color="white"/>
<stop offset="0.453025" stop-color="white"/>
<stop offset="0.832792" stop-color="white"/>
<stop offset="0.907745" stop-color="#FB944D"/>
</linearGradient>
<linearGradient id="paint1_linear_13_2" x1="52.3002" y1="7.73972" x2="52.3002" y2="11.8462" gradientUnits="userSpaceOnUse">
<stop offset="0.150304" stop-color="white"/>
<stop offset="0.271473" stop-color="#BF26F3"/>
<stop offset="0.777532" stop-color="#FB944D"/>
</linearGradient>
<linearGradient id="paint2_linear_13_2" x1="7.1875" y1="-1.5" x2="7.1875" y2="11.25" gradientUnits="userSpaceOnUse">
<stop stop-color="#F40489"/>
<stop offset="0.453125" stop-color="#BF26F3"/>
<stop offset="1" stop-color="#FB944D"/>
</linearGradient>
<linearGradient id="paint3_linear_13_2" x1="37.3002" y1="1.06672" x2="37.3002" y2="13.3861" gradientUnits="userSpaceOnUse">
<stop offset="0.234489" stop-color="white"/>
<stop offset="0.328125" stop-color="white"/>
<stop offset="0.43649" stop-color="#BF26F3"/>
<stop offset="0.716319" stop-color="#FB944D"/>
</linearGradient>
<linearGradient id="paint4_linear_13_2" x1="22.3002" y1="1.06672" x2="22.3002" y2="13.3861" gradientUnits="userSpaceOnUse">
<stop offset="0.0164512" stop-color="white"/>
<stop offset="0.234489" stop-color="white"/>
<stop offset="0.43649" stop-color="#BF26F3"/>
<stop offset="0.716319" stop-color="#FB944D"/>
</linearGradient>
</defs>
</svg>
