<svg width="96" height="15" viewBox="0 0 96 15" fill="none" xmlns="http://www.w3.org/2000/svg">
<path d="M11.3333 6.57614V5.01477C10.5533 4.73045 10.062 4.65136 9.81333 4.03909C9.56467 3.42545 9.86 3.00818 10.2133 2.24932L9.13467 1.14545C8.398 1.50341 7.986 1.80955 7.384 1.55455C6.784 1.30023 6.706 0.793636 6.43 0H4.90333C4.62867 0.789545 4.55 1.30023 3.94933 1.55455C3.34933 1.80955 2.942 1.50682 2.19867 1.14545L1.12067 2.24932C1.472 3.00614 1.76933 3.42477 1.52067 4.03909C1.27067 4.65341 0.772 4.73386 0 5.01477V6.57545C0.77 6.85636 1.27133 6.9375 1.52 7.55114C1.77067 8.17023 1.466 8.59705 1.12 9.34091L2.19867 10.4448C2.93667 10.0868 3.348 9.78068 3.94867 10.0357C4.54867 10.29 4.628 10.798 4.90333 11.5902H6.42933C6.704 10.8007 6.78267 10.2914 7.38733 10.0343C7.98333 9.78068 8.38867 10.0827 9.134 10.4448L10.2127 9.34091C9.86267 8.58614 9.56333 8.16614 9.812 7.55114C10.0613 6.93818 10.5627 6.85636 11.3333 6.57614ZM5.66667 7.72773C4.624 7.72773 3.778 6.8625 3.778 5.79545C3.778 4.72841 4.624 3.86318 5.66667 3.86318C6.70933 3.86318 7.55533 4.72841 7.55533 5.79545C7.55533 6.8625 6.70933 7.72773 5.66667 7.72773ZM16 10.5948V9.86045C15.6333 9.72682 15.402 9.68932 15.2847 9.40159C15.1673 9.1125 15.3067 8.91682 15.4727 8.55886L14.9647 8.03932C14.618 8.20841 14.424 8.35159 14.1413 8.23227C13.8587 8.11295 13.822 7.87432 13.692 7.50068H12.9747C12.8453 7.87227 12.808 8.11227 12.5253 8.23227C12.2427 8.35227 12.0513 8.20977 11.702 8.03932L11.194 8.55886C11.3593 8.91545 11.4993 9.1125 11.382 9.40159C11.2647 9.69068 11.03 9.72818 10.6667 9.86045V10.5948C11.0293 10.7264 11.2647 10.7652 11.382 11.0536C11.5 11.3448 11.3567 11.5459 11.194 11.8964L11.702 12.4159C12.0493 12.2468 12.2433 12.1036 12.5253 12.223C12.808 12.3423 12.8447 12.5816 12.9747 12.9545H13.692C13.8213 12.583 13.8587 12.343 14.1427 12.2223C14.4233 12.103 14.614 12.2455 14.9647 12.4159L15.4727 11.8964C15.308 11.5411 15.1673 11.3427 15.2847 11.0543C15.402 10.7659 15.6373 10.7264 16 10.5948ZM13.3333 11.1361C12.8427 11.1361 12.4447 10.7291 12.4447 10.2273C12.4447 9.72545 12.8427 9.31841 13.3333 9.31841C13.824 9.31841 14.222 9.72545 14.222 10.2273C14.222 10.7291 13.824 11.1361 13.3333 11.1361ZM10.6667 13.23V12.6791C10.392 12.5789 10.218 12.5509 10.13 12.3348C10.042 12.1186 10.146 11.9714 10.2713 11.7027L9.89 11.3134C9.63067 11.4402 9.48533 11.548 9.27267 11.458C9.06 11.368 9.03333 11.1893 8.93533 10.9091H8.39733C8.3 11.188 8.272 11.368 8.06 11.458C7.84867 11.548 7.70467 11.4416 7.44267 11.3134L7.06133 11.7027C7.186 11.9707 7.29067 12.118 7.20267 12.3348C7.11467 12.5516 6.93867 12.5795 6.666 12.6791V13.23C6.938 13.3289 7.11467 13.3582 7.20267 13.5743C7.29133 13.7925 7.184 13.9439 7.06133 14.2064L7.44267 14.5957C7.70267 14.4689 7.848 14.3611 8.06 14.4511C8.272 14.5411 8.29933 14.7205 8.39733 15H8.93533C9.03267 14.7211 9.06067 14.5411 9.27333 14.4511C9.48333 14.3618 9.62667 14.4682 9.89 14.5964L10.2713 14.207C10.1473 13.9405 10.042 13.7918 10.13 13.575C10.218 13.3582 10.3947 13.3289 10.6667 13.23ZM8.66667 13.6364C8.29867 13.6364 8 13.3316 8 12.9545C8 12.5775 8.29867 12.2727 8.66667 12.2727C9.03467 12.2727 9.33333 12.5775 9.33333 12.9545C9.33333 13.3316 9.03467 13.6364 8.66667 13.6364Z" fill="url(#paint0_linear_19_102)"/>
<path d="M27.3333 6.57614V5.01477C26.5533 4.73045 26.062 4.65136 25.8133 4.03909C25.5647 3.42545 25.86 3.00818 26.2133 2.24932L25.1347 1.14545C24.398 1.50341 23.986 1.80955 23.384 1.55455C22.784 1.30023 22.706 0.793636 22.43 0H20.9033C20.6287 0.789545 20.55 1.30023 19.9493 1.55455C19.3493 1.80955 18.942 1.50682 18.1987 1.14545L17.1207 2.24932C17.472 3.00614 17.7693 3.42477 17.5207 4.03909C17.2707 4.65341 16.772 4.73386 16 5.01477V6.57545C16.77 6.85636 17.2713 6.9375 17.52 7.55114C17.7707 8.17023 17.466 8.59705 17.12 9.34091L18.1987 10.4448C18.9367 10.0868 19.348 9.78068 19.9487 10.0357C20.5487 10.29 20.628 10.798 20.9033 11.5902H22.4293C22.704 10.8007 22.7827 10.2914 23.3873 10.0343C23.9833 9.78068 24.3887 10.0827 25.134 10.4448L26.2127 9.34091C25.8627 8.58614 25.5633 8.16614 25.812 7.55114C26.0613 6.93818 26.5627 6.85636 27.3333 6.57614ZM21.6667 7.72773C20.624 7.72773 19.778 6.8625 19.778 5.79545C19.778 4.72841 20.624 3.86318 21.6667 3.86318C22.7093 3.86318 23.5553 4.72841 23.5553 5.79545C23.5553 6.8625 22.7093 7.72773 21.6667 7.72773ZM32 10.5948V9.86045C31.6333 9.72682 31.402 9.68932 31.2847 9.40159C31.1673 9.1125 31.3067 8.91682 31.4727 8.55886L30.9647 8.03932C30.618 8.20841 30.424 8.35159 30.1413 8.23227C29.8587 8.11295 29.822 7.87432 29.692 7.50068H28.9747C28.8453 7.87227 28.808 8.11227 28.5253 8.23227C28.2427 8.35227 28.0513 8.20977 27.702 8.03932L27.194 8.55886C27.3593 8.91545 27.4993 9.1125 27.382 9.40159C27.2647 9.69068 27.03 9.72818 26.6667 9.86045V10.5948C27.0293 10.7264 27.2647 10.7652 27.382 11.0536C27.5 11.3448 27.3567 11.5459 27.194 11.8964L27.702 12.4159C28.0493 12.2468 28.2433 12.1036 28.5253 12.223C28.808 12.3423 28.8447 12.5816 28.9747 12.9545H29.692C29.8213 12.583 29.8587 12.343 30.1427 12.2223C30.4233 12.103 30.614 12.2455 30.9647 12.4159L31.4727 11.8964C31.308 11.5411 31.1673 11.3427 31.2847 11.0543C31.402 10.7659 31.6373 10.7264 32 10.5948ZM29.3333 11.1361C28.8427 11.1361 28.4447 10.7291 28.4447 10.2273C28.4447 9.72545 28.8427 9.31841 29.3333 9.31841C29.824 9.31841 30.222 9.72545 30.222 10.2273C30.222 10.7291 29.824 11.1361 29.3333 11.1361ZM26.6667 13.23V12.6791C26.392 12.5789 26.218 12.5509 26.13 12.3348C26.042 12.1186 26.146 11.9714 26.2713 11.7027L25.89 11.3134C25.6307 11.4402 25.4853 11.548 25.2727 11.458C25.06 11.368 25.0333 11.1893 24.9353 10.9091H24.3973C24.3 11.188 24.272 11.368 24.06 11.458C23.8487 11.548 23.7047 11.4416 23.4427 11.3134L23.0613 11.7027C23.186 11.9707 23.2907 12.118 23.2027 12.3348C23.1147 12.5516 22.9387 12.5795 22.666 12.6791V13.23C22.938 13.3289 23.1147 13.3582 23.2027 13.5743C23.2913 13.7925 23.184 13.9439 23.0613 14.2064L23.4427 14.5957C23.7027 14.4689 23.848 14.3611 24.06 14.4511C24.272 14.5411 24.2993 14.7205 24.3973 15H24.9353C25.0327 14.7211 25.0607 14.5411 25.2733 14.4511C25.4833 14.3618 25.6267 14.4682 25.89 14.5964L26.2713 14.207C26.1473 13.9405 26.042 13.7918 26.13 13.575C26.218 13.3582 26.3947 13.3289 26.6667 13.23ZM24.6667 13.6364C24.2987 13.6364 24 13.3316 24 12.9545C24 12.5775 24.2987 12.2727 24.6667 12.2727C25.0347 12.2727 25.3333 12.5775 25.3333 12.9545C25.3333 13.3316 25.0347 13.6364 24.6667 13.6364Z" fill="url(#paint1_linear_19_102)"/>
<path d="M43.3333 6.57614V5.01477C42.5533 4.73045 42.062 4.65136 41.8133 4.03909C41.5647 3.42545 41.86 3.00818 42.2133 2.24932L41.1347 1.14545C40.398 1.50341 39.986 1.80955 39.384 1.55455C38.784 1.30023 38.706 0.793636 38.43 0H36.9033C36.6287 0.789545 36.55 1.30023 35.9493 1.55455C35.3493 1.80955 34.942 1.50682 34.1987 1.14545L33.1207 2.24932C33.472 3.00614 33.7693 3.42477 33.5207 4.03909C33.2707 4.65341 32.772 4.73386 32 5.01477V6.57545C32.77 6.85636 33.2713 6.9375 33.52 7.55114C33.7707 8.17023 33.466 8.59705 33.12 9.34091L34.1987 10.4448C34.9367 10.0868 35.348 9.78068 35.9487 10.0357C36.5487 10.29 36.628 10.798 36.9033 11.5902H38.4293C38.704 10.8007 38.7827 10.2914 39.3873 10.0343C39.9833 9.78068 40.3887 10.0827 41.134 10.4448L42.2127 9.34091C41.8627 8.58614 41.5633 8.16614 41.812 7.55114C42.0613 6.93818 42.5627 6.85636 43.3333 6.57614ZM37.6667 7.72773C36.624 7.72773 35.778 6.8625 35.778 5.79545C35.778 4.72841 36.624 3.86318 37.6667 3.86318C38.7093 3.86318 39.5553 4.72841 39.5553 5.79545C39.5553 6.8625 38.7093 7.72773 37.6667 7.72773ZM48 10.5948V9.86045C47.6333 9.72682 47.402 9.68932 47.2847 9.40159C47.1673 9.1125 47.3067 8.91682 47.4727 8.55886L46.9647 8.03932C46.618 8.20841 46.424 8.35159 46.1413 8.23227C45.8587 8.11295 45.822 7.87432 45.692 7.50068H44.9747C44.8453 7.87227 44.808 8.11227 44.5253 8.23227C44.2427 8.35227 44.0513 8.20977 43.702 8.03932L43.194 8.55886C43.3593 8.91545 43.4993 9.1125 43.382 9.40159C43.2647 9.69068 43.03 9.72818 42.6667 9.86045V10.5948C43.0293 10.7264 43.2647 10.7652 43.382 11.0536C43.5 11.3448 43.3567 11.5459 43.194 11.8964L43.702 12.4159C44.0493 12.2468 44.2433 12.1036 44.5253 12.223C44.808 12.3423 44.8447 12.5816 44.9747 12.9545H45.692C45.8213 12.583 45.8587 12.343 46.1427 12.2223C46.4233 12.103 46.614 12.2455 46.9647 12.4159L47.4727 11.8964C47.308 11.5411 47.1673 11.3427 47.2847 11.0543C47.402 10.7659 47.6373 10.7264 48 10.5948ZM45.3333 11.1361C44.8427 11.1361 44.4447 10.7291 44.4447 10.2273C44.4447 9.72545 44.8427 9.31841 45.3333 9.31841C45.824 9.31841 46.222 9.72545 46.222 10.2273C46.222 10.7291 45.824 11.1361 45.3333 11.1361ZM42.6667 13.23V12.6791C42.392 12.5789 42.218 12.5509 42.13 12.3348C42.042 12.1186 42.146 11.9714 42.2713 11.7027L41.89 11.3134C41.6307 11.4402 41.4853 11.548 41.2727 11.458C41.06 11.368 41.0333 11.1893 40.9353 10.9091H40.3973C40.3 11.188 40.272 11.368 40.06 11.458C39.8487 11.548 39.7047 11.4416 39.4427 11.3134L39.0613 11.7027C39.186 11.9707 39.2907 12.118 39.2027 12.3348C39.1147 12.5516 38.9387 12.5795 38.666 12.6791V13.23C38.938 13.3289 39.1147 13.3582 39.2027 13.5743C39.2913 13.7925 39.184 13.9439 39.0613 14.2064L39.4427 14.5957C39.7027 14.4689 39.848 14.3611 40.06 14.4511C40.272 14.5411 40.2993 14.7205 40.3973 15H40.9353C41.0327 14.7211 41.0607 14.5411 41.2733 14.4511C41.4833 14.3618 41.6267 14.4682 41.89 14.5964L42.2713 14.207C42.1473 13.9405 42.042 13.7918 42.13 13.575C42.218 13.3582 42.3947 13.3289 42.6667 13.23ZM40.6667 13.6364C40.2987 13.6364 40 13.3316 40 12.9545C40 12.5775 40.2987 12.2727 40.6667 12.2727C41.0347 12.2727 41.3333 12.5775 41.3333 12.9545C41.3333 13.3316 41.0347 13.6364 40.6667 13.6364Z" fill="url(#paint2_linear_19_102)"/>
<path d="M75.3333 6.57614V5.01477C74.5533 4.73045 74.062 4.65136 73.8133 4.03909C73.5647 3.42545 73.86 3.00818 74.2133 2.24932L73.1347 1.14545C72.398 1.50341 71.986 1.80955 71.384 1.55455C70.784 1.30023 70.706 0.793636 70.43 0H68.9033C68.6287 0.789545 68.55 1.30023 67.9493 1.55455C67.3493 1.80955 66.942 1.50682 66.1987 1.14545L65.1207 2.24932C65.472 3.00614 65.7693 3.42477 65.5207 4.03909C65.2707 4.65341 64.772 4.73386 64 5.01477V6.57545C64.77 6.85636 65.2713 6.9375 65.52 7.55114C65.7707 8.17023 65.466 8.59705 65.12 9.34091L66.1987 10.4448C66.9367 10.0868 67.348 9.78068 67.9487 10.0357C68.5487 10.29 68.628 10.798 68.9033 11.5902H70.4293C70.704 10.8007 70.7827 10.2914 71.3873 10.0343C71.9833 9.78068 72.3887 10.0827 73.134 10.4448L74.2127 9.34091C73.8627 8.58614 73.5633 8.16614 73.812 7.55114C74.0613 6.93818 74.5627 6.85636 75.3333 6.57614ZM69.6667 7.72773C68.624 7.72773 67.778 6.8625 67.778 5.79545C67.778 4.72841 68.624 3.86318 69.6667 3.86318C70.7093 3.86318 71.5553 4.72841 71.5553 5.79545C71.5553 6.8625 70.7093 7.72773 69.6667 7.72773ZM80 10.5948V9.86045C79.6333 9.72682 79.402 9.68932 79.2847 9.40159C79.1673 9.1125 79.3067 8.91682 79.4727 8.55886L78.9647 8.03932C78.618 8.20841 78.424 8.35159 78.1413 8.23227C77.8587 8.11295 77.822 7.87432 77.692 7.50068H76.9747C76.8453 7.87227 76.808 8.11227 76.5253 8.23227C76.2427 8.35227 76.0513 8.20977 75.702 8.03932L75.194 8.55886C75.3593 8.91545 75.4993 9.1125 75.382 9.40159C75.2647 9.69068 75.03 9.72818 74.6667 9.86045V10.5948C75.0293 10.7264 75.2647 10.7652 75.382 11.0536C75.5 11.3448 75.3567 11.5459 75.194 11.8964L75.702 12.4159C76.0493 12.2468 76.2433 12.1036 76.5253 12.223C76.808 12.3423 76.8447 12.5816 76.9747 12.9545H77.692C77.8213 12.583 77.8587 12.343 78.1427 12.2223C78.4233 12.103 78.614 12.2455 78.9647 12.4159L79.4727 11.8964C79.308 11.5411 79.1673 11.3427 79.2847 11.0543C79.402 10.7659 79.6373 10.7264 80 10.5948ZM77.3333 11.1361C76.8427 11.1361 76.4447 10.7291 76.4447 10.2273C76.4447 9.72545 76.8427 9.31841 77.3333 9.31841C77.824 9.31841 78.222 9.72545 78.222 10.2273C78.222 10.7291 77.824 11.1361 77.3333 11.1361ZM74.6667 13.23V12.6791C74.392 12.5789 74.218 12.5509 74.13 12.3348C74.042 12.1186 74.146 11.9714 74.2713 11.7027L73.89 11.3134C73.6307 11.4402 73.4853 11.548 73.2727 11.458C73.06 11.368 73.0333 11.1893 72.9353 10.9091H72.3973C72.3 11.188 72.272 11.368 72.06 11.458C71.8487 11.548 71.7047 11.4416 71.4427 11.3134L71.0613 11.7027C71.186 11.9707 71.2907 12.118 71.2027 12.3348C71.1147 12.5516 70.9387 12.5795 70.666 12.6791V13.23C70.938 13.3289 71.1147 13.3582 71.2027 13.5743C71.2913 13.7925 71.184 13.9439 71.0613 14.2064L71.4427 14.5957C71.7027 14.4689 71.848 14.3611 72.06 14.4511C72.272 14.5411 72.2993 14.7205 72.3973 15H72.9353C73.0327 14.7211 73.0607 14.5411 73.2733 14.4511C73.4833 14.3618 73.6267 14.4682 73.89 14.5964L74.2713 14.207C74.1473 13.9405 74.042 13.7918 74.13 13.575C74.218 13.3582 74.3947 13.3289 74.6667 13.23ZM72.6667 13.6364C72.2987 13.6364 72 13.3316 72 12.9545C72 12.5775 72.2987 12.2727 72.6667 12.2727C73.0347 12.2727 73.3333 12.5775 73.3333 12.9545C73.3333 13.3316 73.0347 13.6364 72.6667 13.6364Z" fill="url(#paint3_linear_19_102)"/>
<path d="M59.3333 6.57614V5.01477C58.5533 4.73045 58.062 4.65136 57.8133 4.03909C57.5647 3.42545 57.86 3.00818 58.2133 2.24932L57.1347 1.14545C56.398 1.50341 55.986 1.80955 55.384 1.55455C54.784 1.30023 54.706 0.793636 54.43 0H52.9033C52.6287 0.789545 52.55 1.30023 51.9493 1.55455C51.3493 1.80955 50.942 1.50682 50.1987 1.14545L49.1207 2.24932C49.472 3.00614 49.7693 3.42477 49.5207 4.03909C49.2707 4.65341 48.772 4.73386 48 5.01477V6.57545C48.77 6.85636 49.2713 6.9375 49.52 7.55114C49.7707 8.17023 49.466 8.59705 49.12 9.34091L50.1987 10.4448C50.9367 10.0868 51.348 9.78068 51.9487 10.0357C52.5487 10.29 52.628 10.798 52.9033 11.5902H54.4293C54.704 10.8007 54.7827 10.2914 55.3873 10.0343C55.9833 9.78068 56.3887 10.0827 57.134 10.4448L58.2127 9.34091C57.8627 8.58614 57.5633 8.16614 57.812 7.55114C58.0613 6.93818 58.5627 6.85636 59.3333 6.57614ZM53.6667 7.72773C52.624 7.72773 51.778 6.8625 51.778 5.79545C51.778 4.72841 52.624 3.86318 53.6667 3.86318C54.7093 3.86318 55.5553 4.72841 55.5553 5.79545C55.5553 6.8625 54.7093 7.72773 53.6667 7.72773ZM64 10.5948V9.86045C63.6333 9.72682 63.402 9.68932 63.2847 9.40159C63.1673 9.1125 63.3067 8.91682 63.4727 8.55886L62.9647 8.03932C62.618 8.20841 62.424 8.35159 62.1413 8.23227C61.8587 8.11295 61.822 7.87432 61.692 7.50068H60.9747C60.8453 7.87227 60.808 8.11227 60.5253 8.23227C60.2427 8.35227 60.0513 8.20977 59.702 8.03932L59.194 8.55886C59.3593 8.91545 59.4993 9.1125 59.382 9.40159C59.2647 9.69068 59.03 9.72818 58.6667 9.86045V10.5948C59.0293 10.7264 59.2647 10.7652 59.382 11.0536C59.5 11.3448 59.3567 11.5459 59.194 11.8964L59.702 12.4159C60.0493 12.2468 60.2433 12.1036 60.5253 12.223C60.808 12.3423 60.8447 12.5816 60.9747 12.9545H61.692C61.8213 12.583 61.8587 12.343 62.1427 12.2223C62.4233 12.103 62.614 12.2455 62.9647 12.4159L63.4727 11.8964C63.308 11.5411 63.1673 11.3427 63.2847 11.0543C63.402 10.7659 63.6373 10.7264 64 10.5948ZM61.3333 11.1361C60.8427 11.1361 60.4447 10.7291 60.4447 10.2273C60.4447 9.72545 60.8427 9.31841 61.3333 9.31841C61.824 9.31841 62.222 9.72545 62.222 10.2273C62.222 10.7291 61.824 11.1361 61.3333 11.1361ZM58.6667 13.23V12.6791C58.392 12.5789 58.218 12.5509 58.13 12.3348C58.042 12.1186 58.146 11.9714 58.2713 11.7027L57.89 11.3134C57.6307 11.4402 57.4853 11.548 57.2727 11.458C57.06 11.368 57.0333 11.1893 56.9353 10.9091H56.3973C56.3 11.188 56.272 11.368 56.06 11.458C55.8487 11.548 55.7047 11.4416 55.4427 11.3134L55.0613 11.7027C55.186 11.9707 55.2907 12.118 55.2027 12.3348C55.1147 12.5516 54.9387 12.5795 54.666 12.6791V13.23C54.938 13.3289 55.1147 13.3582 55.2027 13.5743C55.2913 13.7925 55.184 13.9439 55.0613 14.2064L55.4427 14.5957C55.7027 14.4689 55.848 14.3611 56.06 14.4511C56.272 14.5411 56.2993 14.7205 56.3973 15H56.9353C57.0327 14.7211 57.0607 14.5411 57.2733 14.4511C57.4833 14.3618 57.6267 14.4682 57.89 14.5964L58.2713 14.207C58.1473 13.9405 58.042 13.7918 58.13 13.575C58.218 13.3582 58.3947 13.3289 58.6667 13.23ZM56.6667 13.6364C56.2987 13.6364 56 13.3316 56 12.9545C56 12.5775 56.2987 12.2727 56.6667 12.2727C57.0347 12.2727 57.3333 12.5775 57.3333 12.9545C57.3333 13.3316 57.0347 13.6364 56.6667 13.6364Z" fill="url(#paint4_linear_19_102)"/>
<path d="M91.3333 6.57614V5.01477C90.5533 4.73045 90.062 4.65136 89.8133 4.03909C89.5647 3.42545 89.86 3.00818 90.2133 2.24932L89.1347 1.14545C88.398 1.50341 87.986 1.80955 87.384 1.55455C86.784 1.30023 86.706 0.793636 86.43 0H84.9033C84.6287 0.789545 84.55 1.30023 83.9493 1.55455C83.3493 1.80955 82.942 1.50682 82.1987 1.14545L81.1207 2.24932C81.472 3.00614 81.7693 3.42477 81.5207 4.03909C81.2707 4.65341 80.772 4.73386 80 5.01477V6.57545C80.77 6.85636 81.2713 6.9375 81.52 7.55114C81.7707 8.17023 81.466 8.59705 81.12 9.34091L82.1987 10.4448C82.9367 10.0868 83.348 9.78068 83.9487 10.0357C84.5487 10.29 84.628 10.798 84.9033 11.5902H86.4293C86.704 10.8007 86.7827 10.2914 87.3873 10.0343C87.9833 9.78068 88.3887 10.0827 89.134 10.4448L90.2127 9.34091C89.8627 8.58614 89.5633 8.16614 89.812 7.55114C90.0613 6.93818 90.5627 6.85636 91.3333 6.57614ZM85.6667 7.72773C84.624 7.72773 83.778 6.8625 83.778 5.79545C83.778 4.72841 84.624 3.86318 85.6667 3.86318C86.7093 3.86318 87.5553 4.72841 87.5553 5.79545C87.5553 6.8625 86.7093 7.72773 85.6667 7.72773ZM96 10.5948V9.86045C95.6333 9.72682 95.402 9.68932 95.2847 9.40159C95.1673 9.1125 95.3067 8.91682 95.4727 8.55886L94.9647 8.03932C94.618 8.20841 94.424 8.35159 94.1413 8.23227C93.8587 8.11295 93.822 7.87432 93.692 7.50068H92.9747C92.8453 7.87227 92.808 8.11227 92.5253 8.23227C92.2427 8.35227 92.0513 8.20977 91.702 8.03932L91.194 8.55886C91.3593 8.91545 91.4993 9.1125 91.382 9.40159C91.2647 9.69068 91.03 9.72818 90.6667 9.86045V10.5948C91.0293 10.7264 91.2647 10.7652 91.382 11.0536C91.5 11.3448 91.3567 11.5459 91.194 11.8964L91.702 12.4159C92.0493 12.2468 92.2433 12.1036 92.5253 12.223C92.808 12.3423 92.8447 12.5816 92.9747 12.9545H93.692C93.8213 12.583 93.8587 12.343 94.1427 12.2223C94.4233 12.103 94.614 12.2455 94.9647 12.4159L95.4727 11.8964C95.308 11.5411 95.1673 11.3427 95.2847 11.0543C95.402 10.7659 95.6373 10.7264 96 10.5948ZM93.3333 11.1361C92.8427 11.1361 92.4447 10.7291 92.4447 10.2273C92.4447 9.72545 92.8427 9.31841 93.3333 9.31841C93.824 9.31841 94.222 9.72545 94.222 10.2273C94.222 10.7291 93.824 11.1361 93.3333 11.1361ZM90.6667 13.23V12.6791C90.392 12.5789 90.218 12.5509 90.13 12.3348C90.042 12.1186 90.146 11.9714 90.2713 11.7027L89.89 11.3134C89.6307 11.4402 89.4853 11.548 89.2727 11.458C89.06 11.368 89.0333 11.1893 88.9353 10.9091H88.3973C88.3 11.188 88.272 11.368 88.06 11.458C87.8487 11.548 87.7047 11.4416 87.4427 11.3134L87.0613 11.7027C87.186 11.9707 87.2907 12.118 87.2027 12.3348C87.1147 12.5516 86.9387 12.5795 86.666 12.6791V13.23C86.938 13.3289 87.1147 13.3582 87.2027 13.5743C87.2913 13.7925 87.184 13.9439 87.0613 14.2064L87.4427 14.5957C87.7027 14.4689 87.848 14.3611 88.06 14.4511C88.272 14.5411 88.2993 14.7205 88.3973 15H88.9353C89.0327 14.7211 89.0607 14.5411 89.2733 14.4511C89.4833 14.3618 89.6267 14.4682 89.89 14.5964L90.2713 14.207C90.1473 13.9405 90.042 13.7918 90.13 13.575C90.218 13.3582 90.3947 13.3289 90.6667 13.23ZM88.6667 13.6364C88.2987 13.6364 88 13.3316 88 12.9545C88 12.5775 88.2987 12.2727 88.6667 12.2727C89.0347 12.2727 89.3333 12.5775 89.3333 12.9545C89.3333 13.3316 89.0347 13.6364 88.6667 13.6364Z" fill="white"/>
<defs>
<linearGradient id="paint0_linear_19_102" x1="-1.41176" y1="1.00263" x2="13.8759" y2="11.7465" gradientUnits="userSpaceOnUse">
<stop offset="0.0945158" stop-color="#F40588"/>
<stop offset="0.447917" stop-color="#C227F4"/>
<stop offset="1" stop-color="#FB924D"/>
</linearGradient>
<linearGradient id="paint1_linear_19_102" x1="19.2941" y1="-5" x2="34.151" y2="6.65769" gradientUnits="userSpaceOnUse">
<stop offset="0.369792" stop-color="#FFFCFE"/>
<stop offset="0.447917" stop-color="#C227F4"/>
<stop offset="1" stop-color="#FB924D"/>
</linearGradient>
<linearGradient id="paint2_linear_19_102" x1="35.2941" y1="-5" x2="50.151" y2="6.65769" gradientUnits="userSpaceOnUse">
<stop offset="0.520833" stop-color="white"/>
<stop offset="0.572917" stop-color="#C227F4"/>
<stop offset="1" stop-color="#FB924D"/>
</linearGradient>
<linearGradient id="paint3_linear_19_102" x1="70.5882" y1="-8.90206e-08" x2="77.8528" y2="11.8741" gradientUnits="userSpaceOnUse">
<stop offset="0.0945158" stop-color="#FFFAFD"/>
<stop offset="0.197917" stop-color="#FFFEFF"/>
<stop offset="0.515625" stop-color="#FFFEFF"/>
<stop offset="0.713442" stop-color="#FFFEFF"/>
<stop offset="0.713542" stop-color="#DD5AA4"/>
<stop offset="0.734275" stop-color="#DF5E9F"/>
<stop offset="0.734375" stop-color="#E05F9D"/>
<stop offset="0.755208" stop-color="#E26397"/>
<stop offset="1" stop-color="#FB924D"/>
</linearGradient>
<linearGradient id="paint4_linear_19_102" x1="46.5882" y1="1.00263" x2="61.8759" y2="11.7465" gradientUnits="userSpaceOnUse">
<stop stop-color="#F40588"/>
<stop offset="0.0945158" stop-color="#F40588"/>
<stop offset="0.447917" stop-color="#C227F4"/>
<stop offset="0.765425" stop-color="#FFFCFD"/>
<stop offset="0.765525" stop-color="#E26397"/>
<stop offset="0.765625" stop-color="#E36594"/>
<stop offset="0.765725" stop-color="#FFFCFD"/>
<stop offset="0.791167" stop-color="#FFFEFE"/>
<stop offset="0.791267" stop-color="#FFFBFC"/>
<stop offset="0.791367" stop-color="#EEA2BF"/>
<stop offset="0.791467" stop-color="#FFFEFE"/>
<stop offset="0.791567" stop-color="#E5698E"/>
<stop offset="0.791667" stop-color="#E56A8C"/>
<stop offset="0.791767" stop-color="#E66B8A"/>
<stop offset="0.791867" stop-color="#FFFCFD"/>
<stop offset="0.817608" stop-color="#FFFCFD"/>
<stop offset="0.817708" stop-color="white"/>
<stop offset="0.817808" stop-color="white"/>
<stop offset="0.848858" stop-color="#FFFAFA"/>
<stop offset="0.848958" stop-color="#EB757B"/>
<stop offset="0.849058" stop-color="#FFFCFC"/>
<stop offset="0.9999" stop-color="#FFFAFA"/>
<stop offset="1" stop-color="#FFFDFC"/>
</linearGradient>
</defs>
</svg>
