<svg width="90" height="15" viewBox="0 0 90 15" fill="none" xmlns="http://www.w3.org/2000/svg">
<path d="M10.625 6.57614V5.01477C9.89375 4.73045 9.43313 4.65136 9.2 4.03909C8.96688 3.42545 9.24375 3.00818 9.575 2.24932L8.56375 1.14545C7.87312 1.50341 7.48688 1.80955 6.9225 1.55455C6.36 1.30023 6.28688 0.793636 6.02813 0H4.59688C4.33938 0.789545 4.26562 1.30023 3.7025 1.55455C3.14 1.80955 2.75813 1.50682 2.06125 1.14545L1.05063 2.24932C1.38 3.00614 1.65875 3.42477 1.42563 4.03909C1.19125 4.65341 0.72375 4.73386 0 5.01477V6.57545C0.721875 6.85636 1.19187 6.9375 1.425 7.55114C1.66 8.17023 1.37438 8.59705 1.05 9.34091L2.06125 10.4448C2.75313 10.0868 3.13875 9.78068 3.70187 10.0357C4.26437 10.29 4.33875 10.798 4.59688 11.5902H6.0275C6.285 10.8007 6.35875 10.2914 6.92563 10.0343C7.48438 9.78068 7.86437 10.0827 8.56312 10.4448L9.57437 9.34091C9.24625 8.58614 8.96563 8.16614 9.19875 7.55114C9.4325 6.93818 9.9025 6.85636 10.625 6.57614ZM5.3125 7.72773C4.335 7.72773 3.54187 6.8625 3.54187 5.79545C3.54187 4.72841 4.335 3.86318 5.3125 3.86318C6.29 3.86318 7.08313 4.72841 7.08313 5.79545C7.08313 6.8625 6.29 7.72773 5.3125 7.72773ZM15 10.5948V9.86045C14.6562 9.72682 14.4394 9.68932 14.3294 9.40159C14.2194 9.1125 14.35 8.91682 14.5056 8.55886L14.0294 8.03932C13.7044 8.20841 13.5225 8.35159 13.2575 8.23227C12.9925 8.11295 12.9581 7.87432 12.8363 7.50068H12.1638C12.0425 7.87227 12.0075 8.11227 11.7425 8.23227C11.4775 8.35227 11.2981 8.20977 10.9706 8.03932L10.4944 8.55886C10.6494 8.91545 10.7806 9.1125 10.6706 9.40159C10.5606 9.69068 10.3406 9.72818 10 9.86045V10.5948C10.34 10.7264 10.5606 10.7652 10.6706 11.0536C10.7812 11.3448 10.6469 11.5459 10.4944 11.8964L10.9706 12.4159C11.2963 12.2468 11.4781 12.1036 11.7425 12.223C12.0075 12.3423 12.0419 12.5816 12.1638 12.9545H12.8363C12.9575 12.583 12.9925 12.343 13.2588 12.2223C13.5219 12.103 13.7006 12.2455 14.0294 12.4159L14.5056 11.8964C14.3513 11.5411 14.2194 11.3427 14.3294 11.0543C14.4394 10.7659 14.66 10.7264 15 10.5948ZM12.5 11.1361C12.04 11.1361 11.6669 10.7291 11.6669 10.2273C11.6669 9.72545 12.04 9.31841 12.5 9.31841C12.96 9.31841 13.3331 9.72545 13.3331 10.2273C13.3331 10.7291 12.96 11.1361 12.5 11.1361ZM10 13.23V12.6791C9.7425 12.5789 9.57938 12.5509 9.49688 12.3348C9.41438 12.1186 9.51188 11.9714 9.62938 11.7027L9.27188 11.3134C9.02875 11.4402 8.8925 11.548 8.69313 11.458C8.49375 11.368 8.46875 11.1893 8.37688 10.9091H7.8725C7.78125 11.188 7.755 11.368 7.55625 11.458C7.35813 11.548 7.22313 11.4416 6.9775 11.3134L6.62 11.7027C6.73688 11.9707 6.835 12.118 6.7525 12.3348C6.67 12.5516 6.505 12.5795 6.24937 12.6791V13.23C6.50437 13.3289 6.67 13.3582 6.7525 13.5743C6.83562 13.7925 6.735 13.9439 6.62 14.2064L6.9775 14.5957C7.22125 14.4689 7.3575 14.3611 7.55625 14.4511C7.755 14.5411 7.78062 14.7205 7.8725 15H8.37688C8.46813 14.7211 8.49438 14.5411 8.69375 14.4511C8.89063 14.3618 9.025 14.4682 9.27188 14.5964L9.62938 14.207C9.51313 13.9405 9.41438 13.7918 9.49688 13.575C9.57938 13.3582 9.745 13.3289 10 13.23ZM8.125 13.6364C7.78 13.6364 7.5 13.3316 7.5 12.9545C7.5 12.5775 7.78 12.2727 8.125 12.2727C8.47 12.2727 8.75 12.5775 8.75 12.9545C8.75 13.3316 8.47 13.6364 8.125 13.6364Z" fill="url(#paint0_linear_19_102)"/>
<path d="M25.625 6.57614V5.01477C24.8937 4.73045 24.4331 4.65136 24.2 4.03909C23.9669 3.42545 24.2437 3.00818 24.575 2.24932L23.5637 1.14545C22.8731 1.50341 22.4869 1.80955 21.9225 1.55455C21.36 1.30023 21.2869 0.793636 21.0281 0H19.5969C19.3394 0.789545 19.2656 1.30023 18.7025 1.55455C18.14 1.80955 17.7581 1.50682 17.0613 1.14545L16.0506 2.24932C16.38 3.00614 16.6587 3.42477 16.4256 4.03909C16.1912 4.65341 15.7237 4.73386 15 5.01477V6.57545C15.7219 6.85636 16.1919 6.9375 16.425 7.55114C16.66 8.17023 16.3744 8.59705 16.05 9.34091L17.0613 10.4448C17.7531 10.0868 18.1387 9.78068 18.7019 10.0357C19.2644 10.29 19.3388 10.798 19.5969 11.5902H21.0275C21.285 10.8007 21.3587 10.2914 21.9256 10.0343C22.4844 9.78068 22.8644 10.0827 23.5631 10.4448L24.5744 9.34091C24.2462 8.58614 23.9656 8.16614 24.1988 7.55114C24.4325 6.93818 24.9025 6.85636 25.625 6.57614ZM20.3125 7.72773C19.335 7.72773 18.5419 6.8625 18.5419 5.79545C18.5419 4.72841 19.335 3.86318 20.3125 3.86318C21.29 3.86318 22.0831 4.72841 22.0831 5.79545C22.0831 6.8625 21.29 7.72773 20.3125 7.72773ZM30 10.5948V9.86045C29.6563 9.72682 29.4394 9.68932 29.3294 9.40159C29.2194 9.1125 29.35 8.91682 29.5056 8.55886L29.0294 8.03932C28.7044 8.20841 28.5225 8.35159 28.2575 8.23227C27.9925 8.11295 27.9581 7.87432 27.8362 7.50068H27.1637C27.0425 7.87227 27.0075 8.11227 26.7425 8.23227C26.4775 8.35227 26.2981 8.20977 25.9706 8.03932L25.4944 8.55886C25.6494 8.91545 25.7806 9.1125 25.6706 9.40159C25.5606 9.69068 25.3406 9.72818 25 9.86045V10.5948C25.34 10.7264 25.5606 10.7652 25.6706 11.0536C25.7812 11.3448 25.6469 11.5459 25.4944 11.8964L25.9706 12.4159C26.2962 12.2468 26.4781 12.1036 26.7425 12.223C27.0075 12.3423 27.0419 12.5816 27.1637 12.9545H27.8362C27.9575 12.583 27.9925 12.343 28.2588 12.2223C28.5219 12.103 28.7006 12.2455 29.0294 12.4159L29.5056 11.8964C29.3512 11.5411 29.2194 11.3427 29.3294 11.0543C29.4394 10.7659 29.66 10.7264 30 10.5948ZM27.5 11.1361C27.04 11.1361 26.6669 10.7291 26.6669 10.2273C26.6669 9.72545 27.04 9.31841 27.5 9.31841C27.96 9.31841 28.3331 9.72545 28.3331 10.2273C28.3331 10.7291 27.96 11.1361 27.5 11.1361ZM25 13.23V12.6791C24.7425 12.5789 24.5794 12.5509 24.4969 12.3348C24.4144 12.1186 24.5119 11.9714 24.6294 11.7027L24.2719 11.3134C24.0287 11.4402 23.8925 11.548 23.6931 11.458C23.4937 11.368 23.4687 11.1893 23.3769 10.9091H22.8725C22.7812 11.188 22.755 11.368 22.5563 11.458C22.3581 11.548 22.2231 11.4416 21.9775 11.3134L21.62 11.7027C21.7369 11.9707 21.835 12.118 21.7525 12.3348C21.67 12.5516 21.505 12.5795 21.2494 12.6791V13.23C21.5044 13.3289 21.67 13.3582 21.7525 13.5743C21.8356 13.7925 21.735 13.9439 21.62 14.2064L21.9775 14.5957C22.2212 14.4689 22.3575 14.3611 22.5563 14.4511C22.755 14.5411 22.7806 14.7205 22.8725 15H23.3769C23.4681 14.7211 23.4944 14.5411 23.6938 14.4511C23.8906 14.3618 24.025 14.4682 24.2719 14.5964L24.6294 14.207C24.5131 13.9405 24.4144 13.7918 24.4969 13.575C24.5794 13.3582 24.745 13.3289 25 13.23ZM23.125 13.6364C22.78 13.6364 22.5 13.3316 22.5 12.9545C22.5 12.5775 22.78 12.2727 23.125 12.2727C23.47 12.2727 23.75 12.5775 23.75 12.9545C23.75 13.3316 23.47 13.6364 23.125 13.6364Z" fill="url(#paint1_linear_19_102)"/>
<path d="M40.625 6.57614V5.01477C39.8938 4.73045 39.4331 4.65136 39.2 4.03909C38.9669 3.42545 39.2437 3.00818 39.575 2.24932L38.5637 1.14545C37.8731 1.50341 37.4869 1.80955 36.9225 1.55455C36.36 1.30023 36.2869 0.793636 36.0281 0H34.5969C34.3394 0.789545 34.2656 1.30023 33.7025 1.55455C33.14 1.80955 32.7581 1.50682 32.0612 1.14545L31.0506 2.24932C31.38 3.00614 31.6587 3.42477 31.4256 4.03909C31.1912 4.65341 30.7237 4.73386 30 5.01477V6.57545C30.7219 6.85636 31.1919 6.9375 31.425 7.55114C31.66 8.17023 31.3744 8.59705 31.05 9.34091L32.0612 10.4448C32.7531 10.0868 33.1387 9.78068 33.7019 10.0357C34.2644 10.29 34.3388 10.798 34.5969 11.5902H36.0275C36.285 10.8007 36.3587 10.2914 36.9256 10.0343C37.4844 9.78068 37.8644 10.0827 38.5631 10.4448L39.5744 9.34091C39.2462 8.58614 38.9656 8.16614 39.1988 7.55114C39.4325 6.93818 39.9025 6.85636 40.625 6.57614ZM35.3125 7.72773C34.335 7.72773 33.5419 6.8625 33.5419 5.79545C33.5419 4.72841 34.335 3.86318 35.3125 3.86318C36.29 3.86318 37.0831 4.72841 37.0831 5.79545C37.0831 6.8625 36.29 7.72773 35.3125 7.72773ZM45 10.5948V9.86045C44.6562 9.72682 44.4394 9.68932 44.3294 9.40159C44.2194 9.1125 44.35 8.91682 44.5056 8.55886L44.0294 8.03932C43.7044 8.20841 43.5225 8.35159 43.2575 8.23227C42.9925 8.11295 42.9581 7.87432 42.8362 7.50068H42.1637C42.0425 7.87227 42.0075 8.11227 41.7425 8.23227C41.4775 8.35227 41.2981 8.20977 40.9706 8.03932L40.4944 8.55886C40.6494 8.91545 40.7806 9.1125 40.6706 9.40159C40.5606 9.69068 40.3406 9.72818 40 9.86045V10.5948C40.34 10.7264 40.5606 10.7652 40.6706 11.0536C40.7812 11.3448 40.6469 11.5459 40.4944 11.8964L40.9706 12.4159C41.2962 12.2468 41.4781 12.1036 41.7425 12.223C42.0075 12.3423 42.0419 12.5816 42.1637 12.9545H42.8362C42.9575 12.583 42.9925 12.343 43.2587 12.2223C43.5219 12.103 43.7006 12.2455 44.0294 12.4159L44.5056 11.8964C44.3512 11.5411 44.2194 11.3427 44.3294 11.0543C44.4394 10.7659 44.66 10.7264 45 10.5948ZM42.5 11.1361C42.04 11.1361 41.6669 10.7291 41.6669 10.2273C41.6669 9.72545 42.04 9.31841 42.5 9.31841C42.96 9.31841 43.3331 9.72545 43.3331 10.2273C43.3331 10.7291 42.96 11.1361 42.5 11.1361ZM40 13.23V12.6791C39.7425 12.5789 39.5794 12.5509 39.4969 12.3348C39.4144 12.1186 39.5119 11.9714 39.6294 11.7027L39.2719 11.3134C39.0287 11.4402 38.8925 11.548 38.6931 11.458C38.4937 11.368 38.4687 11.1893 38.3769 10.9091H37.8725C37.7812 11.188 37.755 11.368 37.5563 11.458C37.3581 11.548 37.2231 11.4416 36.9775 11.3134L36.62 11.7027C36.7369 11.9707 36.835 12.118 36.7525 12.3348C36.67 12.5516 36.505 12.5795 36.2494 12.6791V13.23C36.5044 13.3289 36.67 13.3582 36.7525 13.5743C36.8356 13.7925 36.735 13.9439 36.62 14.2064L36.9775 14.5957C37.2212 14.4689 37.3575 14.3611 37.5563 14.4511C37.755 14.5411 37.7806 14.7205 37.8725 15H38.3769C38.4681 14.7211 38.4944 14.5411 38.6938 14.4511C38.8906 14.3618 39.025 14.4682 39.2719 14.5964L39.6294 14.207C39.5131 13.9405 39.4144 13.7918 39.4969 13.575C39.5794 13.3582 39.745 13.3289 40 13.23ZM38.125 13.6364C37.78 13.6364 37.5 13.3316 37.5 12.9545C37.5 12.5775 37.78 12.2727 38.125 12.2727C38.47 12.2727 38.75 12.5775 38.75 12.9545C38.75 13.3316 38.47 13.6364 38.125 13.6364Z" fill="url(#paint2_linear_19_102)"/>
<path d="M70.625 6.57614V5.01477C69.8938 4.73045 69.4331 4.65136 69.2 4.03909C68.9669 3.42545 69.2437 3.00818 69.575 2.24932L68.5637 1.14545C67.8731 1.50341 67.4869 1.80955 66.9225 1.55455C66.36 1.30023 66.2869 0.793636 66.0281 0H64.5969C64.3394 0.789545 64.2656 1.30023 63.7025 1.55455C63.14 1.80955 62.7581 1.50682 62.0612 1.14545L61.0506 2.24932C61.38 3.00614 61.6587 3.42477 61.4256 4.03909C61.1912 4.65341 60.7237 4.73386 60 5.01477V6.57545C60.7219 6.85636 61.1919 6.9375 61.425 7.55114C61.66 8.17023 61.3744 8.59705 61.05 9.34091L62.0612 10.4448C62.7531 10.0868 63.1387 9.78068 63.7019 10.0357C64.2644 10.29 64.3388 10.798 64.5969 11.5902H66.0275C66.285 10.8007 66.3587 10.2914 66.9256 10.0343C67.4844 9.78068 67.8644 10.0827 68.5631 10.4448L69.5744 9.34091C69.2462 8.58614 68.9656 8.16614 69.1988 7.55114C69.4325 6.93818 69.9025 6.85636 70.625 6.57614ZM65.3125 7.72773C64.335 7.72773 63.5419 6.8625 63.5419 5.79545C63.5419 4.72841 64.335 3.86318 65.3125 3.86318C66.29 3.86318 67.0831 4.72841 67.0831 5.79545C67.0831 6.8625 66.29 7.72773 65.3125 7.72773ZM75 10.5948V9.86045C74.6562 9.72682 74.4394 9.68932 74.3294 9.40159C74.2194 9.1125 74.35 8.91682 74.5056 8.55886L74.0294 8.03932C73.7044 8.20841 73.5225 8.35159 73.2575 8.23227C72.9925 8.11295 72.9581 7.87432 72.8362 7.50068H72.1637C72.0425 7.87227 72.0075 8.11227 71.7425 8.23227C71.4775 8.35227 71.2981 8.20977 70.9706 8.03932L70.4944 8.55886C70.6494 8.91545 70.7806 9.1125 70.6706 9.40159C70.5606 9.69068 70.3406 9.72818 70 9.86045V10.5948C70.34 10.7264 70.5606 10.7652 70.6706 11.0536C70.7812 11.3448 70.6469 11.5459 70.4944 11.8964L70.9706 12.4159C71.2962 12.2468 71.4781 12.1036 71.7425 12.223C72.0075 12.3423 72.0419 12.5816 72.1637 12.9545H72.8362C72.9575 12.583 72.9925 12.343 73.2587 12.2223C73.5219 12.103 73.7006 12.2455 74.0294 12.4159L74.5056 11.8964C74.3512 11.5411 74.2194 11.3427 74.3294 11.0543C74.4394 10.7659 74.66 10.7264 75 10.5948ZM72.5 11.1361C72.04 11.1361 71.6669 10.7291 71.6669 10.2273C71.6669 9.72545 72.04 9.31841 72.5 9.31841C72.96 9.31841 73.3331 9.72545 73.3331 10.2273C73.3331 10.7291 72.96 11.1361 72.5 11.1361ZM70 13.23V12.6791C69.7425 12.5789 69.5794 12.5509 69.4969 12.3348C69.4144 12.1186 69.5119 11.9714 69.6294 11.7027L69.2719 11.3134C69.0287 11.4402 68.8925 11.548 68.6931 11.458C68.4937 11.368 68.4687 11.1893 68.3769 10.9091H67.8725C67.7812 11.188 67.755 11.368 67.5563 11.458C67.3581 11.548 67.2231 11.4416 66.9775 11.3134L66.62 11.7027C66.7369 11.9707 66.835 12.118 66.7525 12.3348C66.67 12.5516 66.505 12.5795 66.2494 12.6791V13.23C66.5044 13.3289 66.67 13.3582 66.7525 13.5743C66.8356 13.7925 66.735 13.9439 66.62 14.2064L66.9775 14.5957C67.2212 14.4689 67.3575 14.3611 67.5563 14.4511C67.755 14.5411 67.7806 14.7205 67.8725 15H68.3769C68.4681 14.7211 68.4944 14.5411 68.6938 14.4511C68.8906 14.3618 69.025 14.4682 69.2719 14.5964L69.6294 14.207C69.5131 13.9405 69.4144 13.7918 69.4969 13.575C69.5794 13.3582 69.745 13.3289 70 13.23ZM68.125 13.6364C67.78 13.6364 67.5 13.3316 67.5 12.9545C67.5 12.5775 67.78 12.2727 68.125 12.2727C68.47 12.2727 68.75 12.5775 68.75 12.9545C68.75 13.3316 68.47 13.6364 68.125 13.6364Z" fill="url(#paint3_linear_19_102)"/>
<path d="M55.625 6.57614V5.01477C54.8938 4.73045 54.4331 4.65136 54.2 4.03909C53.9669 3.42545 54.2437 3.00818 54.575 2.24932L53.5637 1.14545C52.8731 1.50341 52.4869 1.80955 51.9225 1.55455C51.36 1.30023 51.2869 0.793636 51.0281 0H49.5969C49.3394 0.789545 49.2656 1.30023 48.7025 1.55455C48.14 1.80955 47.7581 1.50682 47.0612 1.14545L46.0506 2.24932C46.38 3.00614 46.6587 3.42477 46.4256 4.03909C46.1912 4.65341 45.7237 4.73386 45 5.01477V6.57545C45.7219 6.85636 46.1919 6.9375 46.425 7.55114C46.66 8.17023 46.3744 8.59705 46.05 9.34091L47.0612 10.4448C47.7531 10.0868 48.1387 9.78068 48.7019 10.0357C49.2644 10.29 49.3388 10.798 49.5969 11.5902H51.0275C51.285 10.8007 51.3587 10.2914 51.9256 10.0343C52.4844 9.78068 52.8644 10.0827 53.5631 10.4448L54.5744 9.34091C54.2462 8.58614 53.9656 8.16614 54.1988 7.55114C54.4325 6.93818 54.9025 6.85636 55.625 6.57614ZM50.3125 7.72773C49.335 7.72773 48.5419 6.8625 48.5419 5.79545C48.5419 4.72841 49.335 3.86318 50.3125 3.86318C51.29 3.86318 52.0831 4.72841 52.0831 5.79545C52.0831 6.8625 51.29 7.72773 50.3125 7.72773ZM60 10.5948V9.86045C59.6562 9.72682 59.4394 9.68932 59.3294 9.40159C59.2194 9.1125 59.35 8.91682 59.5056 8.55886L59.0294 8.03932C58.7044 8.20841 58.5225 8.35159 58.2575 8.23227C57.9925 8.11295 57.9581 7.87432 57.8362 7.50068H57.1637C57.0425 7.87227 57.0075 8.11227 56.7425 8.23227C56.4775 8.35227 56.2981 8.20977 55.9706 8.03932L55.4944 8.55886C55.6494 8.91545 55.7806 9.1125 55.6706 9.40159C55.5606 9.69068 55.3406 9.72818 55 9.86045V10.5948C55.34 10.7264 55.5606 10.7652 55.6706 11.0536C55.7812 11.3448 55.6469 11.5459 55.4944 11.8964L55.9706 12.4159C56.2962 12.2468 56.4781 12.1036 56.7425 12.223C57.0075 12.3423 57.0419 12.5816 57.1637 12.9545H57.8362C57.9575 12.583 57.9925 12.343 58.2587 12.2223C58.5219 12.103 58.7006 12.2455 59.0294 12.4159L59.5056 11.8964C59.3512 11.5411 59.2194 11.3427 59.3294 11.0543C59.4394 10.7659 59.66 10.7264 60 10.5948ZM57.5 11.1361C57.04 11.1361 56.6669 10.7291 56.6669 10.2273C56.6669 9.72545 57.04 9.31841 57.5 9.31841C57.96 9.31841 58.3331 9.72545 58.3331 10.2273C58.3331 10.7291 57.96 11.1361 57.5 11.1361ZM55 13.23V12.6791C54.7425 12.5789 54.5794 12.5509 54.4969 12.3348C54.4144 12.1186 54.5119 11.9714 54.6294 11.7027L54.2719 11.3134C54.0287 11.4402 53.8925 11.548 53.6931 11.458C53.4937 11.368 53.4687 11.1893 53.3769 10.9091H52.8725C52.7812 11.188 52.755 11.368 52.5563 11.458C52.3581 11.548 52.2231 11.4416 51.9775 11.3134L51.62 11.7027C51.7369 11.9707 51.835 12.118 51.7525 12.3348C51.67 12.5516 51.505 12.5795 51.2494 12.6791V13.23C51.5044 13.3289 51.67 13.3582 51.7525 13.5743C51.8356 13.7925 51.735 13.9439 51.62 14.2064L51.9775 14.5957C52.2212 14.4689 52.3575 14.3611 52.5563 14.4511C52.755 14.5411 52.7806 14.7205 52.8725 15H53.3769C53.4681 14.7211 53.4944 14.5411 53.6938 14.4511C53.8906 14.3618 54.025 14.4682 54.2719 14.5964L54.6294 14.207C54.5131 13.9405 54.4144 13.7918 54.4969 13.575C54.5794 13.3582 54.745 13.3289 55 13.23ZM53.125 13.6364C52.78 13.6364 52.5 13.3316 52.5 12.9545C52.5 12.5775 52.78 12.2727 53.125 12.2727C53.47 12.2727 53.75 12.5775 53.75 12.9545C53.75 13.3316 53.47 13.6364 53.125 13.6364Z" fill="url(#paint4_linear_19_102)"/>
<path d="M85.625 6.57614V5.01477C84.8937 4.73045 84.4331 4.65136 84.2 4.03909C83.9669 3.42545 84.2437 3.00818 84.575 2.24932L83.5637 1.14545C82.8731 1.50341 82.4869 1.80955 81.9225 1.55455C81.36 1.30023 81.2869 0.793636 81.0281 0H79.5969C79.3394 0.789545 79.2656 1.30023 78.7025 1.55455C78.14 1.80955 77.7581 1.50682 77.0613 1.14545L76.0506 2.24932C76.38 3.00614 76.6587 3.42477 76.4256 4.03909C76.1912 4.65341 75.7237 4.73386 75 5.01477V6.57545C75.7219 6.85636 76.1919 6.9375 76.425 7.55114C76.66 8.17023 76.3744 8.59705 76.05 9.34091L77.0613 10.4448C77.7531 10.0868 78.1387 9.78068 78.7019 10.0357C79.2644 10.29 79.3388 10.798 79.5969 11.5902H81.0275C81.285 10.8007 81.3587 10.2914 81.9256 10.0343C82.4844 9.78068 82.8644 10.0827 83.5631 10.4448L84.5744 9.34091C84.2462 8.58614 83.9656 8.16614 84.1988 7.55114C84.4325 6.93818 84.9025 6.85636 85.625 6.57614ZM80.3125 7.72773C79.335 7.72773 78.5419 6.8625 78.5419 5.79545C78.5419 4.72841 79.335 3.86318 80.3125 3.86318C81.29 3.86318 82.0831 4.72841 82.0831 5.79545C82.0831 6.8625 81.29 7.72773 80.3125 7.72773ZM90 10.5948V9.86045C89.6563 9.72682 89.4394 9.68932 89.3294 9.40159C89.2194 9.1125 89.35 8.91682 89.5056 8.55886L89.0294 8.03932C88.7044 8.20841 88.5225 8.35159 88.2575 8.23227C87.9925 8.11295 87.9581 7.87432 87.8362 7.50068H87.1637C87.0425 7.87227 87.0075 8.11227 86.7425 8.23227C86.4775 8.35227 86.2981 8.20977 85.9706 8.03932L85.4944 8.55886C85.6494 8.91545 85.7806 9.1125 85.6706 9.40159C85.5606 9.69068 85.3406 9.72818 85 9.86045V10.5948C85.34 10.7264 85.5606 10.7652 85.6706 11.0536C85.7812 11.3448 85.6469 11.5459 85.4944 11.8964L85.9706 12.4159C86.2962 12.2468 86.4781 12.1036 86.7425 12.223C87.0075 12.3423 87.0419 12.5816 87.1637 12.9545H87.8362C87.9575 12.583 87.9925 12.343 88.2588 12.2223C88.5219 12.103 88.7006 12.2455 89.0294 12.4159L89.5056 11.8964C89.3512 11.5411 89.2194 11.3427 89.3294 11.0543C89.4394 10.7659 89.66 10.7264 90 10.5948ZM87.5 11.1361C87.04 11.1361 86.6669 10.7291 86.6669 10.2273C86.6669 9.72545 87.04 9.31841 87.5 9.31841C87.96 9.31841 88.3331 9.72545 88.3331 10.2273C88.3331 10.7291 87.96 11.1361 87.5 11.1361ZM85 13.23V12.6791C84.7425 12.5789 84.5794 12.5509 84.4969 12.3348C84.4144 12.1186 84.5119 11.9714 84.6294 11.7027L84.2719 11.3134C84.0287 11.4402 83.8925 11.548 83.6931 11.458C83.4937 11.368 83.4687 11.1893 83.3769 10.9091H82.8725C82.7812 11.188 82.755 11.368 82.5563 11.458C82.3581 11.548 82.2231 11.4416 81.9775 11.3134L81.62 11.7027C81.7369 11.9707 81.835 12.118 81.7525 12.3348C81.67 12.5516 81.505 12.5795 81.2494 12.6791V13.23C81.5044 13.3289 81.67 13.3582 81.7525 13.5743C81.8356 13.7925 81.735 13.9439 81.62 14.2064L81.9775 14.5957C82.2212 14.4689 82.3575 14.3611 82.5563 14.4511C82.755 14.5411 82.7806 14.7205 82.8725 15H83.3769C83.4681 14.7211 83.4944 14.5411 83.6938 14.4511C83.8906 14.3618 84.025 14.4682 84.2719 14.5964L84.6294 14.207C84.5131 13.9405 84.4144 13.7918 84.4969 13.575C84.5794 13.3582 84.745 13.3289 85 13.23ZM83.125 13.6364C82.78 13.6364 82.5 13.3316 82.5 12.9545C82.5 12.5775 82.78 12.2727 83.125 12.2727C83.47 12.2727 83.75 12.5775 83.75 12.9545C83.75 13.3316 83.47 13.6364 83.125 13.6364Z" fill="white"/>
<defs>
<linearGradient id="paint0_linear_19_102" x1="-1.32353" y1="1.00263" x2="13.6064" y2="10.8393" gradientUnits="userSpaceOnUse">
<stop offset="0.0945158" stop-color="#F40588"/>
<stop offset="0.447917" stop-color="#C227F4"/>
<stop offset="1" stop-color="#FB924D"/>
</linearGradient>
<linearGradient id="paint1_linear_19_102" x1="18.0882" y1="-5" x2="32.6903" y2="5.7417" gradientUnits="userSpaceOnUse">
<stop offset="0.369792" stop-color="#FFFCFE"/>
<stop offset="0.447917" stop-color="#C227F4"/>
<stop offset="1" stop-color="#FB924D"/>
</linearGradient>
<linearGradient id="paint2_linear_19_102" x1="33.0882" y1="-5" x2="47.6903" y2="5.7417" gradientUnits="userSpaceOnUse">
<stop offset="0.520833" stop-color="white"/>
<stop offset="0.572917" stop-color="#C227F4"/>
<stop offset="1" stop-color="#FB924D"/>
</linearGradient>
<linearGradient id="paint3_linear_19_102" x1="66.1765" y1="-8.90206e-08" x2="73.6451" y2="11.4447" gradientUnits="userSpaceOnUse">
<stop offset="0.0945158" stop-color="#FFFAFD"/>
<stop offset="0.197917" stop-color="#FFFEFF"/>
<stop offset="0.515625" stop-color="#FFFEFF"/>
<stop offset="0.713442" stop-color="#FFFEFF"/>
<stop offset="0.713542" stop-color="#DD5AA4"/>
<stop offset="0.734275" stop-color="#DF5E9F"/>
<stop offset="0.734375" stop-color="#E05F9D"/>
<stop offset="0.755208" stop-color="#E26397"/>
<stop offset="1" stop-color="#FB924D"/>
</linearGradient>
<linearGradient id="paint4_linear_19_102" x1="43.6765" y1="1.00263" x2="58.6064" y2="10.8393" gradientUnits="userSpaceOnUse">
<stop stop-color="#F40588"/>
<stop offset="0.0945158" stop-color="#F40588"/>
<stop offset="0.447917" stop-color="#C227F4"/>
<stop offset="0.765425" stop-color="#FFFCFD"/>
<stop offset="0.765525" stop-color="#E26397"/>
<stop offset="0.765625" stop-color="#E36594"/>
<stop offset="0.765725" stop-color="#FFFCFD"/>
<stop offset="0.791167" stop-color="#FFFEFE"/>
<stop offset="0.791267" stop-color="#FFFBFC"/>
<stop offset="0.791367" stop-color="#EEA2BF"/>
<stop offset="0.791467" stop-color="#FFFEFE"/>
<stop offset="0.791567" stop-color="#E5698E"/>
<stop offset="0.791667" stop-color="#E56A8C"/>
<stop offset="0.791767" stop-color="#E66B8A"/>
<stop offset="0.791867" stop-color="#FFFCFD"/>
<stop offset="0.817608" stop-color="#FFFCFD"/>
<stop offset="0.817708" stop-color="white"/>
<stop offset="0.817808" stop-color="white"/>
<stop offset="0.848858" stop-color="#FFFAFA"/>
<stop offset="0.848958" stop-color="#EB757B"/>
<stop offset="0.849058" stop-color="#FFFCFC"/>
<stop offset="0.9999" stop-color="#FFFAFA"/>
<stop offset="1" stop-color="#FFFDFC"/>
</linearGradient>
</defs>
</svg>
