<svg width="108" height="15" viewBox="0 0 108 15" fill="none" xmlns="http://www.w3.org/2000/svg">
<path d="M12.75 6.57614V5.01477C11.8725 4.73045 11.3197 4.65136 11.04 4.03909C10.7602 3.42545 11.0925 3.00818 11.49 2.24932L10.2765 1.14545C9.44775 1.50341 8.98425 1.80955 8.307 1.55455C7.632 1.30023 7.54425 0.793636 7.23375 0H5.51625C5.20725 0.789545 5.11875 1.30023 4.443 1.55455C3.768 1.80955 3.30975 1.50682 2.4735 1.14545L1.26075 2.24932C1.656 3.00614 1.9905 3.42477 1.71075 4.03909C1.4295 4.65341 0.8685 4.73386 0 5.01477V6.57545C0.86625 6.85636 1.43025 6.9375 1.71 7.55114C1.992 8.17023 1.64925 8.59705 1.26 9.34091L2.4735 10.4448C3.30375 10.0868 3.7665 9.78068 4.44225 10.0357C5.11725 10.29 5.2065 10.798 5.51625 11.5902H7.233C7.542 10.8007 7.6305 10.2914 8.31075 10.0343C8.98125 9.78068 9.43725 10.0827 10.2758 10.4448L11.4893 9.34091C11.0955 8.58614 10.7588 8.16614 11.0385 7.55114C11.319 6.93818 11.883 6.85636 12.75 6.57614ZM6.375 7.72773C5.202 7.72773 4.25025 6.8625 4.25025 5.79545C4.25025 4.72841 5.202 3.86318 6.375 3.86318C7.548 3.86318 8.49975 4.72841 8.49975 5.79545C8.49975 6.8625 7.548 7.72773 6.375 7.72773ZM18 10.5948V9.86045C17.5875 9.72682 17.3272 9.68932 17.1952 9.40159C17.0632 9.1125 17.22 8.91682 17.4067 8.55886L16.8353 8.03932C16.4453 8.20841 16.227 8.35159 15.909 8.23227C15.591 8.11295 15.5498 7.87432 15.4035 7.50068H14.5965C14.451 7.87227 14.409 8.11227 14.091 8.23227C13.773 8.35227 13.5578 8.20977 13.1648 8.03932L12.5933 8.55886C12.7793 8.91545 12.9367 9.1125 12.8047 9.40159C12.6727 9.69068 12.4088 9.72818 12 9.86045V10.5948C12.408 10.7264 12.6727 10.7652 12.8047 11.0536C12.9375 11.3448 12.7763 11.5459 12.5933 11.8964L13.1648 12.4159C13.5555 12.2468 13.7738 12.1036 14.091 12.223C14.409 12.3423 14.4503 12.5816 14.5965 12.9545H15.4035C15.549 12.583 15.591 12.343 15.9105 12.2223C16.2263 12.103 16.4408 12.2455 16.8353 12.4159L17.4067 11.8964C17.2215 11.5411 17.0632 11.3427 17.1952 11.0543C17.3272 10.7659 17.592 10.7264 18 10.5948ZM15 11.1361C14.448 11.1361 14.0002 10.7291 14.0002 10.2273C14.0002 9.72545 14.448 9.31841 15 9.31841C15.552 9.31841 15.9998 9.72545 15.9998 10.2273C15.9998 10.7291 15.552 11.1361 15 11.1361ZM12 13.23V12.6791C11.691 12.5789 11.4952 12.5509 11.3962 12.3348C11.2972 12.1186 11.4143 11.9714 11.5553 11.7027L11.1263 11.3134C10.8345 11.4402 10.671 11.548 10.4318 11.458C10.1925 11.368 10.1625 11.1893 10.0523 10.9091H9.447C9.3375 11.188 9.306 11.368 9.0675 11.458C8.82975 11.548 8.66775 11.4416 8.373 11.3134L7.944 11.7027C8.08425 11.9707 8.202 12.118 8.103 12.3348C8.004 12.5516 7.806 12.5795 7.49925 12.6791V13.23C7.80525 13.3289 8.004 13.3582 8.103 13.5743C8.20275 13.7925 8.082 13.9439 7.944 14.2064L8.373 14.5957C8.6655 14.4689 8.829 14.3611 9.0675 14.4511C9.306 14.5411 9.33675 14.7205 9.447 15H10.0523C10.1618 14.7211 10.1933 14.5411 10.4325 14.4511C10.6688 14.3618 10.83 14.4682 11.1263 14.5964L11.5553 14.207C11.4158 13.9405 11.2972 13.7918 11.3962 13.575C11.4952 13.3582 11.694 13.3289 12 13.23ZM9.75 13.6364C9.336 13.6364 9 13.3316 9 12.9545C9 12.5775 9.336 12.2727 9.75 12.2727C10.164 12.2727 10.5 12.5775 10.5 12.9545C10.5 13.3316 10.164 13.6364 9.75 13.6364Z" fill="url(#paint0_linear_19_102)"/>
<path d="M30.75 6.57614V5.01477C29.8725 4.73045 29.3198 4.65136 29.04 4.03909C28.7603 3.42545 29.0925 3.00818 29.49 2.24932L28.2765 1.14545C27.4477 1.50341 26.9843 1.80955 26.307 1.55455C25.632 1.30023 25.5443 0.793636 25.2338 0H23.5163C23.2073 0.789545 23.1188 1.30023 22.443 1.55455C21.768 1.80955 21.3098 1.50682 20.4735 1.14545L19.2608 2.24932C19.656 3.00614 19.9905 3.42477 19.7107 4.03909C19.4295 4.65341 18.8685 4.73386 18 5.01477V6.57545C18.8662 6.85636 19.4302 6.9375 19.71 7.55114C19.992 8.17023 19.6493 8.59705 19.26 9.34091L20.4735 10.4448C21.3038 10.0868 21.7665 9.78068 22.4422 10.0357C23.1172 10.29 23.2065 10.798 23.5163 11.5902H25.233C25.542 10.8007 25.6305 10.2914 26.3108 10.0343C26.9813 9.78068 27.4373 10.0827 28.2758 10.4448L29.4893 9.34091C29.0955 8.58614 28.7588 8.16614 29.0385 7.55114C29.319 6.93818 29.883 6.85636 30.75 6.57614ZM24.375 7.72773C23.202 7.72773 22.2503 6.8625 22.2503 5.79545C22.2503 4.72841 23.202 3.86318 24.375 3.86318C25.548 3.86318 26.4997 4.72841 26.4997 5.79545C26.4997 6.8625 25.548 7.72773 24.375 7.72773ZM36 10.5948V9.86045C35.5875 9.72682 35.3273 9.68932 35.1953 9.40159C35.0633 9.1125 35.22 8.91682 35.4067 8.55886L34.8353 8.03932C34.4453 8.20841 34.227 8.35159 33.909 8.23227C33.591 8.11295 33.5498 7.87432 33.4035 7.50068H32.5965C32.451 7.87227 32.409 8.11227 32.091 8.23227C31.773 8.35227 31.5578 8.20977 31.1648 8.03932L30.5933 8.55886C30.7793 8.91545 30.9367 9.1125 30.8047 9.40159C30.6727 9.69068 30.4088 9.72818 30 9.86045V10.5948C30.408 10.7264 30.6727 10.7652 30.8047 11.0536C30.9375 11.3448 30.7763 11.5459 30.5933 11.8964L31.1648 12.4159C31.5555 12.2468 31.7738 12.1036 32.091 12.223C32.409 12.3423 32.4502 12.5816 32.5965 12.9545H33.4035C33.549 12.583 33.591 12.343 33.9105 12.2223C34.2263 12.103 34.4408 12.2455 34.8353 12.4159L35.4067 11.8964C35.2215 11.5411 35.0633 11.3427 35.1953 11.0543C35.3273 10.7659 35.592 10.7264 36 10.5948ZM33 11.1361C32.448 11.1361 32.0003 10.7291 32.0003 10.2273C32.0003 9.72545 32.448 9.31841 33 9.31841C33.552 9.31841 33.9998 9.72545 33.9998 10.2273C33.9998 10.7291 33.552 11.1361 33 11.1361ZM30 13.23V12.6791C29.691 12.5789 29.4953 12.5509 29.3963 12.3348C29.2973 12.1186 29.4142 11.9714 29.5552 11.7027L29.1262 11.3134C28.8345 11.4402 28.671 11.548 28.4318 11.458C28.1925 11.368 28.1625 11.1893 28.0523 10.9091H27.447C27.3375 11.188 27.306 11.368 27.0675 11.458C26.8298 11.548 26.6677 11.4416 26.373 11.3134L25.944 11.7027C26.0843 11.9707 26.202 12.118 26.103 12.3348C26.004 12.5516 25.806 12.5795 25.4992 12.6791V13.23C25.8052 13.3289 26.004 13.3582 26.103 13.5743C26.2028 13.7925 26.082 13.9439 25.944 14.2064L26.373 14.5957C26.6655 14.4689 26.829 14.3611 27.0675 14.4511C27.306 14.5411 27.3367 14.7205 27.447 15H28.0523C28.1618 14.7211 28.1933 14.5411 28.4325 14.4511C28.6688 14.3618 28.83 14.4682 29.1262 14.5964L29.5552 14.207C29.4157 13.9405 29.2973 13.7918 29.3963 13.575C29.4953 13.3582 29.694 13.3289 30 13.23ZM27.75 13.6364C27.336 13.6364 27 13.3316 27 12.9545C27 12.5775 27.336 12.2727 27.75 12.2727C28.164 12.2727 28.5 12.5775 28.5 12.9545C28.5 13.3316 28.164 13.6364 27.75 13.6364Z" fill="url(#paint1_linear_19_102)"/>
<path d="M48.75 6.57614V5.01477C47.8725 4.73045 47.3198 4.65136 47.04 4.03909C46.7603 3.42545 47.0925 3.00818 47.49 2.24932L46.2765 1.14545C45.4477 1.50341 44.9843 1.80955 44.307 1.55455C43.632 1.30023 43.5443 0.793636 43.2338 0H41.5163C41.2073 0.789545 41.1188 1.30023 40.443 1.55455C39.768 1.80955 39.3098 1.50682 38.4735 1.14545L37.2608 2.24932C37.656 3.00614 37.9905 3.42477 37.7107 4.03909C37.4295 4.65341 36.8685 4.73386 36 5.01477V6.57545C36.8662 6.85636 37.4302 6.9375 37.71 7.55114C37.992 8.17023 37.6493 8.59705 37.26 9.34091L38.4735 10.4448C39.3038 10.0868 39.7665 9.78068 40.4422 10.0357C41.1172 10.29 41.2065 10.798 41.5163 11.5902H43.233C43.542 10.8007 43.6305 10.2914 44.3108 10.0343C44.9813 9.78068 45.4373 10.0827 46.2758 10.4448L47.4893 9.34091C47.0955 8.58614 46.7588 8.16614 47.0385 7.55114C47.319 6.93818 47.883 6.85636 48.75 6.57614ZM42.375 7.72773C41.202 7.72773 40.2503 6.8625 40.2503 5.79545C40.2503 4.72841 41.202 3.86318 42.375 3.86318C43.548 3.86318 44.4997 4.72841 44.4997 5.79545C44.4997 6.8625 43.548 7.72773 42.375 7.72773ZM54 10.5948V9.86045C53.5875 9.72682 53.3273 9.68932 53.1953 9.40159C53.0633 9.1125 53.22 8.91682 53.4067 8.55886L52.8353 8.03932C52.4453 8.20841 52.227 8.35159 51.909 8.23227C51.591 8.11295 51.5498 7.87432 51.4035 7.50068H50.5965C50.451 7.87227 50.409 8.11227 50.091 8.23227C49.773 8.35227 49.5578 8.20977 49.1648 8.03932L48.5933 8.55886C48.7793 8.91545 48.9367 9.1125 48.8047 9.40159C48.6727 9.69068 48.4088 9.72818 48 9.86045V10.5948C48.408 10.7264 48.6727 10.7652 48.8047 11.0536C48.9375 11.3448 48.7763 11.5459 48.5933 11.8964L49.1648 12.4159C49.5555 12.2468 49.7738 12.1036 50.091 12.223C50.409 12.3423 50.4502 12.5816 50.5965 12.9545H51.4035C51.549 12.583 51.591 12.343 51.9105 12.2223C52.2263 12.103 52.4408 12.2455 52.8353 12.4159L53.4067 11.8964C53.2215 11.5411 53.0633 11.3427 53.1953 11.0543C53.3273 10.7659 53.592 10.7264 54 10.5948ZM51 11.1361C50.448 11.1361 50.0003 10.7291 50.0003 10.2273C50.0003 9.72545 50.448 9.31841 51 9.31841C51.552 9.31841 51.9998 9.72545 51.9998 10.2273C51.9998 10.7291 51.552 11.1361 51 11.1361ZM48 13.23V12.6791C47.691 12.5789 47.4953 12.5509 47.3963 12.3348C47.2973 12.1186 47.4142 11.9714 47.5552 11.7027L47.1262 11.3134C46.8345 11.4402 46.671 11.548 46.4318 11.458C46.1925 11.368 46.1625 11.1893 46.0523 10.9091H45.447C45.3375 11.188 45.306 11.368 45.0675 11.458C44.8298 11.548 44.6677 11.4416 44.373 11.3134L43.944 11.7027C44.0843 11.9707 44.202 12.118 44.103 12.3348C44.004 12.5516 43.806 12.5795 43.4992 12.6791V13.23C43.8052 13.3289 44.004 13.3582 44.103 13.5743C44.2028 13.7925 44.082 13.9439 43.944 14.2064L44.373 14.5957C44.6655 14.4689 44.829 14.3611 45.0675 14.4511C45.306 14.5411 45.3367 14.7205 45.447 15H46.0523C46.1618 14.7211 46.1933 14.5411 46.4325 14.4511C46.6688 14.3618 46.83 14.4682 47.1262 14.5964L47.5552 14.207C47.4157 13.9405 47.2973 13.7918 47.3963 13.575C47.4953 13.3582 47.694 13.3289 48 13.23ZM45.75 13.6364C45.336 13.6364 45 13.3316 45 12.9545C45 12.5775 45.336 12.2727 45.75 12.2727C46.164 12.2727 46.5 12.5775 46.5 12.9545C46.5 13.3316 46.164 13.6364 45.75 13.6364Z" fill="url(#paint2_linear_19_102)"/>
<path d="M84.75 6.57614V5.01477C83.8725 4.73045 83.3198 4.65136 83.04 4.03909C82.7603 3.42545 83.0925 3.00818 83.49 2.24932L82.2765 1.14545C81.4477 1.50341 80.9843 1.80955 80.307 1.55455C79.632 1.30023 79.5443 0.793636 79.2338 0H77.5163C77.2073 0.789545 77.1188 1.30023 76.443 1.55455C75.768 1.80955 75.3098 1.50682 74.4735 1.14545L73.2608 2.24932C73.656 3.00614 73.9905 3.42477 73.7107 4.03909C73.4295 4.65341 72.8685 4.73386 72 5.01477V6.57545C72.8662 6.85636 73.4302 6.9375 73.71 7.55114C73.992 8.17023 73.6493 8.59705 73.26 9.34091L74.4735 10.4448C75.3038 10.0868 75.7665 9.78068 76.4422 10.0357C77.1172 10.29 77.2065 10.798 77.5163 11.5902H79.233C79.542 10.8007 79.6305 10.2914 80.3108 10.0343C80.9813 9.78068 81.4373 10.0827 82.2758 10.4448L83.4893 9.34091C83.0955 8.58614 82.7588 8.16614 83.0385 7.55114C83.319 6.93818 83.883 6.85636 84.75 6.57614ZM78.375 7.72773C77.202 7.72773 76.2503 6.8625 76.2503 5.79545C76.2503 4.72841 77.202 3.86318 78.375 3.86318C79.548 3.86318 80.4997 4.72841 80.4997 5.79545C80.4997 6.8625 79.548 7.72773 78.375 7.72773ZM90 10.5948V9.86045C89.5875 9.72682 89.3273 9.68932 89.1953 9.40159C89.0633 9.1125 89.22 8.91682 89.4067 8.55886L88.8353 8.03932C88.4453 8.20841 88.227 8.35159 87.909 8.23227C87.591 8.11295 87.5498 7.87432 87.4035 7.50068H86.5965C86.451 7.87227 86.409 8.11227 86.091 8.23227C85.773 8.35227 85.5578 8.20977 85.1648 8.03932L84.5933 8.55886C84.7793 8.91545 84.9367 9.1125 84.8047 9.40159C84.6727 9.69068 84.4088 9.72818 84 9.86045V10.5948C84.408 10.7264 84.6727 10.7652 84.8047 11.0536C84.9375 11.3448 84.7763 11.5459 84.5933 11.8964L85.1648 12.4159C85.5555 12.2468 85.7738 12.1036 86.091 12.223C86.409 12.3423 86.4502 12.5816 86.5965 12.9545H87.4035C87.549 12.583 87.591 12.343 87.9105 12.2223C88.2263 12.103 88.4408 12.2455 88.8353 12.4159L89.4067 11.8964C89.2215 11.5411 89.0633 11.3427 89.1953 11.0543C89.3273 10.7659 89.592 10.7264 90 10.5948ZM87 11.1361C86.448 11.1361 86.0003 10.7291 86.0003 10.2273C86.0003 9.72545 86.448 9.31841 87 9.31841C87.552 9.31841 87.9998 9.72545 87.9998 10.2273C87.9998 10.7291 87.552 11.1361 87 11.1361ZM84 13.23V12.6791C83.691 12.5789 83.4953 12.5509 83.3963 12.3348C83.2973 12.1186 83.4142 11.9714 83.5552 11.7027L83.1262 11.3134C82.8345 11.4402 82.671 11.548 82.4318 11.458C82.1925 11.368 82.1625 11.1893 82.0523 10.9091H81.447C81.3375 11.188 81.306 11.368 81.0675 11.458C80.8298 11.548 80.6677 11.4416 80.373 11.3134L79.944 11.7027C80.0843 11.9707 80.202 12.118 80.103 12.3348C80.004 12.5516 79.806 12.5795 79.4992 12.6791V13.23C79.8052 13.3289 80.004 13.3582 80.103 13.5743C80.2028 13.7925 80.082 13.9439 79.944 14.2064L80.373 14.5957C80.6655 14.4689 80.829 14.3611 81.0675 14.4511C81.306 14.5411 81.3367 14.7205 81.447 15H82.0523C82.1618 14.7211 82.1933 14.5411 82.4325 14.4511C82.6688 14.3618 82.83 14.4682 83.1262 14.5964L83.5552 14.207C83.4157 13.9405 83.2973 13.7918 83.3963 13.575C83.4953 13.3582 83.694 13.3289 84 13.23ZM81.75 13.6364C81.336 13.6364 81 13.3316 81 12.9545C81 12.5775 81.336 12.2727 81.75 12.2727C82.164 12.2727 82.5 12.5775 82.5 12.9545C82.5 13.3316 82.164 13.6364 81.75 13.6364Z" fill="url(#paint3_linear_19_102)"/>
<path d="M66.75 6.57614V5.01477C65.8725 4.73045 65.3198 4.65136 65.04 4.03909C64.7603 3.42545 65.0925 3.00818 65.49 2.24932L64.2765 1.14545C63.4477 1.50341 62.9843 1.80955 62.307 1.55455C61.632 1.30023 61.5443 0.793636 61.2338 0H59.5163C59.2073 0.789545 59.1188 1.30023 58.443 1.55455C57.768 1.80955 57.3098 1.50682 56.4735 1.14545L55.2608 2.24932C55.656 3.00614 55.9905 3.42477 55.7107 4.03909C55.4295 4.65341 54.8685 4.73386 54 5.01477V6.57545C54.8662 6.85636 55.4302 6.9375 55.71 7.55114C55.992 8.17023 55.6493 8.59705 55.26 9.34091L56.4735 10.4448C57.3038 10.0868 57.7665 9.78068 58.4422 10.0357C59.1172 10.29 59.2065 10.798 59.5163 11.5902H61.233C61.542 10.8007 61.6305 10.2914 62.3108 10.0343C62.9813 9.78068 63.4373 10.0827 64.2758 10.4448L65.4893 9.34091C65.0955 8.58614 64.7588 8.16614 65.0385 7.55114C65.319 6.93818 65.883 6.85636 66.75 6.57614ZM60.375 7.72773C59.202 7.72773 58.2503 6.8625 58.2503 5.79545C58.2503 4.72841 59.202 3.86318 60.375 3.86318C61.548 3.86318 62.4997 4.72841 62.4997 5.79545C62.4997 6.8625 61.548 7.72773 60.375 7.72773ZM72 10.5948V9.86045C71.5875 9.72682 71.3273 9.68932 71.1953 9.40159C71.0633 9.1125 71.22 8.91682 71.4067 8.55886L70.8353 8.03932C70.4453 8.20841 70.227 8.35159 69.909 8.23227C69.591 8.11295 69.5498 7.87432 69.4035 7.50068H68.5965C68.451 7.87227 68.409 8.11227 68.091 8.23227C67.773 8.35227 67.5578 8.20977 67.1648 8.03932L66.5933 8.55886C66.7793 8.91545 66.9367 9.1125 66.8047 9.40159C66.6727 9.69068 66.4088 9.72818 66 9.86045V10.5948C66.408 10.7264 66.6727 10.7652 66.8047 11.0536C66.9375 11.3448 66.7763 11.5459 66.5933 11.8964L67.1648 12.4159C67.5555 12.2468 67.7738 12.1036 68.091 12.223C68.409 12.3423 68.4502 12.5816 68.5965 12.9545H69.4035C69.549 12.583 69.591 12.343 69.9105 12.2223C70.2263 12.103 70.4408 12.2455 70.8353 12.4159L71.4067 11.8964C71.2215 11.5411 71.0633 11.3427 71.1953 11.0543C71.3273 10.7659 71.592 10.7264 72 10.5948ZM69 11.1361C68.448 11.1361 68.0003 10.7291 68.0003 10.2273C68.0003 9.72545 68.448 9.31841 69 9.31841C69.552 9.31841 69.9998 9.72545 69.9998 10.2273C69.9998 10.7291 69.552 11.1361 69 11.1361ZM66 13.23V12.6791C65.691 12.5789 65.4953 12.5509 65.3963 12.3348C65.2973 12.1186 65.4142 11.9714 65.5552 11.7027L65.1262 11.3134C64.8345 11.4402 64.671 11.548 64.4318 11.458C64.1925 11.368 64.1625 11.1893 64.0523 10.9091H63.447C63.3375 11.188 63.306 11.368 63.0675 11.458C62.8298 11.548 62.6677 11.4416 62.373 11.3134L61.944 11.7027C62.0843 11.9707 62.202 12.118 62.103 12.3348C62.004 12.5516 61.806 12.5795 61.4992 12.6791V13.23C61.8052 13.3289 62.004 13.3582 62.103 13.5743C62.2028 13.7925 62.082 13.9439 61.944 14.2064L62.373 14.5957C62.6655 14.4689 62.829 14.3611 63.0675 14.4511C63.306 14.5411 63.3367 14.7205 63.447 15H64.0523C64.1618 14.7211 64.1933 14.5411 64.4325 14.4511C64.6688 14.3618 64.83 14.4682 65.1262 14.5964L65.5552 14.207C65.4157 13.9405 65.2973 13.7918 65.3963 13.575C65.4953 13.3582 65.694 13.3289 66 13.23ZM63.75 13.6364C63.336 13.6364 63 13.3316 63 12.9545C63 12.5775 63.336 12.2727 63.75 12.2727C64.164 12.2727 64.5 12.5775 64.5 12.9545C64.5 13.3316 64.164 13.6364 63.75 13.6364Z" fill="url(#paint4_linear_19_102)"/>
<path d="M102.75 6.57614V5.01477C101.873 4.73045 101.32 4.65136 101.04 4.03909C100.76 3.42545 101.093 3.00818 101.49 2.24932L100.276 1.14545C99.4477 1.50341 98.9843 1.80955 98.307 1.55455C97.632 1.30023 97.5443 0.793636 97.2338 0H95.5163C95.2073 0.789545 95.1188 1.30023 94.443 1.55455C93.768 1.80955 93.3098 1.50682 92.4735 1.14545L91.2608 2.24932C91.656 3.00614 91.9905 3.42477 91.7107 4.03909C91.4295 4.65341 90.8685 4.73386 90 5.01477V6.57545C90.8662 6.85636 91.4302 6.9375 91.71 7.55114C91.992 8.17023 91.6493 8.59705 91.26 9.34091L92.4735 10.4448C93.3038 10.0868 93.7665 9.78068 94.4422 10.0357C95.1172 10.29 95.2065 10.798 95.5163 11.5902H97.233C97.542 10.8007 97.6305 10.2914 98.3108 10.0343C98.9813 9.78068 99.4373 10.0827 100.276 10.4448L101.489 9.34091C101.096 8.58614 100.759 8.16614 101.039 7.55114C101.319 6.93818 101.883 6.85636 102.75 6.57614ZM96.375 7.72773C95.202 7.72773 94.2503 6.8625 94.2503 5.79545C94.2503 4.72841 95.202 3.86318 96.375 3.86318C97.548 3.86318 98.4997 4.72841 98.4997 5.79545C98.4997 6.8625 97.548 7.72773 96.375 7.72773ZM108 10.5948V9.86045C107.588 9.72682 107.327 9.68932 107.195 9.40159C107.063 9.1125 107.22 8.91682 107.407 8.55886L106.835 8.03932C106.445 8.20841 106.227 8.35159 105.909 8.23227C105.591 8.11295 105.55 7.87432 105.404 7.50068H104.596C104.451 7.87227 104.409 8.11227 104.091 8.23227C103.773 8.35227 103.558 8.20977 103.165 8.03932L102.593 8.55886C102.779 8.91545 102.937 9.1125 102.805 9.40159C102.673 9.69068 102.409 9.72818 102 9.86045V10.5948C102.408 10.7264 102.673 10.7652 102.805 11.0536C102.937 11.3448 102.776 11.5459 102.593 11.8964L103.165 12.4159C103.556 12.2468 103.774 12.1036 104.091 12.223C104.409 12.3423 104.45 12.5816 104.596 12.9545H105.404C105.549 12.583 105.591 12.343 105.911 12.2223C106.226 12.103 106.441 12.2455 106.835 12.4159L107.407 11.8964C107.221 11.5411 107.063 11.3427 107.195 11.0543C107.327 10.7659 107.592 10.7264 108 10.5948ZM105 11.1361C104.448 11.1361 104 10.7291 104 10.2273C104 9.72545 104.448 9.31841 105 9.31841C105.552 9.31841 106 9.72545 106 10.2273C106 10.7291 105.552 11.1361 105 11.1361ZM102 13.23V12.6791C101.691 12.5789 101.495 12.5509 101.396 12.3348C101.297 12.1186 101.414 11.9714 101.555 11.7027L101.126 11.3134C100.834 11.4402 100.671 11.548 100.432 11.458C100.193 11.368 100.163 11.1893 100.052 10.9091H99.447C99.3375 11.188 99.306 11.368 99.0675 11.458C98.8298 11.548 98.6677 11.4416 98.373 11.3134L97.944 11.7027C98.0843 11.9707 98.202 12.118 98.103 12.3348C98.004 12.5516 97.806 12.5795 97.4992 12.6791V13.23C97.8052 13.3289 98.004 13.3582 98.103 13.5743C98.2028 13.7925 98.082 13.9439 97.944 14.2064L98.373 14.5957C98.6655 14.4689 98.829 14.3611 99.0675 14.4511C99.306 14.5411 99.3367 14.7205 99.447 15H100.052C100.162 14.7211 100.193 14.5411 100.433 14.4511C100.669 14.3618 100.83 14.4682 101.126 14.5964L101.555 14.207C101.416 13.9405 101.297 13.7918 101.396 13.575C101.495 13.3582 101.694 13.3289 102 13.23ZM99.75 13.6364C99.336 13.6364 99 13.3316 99 12.9545C99 12.5775 99.336 12.2727 99.75 12.2727C100.164 12.2727 100.5 12.5775 100.5 12.9545C100.5 13.3316 100.164 13.6364 99.75 13.6364Z" fill="white"/>
<defs>
<linearGradient id="paint0_linear_19_102" x1="-1.58824" y1="1.00263" x2="14.222" y2="13.5026" gradientUnits="userSpaceOnUse">
<stop offset="0.0945158" stop-color="#F40588"/>
<stop offset="0.447917" stop-color="#C227F4"/>
<stop offset="1" stop-color="#FB924D"/>
</linearGradient>
<linearGradient id="paint1_linear_19_102" x1="21.7059" y1="-5" x2="36.8835" y2="8.39807" gradientUnits="userSpaceOnUse">
<stop offset="0.369792" stop-color="#FFFCFE"/>
<stop offset="0.447917" stop-color="#C227F4"/>
<stop offset="1" stop-color="#FB924D"/>
</linearGradient>
<linearGradient id="paint2_linear_19_102" x1="39.7059" y1="-5" x2="54.8835" y2="8.39807" gradientUnits="userSpaceOnUse">
<stop offset="0.520833" stop-color="white"/>
<stop offset="0.572917" stop-color="#C227F4"/>
<stop offset="1" stop-color="#FB924D"/>
</linearGradient>
<linearGradient id="paint3_linear_19_102" x1="79.4118" y1="-8.90206e-08" x2="86.2607" y2="12.594" gradientUnits="userSpaceOnUse">
<stop offset="0.0945158" stop-color="#FFFAFD"/>
<stop offset="0.197917" stop-color="#FFFEFF"/>
<stop offset="0.515625" stop-color="#FFFEFF"/>
<stop offset="0.713442" stop-color="#FFFEFF"/>
<stop offset="0.713542" stop-color="#DD5AA4"/>
<stop offset="0.734275" stop-color="#DF5E9F"/>
<stop offset="0.734375" stop-color="#E05F9D"/>
<stop offset="0.755208" stop-color="#E26397"/>
<stop offset="1" stop-color="#FB924D"/>
</linearGradient>
<linearGradient id="paint4_linear_19_102" x1="52.4118" y1="1.00263" x2="68.222" y2="13.5026" gradientUnits="userSpaceOnUse">
<stop stop-color="#F40588"/>
<stop offset="0.0945158" stop-color="#F40588"/>
<stop offset="0.447917" stop-color="#C227F4"/>
<stop offset="0.765425" stop-color="#FFFCFD"/>
<stop offset="0.765525" stop-color="#E26397"/>
<stop offset="0.765625" stop-color="#E36594"/>
<stop offset="0.765725" stop-color="#FFFCFD"/>
<stop offset="0.791167" stop-color="#FFFEFE"/>
<stop offset="0.791267" stop-color="#FFFBFC"/>
<stop offset="0.791367" stop-color="#EEA2BF"/>
<stop offset="0.791467" stop-color="#FFFEFE"/>
<stop offset="0.791567" stop-color="#E5698E"/>
<stop offset="0.791667" stop-color="#E56A8C"/>
<stop offset="0.791767" stop-color="#E66B8A"/>
<stop offset="0.791867" stop-color="#FFFCFD"/>
<stop offset="0.817608" stop-color="#FFFCFD"/>
<stop offset="0.817708" stop-color="white"/>
<stop offset="0.817808" stop-color="white"/>
<stop offset="0.848858" stop-color="#FFFAFA"/>
<stop offset="0.848958" stop-color="#EB757B"/>
<stop offset="0.849058" stop-color="#FFFCFC"/>
<stop offset="0.9999" stop-color="#FFFAFA"/>
<stop offset="1" stop-color="#FFFDFC"/>
</linearGradient>
</defs>
</svg>
