<svg width="90" height="15" viewBox="0 0 90 15" fill="none" xmlns="http://www.w3.org/2000/svg">
<path fill-rule="evenodd" clip-rule="evenodd" d="M9.52875 10.625C8.94937 12.9381 7.93688 14.375 7.5 15C7.06312 14.375 6.05 12.9388 5.47125 10.625H9.52875ZM14.3187 10.625C13.345 12.7444 11.4125 14.3331 9.0775 14.8331C9.89937 13.5406 10.4787 12.1069 10.8131 10.625H14.3187ZM0.68125 10.625H4.18687C4.52375 12.1162 5.10562 13.5488 5.9225 14.8331C3.5875 14.3331 1.655 12.7444 0.68125 10.625ZM9.775 9.375H5.225C5.04375 8.13437 5.04375 6.86625 5.225 5.625H9.77563C9.95563 6.86625 9.95563 8.13437 9.775 9.375ZM3.96312 9.375H0.236875C0.081875 8.77625 0 8.1475 0 7.5C0 6.8525 0.081875 6.22438 0.236875 5.625H3.96312C3.79875 6.8675 3.79875 8.1325 3.96312 9.375ZM14.7631 9.375H11.0363C11.2019 8.1325 11.2019 6.8675 11.0369 5.625H14.7631C14.9175 6.22438 15 6.8525 15 7.5C15 8.1475 14.9175 8.77625 14.7631 9.375ZM9.52875 4.375H5.47125C6.04937 2.06125 7.0625 0.625 7.5 0C8.24625 1.0675 9.0275 2.37438 9.52875 4.375ZM4.18625 4.37437H0.680625C1.655 2.25562 3.5875 0.666875 5.9225 0.16625C5.14937 1.37875 4.53875 2.81437 4.18625 4.37437ZM14.3187 4.37437H10.8131C10.465 2.83562 9.8675 1.40563 9.07687 0.16625C11.4119 0.666875 13.345 2.25562 14.3187 4.37437Z" fill="url(#paint0_linear_16_53)"/>
<path fill-rule="evenodd" clip-rule="evenodd" d="M9.52875 10.625C8.94937 12.9381 7.93688 14.375 7.5 15C7.06312 14.375 6.05 12.9388 5.47125 10.625H9.52875ZM14.3187 10.625C13.345 12.7444 11.4125 14.3331 9.0775 14.8331C9.89937 13.5406 10.4787 12.1069 10.8131 10.625H14.3187ZM0.68125 10.625H4.18687C4.52375 12.1162 5.10562 13.5488 5.9225 14.8331C3.5875 14.3331 1.655 12.7444 0.68125 10.625ZM9.775 9.375H5.225C5.04375 8.13437 5.04375 6.86625 5.225 5.625H9.77563C9.95563 6.86625 9.95563 8.13437 9.775 9.375ZM3.96312 9.375H0.236875C0.081875 8.77625 0 8.1475 0 7.5C0 6.8525 0.081875 6.22438 0.236875 5.625H3.96312C3.79875 6.8675 3.79875 8.1325 3.96312 9.375ZM14.7631 9.375H11.0363C11.2019 8.1325 11.2019 6.8675 11.0369 5.625H14.7631C14.9175 6.22438 15 6.8525 15 7.5C15 8.1475 14.9175 8.77625 14.7631 9.375ZM9.52875 4.375H5.47125C6.04937 2.06125 7.0625 0.625 7.5 0C8.24625 1.0675 9.0275 2.37438 9.52875 4.375ZM4.18625 4.37437H0.680625C1.655 2.25562 3.5875 0.666875 5.9225 0.16625C5.14937 1.37875 4.53875 2.81437 4.18625 4.37437ZM14.3187 4.37437H10.8131C10.465 2.83562 9.8675 1.40563 9.07687 0.16625C11.4119 0.666875 13.345 2.25562 14.3187 4.37437Z" fill="url(#paint1_linear_16_53)"/>
<path fill-rule="evenodd" clip-rule="evenodd" d="M24.5287 10.625C23.9494 12.9381 22.9369 14.375 22.5 15C22.0631 14.375 21.05 12.9388 20.4712 10.625H24.5287ZM29.3187 10.625C28.345 12.7444 26.4125 14.3331 24.0775 14.8331C24.8994 13.5406 25.4787 12.1069 25.8131 10.625H29.3187ZM15.6812 10.625H19.1869C19.5237 12.1162 20.1056 13.5488 20.9225 14.8331C18.5875 14.3331 16.655 12.7444 15.6812 10.625ZM24.775 9.375H20.225C20.0437 8.13437 20.0437 6.86625 20.225 5.625H24.7756C24.9556 6.86625 24.9556 8.13437 24.775 9.375ZM18.9631 9.375H15.2369C15.0819 8.77625 15 8.1475 15 7.5C15 6.8525 15.0819 6.22438 15.2369 5.625H18.9631C18.7987 6.8675 18.7987 8.1325 18.9631 9.375ZM29.7631 9.375H26.0363C26.2019 8.1325 26.2019 6.8675 26.0369 5.625H29.7631C29.9175 6.22438 30 6.8525 30 7.5C30 8.1475 29.9175 8.77625 29.7631 9.375ZM24.5287 4.375H20.4712C21.0494 2.06125 22.0625 0.625 22.5 0C23.2462 1.0675 24.0275 2.37438 24.5287 4.375ZM19.1862 4.37437H15.6806C16.655 2.25562 18.5875 0.666875 20.9225 0.16625C20.1494 1.37875 19.5387 2.81437 19.1862 4.37437ZM29.3187 4.37437H25.8131C25.465 2.83562 24.8675 1.40563 24.0769 0.16625C26.4119 0.666875 28.345 2.25562 29.3187 4.37437Z" fill="url(#paint2_linear_16_53)"/>
<path fill-rule="evenodd" clip-rule="evenodd" d="M24.5287 10.625C23.9494 12.9381 22.9369 14.375 22.5 15C22.0631 14.375 21.05 12.9388 20.4712 10.625H24.5287ZM29.3187 10.625C28.345 12.7444 26.4125 14.3331 24.0775 14.8331C24.8994 13.5406 25.4787 12.1069 25.8131 10.625H29.3187ZM15.6812 10.625H19.1869C19.5237 12.1162 20.1056 13.5488 20.9225 14.8331C18.5875 14.3331 16.655 12.7444 15.6812 10.625ZM24.775 9.375H20.225C20.0437 8.13437 20.0437 6.86625 20.225 5.625H24.7756C24.9556 6.86625 24.9556 8.13437 24.775 9.375ZM18.9631 9.375H15.2369C15.0819 8.77625 15 8.1475 15 7.5C15 6.8525 15.0819 6.22438 15.2369 5.625H18.9631C18.7987 6.8675 18.7987 8.1325 18.9631 9.375ZM29.7631 9.375H26.0363C26.2019 8.1325 26.2019 6.8675 26.0369 5.625H29.7631C29.9175 6.22438 30 6.8525 30 7.5C30 8.1475 29.9175 8.77625 29.7631 9.375ZM24.5287 4.375H20.4712C21.0494 2.06125 22.0625 0.625 22.5 0C23.2462 1.0675 24.0275 2.37438 24.5287 4.375ZM19.1862 4.37437H15.6806C16.655 2.25562 18.5875 0.666875 20.9225 0.16625C20.1494 1.37875 19.5387 2.81437 19.1862 4.37437ZM29.3187 4.37437H25.8131C25.465 2.83562 24.8675 1.40563 24.0769 0.16625C26.4119 0.666875 28.345 2.25562 29.3187 4.37437Z" fill="url(#paint3_linear_16_53)"/>
<path fill-rule="evenodd" clip-rule="evenodd" d="M54.5287 10.625C53.9494 12.9381 52.9369 14.375 52.5 15C52.0631 14.375 51.05 12.9388 50.4712 10.625H54.5287ZM59.3187 10.625C58.345 12.7444 56.4125 14.3331 54.0775 14.8331C54.8994 13.5406 55.4787 12.1069 55.8131 10.625H59.3187ZM45.6812 10.625H49.1869C49.5237 12.1162 50.1056 13.5488 50.9225 14.8331C48.5875 14.3331 46.655 12.7444 45.6812 10.625ZM54.775 9.375H50.225C50.0437 8.13437 50.0437 6.86625 50.225 5.625H54.7756C54.9556 6.86625 54.9556 8.13437 54.775 9.375ZM48.9631 9.375H45.2369C45.0819 8.77625 45 8.1475 45 7.5C45 6.8525 45.0819 6.22438 45.2369 5.625H48.9631C48.7987 6.8675 48.7987 8.1325 48.9631 9.375ZM59.7631 9.375H56.0363C56.2019 8.1325 56.2019 6.8675 56.0369 5.625H59.7631C59.9175 6.22438 60 6.8525 60 7.5C60 8.1475 59.9175 8.77625 59.7631 9.375ZM54.5287 4.375H50.4712C51.0494 2.06125 52.0625 0.625 52.5 0C53.2462 1.0675 54.0275 2.37438 54.5287 4.375ZM49.1862 4.37437H45.6806C46.655 2.25562 48.5875 0.666875 50.9225 0.16625C50.1494 1.37875 49.5387 2.81437 49.1862 4.37437ZM59.3187 4.37437H55.8131C55.465 2.83562 54.8675 1.40563 54.0769 0.16625C56.4119 0.666875 58.345 2.25562 59.3187 4.37437Z" fill="url(#paint4_linear_16_53)"/>
<path fill-rule="evenodd" clip-rule="evenodd" d="M54.5287 10.625C53.9494 12.9381 52.9369 14.375 52.5 15C52.0631 14.375 51.05 12.9388 50.4712 10.625H54.5287ZM59.3187 10.625C58.345 12.7444 56.4125 14.3331 54.0775 14.8331C54.8994 13.5406 55.4787 12.1069 55.8131 10.625H59.3187ZM45.6812 10.625H49.1869C49.5237 12.1162 50.1056 13.5488 50.9225 14.8331C48.5875 14.3331 46.655 12.7444 45.6812 10.625ZM54.775 9.375H50.225C50.0437 8.13437 50.0437 6.86625 50.225 5.625H54.7756C54.9556 6.86625 54.9556 8.13437 54.775 9.375ZM48.9631 9.375H45.2369C45.0819 8.77625 45 8.1475 45 7.5C45 6.8525 45.0819 6.22438 45.2369 5.625H48.9631C48.7987 6.8675 48.7987 8.1325 48.9631 9.375ZM59.7631 9.375H56.0363C56.2019 8.1325 56.2019 6.8675 56.0369 5.625H59.7631C59.9175 6.22438 60 6.8525 60 7.5C60 8.1475 59.9175 8.77625 59.7631 9.375ZM54.5287 4.375H50.4712C51.0494 2.06125 52.0625 0.625 52.5 0C53.2462 1.0675 54.0275 2.37438 54.5287 4.375ZM49.1862 4.37437H45.6806C46.655 2.25562 48.5875 0.666875 50.9225 0.16625C50.1494 1.37875 49.5387 2.81437 49.1862 4.37437ZM59.3187 4.37437H55.8131C55.465 2.83562 54.8675 1.40563 54.0769 0.16625C56.4119 0.666875 58.345 2.25562 59.3187 4.37437Z" fill="url(#paint5_linear_16_53)"/>
<path fill-rule="evenodd" clip-rule="evenodd" d="M69.5287 10.625C68.9494 12.9381 67.9369 14.375 67.5 15C67.0631 14.375 66.05 12.9388 65.4712 10.625H69.5287ZM74.3187 10.625C73.345 12.7444 71.4125 14.3331 69.0775 14.8331C69.8994 13.5406 70.4787 12.1069 70.8131 10.625H74.3187ZM60.6812 10.625H64.1869C64.5237 12.1162 65.1056 13.5488 65.9225 14.8331C63.5875 14.3331 61.655 12.7444 60.6812 10.625ZM69.775 9.375H65.225C65.0437 8.13437 65.0437 6.86625 65.225 5.625H69.7756C69.9556 6.86625 69.9556 8.13437 69.775 9.375ZM63.9631 9.375H60.2369C60.0819 8.77625 60 8.1475 60 7.5C60 6.8525 60.0819 6.22438 60.2369 5.625H63.9631C63.7987 6.8675 63.7987 8.1325 63.9631 9.375ZM74.7631 9.375H71.0363C71.2019 8.1325 71.2019 6.8675 71.0369 5.625H74.7631C74.9175 6.22438 75 6.8525 75 7.5C75 8.1475 74.9175 8.77625 74.7631 9.375ZM69.5287 4.375H65.4712C66.0494 2.06125 67.0625 0.625 67.5 0C68.2462 1.0675 69.0275 2.37438 69.5287 4.375ZM64.1862 4.37437H60.6806C61.655 2.25562 63.5875 0.666875 65.9225 0.16625C65.1494 1.37875 64.5387 2.81437 64.1862 4.37437ZM74.3187 4.37437H70.8131C70.465 2.83562 69.8675 1.40563 69.0769 0.16625C71.4119 0.666875 73.345 2.25562 74.3187 4.37437Z" fill="url(#paint6_linear_16_53)"/>
<path fill-rule="evenodd" clip-rule="evenodd" d="M69.5287 10.625C68.9494 12.9381 67.9369 14.375 67.5 15C67.0631 14.375 66.05 12.9388 65.4712 10.625H69.5287ZM74.3187 10.625C73.345 12.7444 71.4125 14.3331 69.0775 14.8331C69.8994 13.5406 70.4787 12.1069 70.8131 10.625H74.3187ZM60.6812 10.625H64.1869C64.5237 12.1162 65.1056 13.5488 65.9225 14.8331C63.5875 14.3331 61.655 12.7444 60.6812 10.625ZM69.775 9.375H65.225C65.0437 8.13437 65.0437 6.86625 65.225 5.625H69.7756C69.9556 6.86625 69.9556 8.13437 69.775 9.375ZM63.9631 9.375H60.2369C60.0819 8.77625 60 8.1475 60 7.5C60 6.8525 60.0819 6.22438 60.2369 5.625H63.9631C63.7987 6.8675 63.7987 8.1325 63.9631 9.375ZM74.7631 9.375H71.0363C71.2019 8.1325 71.2019 6.8675 71.0369 5.625H74.7631C74.9175 6.22438 75 6.8525 75 7.5C75 8.1475 74.9175 8.77625 74.7631 9.375ZM69.5287 4.375H65.4712C66.0494 2.06125 67.0625 0.625 67.5 0C68.2462 1.0675 69.0275 2.37438 69.5287 4.375ZM64.1862 4.37437H60.6806C61.655 2.25562 63.5875 0.666875 65.9225 0.16625C65.1494 1.37875 64.5387 2.81437 64.1862 4.37437ZM74.3187 4.37437H70.8131C70.465 2.83562 69.8675 1.40563 69.0769 0.16625C71.4119 0.666875 73.345 2.25562 74.3187 4.37437Z" fill="url(#paint7_linear_16_53)"/>
<path fill-rule="evenodd" clip-rule="evenodd" d="M39.5287 10.625C38.9494 12.9381 37.9369 14.375 37.5 15C37.0631 14.375 36.05 12.9388 35.4712 10.625H39.5287ZM44.3187 10.625C43.345 12.7444 41.4125 14.3331 39.0775 14.8331C39.8994 13.5406 40.4787 12.1069 40.8131 10.625H44.3187ZM30.6812 10.625H34.1869C34.5237 12.1162 35.1056 13.5488 35.9225 14.8331C33.5875 14.3331 31.655 12.7444 30.6812 10.625ZM39.775 9.375H35.225C35.0437 8.13437 35.0437 6.86625 35.225 5.625H39.7756C39.9556 6.86625 39.9556 8.13437 39.775 9.375ZM33.9631 9.375H30.2369C30.0819 8.77625 30 8.1475 30 7.5C30 6.8525 30.0819 6.22438 30.2369 5.625H33.9631C33.7987 6.8675 33.7987 8.1325 33.9631 9.375ZM44.7631 9.375H41.0363C41.2019 8.1325 41.2019 6.8675 41.0369 5.625H44.7631C44.9175 6.22438 45 6.8525 45 7.5C45 8.1475 44.9175 8.77625 44.7631 9.375ZM39.5287 4.375H35.4712C36.0494 2.06125 37.0625 0.625 37.5 0C38.2462 1.0675 39.0275 2.37438 39.5287 4.375ZM34.1862 4.37437H30.6806C31.655 2.25562 33.5875 0.666875 35.9225 0.16625C35.1494 1.37875 34.5387 2.81437 34.1862 4.37437ZM44.3187 4.37437H40.8131C40.465 2.83562 39.8675 1.40563 39.0769 0.16625C41.4119 0.666875 43.345 2.25562 44.3187 4.37437Z" fill="url(#paint8_linear_16_53)"/>
<path fill-rule="evenodd" clip-rule="evenodd" d="M39.5287 10.625C38.9494 12.9381 37.9369 14.375 37.5 15C37.0631 14.375 36.05 12.9388 35.4712 10.625H39.5287ZM44.3187 10.625C43.345 12.7444 41.4125 14.3331 39.0775 14.8331C39.8994 13.5406 40.4787 12.1069 40.8131 10.625H44.3187ZM30.6812 10.625H34.1869C34.5237 12.1162 35.1056 13.5488 35.9225 14.8331C33.5875 14.3331 31.655 12.7444 30.6812 10.625ZM39.775 9.375H35.225C35.0437 8.13437 35.0437 6.86625 35.225 5.625H39.7756C39.9556 6.86625 39.9556 8.13437 39.775 9.375ZM33.9631 9.375H30.2369C30.0819 8.77625 30 8.1475 30 7.5C30 6.8525 30.0819 6.22438 30.2369 5.625H33.9631C33.7987 6.8675 33.7987 8.1325 33.9631 9.375ZM44.7631 9.375H41.0363C41.2019 8.1325 41.2019 6.8675 41.0369 5.625H44.7631C44.9175 6.22438 45 6.8525 45 7.5C45 8.1475 44.9175 8.77625 44.7631 9.375ZM39.5287 4.375H35.4712C36.0494 2.06125 37.0625 0.625 37.5 0C38.2462 1.0675 39.0275 2.37438 39.5287 4.375ZM34.1862 4.37437H30.6806C31.655 2.25562 33.5875 0.666875 35.9225 0.16625C35.1494 1.37875 34.5387 2.81437 34.1862 4.37437ZM44.3187 4.37437H40.8131C40.465 2.83562 39.8675 1.40563 39.0769 0.16625C41.4119 0.666875 43.345 2.25562 44.3187 4.37437Z" fill="url(#paint9_linear_16_53)"/>
<path fill-rule="evenodd" clip-rule="evenodd" d="M84.5287 10.625C83.9494 12.9381 82.9369 14.375 82.5 15C82.0631 14.375 81.05 12.9387 80.4712 10.625H84.5287ZM89.3187 10.625C88.345 12.7444 86.4125 14.3331 84.0775 14.8331C84.8994 13.5406 85.4788 12.1069 85.8131 10.625H89.3187ZM75.6813 10.625H79.1869C79.5237 12.1162 80.1056 13.5487 80.9225 14.8331C78.5875 14.3331 76.655 12.7444 75.6813 10.625ZM84.775 9.375H80.225C80.0437 8.13437 80.0437 6.86625 80.225 5.625H84.7756C84.9556 6.86625 84.9556 8.13437 84.775 9.375ZM78.9631 9.375H75.2369C75.0819 8.77625 75 8.1475 75 7.5C75 6.8525 75.0819 6.22438 75.2369 5.625H78.9631C78.7987 6.8675 78.7987 8.1325 78.9631 9.375ZM89.7631 9.375H86.0363C86.2019 8.1325 86.2019 6.8675 86.0369 5.625H89.7631C89.9175 6.22438 90 6.8525 90 7.5C90 8.1475 89.9175 8.77625 89.7631 9.375ZM84.5287 4.375H80.4712C81.0494 2.06125 82.0625 0.625 82.5 0C83.2462 1.0675 84.0275 2.37438 84.5287 4.375ZM79.1862 4.37437H75.6806C76.655 2.25562 78.5875 0.666875 80.9225 0.16625C80.1494 1.37875 79.5387 2.81437 79.1862 4.37437ZM89.3187 4.37437H85.8131C85.465 2.83563 84.8675 1.40563 84.0769 0.16625C86.4119 0.666875 88.345 2.25562 89.3187 4.37437Z" fill="white"/>
<defs>
<linearGradient id="paint0_linear_16_53" x1="-1.5625" y1="6.17001e-08" x2="10.3125" y2="14.0625" gradientUnits="userSpaceOnUse">
<stop stop-color="#F40588"/>
<stop offset="0.536458" stop-color="#BF26F3"/>
<stop offset="1" stop-color="#FB904E"/>
</linearGradient>
<linearGradient id="paint1_linear_16_53" x1="-1.5625" y1="6.17001e-08" x2="10.3125" y2="14.0625" gradientUnits="userSpaceOnUse">
<stop stop-color="#F40588"/>
<stop offset="0.536458" stop-color="#BF26F3"/>
<stop offset="1" stop-color="#FB904E"/>
</linearGradient>
<linearGradient id="paint2_linear_16_53" x1="13.5" y1="-1.5" x2="28.5" y2="-1.5" gradientUnits="userSpaceOnUse">
<stop stop-color="#F40588"/>
<stop offset="0.536458" stop-color="#BF26F3"/>
<stop offset="0.7499" stop-color="#CC3ECE"/>
<stop offset="0.75" stop-color="#FFF9FD"/>
<stop offset="1" stop-color="#FFFAF7"/>
</linearGradient>
<linearGradient id="paint3_linear_16_53" x1="13.5" y1="-1.5" x2="28.5" y2="-1.5" gradientUnits="userSpaceOnUse">
<stop stop-color="#F40588"/>
<stop offset="0.536458" stop-color="#BF26F3"/>
<stop offset="0.7499" stop-color="#CC3ECE"/>
<stop offset="0.75" stop-color="#FFF9FD"/>
<stop offset="1" stop-color="#FFFAF7"/>
</linearGradient>
<linearGradient id="paint4_linear_16_53" x1="43.4375" y1="5.82077e-09" x2="60" y2="-5.58793e-08" gradientUnits="userSpaceOnUse">
<stop stop-color="#F40588"/>
<stop offset="0.0001" stop-color="#F9F9F9"/>
<stop offset="0.0259417" stop-color="#FEFEFE"/>
<stop offset="0.0260417" stop-color="white"/>
<stop offset="0.046875" stop-color="#FDFDFD"/>
<stop offset="0.0729167" stop-color="#FCFCFC"/>
<stop offset="0.104167" stop-color="#FEFEFE"/>
<stop offset="0.125" stop-color="#FCFCFC"/>
<stop offset="0.161458" stop-color="white"/>
<stop offset="0.213542" stop-color="#FFFEFF"/>
<stop offset="0.286458" stop-color="white"/>
<stop offset="0.322917" stop-color="white"/>
<stop offset="0.354167" stop-color="white"/>
<stop offset="0.3748" stop-color="white"/>
<stop offset="0.3749" stop-color="#DB55DE"/>
<stop offset="0.375" stop-color="#CF1CD3"/>
<stop offset="0.3751" stop-color="#CE1CD4"/>
<stop offset="0.3752" stop-color="#FCE0FD"/>
<stop offset="0.458333" stop-color="#C721E3"/>
<stop offset="0.536458" stop-color="#BF26F3"/>
<stop offset="0.604167" stop-color="#C835DB"/>
<stop offset="0.682292" stop-color="#D247BF"/>
<stop offset="0.744692" stop-color="white"/>
<stop offset="0.744792" stop-color="white"/>
<stop offset="0.791667" stop-color="white"/>
<stop offset="0.822917" stop-color="white"/>
<stop offset="0.859375" stop-color="white"/>
<stop offset="0.890625" stop-color="#FCFCFC"/>
<stop offset="0.911458" stop-color="white"/>
<stop offset="0.942708" stop-color="white"/>
<stop offset="0.963542" stop-color="white"/>
<stop offset="0.963642" stop-color="white"/>
<stop offset="0.9999" stop-color="white"/>
<stop offset="1" stop-color="#FB904E"/>
</linearGradient>
<linearGradient id="paint5_linear_16_53" x1="43.4375" y1="5.82077e-09" x2="60" y2="-5.58793e-08" gradientUnits="userSpaceOnUse">
<stop stop-color="#F40588"/>
<stop offset="0.0001" stop-color="#F9F9F9"/>
<stop offset="0.0259417" stop-color="#FEFEFE"/>
<stop offset="0.0260417" stop-color="white"/>
<stop offset="0.046875" stop-color="#FDFDFD"/>
<stop offset="0.0729167" stop-color="#FCFCFC"/>
<stop offset="0.104167" stop-color="#FEFEFE"/>
<stop offset="0.125" stop-color="#FCFCFC"/>
<stop offset="0.161458" stop-color="white"/>
<stop offset="0.213542" stop-color="#FFFEFF"/>
<stop offset="0.286458" stop-color="white"/>
<stop offset="0.322917" stop-color="white"/>
<stop offset="0.354167" stop-color="white"/>
<stop offset="0.3748" stop-color="white"/>
<stop offset="0.3749" stop-color="#DB55DE"/>
<stop offset="0.375" stop-color="#CF1CD3"/>
<stop offset="0.3751" stop-color="#CE1CD4"/>
<stop offset="0.3752" stop-color="#FCE0FD"/>
<stop offset="0.458333" stop-color="#C721E3"/>
<stop offset="0.536458" stop-color="#BF26F3"/>
<stop offset="0.604167" stop-color="#C835DB"/>
<stop offset="0.682292" stop-color="#D247BF"/>
<stop offset="0.744692" stop-color="white"/>
<stop offset="0.744792" stop-color="white"/>
<stop offset="0.791667" stop-color="white"/>
<stop offset="0.822917" stop-color="white"/>
<stop offset="0.859375" stop-color="white"/>
<stop offset="0.890625" stop-color="#FCFCFC"/>
<stop offset="0.911458" stop-color="white"/>
<stop offset="0.942708" stop-color="white"/>
<stop offset="0.963542" stop-color="white"/>
<stop offset="0.963642" stop-color="white"/>
<stop offset="0.9999" stop-color="white"/>
<stop offset="1" stop-color="#FB904E"/>
</linearGradient>
<linearGradient id="paint6_linear_16_53" x1="58.4375" y1="5.19361e-09" x2="77" y2="-5.65066e-08" gradientUnits="userSpaceOnUse">
<stop offset="0.583333" stop-color="#FFFCFE"/>
<stop offset="0.609375" stop-color="#BF26F3"/>
<stop offset="1" stop-color="#FB904E"/>
</linearGradient>
<linearGradient id="paint7_linear_16_53" x1="58.4375" y1="5.19361e-09" x2="77" y2="-5.65066e-08" gradientUnits="userSpaceOnUse">
<stop offset="0.583333" stop-color="#FFFCFE"/>
<stop offset="0.609375" stop-color="#BF26F3"/>
<stop offset="1" stop-color="#FB904E"/>
</linearGradient>
<linearGradient id="paint8_linear_16_53" x1="49" y1="2.33063e-07" x2="26" y2="-4.90658e-08" gradientUnits="userSpaceOnUse">
<stop stop-color="white"/>
<stop offset="0.09375" stop-color="#FFFAFD"/>
<stop offset="0.192708" stop-color="#FFFAFE"/>
<stop offset="0.322917" stop-color="#FFFAFF"/>
<stop offset="0.46875" stop-color="#FEFBFF"/>
<stop offset="0.572917" stop-color="#FEFAFF"/>
<stop offset="0.606901" stop-color="#CA1FDC"/>
<stop offset="1" stop-color="#FB904E"/>
</linearGradient>
<linearGradient id="paint9_linear_16_53" x1="49" y1="2.33063e-07" x2="26" y2="-4.90658e-08" gradientUnits="userSpaceOnUse">
<stop stop-color="white"/>
<stop offset="0.09375" stop-color="#FFFAFD"/>
<stop offset="0.192708" stop-color="#FFFAFE"/>
<stop offset="0.322917" stop-color="#FFFAFF"/>
<stop offset="0.46875" stop-color="#FEFBFF"/>
<stop offset="0.572917" stop-color="#FEFAFF"/>
<stop offset="0.606901" stop-color="#CA1FDC"/>
<stop offset="1" stop-color="#FB904E"/>
</linearGradient>
</defs>
</svg>
