<svg width="108" height="15" viewBox="0 0 108 15" fill="none" xmlns="http://www.w3.org/2000/svg">
<path d="M18 1.77579C17.3377 2.07727 16.626 2.2803 15.879 2.37182C16.6418 1.90346 17.2275 1.1613 17.5027 0.276866C16.7895 0.710624 15.999 1.02594 15.1575 1.19591C14.4847 0.459906 13.524 0 12.462 0C10.0777 0 8.32575 2.28107 8.86425 4.64905C5.796 4.49139 3.075 2.984 1.25325 0.692935C0.28575 2.39489 0.7515 4.62136 2.3955 5.74882C1.791 5.72882 1.221 5.55886 0.72375 5.27507C0.68325 7.02933 1.9095 8.67053 3.6855 9.03584C3.16575 9.18042 2.5965 9.21426 2.0175 9.10044C2.487 10.6047 3.8505 11.6991 5.4675 11.7299C3.915 12.9781 1.959 13.5357 0 13.2988C1.63425 14.3732 3.576 15 5.661 15C12.5175 15 16.3912 9.06199 16.1572 3.73616C16.8787 3.20165 17.505 2.53486 18 1.77579V1.77579Z" fill="url(#paint0_linear_19_98)"/>
<path d="M90 1.77579C89.3377 2.07727 88.626 2.2803 87.879 2.37182C88.6418 1.90346 89.2275 1.1613 89.5028 0.276866C88.7895 0.710624 87.999 1.02594 87.1575 1.19591C86.4847 0.459906 85.524 0 84.462 0C82.0777 0 80.3258 2.28107 80.8643 4.64905C77.796 4.49139 75.075 2.984 73.2533 0.692935C72.2858 2.39489 72.7515 4.62136 74.3955 5.74882C73.791 5.72882 73.221 5.55886 72.7237 5.27507C72.6832 7.02933 73.9095 8.67053 75.6855 9.03584C75.1658 9.18042 74.5965 9.21426 74.0175 9.10044C74.487 10.6047 75.8505 11.6991 77.4675 11.7299C75.915 12.9781 73.959 13.5357 72 13.2988C73.6342 14.3732 75.576 15 77.661 15C84.5175 15 88.3912 9.06199 88.1572 3.73616C88.8787 3.20165 89.505 2.53486 90 1.77579Z" fill="url(#paint1_linear_19_98)"/>
<path d="M72 1.77579C71.3377 2.07727 70.626 2.2803 69.879 2.37182C70.6418 1.90346 71.2275 1.1613 71.5028 0.276866C70.7895 0.710624 69.999 1.02594 69.1575 1.19591C68.4847 0.459906 67.524 0 66.462 0C64.0777 0 62.3258 2.28107 62.8643 4.64905C59.796 4.49139 57.075 2.984 55.2533 0.692935C54.2858 2.39489 54.7515 4.62136 56.3955 5.74882C55.791 5.72882 55.221 5.55886 54.7237 5.27507C54.6832 7.02933 55.9095 8.67053 57.6855 9.03584C57.1658 9.18042 56.5965 9.21426 56.0175 9.10044C56.487 10.6047 57.8505 11.6991 59.4675 11.7299C57.915 12.9781 55.959 13.5357 54 13.2988C55.6342 14.3732 57.576 15 59.661 15C66.5175 15 70.3912 9.06199 70.1572 3.73616C70.8787 3.20165 71.505 2.53486 72 1.77579Z" fill="url(#paint2_linear_19_98)"/>
<path d="M54 1.77579C53.3377 2.07727 52.626 2.2803 51.879 2.37182C52.6418 1.90346 53.2275 1.1613 53.5028 0.276866C52.7895 0.710624 51.999 1.02594 51.1575 1.19591C50.4847 0.459906 49.524 0 48.462 0C46.0777 0 44.3258 2.28107 44.8643 4.64905C41.796 4.49139 39.075 2.984 37.2533 0.692935C36.2858 2.39489 36.7515 4.62136 38.3955 5.74882C37.791 5.72882 37.221 5.55886 36.7237 5.27507C36.6832 7.02933 37.9095 8.67053 39.6855 9.03584C39.1658 9.18042 38.5965 9.21426 38.0175 9.10044C38.487 10.6047 39.8505 11.6991 41.4675 11.7299C39.915 12.9781 37.959 13.5357 36 13.2988C37.6342 14.3732 39.576 15 41.661 15C48.5175 15 52.3912 9.06199 52.1572 3.73616C52.8787 3.20165 53.505 2.53486 54 1.77579Z" fill="url(#paint3_linear_19_98)"/>
<path d="M36 1.77579C35.3377 2.07727 34.626 2.2803 33.879 2.37182C34.6418 1.90346 35.2275 1.1613 35.5028 0.276866C34.7895 0.710624 33.999 1.02594 33.1575 1.19591C32.4847 0.459906 31.524 0 30.462 0C28.0777 0 26.3258 2.28107 26.8643 4.64905C23.796 4.49139 21.075 2.984 19.2533 0.692935C18.2858 2.39489 18.7515 4.62136 20.3955 5.74882C19.791 5.72882 19.221 5.55886 18.7237 5.27507C18.6832 7.02933 19.9095 8.67053 21.6855 9.03584C21.1658 9.18042 20.5965 9.21426 20.0175 9.10044C20.487 10.6047 21.8505 11.6991 23.4675 11.7299C21.915 12.9781 19.959 13.5357 18 13.2988C19.6342 14.3732 21.576 15 23.661 15C30.5175 15 34.3912 9.06199 34.1572 3.73616C34.8787 3.20165 35.505 2.53486 36 1.77579Z" fill="url(#paint4_linear_19_98)"/>
<path d="M108 1.77579C107.338 2.07727 106.626 2.2803 105.879 2.37182C106.642 1.90346 107.227 1.1613 107.503 0.276866C106.789 0.710624 105.999 1.02594 105.157 1.19591C104.485 0.459906 103.524 0 102.462 0C100.078 0 98.3258 2.28107 98.8643 4.64905C95.796 4.49139 93.075 2.984 91.2533 0.692935C90.2858 2.39489 90.7515 4.62136 92.3955 5.74882C91.791 5.72882 91.221 5.55886 90.7237 5.27507C90.6832 7.02933 91.9095 8.67053 93.6855 9.03584C93.1658 9.18042 92.5965 9.21426 92.0175 9.10044C92.487 10.6047 93.8505 11.6991 95.4675 11.7299C93.915 12.9781 91.959 13.5357 90 13.2988C91.6342 14.3732 93.576 15 95.661 15C102.518 15 106.391 9.06199 106.157 3.73616C106.879 3.20165 107.505 2.53486 108 1.77579V1.77579Z" fill="white"/>
<defs>
<linearGradient id="paint0_linear_19_98" x1="-1.73077" y1="-0.309201" x2="10.383" y2="13.5888" gradientUnits="userSpaceOnUse">
<stop offset="0.137702" stop-color="#F40489"/>
<stop offset="0.500863" stop-color="#C127F4"/>
<stop offset="1" stop-color="#FB954C"/>
</linearGradient>
<linearGradient id="paint1_linear_19_98" x1="76.5" y1="-4.5" x2="87.7162" y2="4.22198" gradientUnits="userSpaceOnUse">
<stop offset="0.137702" stop-color="#F40489"/>
<stop offset="0.498156" stop-color="#C127F4"/>
<stop offset="0.536358" stop-color="#FDF9FF"/>
<stop offset="0.536458" stop-color="#FEFCFF"/>
<stop offset="0.557292" stop-color="#FEFDFF"/>
<stop offset="0.723945" stop-color="white"/>
<stop offset="1" stop-color="#FFFCFA"/>
</linearGradient>
<linearGradient id="paint2_linear_19_98" x1="60" y1="-4" x2="71.3029" y2="8.21983" gradientUnits="userSpaceOnUse">
<stop offset="0.137702" stop-color="#F40489"/>
<stop offset="0.500863" stop-color="#C127F4"/>
<stop offset="0.671875" stop-color="#F3D2FB"/>
<stop offset="0.693519" stop-color="#FFFCFE"/>
<stop offset="1" stop-color="#FFFDFB"/>
</linearGradient>
<linearGradient id="paint3_linear_19_98" x1="45" y1="-5" x2="56.8645" y2="9.70591" gradientUnits="userSpaceOnUse">
<stop offset="0.137702" stop-color="#F40489"/>
<stop offset="0.498156" stop-color="#C127F4"/>
<stop offset="0.536158" stop-color="#DB82F9"/>
<stop offset="0.536258" stop-color="#E5A3FB"/>
<stop offset="0.536358" stop-color="#FDF9FF"/>
<stop offset="0.536458" stop-color="#DF89FC"/>
<stop offset="0.536558" stop-color="#DF89FC"/>
<stop offset="0.557192" stop-color="#E7A6FD"/>
<stop offset="0.619792" stop-color="#E59FFC"/>
<stop offset="0.640625" stop-color="#FFFCFA"/>
</linearGradient>
<linearGradient id="paint4_linear_19_98" x1="27" y1="-5" x2="37.766" y2="5.73314" gradientUnits="userSpaceOnUse">
<stop offset="0.0885417" stop-color="#F40489"/>
<stop offset="0.640625" stop-color="#C127F4"/>
<stop offset="0.8125" stop-color="#F59B5A"/>
<stop offset="0.859375" stop-color="#FFFDFC"/>
</linearGradient>
</defs>
</svg>
