<svg width="90" height="15" viewBox="0 0 90 15" fill="none" xmlns="http://www.w3.org/2000/svg">
<path d="M15 1.77579C14.4481 2.07727 13.855 2.2803 13.2325 2.37182C13.8681 1.90346 14.3562 1.1613 14.5856 0.276866C13.9912 0.710624 13.3325 1.02594 12.6312 1.19591C12.0706 0.459906 11.27 0 10.385 0C8.39812 0 6.93813 2.28107 7.38688 4.64905C4.83 4.49139 2.5625 2.984 1.04438 0.692935C0.238125 2.39489 0.62625 4.62136 1.99625 5.74882C1.4925 5.72882 1.0175 5.55886 0.603125 5.27507C0.569375 7.02933 1.59125 8.67053 3.07125 9.03584C2.63813 9.18042 2.16375 9.21426 1.68125 9.10044C2.0725 10.6047 3.20875 11.6991 4.55625 11.7299C3.2625 12.9781 1.6325 13.5357 0 13.2988C1.36187 14.3732 2.98 15 4.7175 15C10.4313 15 13.6594 9.06199 13.4644 3.73616C14.0656 3.20165 14.5875 2.53486 15 1.77579V1.77579Z" fill="url(#paint0_linear_19_98)"/>
<path d="M75 1.77579C74.4481 2.07727 73.855 2.2803 73.2325 2.37182C73.8681 1.90346 74.3562 1.1613 74.5856 0.276866C73.9913 0.710624 73.3325 1.02594 72.6312 1.19591C72.0706 0.459906 71.27 0 70.385 0C68.3981 0 66.9381 2.28107 67.3869 4.64905C64.83 4.49139 62.5625 2.984 61.0444 0.692935C60.2381 2.39489 60.6262 4.62136 61.9962 5.74882C61.4925 5.72882 61.0175 5.55886 60.6031 5.27507C60.5694 7.02933 61.5913 8.67053 63.0712 9.03584C62.6381 9.18042 62.1637 9.21426 61.6812 9.10044C62.0725 10.6047 63.2087 11.6991 64.5562 11.7299C63.2625 12.9781 61.6325 13.5357 60 13.2988C61.3619 14.3732 62.98 15 64.7175 15C70.4312 15 73.6594 9.06199 73.4644 3.73616C74.0656 3.20165 74.5875 2.53486 75 1.77579Z" fill="url(#paint1_linear_19_98)"/>
<path d="M60 1.77579C59.4481 2.07727 58.855 2.2803 58.2325 2.37182C58.8681 1.90346 59.3562 1.1613 59.5856 0.276866C58.9913 0.710624 58.3325 1.02594 57.6312 1.19591C57.0706 0.459906 56.27 0 55.385 0C53.3981 0 51.9381 2.28107 52.3869 4.64905C49.83 4.49139 47.5625 2.984 46.0444 0.692935C45.2381 2.39489 45.6262 4.62136 46.9962 5.74882C46.4925 5.72882 46.0175 5.55886 45.6031 5.27507C45.5694 7.02933 46.5913 8.67053 48.0712 9.03584C47.6381 9.18042 47.1637 9.21426 46.6812 9.10044C47.0725 10.6047 48.2087 11.6991 49.5562 11.7299C48.2625 12.9781 46.6325 13.5357 45 13.2988C46.3619 14.3732 47.98 15 49.7175 15C55.4312 15 58.6594 9.06199 58.4644 3.73616C59.0656 3.20165 59.5875 2.53486 60 1.77579Z" fill="url(#paint2_linear_19_98)"/>
<path d="M45 1.77579C44.4481 2.07727 43.855 2.2803 43.2325 2.37182C43.8681 1.90346 44.3562 1.1613 44.5856 0.276866C43.9913 0.710624 43.3325 1.02594 42.6312 1.19591C42.0706 0.459906 41.27 0 40.385 0C38.3981 0 36.9381 2.28107 37.3869 4.64905C34.83 4.49139 32.5625 2.984 31.0444 0.692935C30.2381 2.39489 30.6262 4.62136 31.9962 5.74882C31.4925 5.72882 31.0175 5.55886 30.6031 5.27507C30.5694 7.02933 31.5913 8.67053 33.0712 9.03584C32.6381 9.18042 32.1637 9.21426 31.6812 9.10044C32.0725 10.6047 33.2087 11.6991 34.5562 11.7299C33.2625 12.9781 31.6325 13.5357 30 13.2988C31.3619 14.3732 32.98 15 34.7175 15C40.4312 15 43.6594 9.06199 43.4644 3.73616C44.0656 3.20165 44.5875 2.53486 45 1.77579Z" fill="url(#paint3_linear_19_98)"/>
<path d="M30 1.77579C29.4481 2.07727 28.855 2.2803 28.2325 2.37182C28.8681 1.90346 29.3562 1.1613 29.5856 0.276866C28.9912 0.710624 28.3325 1.02594 27.6312 1.19591C27.0706 0.459906 26.27 0 25.385 0C23.3981 0 21.9381 2.28107 22.3869 4.64905C19.83 4.49139 17.5625 2.984 16.0444 0.692935C15.2381 2.39489 15.6263 4.62136 16.9962 5.74882C16.4925 5.72882 16.0175 5.55886 15.6031 5.27507C15.5694 7.02933 16.5912 8.67053 18.0712 9.03584C17.6381 9.18042 17.1637 9.21426 16.6812 9.10044C17.0725 10.6047 18.2087 11.6991 19.5562 11.7299C18.2625 12.9781 16.6325 13.5357 15 13.2988C16.3619 14.3732 17.98 15 19.7175 15C25.4312 15 28.6594 9.06199 28.4644 3.73616C29.0656 3.20165 29.5875 2.53486 30 1.77579Z" fill="url(#paint4_linear_19_98)"/>
<path d="M90 1.77579C89.4481 2.07727 88.855 2.2803 88.2325 2.37182C88.8681 1.90346 89.3562 1.1613 89.5856 0.276866C88.9913 0.710624 88.3325 1.02594 87.6312 1.19591C87.0706 0.459906 86.27 0 85.385 0C83.3981 0 81.9381 2.28107 82.3869 4.64905C79.83 4.49139 77.5625 2.984 76.0444 0.692935C75.2381 2.39489 75.6263 4.62136 76.9963 5.74882C76.4925 5.72882 76.0175 5.55886 75.6031 5.27507C75.5694 7.02933 76.5912 8.67053 78.0712 9.03584C77.6381 9.18042 77.1637 9.21426 76.6813 9.10044C77.0725 10.6047 78.2088 11.6991 79.5563 11.7299C78.2625 12.9781 76.6325 13.5357 75 13.2988C76.3619 14.3732 77.98 15 79.7175 15C85.4312 15 88.6594 9.06199 88.4644 3.73616C89.0656 3.20165 89.5875 2.53486 90 1.77579Z" fill="white"/>
<defs>
<linearGradient id="paint0_linear_19_98" x1="-1.44231" y1="-0.309201" x2="10.7736" y2="11.3702" gradientUnits="userSpaceOnUse">
<stop offset="0.137702" stop-color="#F40489"/>
<stop offset="0.500863" stop-color="#C127F4"/>
<stop offset="1" stop-color="#FB954C"/>
</linearGradient>
<linearGradient id="paint1_linear_19_98" x1="63.75" y1="-4.5" x2="74.3131" y2="2.34509" gradientUnits="userSpaceOnUse">
<stop offset="0.137702" stop-color="#F40489"/>
<stop offset="0.498156" stop-color="#C127F4"/>
<stop offset="0.536358" stop-color="#FDF9FF"/>
<stop offset="0.536458" stop-color="#FEFCFF"/>
<stop offset="0.557292" stop-color="#FEFDFF"/>
<stop offset="0.723945" stop-color="white"/>
<stop offset="1" stop-color="#FFFCFA"/>
</linearGradient>
<linearGradient id="paint2_linear_19_98" x1="50" y1="-4" x2="61.2759" y2="6.15886" gradientUnits="userSpaceOnUse">
<stop offset="0.137702" stop-color="#F40489"/>
<stop offset="0.500863" stop-color="#C127F4"/>
<stop offset="0.671875" stop-color="#F3D2FB"/>
<stop offset="0.693519" stop-color="#FFFCFE"/>
<stop offset="1" stop-color="#FFFDFB"/>
</linearGradient>
<linearGradient id="paint3_linear_19_98" x1="37.5" y1="-5" x2="49.6327" y2="7.53189" gradientUnits="userSpaceOnUse">
<stop offset="0.137702" stop-color="#F40489"/>
<stop offset="0.498156" stop-color="#C127F4"/>
<stop offset="0.536158" stop-color="#DB82F9"/>
<stop offset="0.536258" stop-color="#E5A3FB"/>
<stop offset="0.536358" stop-color="#FDF9FF"/>
<stop offset="0.536458" stop-color="#DF89FC"/>
<stop offset="0.536558" stop-color="#DF89FC"/>
<stop offset="0.557192" stop-color="#E7A6FD"/>
<stop offset="0.619792" stop-color="#E59FFC"/>
<stop offset="0.640625" stop-color="#FFFCFA"/>
</linearGradient>
<linearGradient id="paint4_linear_19_98" x1="22.5" y1="-5" x2="33.0837" y2="3.7928" gradientUnits="userSpaceOnUse">
<stop offset="0.0885417" stop-color="#F40489"/>
<stop offset="0.640625" stop-color="#C127F4"/>
<stop offset="0.8125" stop-color="#F59B5A"/>
<stop offset="0.859375" stop-color="#FFFDFC"/>
</linearGradient>
</defs>
</svg>
