<svg width="90" height="15" viewBox="0 0 90 15" fill="none" xmlns="http://www.w3.org/2000/svg">
<path d="M3.75 5H0L7.5 3.57628e-07L15 5H11.25V8.125H3.75V5ZM3.75 9.375V10.625H11.25V9.375H3.75ZM3.75 11.8837V13.125H11.25V11.8837H3.75ZM3.75 14.375V15H11.25V14.375H3.75Z" fill="url(#paint0_linear_25_131)"/>
<path d="M3.75 5H0L7.5 3.57628e-07L15 5H11.25V8.125H3.75V5ZM3.75 9.375V10.625H11.25V9.375H3.75ZM3.75 11.8837V13.125H11.25V11.8837H3.75ZM3.75 14.375V15H11.25V14.375H3.75Z" fill="url(#paint1_linear_25_131)"/>
<path d="M18.75 5H15L22.5 3.57628e-07L30 5H26.25V8.125H18.75V5ZM18.75 9.375V10.625H26.25V9.375H18.75ZM18.75 11.8837V13.125H26.25V11.8837H18.75ZM18.75 14.375V15H26.25V14.375H18.75Z" fill="url(#paint2_linear_25_131)"/>
<path d="M48.75 5H45L52.5 0L60 5H56.25V8.125H48.75V5ZM48.75 9.375V10.625H56.25V9.375H48.75ZM48.75 11.8837V13.125H56.25V11.8837H48.75ZM48.75 14.375V15H56.25V14.375H48.75Z" fill="url(#paint3_linear_25_131)"/>
<path d="M63.75 5H60L67.5 0L75 5H71.25V8.125H63.75V5ZM63.75 9.375V10.625H71.25V9.375H63.75ZM63.75 11.8837V13.125H71.25V11.8837H63.75ZM63.75 14.375V15H71.25V14.375H63.75Z" fill="url(#paint4_linear_25_131)"/>
<path d="M78.75 5H75L82.5 0L90 5H86.25V8.125H78.75V5ZM78.75 9.375V10.625H86.25V9.375H78.75ZM78.75 11.8837V13.125H86.25V11.8837H78.75ZM78.75 14.375V15H86.25V14.375H78.75Z" fill="white"/>
<path d="M33.75 5H30L37.5 0L45 5H41.25V8.125H33.75V5ZM33.75 9.375V10.625H41.25V9.375H33.75ZM33.75 11.8837V13.125H41.25V11.8837H33.75ZM33.75 14.375V15H41.25V14.375H33.75Z" fill="url(#paint5_linear_25_131)"/>
<defs>
<linearGradient id="paint0_linear_25_131" x1="0" y1="7.5" x2="15" y2="7.5" gradientUnits="userSpaceOnUse">
<stop stop-color="#F40588"/>
<stop offset="0.463542" stop-color="#C227F4"/>
<stop offset="1" stop-color="#FB924D"/>
</linearGradient>
<linearGradient id="paint1_linear_25_131" x1="0" y1="7.5" x2="15" y2="7.5" gradientUnits="userSpaceOnUse">
<stop stop-color="#F40588"/>
<stop offset="0.463542" stop-color="#C227F4"/>
<stop offset="1" stop-color="#FB924D"/>
</linearGradient>
<linearGradient id="paint2_linear_25_131" x1="25" y1="1.45597e-07" x2="24.5" y2="16" gradientUnits="userSpaceOnUse">
<stop stop-color="#FFF8FC"/>
<stop offset="0.223958" stop-color="#FFFCFF"/>
<stop offset="0.463542" stop-color="#C227F4"/>
<stop offset="1" stop-color="#FB924D"/>
</linearGradient>
<linearGradient id="paint3_linear_25_131" x1="55" y1="-6.70552e-07" x2="54.5" y2="17.5" gradientUnits="userSpaceOnUse">
<stop stop-color="#FFF9FC"/>
<stop offset="0.333333" stop-color="#FFFDFF"/>
<stop offset="0.463542" stop-color="#C52CEC"/>
<stop offset="1" stop-color="#FB924D"/>
</linearGradient>
<linearGradient id="paint4_linear_25_131" x1="68" y1="-3" x2="68" y2="20" gradientUnits="userSpaceOnUse">
<stop stop-color="#FFFEFF"/>
<stop offset="0.551983" stop-color="#FEFBFF"/>
<stop offset="0.552083" stop-color="#DE7BDD"/>
<stop offset="0.552183" stop-color="#FFFEFF"/>
<stop offset="0.598958" stop-color="#CF40CD"/>
<stop offset="1" stop-color="#FB924D"/>
</linearGradient>
<linearGradient id="paint5_linear_25_131" x1="30" y1="7.5" x2="45" y2="7.5" gradientUnits="userSpaceOnUse">
<stop stop-color="#F40588"/>
<stop offset="0.463542" stop-color="#C227F4"/>
<stop offset="1" stop-color="#FB924D"/>
</linearGradient>
</defs>
</svg>
