<svg width="15" height="15" viewBox="0 0 15 15" fill="none" xmlns="http://www.w3.org/2000/svg">
<path d="M12.1875 9.375C10.6356 9.375 9.375 10.6344 9.375 12.1875C9.375 13.7406 10.6356 15 12.1875 15C13.7394 15 15 13.7406 15 12.1875C15 10.6344 13.7394 9.375 12.1875 9.375ZM13.75 12.5H12.5V13.75H11.875V12.5H10.625V11.875H11.875V10.625H12.5V11.875H13.75V12.5ZM9.2625 15H0.003125L0 14.2244C0 12.6494 0.124375 11.74 1.98625 11.31C4.08938 10.8244 6.16625 10.3894 5.1675 8.54875C2.20937 3.09312 4.32375 0 7.5 0C11.7194 0 12.1913 4.74687 9.775 8.54937C8.9675 9.81875 8.125 10.8181 8.125 12.1875C8.125 13.2794 8.56 14.2694 9.2625 15Z" fill="url(#paint0_linear_18_65)"/>
<defs>
<linearGradient id="paint0_linear_18_65" x1="0.322917" y1="-1.61458" x2="14.8542" y2="14.2083" gradientUnits="userSpaceOnUse">
<stop stop-color="#F40489"/>
<stop offset="0.479167" stop-color="#BF26F3"/>
<stop offset="1" stop-color="#FB914E"/>
</linearGradient>
</defs>
</svg>
