<svg width="13" height="13" viewBox="0 0 13 13" fill="none" xmlns="http://www.w3.org/2000/svg">
<path d="M10.5625 8.125C9.21754 8.125 8.125 9.21646 8.125 10.5625C8.125 11.9085 9.21754 13 10.5625 13C11.9075 13 13 11.9085 13 10.5625C13 9.21646 11.9075 8.125 10.5625 8.125ZM11.9167 10.8333H10.8333V11.9167H10.2917V10.8333H9.20833V10.2917H10.2917V9.20833H10.8333V10.2917H11.9167V10.8333ZM8.0275 13H0.00270833L0 12.3278C0 10.9628 0.107791 10.1747 1.72142 9.802C3.54412 9.38113 5.34408 9.00412 4.4785 7.40892C1.91479 2.68071 3.74725 0 6.5 0C10.1568 0 10.5657 4.11396 8.47167 7.40946C7.77183 8.50958 7.04167 9.37571 7.04167 10.5625C7.04167 11.5088 7.41867 12.3668 8.0275 13Z" fill="white"/>
</svg>
