<svg width="22" height="20" viewBox="0 0 22 20" fill="none" xmlns="http://www.w3.org/2000/svg">
<path d="M18.8494 16.0381C17.9124 14.7928 16.6862 13.8638 15.3932 13.0379C14.3445 12.3686 13.1501 12.5117 12.0364 12.9481C11.3544 13.2159 10.6805 13.2476 10.0256 13.0532C9.1521 12.7943 8.27343 12.7664 7.38147 12.7632C6.99922 12.7619 6.68157 12.893 6.45416 13.1869C6.32707 13.3521 7.36836 14.0351 8.2609 14.0351C8.09504 14.3595 5.20845 13.6725 4.82355 13.7005L2.63875 13.4265C1.86305 13.3653 1.86381 13.0772 1.10084 13.5003C1.07481 13.5156 1.03758 13.5156 1.00566 13.5129C0.58143 13.4893 0.341102 13.6213 0.105524 13.8971C-0.0310733 14.056 -0.0196744 14.2515 0.0528989 14.437C0.129652 14.6312 0.324004 14.5807 0.484349 14.6433C1.46124 15.0217 1.77585 15.2072 3.10079 15.5278C4.04291 15.7559 4.96033 16.0351 5.9017 16.2429C6.29059 16.3295 6.68575 16.3945 7.03684 16.5876C7.78233 16.9988 8.57418 17.1237 9.42549 17.0853C10.3915 17.0421 11.3607 17.0803 12.3288 17.0751C14.0282 17.0675 15.3195 17.7341 16.1927 19.2012L21.6596 19.1896C20.4663 17.8224 19.9403 17.4904 18.8494 16.0381Z" fill="url(#paint0_linear_1140_925)"/>
<path d="M9.06341 9.26385L5.41333 7.15042L9.06292 12.1935L12.716 7.15042L9.06193 9.26385H9.06341ZM9.11893 0.533203L5.46785 6.47169L9.11843 8.58706L12.769 6.47364L9.11893 0.533203Z" fill="url(#paint1_linear_1140_925)"/>
<defs>
<linearGradient id="paint0_linear_1140_925" x1="3.65943" y1="12.295" x2="14.042" y2="18.8522" gradientUnits="userSpaceOnUse">
<stop offset="0.159232" stop-color="#BD26F3"/>
<stop offset="1" stop-color="#FC994E"/>
</linearGradient>
<linearGradient id="paint1_linear_1140_925" x1="6.65942" y1="4.94405" x2="12.4" y2="7.73461" gradientUnits="userSpaceOnUse">
<stop offset="0.0625" stop-color="#F4048A"/>
<stop offset="0.859375" stop-color="#BD26F3"/>
</linearGradient>
</defs>
</svg>
