<svg width="14" height="14" viewBox="0 0 14 14" fill="none" xmlns="http://www.w3.org/2000/svg">
<path d="M12.0598 1.21291C10.8483 0.182527 8.93189 0.007865 8.84986 0.00158195C8.72266 -0.00972702 8.60139 0.0656668 8.54908 0.190066C8.54433 0.197606 8.50272 0.299387 8.45635 0.457714C9.25764 0.600962 10.242 0.888714 11.1325 1.47301C11.2751 1.566 11.3191 1.76454 11.2311 1.91532C11.1729 2.01459 11.0742 2.06863 10.972 2.06863C10.9173 2.06863 10.8614 2.05229 10.8115 2.01962C9.28023 1.01563 7.36855 0.965364 7 0.965364C6.63145 0.965364 4.71858 1.01563 3.18852 2.01962C3.04586 2.11386 2.85802 2.06737 2.77004 1.91658C2.68088 1.76454 2.72486 1.56726 2.86753 1.47301C3.75798 0.889971 4.74236 0.600962 5.54365 0.45897C5.49728 0.299387 5.45567 0.198862 5.45211 0.190066C5.39861 0.0656668 5.27853 -0.01224 5.15014 0.00158195C5.0681 0.007865 3.15166 0.182527 1.92357 1.22673C1.28278 1.85375 0 5.51788 0 8.68567C0 8.74222 0.0142663 8.79625 0.0404213 8.84526C0.924932 10.4888 3.3395 10.9186 3.88995 10.9374C3.89232 10.9374 3.89589 10.9374 3.89946 10.9374C3.99694 10.9374 4.08848 10.8884 4.14555 10.8055L4.70194 9.99627C3.20041 9.58663 2.43359 8.89049 2.38961 8.84903C2.26359 8.73217 2.2517 8.5286 2.36345 8.39541C2.47401 8.26221 2.66661 8.24965 2.79263 8.36651C2.81046 8.3841 4.22283 9.65071 7 9.65071C9.78193 9.65071 11.1943 8.37907 11.2086 8.36651C11.3346 8.2509 11.526 8.26221 11.6377 8.39667C11.7483 8.52986 11.7364 8.73217 11.6104 8.84903C11.5664 8.89049 10.7996 9.58663 9.29806 9.99627L9.85445 10.8055C9.91151 10.8884 10.0031 10.9374 10.1005 10.9374C10.1041 10.9374 10.1077 10.9374 10.1101 10.9374C10.6605 10.9186 13.0751 10.4888 13.9596 8.84526C13.9857 8.79625 14 8.74222 14 8.68567C14 5.51788 12.7172 1.85375 12.0598 1.21291ZM5.02174 7.39896C4.43325 7.39896 3.95652 6.82345 3.95652 6.11224C3.95652 5.40102 4.43325 4.82552 5.02174 4.82552C5.61022 4.82552 6.08696 5.40102 6.08696 6.11224C6.08696 6.82345 5.61022 7.39896 5.02174 7.39896ZM8.97826 7.39896C8.38978 7.39896 7.91304 6.82345 7.91304 6.11224C7.91304 5.40102 8.38978 4.82552 8.97826 4.82552C9.56675 4.82552 10.0435 5.40102 10.0435 6.11224C10.0435 6.82345 9.56675 7.39896 8.97826 7.39896Z" fill="white"/>
<ellipse cx="7.37712" cy="10.9376" rx="2.89747" ry="3.06248" fill="#0D0027"/>
<path d="M7.377 8.74996C6.23405 8.74996 5.30737 9.72941 5.30737 10.9374C5.30737 12.1455 6.23405 13.1249 7.377 13.1249C8.51995 13.1249 9.44662 12.1455 9.44662 10.9374C9.44662 9.72941 8.51995 8.74996 7.377 8.74996ZM8.41181 11.1197H7.54947V12.0312C7.54947 12.132 7.4722 12.2135 7.377 12.2135C7.28179 12.2135 7.20453 12.132 7.20453 12.0312V11.1197H6.34219C6.24698 11.1197 6.16972 11.0383 6.16972 10.9374C6.16972 10.8366 6.24698 10.7552 6.34219 10.7552H7.20453V9.8437C7.20453 9.7429 7.28179 9.66141 7.377 9.66141C7.4722 9.66141 7.54947 9.7429 7.54947 9.8437V10.7552H8.41181C8.50701 10.7552 8.58428 10.8366 8.58428 10.9374C8.58428 11.0383 8.50701 11.1197 8.41181 11.1197Z" fill="white"/>
</svg>
