<svg width="15" height="15" viewBox="0 0 15 15" fill="none" xmlns="http://www.w3.org/2000/svg">
<path d="M12.9212 1.29954C11.6232 0.195565 9.56989 0.00842678 9.482 0.00169495C9.3457 -0.0104218 9.21578 0.0703573 9.15973 0.203643C9.15464 0.21172 9.11005 0.320772 9.06038 0.490408C9.9189 0.643888 10.9736 0.952194 11.9276 1.57823C12.0805 1.67786 12.1276 1.89058 12.0334 2.05213C11.971 2.15849 11.8652 2.21638 11.7557 2.21638C11.6971 2.21638 11.6372 2.19888 11.5837 2.16388C9.9431 1.08817 7.89487 1.03432 7.5 1.03432C7.10513 1.03432 5.05562 1.08817 3.41627 2.16388C3.26342 2.26485 3.06216 2.21504 2.9679 2.05348C2.87237 1.89058 2.9195 1.6792 3.07235 1.57823C4.02641 0.95354 5.0811 0.643888 5.93962 0.491754C5.88995 0.320772 5.84536 0.213067 5.84154 0.203643C5.78422 0.0703573 5.65557 -0.0131143 5.518 0.00169495C5.43011 0.00842678 3.37678 0.195564 2.06097 1.31435C1.37441 1.98616 0 5.91202 0 9.30608C0 9.36666 0.0152853 9.42456 0.0433086 9.47706C0.990999 11.238 3.57804 11.6985 4.1678 11.7187C4.17035 11.7187 4.17417 11.7187 4.17799 11.7187C4.28244 11.7187 4.38052 11.6662 4.44166 11.5773L5.03779 10.7103C3.42901 10.2714 2.60742 9.52553 2.56029 9.4811C2.42527 9.35589 2.41253 9.13779 2.53227 8.99508C2.65073 8.85237 2.85708 8.83891 2.9921 8.96412C3.01121 8.98296 4.52446 10.3401 7.5 10.3401C10.4806 10.3401 11.9939 8.97758 12.0092 8.96412C12.1442 8.84026 12.3493 8.85237 12.469 8.99643C12.5875 9.13914 12.5747 9.35589 12.4397 9.4811C12.3926 9.52553 11.571 10.2714 9.96221 10.7103L10.5583 11.5773C10.6195 11.6662 10.7176 11.7187 10.822 11.7187C10.8258 11.7187 10.8297 11.7187 10.8322 11.7187C11.422 11.6985 14.009 11.238 14.9567 9.47706C14.9847 9.42456 15 9.36666 15 9.30608C15 5.91202 13.6256 1.98616 12.9212 1.29954ZM5.38043 7.92745C4.74992 7.92745 4.23913 7.31084 4.23913 6.54883C4.23913 5.78681 4.74992 5.1702 5.38043 5.1702C6.01095 5.1702 6.52174 5.78681 6.52174 6.54883C6.52174 7.31084 6.01095 7.92745 5.38043 7.92745ZM9.61957 7.92745C8.98905 7.92745 8.47826 7.31084 8.47826 6.54883C8.47826 5.78681 8.98905 5.1702 9.61957 5.1702C10.2501 5.1702 10.7609 5.78681 10.7609 6.54883C10.7609 7.31084 10.2501 7.92745 9.61957 7.92745Z" fill="white"/>
<ellipse cx="7.90406" cy="11.7188" rx="3.10444" ry="3.28122" fill="#0D0027"/>
<path d="M7.90392 9.37496C6.67933 9.37496 5.68646 10.4244 5.68646 11.7187C5.68646 13.013 6.67933 14.0624 7.90392 14.0624C9.12851 14.0624 10.1214 13.013 10.1214 11.7187C10.1214 10.4244 9.12851 9.37496 7.90392 9.37496ZM9.01264 11.914H8.0887V12.8906C8.0887 12.9986 8.00592 13.0859 7.90392 13.0859C7.80191 13.0859 7.71913 12.9986 7.71913 12.8906V11.914H6.79519C6.69319 11.914 6.6104 11.8267 6.6104 11.7187C6.6104 11.6107 6.69319 11.5234 6.79519 11.5234H7.71913V10.5468C7.71913 10.4388 7.80191 10.3515 7.90392 10.3515C8.00592 10.3515 8.0887 10.4388 8.0887 10.5468V11.5234H9.01264C9.11465 11.5234 9.19743 11.6107 9.19743 11.7187C9.19743 11.8267 9.11465 11.914 9.01264 11.914Z" fill="white"/>
</svg>
