<svg width="15" height="15" viewBox="0 0 15 15" fill="none" xmlns="http://www.w3.org/2000/svg">
<path d="M3.86729 5.44889C4.14169 5.17453 4.44608 4.94828 4.76985 4.76954C6.57435 3.77519 8.88826 4.30393 10.0483 6.06262L8.64449 7.4657C8.24196 6.54761 7.24252 6.02512 6.24808 6.24762C5.87368 6.33136 5.51803 6.51823 5.22739 6.80885L2.5372 9.50002C1.72027 10.3169 1.72027 11.6456 2.5372 12.4624C3.35413 13.2793 4.68297 13.2793 5.4999 12.4624L6.32933 11.6331C7.08376 11.9324 7.89257 12.0518 8.69137 11.9924L6.86062 13.823C5.29114 15.3923 2.74659 15.3923 1.17711 13.823C-0.39237 12.2537 -0.39237 9.70938 1.17711 8.14006L3.86729 5.44889ZM8.14008 1.17653L6.30933 3.00709C7.10751 2.9471 7.91694 3.06709 8.67137 3.36583L9.50017 2.53711C10.3171 1.72026 11.6459 1.72026 12.4629 2.53711C13.2798 3.35396 13.2798 4.68267 12.4629 5.49952L9.77207 8.19006C8.95264 9.00941 7.62192 9.00253 6.80937 8.19006C6.61998 8.00069 6.45684 7.76507 6.35496 7.5332L4.95112 8.93628C5.09863 9.16003 5.25176 9.35315 5.44865 9.55001C5.95618 10.0575 6.60248 10.4356 7.34628 10.615C8.31009 10.8468 9.34266 10.7187 10.2296 10.2294C10.5534 10.0506 10.8578 9.82438 11.1322 9.55001L13.8223 6.85947C15.3924 5.29015 15.3924 2.74585 13.823 1.17653C12.2535 -0.392175 9.70956 -0.392175 8.14008 1.17653Z" fill="url(#paint0_linear_12_7)"/>
<defs>
<linearGradient id="paint0_linear_12_7" x1="16.25" y1="-3.125" x2="-1.5625" y2="15.3125" gradientUnits="userSpaceOnUse">
<stop stop-color="#F40289"/>
<stop offset="0.458333" stop-color="#C027F4"/>
<stop offset="0.8517" stop-color="#FB8F4E"/>
</linearGradient>
</defs>
</svg>
