<svg width="18" height="15" viewBox="0 0 18 15" fill="none" xmlns="http://www.w3.org/2000/svg">
<path d="M4.64075 5.44889C4.97002 5.17453 5.3353 4.94828 5.72382 4.76954C7.88922 3.77519 10.6659 4.30393 12.058 6.06262L10.3734 7.4657C9.89036 6.54761 8.69103 6.02512 7.49769 6.24762C7.04841 6.33136 6.62164 6.51823 6.27286 6.80885L3.04464 9.50002C2.06433 10.3169 2.06433 11.6456 3.04464 12.4624C4.02496 13.2793 5.61957 13.2793 6.59988 12.4624L7.5952 11.6331C8.50051 11.9324 9.47108 12.0518 10.4296 11.9924L8.23275 13.823C6.34937 15.3923 3.29591 15.3923 1.41253 13.823C-0.470844 12.2537 -0.470844 9.70938 1.41253 8.14006L4.64075 5.44889ZM9.7681 1.17653L7.5712 3.00709C8.52902 2.9471 9.50033 3.06709 10.4056 3.36583L11.4002 2.53711C12.3805 1.72026 13.9751 1.72026 14.9555 2.53711C15.9358 3.35396 15.9358 4.68267 14.9555 5.49952L11.7265 8.19006C10.7432 9.00941 9.14631 9.00253 8.17124 8.19006C7.94398 8.00069 7.74821 7.76507 7.62595 7.5332L5.94134 8.93628C6.11835 9.16003 6.30211 9.35315 6.53838 9.55001C7.14742 10.0575 7.92297 10.4356 8.81553 10.615C9.97211 10.8468 11.2112 10.7187 12.2755 10.2294C12.664 10.0506 13.0293 9.82438 13.3586 9.55001L16.5868 6.85947C18.4709 5.29015 18.4709 2.74585 16.5876 1.17653C14.7042 -0.392175 11.6515 -0.392175 9.7681 1.17653Z" fill="white"/>
</svg>
