<svg width="15" height="15" viewBox="0 0 15 15" fill="none" xmlns="http://www.w3.org/2000/svg">
<path d="M13.0539 12.4584C12.405 11.4578 11.5558 10.7113 10.6604 10.0477C9.9341 9.50993 9.10692 9.62484 8.33566 9.97557C7.86332 10.1907 7.39664 10.2162 6.94312 10.06C6.33817 9.85198 5.72966 9.82953 5.11194 9.82699C4.84722 9.82594 4.62723 9.93128 4.46974 10.1674C4.38172 10.3001 5.10286 10.849 5.72097 10.849C5.60611 11.1096 3.60704 10.5576 3.34048 10.5801L1.82743 10.36C1.29023 10.3107 1.29076 10.0793 0.762373 10.4192C0.744348 10.4315 0.71856 10.4315 0.696457 10.4294C0.402661 10.4104 0.236226 10.5165 0.0730792 10.7381C-0.0215194 10.8657 -0.0136252 11.0228 0.0366344 11.1719C0.0897886 11.3279 0.224384 11.2874 0.335429 11.3377C1.01196 11.6417 1.22984 11.7907 2.14741 12.0484C2.79986 12.2317 3.43521 12.456 4.08714 12.623C4.35646 12.6926 4.63013 12.7448 4.87327 12.8999C5.38955 13.2303 5.93793 13.3307 6.52749 13.2999C7.19653 13.2652 7.86766 13.2959 8.53814 13.2917C9.71503 13.2855 10.6093 13.8212 11.214 15L15.0001 14.9907C14.1737 13.8921 13.8094 13.6253 13.0539 12.4584Z" fill="white"/>
<path d="M6.27678 7.01524L3.74896 5.31706L6.27644 9.36926L8.80631 5.31706L6.27575 7.01524H6.27678V7.01524ZM6.31523 0L3.78672 4.77169L6.31488 6.47143L8.84304 4.77325L6.31523 0Z" fill="white"/>
</svg>
