<svg width="22" height="19" viewBox="0 0 22 19" fill="none" xmlns="http://www.w3.org/2000/svg">
<path d="M18.8494 15.5049C17.9124 14.2596 16.6862 13.3306 15.3932 12.5047C14.3445 11.8354 13.1501 11.9784 12.0364 12.4149C11.3544 12.6827 10.6805 12.7144 10.0256 12.52C9.1521 12.2611 8.27344 12.2332 7.38147 12.23C6.99922 12.2287 6.68157 12.3598 6.45416 12.6537C6.32707 12.8188 7.36836 13.5019 8.2609 13.5019C8.09504 13.8263 5.20845 13.1393 4.82355 13.1673L2.63875 12.8933C1.86305 12.8321 1.86381 12.544 1.10084 12.9671C1.07481 12.9823 1.03758 12.9823 1.00566 12.9797C0.58143 12.9561 0.341102 13.0881 0.105524 13.3639C-0.0310733 13.5228 -0.0196744 13.7183 0.0528989 13.9038C0.129652 14.098 0.324004 14.0475 0.484349 14.1101C1.46124 14.4885 1.77585 14.674 3.10079 14.9946C4.04291 15.2227 4.96033 15.5019 5.9017 15.7097C6.29059 15.7963 6.68575 15.8613 7.03684 16.0544C7.78233 16.4656 8.57418 16.5905 9.42549 16.5521C10.3915 16.5089 11.3606 16.5471 12.3288 16.5419C14.0282 16.5343 15.3195 17.2009 16.1927 18.668L21.6596 18.6564C20.4663 17.2892 19.9403 16.9572 18.8494 15.5049Z" fill="white"/>
<path d="M9.06341 8.73064L5.41333 6.61722L9.06292 11.6603L12.716 6.61722L9.06193 8.73064H9.06341V8.73064ZM9.11893 0L5.46785 5.93849L9.11843 8.05386L12.769 5.94043L9.11893 0Z" fill="white"/>
</svg>
