<svg width="14" height="15" viewBox="0 0 14 15" fill="none" xmlns="http://www.w3.org/2000/svg">
<path d="M6.22222 5.625L14 10.4219L10.7053 10.8656L12.7734 14.2544L10.8757 15L8.79511 11.5787L6.22222 13.3681V5.625ZM6.22222 2.5C4.50411 2.5 3.11111 3.61937 3.11111 5C3.11111 5.92313 3.74111 6.72 4.66667 7.15312V6.3875C4.193 6.04375 3.88889 5.55187 3.88889 5C3.88889 3.96625 4.93578 3.125 6.22222 3.125C7.50867 3.125 8.55555 3.96625 8.55555 5C8.55555 5.15375 8.526 5.30062 8.48244 5.44312L9.13733 5.84687C9.25711 5.58187 9.33333 5.29875 9.33333 5C9.33333 3.61937 7.94033 2.5 6.22222 2.5ZM4.66667 8.53125C2.85678 8.015 1.55556 6.62875 1.55556 5C1.55556 2.93187 3.64856 1.25 6.22222 1.25C8.79589 1.25 10.8889 2.93187 10.8889 5C10.8889 5.58688 10.7154 6.14 10.4152 6.63562L11.6729 7.41125C12.1637 6.69563 12.4444 5.87438 12.4444 5C12.4444 2.23875 9.65922 0 6.22222 0C2.786 0 0 2.23875 0 5C0 7.32938 1.98411 9.28063 4.66667 9.83625V8.53125Z" fill="url(#paint0_linear_16_37)"/>
<defs>
<linearGradient id="paint0_linear_16_37" x1="-0.777778" y1="2.57143" x2="8.95024" y2="14.7208" gradientUnits="userSpaceOnUse">
<stop stop-color="#F40688"/>
<stop offset="0.489583" stop-color="#C026F3"/>
<stop offset="1" stop-color="#FB914E"/>
</linearGradient>
</defs>
</svg>
