<svg width="13" height="15" viewBox="0 0 13 15" fill="none" xmlns="http://www.w3.org/2000/svg">
<path d="M5.77778 5.625L13 10.4219L9.94067 10.8656L11.8611 14.2544L10.0988 15L8.16689 11.5787L5.77778 13.3681V5.625ZM5.77778 2.5C4.18239 2.5 2.88889 3.61937 2.88889 5C2.88889 5.92313 3.47389 6.72 4.33333 7.15312V6.3875C3.8935 6.04375 3.61111 5.55187 3.61111 5C3.61111 3.96625 4.58322 3.125 5.77778 3.125C6.97233 3.125 7.94444 3.96625 7.94444 5C7.94444 5.15375 7.917 5.30062 7.87656 5.44312L8.48467 5.84687C8.59589 5.58187 8.66667 5.29875 8.66667 5C8.66667 3.61937 7.37317 2.5 5.77778 2.5ZM4.33333 8.53125C2.65272 8.015 1.44444 6.62875 1.44444 5C1.44444 2.93187 3.38794 1.25 5.77778 1.25C8.16761 1.25 10.1111 2.93187 10.1111 5C10.1111 5.58688 9.95006 6.14 9.67128 6.63562L10.8391 7.41125C11.2948 6.69563 11.5556 5.87438 11.5556 5C11.5556 2.23875 8.96928 0 5.77778 0C2.587 0 0 2.23875 0 5C0 7.32938 1.84239 9.28063 4.33333 9.83625V8.53125Z" fill="url(#paint0_linear_16_37)"/>
<defs>
<linearGradient id="paint0_linear_16_37" x1="-0.722222" y1="2.57143" x2="9.13866" y2="14.0071" gradientUnits="userSpaceOnUse">
<stop stop-color="#F40688"/>
<stop offset="0.489583" stop-color="#C026F3"/>
<stop offset="1" stop-color="#FB914E"/>
</linearGradient>
</defs>
</svg>
