<svg width="15" height="15" viewBox="0 0 15 15" fill="none" xmlns="http://www.w3.org/2000/svg">
<path d="M6.66667 5.625L15 10.4219L11.47 10.8656L13.6858 14.2544L11.6525 15L9.42333 11.5787L6.66667 13.3681V5.625ZM6.66667 2.5C4.82583 2.5 3.33333 3.61937 3.33333 5C3.33333 5.92313 4.00833 6.72 5 7.15312V6.3875C4.4925 6.04375 4.16667 5.55187 4.16667 5C4.16667 3.96625 5.28833 3.125 6.66667 3.125C8.045 3.125 9.16667 3.96625 9.16667 5C9.16667 5.15375 9.135 5.30062 9.08833 5.44312L9.79 5.84687C9.91833 5.58187 10 5.29875 10 5C10 3.61937 8.5075 2.5 6.66667 2.5ZM5 8.53125C3.06083 8.015 1.66667 6.62875 1.66667 5C1.66667 2.93187 3.90917 1.25 6.66667 1.25C9.42417 1.25 11.6667 2.93187 11.6667 5C11.6667 5.58688 11.4808 6.14 11.1592 6.63562L12.5067 7.41125C13.0325 6.69563 13.3333 5.87438 13.3333 5C13.3333 2.23875 10.3492 0 6.66667 0C2.985 0 0 2.23875 0 5C0 7.32938 2.12583 9.28063 5 9.83625V8.53125Z" fill="url(#paint0_linear_16_37)"/>
<defs>
<linearGradient id="paint0_linear_16_37" x1="-0.833333" y1="2.57143" x2="8.72756" y2="15.365" gradientUnits="userSpaceOnUse">
<stop stop-color="#F40688"/>
<stop offset="0.489583" stop-color="#C026F3"/>
<stop offset="1" stop-color="#FB914E"/>
</linearGradient>
</defs>
</svg>
