<svg width="10" height="13" viewBox="0 0 10 13" fill="none" xmlns="http://www.w3.org/2000/svg">
<path d="M4.44444 4.875L10 9.03229L7.64667 9.41688L9.12389 12.3538L7.76833 13L6.28222 10.0349L4.44444 11.5857V4.875V4.875ZM4.44444 2.16667C3.21722 2.16667 2.22222 3.13679 2.22222 4.33333C2.22222 5.13338 2.67222 5.824 3.33333 6.19938V5.53583C2.995 5.23792 2.77778 4.81163 2.77778 4.33333C2.77778 3.43742 3.52556 2.70833 4.44444 2.70833C5.36333 2.70833 6.11111 3.43742 6.11111 4.33333C6.11111 4.46658 6.09 4.59387 6.05889 4.71737L6.52667 5.06729C6.61222 4.83762 6.66667 4.59225 6.66667 4.33333C6.66667 3.13679 5.67167 2.16667 4.44444 2.16667V2.16667ZM3.33333 7.39375C2.04056 6.94633 1.11111 5.74492 1.11111 4.33333C1.11111 2.54096 2.60611 1.08333 4.44444 1.08333C6.28278 1.08333 7.77778 2.54096 7.77778 4.33333C7.77778 4.84196 7.65389 5.32133 7.43945 5.75088L8.33778 6.42308C8.68833 5.80288 8.88889 5.09113 8.88889 4.33333C8.88889 1.94025 6.89944 0 4.44444 0C1.99 0 0 1.94025 0 4.33333C0 6.35213 1.41722 8.04321 3.33333 8.52475V7.39375V7.39375Z" fill="white"/>
</svg>
