<svg width="18" height="15" viewBox="0 0 18 15" fill="none" xmlns="http://www.w3.org/2000/svg">
<path d="M18 3.933C15.6967 1.503 12.5145 0 9 0C5.48475 0 2.30325 1.503 0 3.933L1.52925 5.5455C3.441 3.5295 6.0825 2.2815 9 2.2815C11.9175 2.2815 14.559 3.5295 16.4707 5.5455L18 3.933V3.933ZM13.71 8.4585C12.5048 7.1865 10.8398 6.4005 9 6.4005C7.16025 6.4005 5.49525 7.1865 4.29 8.4585L2.72025 6.8025C4.3275 5.10675 6.5475 4.05825 9 4.05825C11.4525 4.05825 13.6725 5.10675 15.2797 6.8025L13.71 8.4585V8.4585ZM10.9665 11.3527C10.4632 10.8217 9.768 10.494 9 10.494C8.23275 10.494 7.53675 10.8217 7.0335 11.3527L5.49075 9.72525C6.3885 8.778 7.629 8.19225 8.99925 8.19225C10.3695 8.19225 11.61 8.77875 12.5078 9.72525L10.9665 11.3527V11.3527ZM9 12.1155C9.7965 12.1155 10.4423 12.7612 10.4423 13.5577C10.4423 14.3542 9.7965 15 9 15C8.2035 15 7.55775 14.3542 7.55775 13.5577C7.55775 12.7612 8.2035 12.1155 9 12.1155V12.1155Z" fill="url(#paint0_linear_19_108)"/>
<defs>
<linearGradient id="paint0_linear_19_108" x1="8.625" y1="-1.5" x2="8.625" y2="11.25" gradientUnits="userSpaceOnUse">
<stop stop-color="#F40489"/>
<stop offset="0.453125" stop-color="#BF26F3"/>
<stop offset="1" stop-color="#FB944D"/>
</linearGradient>
</defs>
</svg>
