<svg width="15" height="15" viewBox="0 0 15 15" fill="none" xmlns="http://www.w3.org/2000/svg">
<path d="M15 3.933C13.0806 1.503 10.4288 0 7.5 0C4.57063 0 1.91938 1.503 4.32568e-07 3.933L1.27438 5.5455C2.8675 3.5295 5.06875 2.2815 7.5 2.2815C9.93125 2.2815 12.1325 3.5295 13.7256 5.5455L15 3.933ZM11.425 8.4585C10.4206 7.1865 9.03313 6.4005 7.5 6.4005C5.96688 6.4005 4.57937 7.1865 3.575 8.4585L2.26688 6.8025C3.60625 5.10675 5.45625 4.05825 7.5 4.05825C9.54375 4.05825 11.3938 5.10675 12.7331 6.8025L11.425 8.4585ZM9.13875 11.3527C8.71938 10.8217 8.14 10.494 7.5 10.494C6.86063 10.494 6.28063 10.8217 5.86125 11.3527L4.57562 9.72525C5.32375 8.778 6.3575 8.19225 7.49938 8.19225C8.64125 8.19225 9.675 8.77875 10.4231 9.72525L9.13875 11.3527ZM7.5 12.1155C8.16375 12.1155 8.70188 12.7613 8.70188 13.5578C8.70188 14.3543 8.16375 15 7.5 15C6.83625 15 6.29813 14.3543 6.29813 13.5578C6.29813 12.7613 6.83625 12.1155 7.5 12.1155Z" fill="white"/>
</svg>
