<svg width="17" height="15" viewBox="0 0 17 15" fill="none" xmlns="http://www.w3.org/2000/svg">
<path d="M12.0417 6.57614V5.01477C11.2129 4.73045 10.6909 4.65136 10.4267 4.03909C10.1625 3.42545 10.4762 3.00818 10.8517 2.24932L9.70558 1.14545C8.92287 1.50341 8.48512 1.80955 7.8455 1.55455C7.208 1.30023 7.12513 0.793636 6.83188 0H5.20979C4.91796 0.789545 4.83437 1.30023 4.19617 1.55455H4.19546C3.55796 1.80955 3.12587 1.50682 2.33608 1.14545L1.19071 2.24932C1.564 3.00614 1.87992 3.42477 1.61571 4.03909C1.35008 4.65341 0.82025 4.73386 0 5.01477V6.57545C0.818125 6.85636 1.35079 6.9375 1.615 7.55114C1.88133 8.17023 1.55762 8.59705 1.19 9.34091L2.33608 10.4448C3.12021 10.0868 3.55725 9.78068 4.19546 10.0357H4.19617C4.83367 10.29 4.91725 10.798 5.20979 11.5902H6.83117C7.123 10.8007 7.20658 10.2914 7.84904 10.0343H7.84975C8.483 9.78068 8.91296 10.0827 9.70487 10.4448L10.851 9.34091C10.4791 8.58614 10.161 8.16614 10.4252 7.55114C10.6902 6.93818 11.2228 6.85636 12.0417 6.57614ZM6.02083 7.72773C4.913 7.72773 4.01412 6.8625 4.01412 5.79545C4.01412 4.72841 4.913 3.86318 6.02083 3.86318C7.12867 3.86318 8.02754 4.72841 8.02754 5.79545C8.02754 6.8625 7.12867 7.72773 6.02083 7.72773ZM17 10.5948V9.86045C16.6104 9.72682 16.3646 9.68932 16.24 9.40159C16.1153 9.1125 16.2633 8.91682 16.4397 8.55886L15.9 8.03932C15.5316 8.20841 15.3255 8.35159 15.0252 8.23227C14.7248 8.11295 14.6859 7.87432 14.5477 7.50068H13.7856C13.6482 7.87227 13.6085 8.11227 13.3082 8.23227C13.0078 8.35227 12.8045 8.20977 12.4334 8.03932L11.8936 8.55886C12.0693 8.91545 12.218 9.1125 12.0934 9.40159C11.9687 9.69068 11.7194 9.72818 11.3333 9.86045V10.5948C11.7187 10.7264 11.9687 10.7652 12.0934 11.0536C12.2187 11.3448 12.0665 11.5459 11.8936 11.8964L12.4334 12.4159C12.8024 12.2468 13.0085 12.1036 13.3082 12.223C13.6085 12.3423 13.6475 12.5816 13.7856 12.9545H14.5477C14.6852 12.583 14.7248 12.343 15.0266 12.2223H15.0273C15.3255 12.103 15.5274 12.2455 15.9 12.4159L16.4397 11.8964C16.2647 11.5411 16.1153 11.3427 16.24 11.0543C16.3646 10.7659 16.6147 10.7264 17 10.5948ZM14.1667 11.1361C13.6453 11.1361 13.2225 10.7291 13.2225 10.2273C13.2225 9.72545 13.6453 9.31841 14.1667 9.31841C14.688 9.31841 15.1109 9.72545 15.1109 10.2273C15.1109 10.7291 14.688 11.1361 14.1667 11.1361ZM11.3333 13.23V12.6791C11.0415 12.5789 10.8566 12.5509 10.7631 12.3348C10.6696 12.1186 10.7801 11.9714 10.9133 11.7027L10.5081 11.3134C10.2326 11.4402 10.0782 11.548 9.85221 11.458C9.62625 11.368 9.59792 11.1893 9.49379 10.9091H8.92217C8.81875 11.188 8.789 11.368 8.56375 11.458C8.33921 11.548 8.18621 11.4416 7.90783 11.3134L7.50267 11.7027C7.63512 11.9707 7.74633 12.118 7.65283 12.3348C7.55933 12.5516 7.37233 12.5795 7.08262 12.6791V13.23C7.37162 13.3289 7.55933 13.3582 7.65283 13.5743C7.74704 13.7925 7.633 13.9439 7.50267 14.2064L7.90783 14.5957C8.18408 14.4689 8.3385 14.3611 8.56375 14.4511C8.789 14.5411 8.81804 14.7205 8.92217 15H9.49379C9.59721 14.7211 9.62696 14.5411 9.85292 14.4511H9.85362C10.0767 14.3618 10.2283 14.4682 10.5081 14.5964L10.9133 14.207C10.7815 13.9405 10.6696 13.7918 10.7631 13.575C10.8566 13.3582 11.0443 13.3289 11.3333 13.23V13.23ZM9.20833 13.6364C8.81733 13.6364 8.5 13.3316 8.5 12.9545C8.5 12.5775 8.81733 12.2727 9.20833 12.2727C9.59933 12.2727 9.91667 12.5775 9.91667 12.9545C9.91667 13.3316 9.59933 13.6364 9.20833 13.6364Z" fill="white"/>
</svg>
