<svg width="16" height="15" viewBox="0 0 16 15" fill="none" xmlns="http://www.w3.org/2000/svg">
<path d="M11.3333 6.57614V5.01477C10.5533 4.73045 10.062 4.65136 9.81333 4.03909C9.56467 3.42545 9.86 3.00818 10.2133 2.24932L9.13467 1.14545C8.398 1.50341 7.986 1.80955 7.384 1.55455C6.784 1.30023 6.706 0.793636 6.43 0H4.90333C4.62867 0.789545 4.55 1.30023 3.94933 1.55455C3.34933 1.80955 2.942 1.50682 2.19867 1.14545L1.12067 2.24932C1.472 3.00614 1.76933 3.42477 1.52067 4.03909C1.27067 4.65341 0.772 4.73386 0 5.01477V6.57545C0.77 6.85636 1.27133 6.9375 1.52 7.55114C1.77067 8.17023 1.466 8.59705 1.12 9.34091L2.19867 10.4448C2.93667 10.0868 3.348 9.78068 3.94867 10.0357C4.54867 10.29 4.628 10.798 4.90333 11.5902H6.42933C6.704 10.8007 6.78267 10.2914 7.38733 10.0343C7.98333 9.78068 8.38867 10.0827 9.134 10.4448L10.2127 9.34091C9.86267 8.58614 9.56333 8.16614 9.812 7.55114C10.0613 6.93818 10.5627 6.85636 11.3333 6.57614ZM5.66667 7.72773C4.624 7.72773 3.778 6.8625 3.778 5.79545C3.778 4.72841 4.624 3.86318 5.66667 3.86318C6.70933 3.86318 7.55533 4.72841 7.55533 5.79545C7.55533 6.8625 6.70933 7.72773 5.66667 7.72773ZM16 10.5948V9.86045C15.6333 9.72682 15.402 9.68932 15.2847 9.40159C15.1673 9.1125 15.3067 8.91682 15.4727 8.55886L14.9647 8.03932C14.618 8.20841 14.424 8.35159 14.1413 8.23227C13.8587 8.11295 13.822 7.87432 13.692 7.50068H12.9747C12.8453 7.87227 12.808 8.11227 12.5253 8.23227C12.2427 8.35227 12.0513 8.20977 11.702 8.03932L11.194 8.55886C11.3593 8.91545 11.4993 9.1125 11.382 9.40159C11.2647 9.69068 11.03 9.72818 10.6667 9.86045V10.5948C11.0293 10.7264 11.2647 10.7652 11.382 11.0536C11.5 11.3448 11.3567 11.5459 11.194 11.8964L11.702 12.4159C12.0493 12.2468 12.2433 12.1036 12.5253 12.223C12.808 12.3423 12.8447 12.5816 12.9747 12.9545H13.692C13.8213 12.583 13.8587 12.343 14.1427 12.2223C14.4233 12.103 14.614 12.2455 14.9647 12.4159L15.4727 11.8964C15.308 11.5411 15.1673 11.3427 15.2847 11.0543C15.402 10.7659 15.6373 10.7264 16 10.5948ZM13.3333 11.1361C12.8427 11.1361 12.4447 10.7291 12.4447 10.2273C12.4447 9.72545 12.8427 9.31841 13.3333 9.31841C13.824 9.31841 14.222 9.72545 14.222 10.2273C14.222 10.7291 13.824 11.1361 13.3333 11.1361ZM10.6667 13.23V12.6791C10.392 12.5789 10.218 12.5509 10.13 12.3348C10.042 12.1186 10.146 11.9714 10.2713 11.7027L9.89 11.3134C9.63067 11.4402 9.48533 11.548 9.27267 11.458C9.06 11.368 9.03333 11.1893 8.93533 10.9091H8.39733C8.3 11.188 8.272 11.368 8.06 11.458C7.84867 11.548 7.70467 11.4416 7.44267 11.3134L7.06133 11.7027C7.186 11.9707 7.29067 12.118 7.20267 12.3348C7.11467 12.5516 6.93867 12.5795 6.666 12.6791V13.23C6.938 13.3289 7.11467 13.3582 7.20267 13.5743C7.29133 13.7925 7.184 13.9439 7.06133 14.2064L7.44267 14.5957C7.70267 14.4689 7.848 14.3611 8.06 14.4511C8.272 14.5411 8.29933 14.7205 8.39733 15H8.93533C9.03267 14.7211 9.06067 14.5411 9.27333 14.4511C9.48333 14.3618 9.62667 14.4682 9.89 14.5964L10.2713 14.207C10.1473 13.9405 10.042 13.7918 10.13 13.575C10.218 13.3582 10.3947 13.3289 10.6667 13.23ZM8.66667 13.6364C8.29867 13.6364 8 13.3316 8 12.9545C8 12.5775 8.29867 12.2727 8.66667 12.2727C9.03467 12.2727 9.33333 12.5775 9.33333 12.9545C9.33333 13.3316 9.03467 13.6364 8.66667 13.6364Z" fill="white"/>
</svg>
