<svg width="18" height="15" viewBox="0 0 18 15" fill="none" xmlns="http://www.w3.org/2000/svg">
<path d="M12.75 6.57614V5.01477C11.8725 4.73045 11.3198 4.65136 11.04 4.03909C10.7603 3.42545 11.0925 3.00818 11.49 2.24932L10.2765 1.14545C9.44775 1.50341 8.98425 1.80955 8.307 1.55455C7.632 1.30023 7.54425 0.793636 7.23375 0H5.51625C5.20725 0.789545 5.11875 1.30023 4.443 1.55455C3.768 1.80955 3.30975 1.50682 2.4735 1.14545L1.26075 2.24932C1.656 3.00614 1.9905 3.42477 1.71075 4.03909C1.4295 4.65341 0.8685 4.73386 0 5.01477V6.57545C0.86625 6.85636 1.43025 6.9375 1.71 7.55114C1.992 8.17023 1.64925 8.59705 1.26 9.34091L2.4735 10.4448C3.30375 10.0868 3.7665 9.78068 4.44225 10.0357C5.11725 10.29 5.2065 10.798 5.51625 11.5902H7.233C7.542 10.8007 7.6305 10.2914 8.31075 10.0343C8.98125 9.78068 9.43725 10.0827 10.2758 10.4448L11.4893 9.34091C11.0955 8.58614 10.7588 8.16614 11.0385 7.55114C11.319 6.93818 11.883 6.85636 12.75 6.57614ZM6.375 7.72773C5.202 7.72773 4.25025 6.8625 4.25025 5.79545C4.25025 4.72841 5.202 3.86318 6.375 3.86318C7.548 3.86318 8.49975 4.72841 8.49975 5.79545C8.49975 6.8625 7.548 7.72773 6.375 7.72773ZM18 10.5948V9.86045C17.5875 9.72682 17.3273 9.68932 17.1953 9.40159C17.0633 9.1125 17.22 8.91682 17.4067 8.55886L16.8353 8.03932C16.4453 8.20841 16.227 8.35159 15.909 8.23227C15.591 8.11295 15.5498 7.87432 15.4035 7.50068H14.5965C14.451 7.87227 14.409 8.11227 14.091 8.23227C13.773 8.35227 13.5578 8.20977 13.1648 8.03932L12.5933 8.55886C12.7793 8.91545 12.9367 9.1125 12.8047 9.40159C12.6727 9.69068 12.4088 9.72818 12 9.86045V10.5948C12.408 10.7264 12.6727 10.7652 12.8047 11.0536C12.9375 11.3448 12.7763 11.5459 12.5933 11.8964L13.1648 12.4159C13.5555 12.2468 13.7738 12.1036 14.091 12.223C14.409 12.3423 14.4502 12.5816 14.5965 12.9545H15.4035C15.549 12.583 15.591 12.343 15.9105 12.2223C16.2263 12.103 16.4408 12.2455 16.8353 12.4159L17.4067 11.8964C17.2215 11.5411 17.0633 11.3427 17.1953 11.0543C17.3273 10.7659 17.592 10.7264 18 10.5948ZM15 11.1361C14.448 11.1361 14.0003 10.7291 14.0003 10.2273C14.0003 9.72545 14.448 9.31841 15 9.31841C15.552 9.31841 15.9998 9.72545 15.9998 10.2273C15.9998 10.7291 15.552 11.1361 15 11.1361ZM12 13.23V12.6791C11.691 12.5789 11.4953 12.5509 11.3963 12.3348C11.2973 12.1186 11.4142 11.9714 11.5552 11.7027L11.1262 11.3134C10.8345 11.4402 10.671 11.548 10.4318 11.458C10.1925 11.368 10.1625 11.1893 10.0523 10.9091H9.447C9.3375 11.188 9.306 11.368 9.0675 11.458C8.82975 11.548 8.66775 11.4416 8.373 11.3134L7.944 11.7027C8.08425 11.9707 8.202 12.118 8.103 12.3348C8.004 12.5516 7.806 12.5795 7.49925 12.6791V13.23C7.80525 13.3289 8.004 13.3582 8.103 13.5743C8.20275 13.7925 8.082 13.9439 7.944 14.2064L8.373 14.5957C8.6655 14.4689 8.829 14.3611 9.0675 14.4511C9.306 14.5411 9.33675 14.7205 9.447 15H10.0523C10.1618 14.7211 10.1933 14.5411 10.4325 14.4511C10.6688 14.3618 10.83 14.4682 11.1262 14.5964L11.5552 14.207C11.4157 13.9405 11.2973 13.7918 11.3963 13.575C11.4953 13.3582 11.694 13.3289 12 13.23ZM9.75 13.6364C9.336 13.6364 9 13.3316 9 12.9545C9 12.5775 9.336 12.2727 9.75 12.2727C10.164 12.2727 10.5 12.5775 10.5 12.9545C10.5 13.3316 10.164 13.6364 9.75 13.6364Z" fill="white"/>
</svg>
