<svg width="15" height="15" viewBox="0 0 15 15" fill="none" xmlns="http://www.w3.org/2000/svg">
<path d="M10.625 6.57614V5.01477C9.89375 4.73045 9.43312 4.65136 9.2 4.03909C8.96687 3.42545 9.24375 3.00818 9.575 2.24932L8.56375 1.14545C7.87312 1.50341 7.48688 1.80955 6.9225 1.55455C6.36 1.30023 6.28688 0.793636 6.02813 0H4.59688C4.33938 0.789545 4.26562 1.30023 3.7025 1.55455C3.14 1.80955 2.75813 1.50682 2.06125 1.14545L1.05062 2.24932C1.38 3.00614 1.65875 3.42477 1.42562 4.03909C1.19125 4.65341 0.72375 4.73386 0 5.01477V6.57545C0.721875 6.85636 1.19187 6.9375 1.425 7.55114C1.66 8.17023 1.37437 8.59705 1.05 9.34091L2.06125 10.4448C2.75313 10.0868 3.13875 9.78068 3.70187 10.0357C4.26437 10.29 4.33875 10.798 4.59688 11.5902H6.0275C6.285 10.8007 6.35875 10.2914 6.92562 10.0343C7.48437 9.78068 7.86438 10.0827 8.56313 10.4448L9.57437 9.34091C9.24625 8.58614 8.96563 8.16614 9.19875 7.55114C9.4325 6.93818 9.9025 6.85636 10.625 6.57614ZM5.3125 7.72773C4.335 7.72773 3.54187 6.8625 3.54187 5.79545C3.54187 4.72841 4.335 3.86318 5.3125 3.86318C6.29 3.86318 7.08312 4.72841 7.08312 5.79545C7.08312 6.8625 6.29 7.72773 5.3125 7.72773ZM15 10.5948V9.86045C14.6563 9.72682 14.4394 9.68932 14.3294 9.40159C14.2194 9.1125 14.35 8.91682 14.5056 8.55886L14.0294 8.03932C13.7044 8.20841 13.5225 8.35159 13.2575 8.23227C12.9925 8.11295 12.9581 7.87432 12.8362 7.50068H12.1637C12.0425 7.87227 12.0075 8.11227 11.7425 8.23227C11.4775 8.35227 11.2981 8.20977 10.9706 8.03932L10.4944 8.55886C10.6494 8.91545 10.7806 9.1125 10.6706 9.40159C10.5606 9.69068 10.3406 9.72818 10 9.86045V10.5948C10.34 10.7264 10.5606 10.7652 10.6706 11.0536C10.7812 11.3448 10.6469 11.5459 10.4944 11.8964L10.9706 12.4159C11.2962 12.2468 11.4781 12.1036 11.7425 12.223C12.0075 12.3423 12.0419 12.5816 12.1637 12.9545H12.8362C12.9575 12.583 12.9925 12.343 13.2588 12.2223C13.5219 12.103 13.7006 12.2455 14.0294 12.4159L14.5056 11.8964C14.3512 11.5411 14.2194 11.3427 14.3294 11.0543C14.4394 10.7659 14.66 10.7264 15 10.5948ZM12.5 11.1361C12.04 11.1361 11.6669 10.7291 11.6669 10.2273C11.6669 9.72545 12.04 9.31841 12.5 9.31841C12.96 9.31841 13.3331 9.72545 13.3331 10.2273C13.3331 10.7291 12.96 11.1361 12.5 11.1361ZM10 13.23V12.6791C9.7425 12.5789 9.57937 12.5509 9.49687 12.3348C9.41437 12.1186 9.51187 11.9714 9.62937 11.7027L9.27187 11.3134C9.02875 11.4402 8.8925 11.548 8.69312 11.458C8.49375 11.368 8.46875 11.1893 8.37687 10.9091H7.8725C7.78125 11.188 7.755 11.368 7.55625 11.458C7.35813 11.548 7.22312 11.4416 6.9775 11.3134L6.62 11.7027C6.73687 11.9707 6.835 12.118 6.7525 12.3348C6.67 12.5516 6.505 12.5795 6.24937 12.6791V13.23C6.50437 13.3289 6.67 13.3582 6.7525 13.5743C6.83562 13.7925 6.735 13.9439 6.62 14.2064L6.9775 14.5957C7.22125 14.4689 7.3575 14.3611 7.55625 14.4511C7.755 14.5411 7.78062 14.7205 7.8725 15H8.37687C8.46812 14.7211 8.49438 14.5411 8.69375 14.4511C8.89063 14.3618 9.025 14.4682 9.27187 14.5964L9.62937 14.207C9.51312 13.9405 9.41437 13.7918 9.49687 13.575C9.57937 13.3582 9.745 13.3289 10 13.23ZM8.125 13.6364C7.78 13.6364 7.5 13.3316 7.5 12.9545C7.5 12.5775 7.78 12.2727 8.125 12.2727C8.47 12.2727 8.75 12.5775 8.75 12.9545C8.75 13.3316 8.47 13.6364 8.125 13.6364Z" fill="white"/>
</svg>
