<svg width="18" height="16" viewBox="0 0 18 16" fill="none" xmlns="http://www.w3.org/2000/svg">
<path d="M12.75 6.95112V5.38976C11.8725 5.10544 11.3198 5.02635 11.04 4.41408C10.7603 3.80044 11.0925 3.38317 11.49 2.6243L10.2765 1.52044C9.44775 1.87839 8.98425 2.18453 8.307 1.92953C7.632 1.67521 7.54425 1.16862 7.23375 0.374985H5.51625C5.20725 1.16453 5.11875 1.67521 4.443 1.92953C3.768 2.18453 3.30975 1.8818 2.4735 1.52044L1.26075 2.6243C1.656 3.38112 1.9905 3.79976 1.71075 4.41408C1.4295 5.02839 0.8685 5.10885 0 5.38976V6.95044C0.86625 7.23135 1.43025 7.31248 1.71 7.92612C1.992 8.54521 1.64925 8.97203 1.26 9.71589L2.4735 10.8198C3.30375 10.4618 3.7665 10.1557 4.44225 10.4107C5.11725 10.665 5.2065 11.1729 5.51625 11.9652H7.233C7.542 11.1757 7.6305 10.6663 8.31075 10.4093C8.98125 10.1557 9.43725 10.4577 10.2758 10.8198L11.4893 9.71589C11.0955 8.96112 10.7588 8.54112 11.0385 7.92612C11.319 7.31317 11.883 7.23135 12.75 6.95112ZM6.375 8.10271C5.202 8.10271 4.25025 7.23748 4.25025 6.17044C4.25025 5.10339 5.202 4.23817 6.375 4.23817C7.548 4.23817 8.49975 5.10339 8.49975 6.17044C8.49975 7.23748 7.548 8.10271 6.375 8.10271ZM18 10.9698V10.2354C17.5875 10.1018 17.3273 10.0643 17.1953 9.77658C17.0633 9.48748 17.22 9.2918 17.4067 8.93385L16.8353 8.4143C16.4453 8.58339 16.227 8.72658 15.909 8.60726C15.591 8.48794 15.5498 8.2493 15.4035 7.87567H14.5965C14.451 8.24726 14.409 8.48726 14.091 8.60726C13.773 8.72726 13.5578 8.58476 13.1648 8.4143L12.5933 8.93385C12.7793 9.29044 12.9367 9.48748 12.8047 9.77658C12.6727 10.0657 12.4088 10.1032 12 10.2354V10.9698C12.408 11.1013 12.6727 11.1402 12.8047 11.4286C12.9375 11.7198 12.7763 11.9209 12.5933 12.2713L13.1648 12.7909C13.5555 12.6218 13.7738 12.4786 14.091 12.5979C14.409 12.7173 14.4502 12.9566 14.5965 13.3295H15.4035C15.549 12.9579 15.591 12.7179 15.9105 12.5973C16.2263 12.4779 16.4408 12.6204 16.8353 12.7909L17.4067 12.2713C17.2215 11.9161 17.0633 11.7177 17.1953 11.4293C17.3273 11.1409 17.592 11.1013 18 10.9698ZM15 11.5111C14.448 11.5111 14.0003 11.1041 14.0003 10.6023C14.0003 10.1004 14.448 9.69339 15 9.69339C15.552 9.69339 15.9998 10.1004 15.9998 10.6023C15.9998 11.1041 15.552 11.5111 15 11.5111ZM12 13.605V13.0541C11.691 12.9538 11.4953 12.9259 11.3963 12.7098C11.2973 12.4936 11.4142 12.3463 11.5552 12.0777L11.1262 11.6884C10.8345 11.8152 10.671 11.9229 10.4318 11.8329C10.1925 11.7429 10.1625 11.5643 10.0523 11.2841H9.447C9.3375 11.5629 9.306 11.7429 9.0675 11.8329C8.82975 11.9229 8.66775 11.8166 8.373 11.6884L7.944 12.0777C8.08425 12.3457 8.202 12.4929 8.103 12.7098C8.004 12.9266 7.806 12.9545 7.49925 13.0541V13.605C7.80525 13.7038 8.004 13.7332 8.103 13.9493C8.20275 14.1675 8.082 14.3188 7.944 14.5813L8.373 14.9707C8.6655 14.8438 8.829 14.7361 9.0675 14.8261C9.306 14.9161 9.33675 15.0954 9.447 15.375H10.0523C10.1618 15.0961 10.1933 14.9161 10.4325 14.8261C10.6688 14.7368 10.83 14.8432 11.1262 14.9713L11.5552 14.582C11.4157 14.3154 11.2973 14.1668 11.3963 13.95C11.4953 13.7332 11.694 13.7038 12 13.605ZM9.75 14.0113C9.336 14.0113 9 13.7066 9 13.3295C9 12.9525 9.336 12.6477 9.75 12.6477C10.164 12.6477 10.5 12.9525 10.5 13.3295C10.5 13.7066 10.164 14.0113 9.75 14.0113Z" fill="url(#paint0_linear_19_101)"/>
<defs>
<linearGradient id="paint0_linear_19_101" x1="-1.58824" y1="1.37762" x2="14.222" y2="13.8776" gradientUnits="userSpaceOnUse">
<stop offset="0.0945158" stop-color="#F40588"/>
<stop offset="0.447917" stop-color="#C227F4"/>
<stop offset="1" stop-color="#FB924D"/>
</linearGradient>
</defs>
</svg>
