<svg width="17" height="16" viewBox="0 0 17 16" fill="none" xmlns="http://www.w3.org/2000/svg">
<path d="M12.0417 6.95112V5.38976C11.2129 5.10544 10.6909 5.02635 10.4267 4.41408C10.1625 3.80044 10.4762 3.38317 10.8517 2.6243L9.70558 1.52044C8.92287 1.87839 8.48512 2.18453 7.8455 1.92953C7.208 1.67521 7.12513 1.16862 6.83188 0.374985H5.20979C4.91796 1.16453 4.83437 1.67521 4.19617 1.92953H4.19546C3.55796 2.18453 3.12587 1.8818 2.33608 1.52044L1.19071 2.6243C1.564 3.38112 1.87992 3.79976 1.61571 4.41408C1.35008 5.02839 0.82025 5.10885 0 5.38976V6.95044C0.818125 7.23135 1.35079 7.31248 1.615 7.92612C1.88133 8.54521 1.55762 8.97203 1.19 9.71589L2.33608 10.8198C3.12021 10.4618 3.55725 10.1557 4.19546 10.4107H4.19617C4.83367 10.665 4.91725 11.1729 5.20979 11.9652H6.83117C7.123 11.1757 7.20658 10.6663 7.84904 10.4093H7.84975C8.483 10.1557 8.91296 10.4577 9.70487 10.8198L10.851 9.71589C10.4791 8.96112 10.161 8.54112 10.4252 7.92612C10.6902 7.31317 11.2228 7.23135 12.0417 6.95112ZM6.02083 8.10271C4.913 8.10271 4.01412 7.23748 4.01412 6.17044C4.01412 5.10339 4.913 4.23817 6.02083 4.23817C7.12867 4.23817 8.02754 5.10339 8.02754 6.17044C8.02754 7.23748 7.12867 8.10271 6.02083 8.10271ZM17 10.9698V10.2354C16.6104 10.1018 16.3646 10.0643 16.24 9.77658C16.1153 9.48748 16.2633 9.2918 16.4397 8.93385L15.9 8.4143C15.5316 8.58339 15.3255 8.72658 15.0252 8.60726C14.7248 8.48794 14.6859 8.2493 14.5477 7.87567H13.7856C13.6482 8.24726 13.6085 8.48726 13.3082 8.60726C13.0078 8.72726 12.8045 8.58476 12.4334 8.4143L11.8936 8.93385C12.0693 9.29044 12.218 9.48748 12.0934 9.77658C11.9687 10.0657 11.7194 10.1032 11.3333 10.2354V10.9698C11.7187 11.1013 11.9687 11.1402 12.0934 11.4286C12.2187 11.7198 12.0665 11.9209 11.8936 12.2713L12.4334 12.7909C12.8024 12.6218 13.0085 12.4786 13.3082 12.5979C13.6085 12.7173 13.6475 12.9566 13.7856 13.3295H14.5477C14.6852 12.9579 14.7248 12.7179 15.0266 12.5973H15.0273C15.3255 12.4779 15.5274 12.6204 15.9 12.7909L16.4397 12.2713C16.2647 11.9161 16.1153 11.7177 16.24 11.4293C16.3646 11.1409 16.6147 11.1013 17 10.9698ZM14.1667 11.5111C13.6453 11.5111 13.2225 11.1041 13.2225 10.6023C13.2225 10.1004 13.6453 9.69339 14.1667 9.69339C14.688 9.69339 15.1109 10.1004 15.1109 10.6023C15.1109 11.1041 14.688 11.5111 14.1667 11.5111ZM11.3333 13.605V13.0541C11.0415 12.9538 10.8566 12.9259 10.7631 12.7098C10.6696 12.4936 10.7801 12.3463 10.9133 12.0777L10.5081 11.6884C10.2326 11.8152 10.0782 11.9229 9.85221 11.8329C9.62625 11.7429 9.59792 11.5643 9.49379 11.2841H8.92217C8.81875 11.5629 8.789 11.7429 8.56375 11.8329C8.33921 11.9229 8.18621 11.8166 7.90783 11.6884L7.50267 12.0777C7.63512 12.3457 7.74633 12.4929 7.65283 12.7098C7.55933 12.9266 7.37233 12.9545 7.08262 13.0541V13.605C7.37162 13.7038 7.55933 13.7332 7.65283 13.9493C7.74704 14.1675 7.633 14.3188 7.50267 14.5813L7.90783 14.9707C8.18408 14.8438 8.3385 14.7361 8.56375 14.8261C8.789 14.9161 8.81804 15.0954 8.92217 15.375H9.49379C9.59721 15.0961 9.62696 14.9161 9.85292 14.8261H9.85362C10.0767 14.7368 10.2283 14.8432 10.5081 14.9713L10.9133 14.582C10.7815 14.3154 10.6696 14.1668 10.7631 13.95C10.8566 13.7332 11.0443 13.7038 11.3333 13.605V13.605ZM9.20833 14.0113C8.81733 14.0113 8.5 13.7066 8.5 13.3295C8.5 12.9525 8.81733 12.6477 9.20833 12.6477C9.59933 12.6477 9.91667 12.9525 9.91667 13.3295C9.91667 13.7066 9.59933 14.0113 9.20833 14.0113Z" fill="url(#paint0_linear_19_101)"/>
<defs>
<linearGradient id="paint0_linear_19_101" x1="-1.5" y1="1.37762" x2="14.0792" y2="13.0106" gradientUnits="userSpaceOnUse">
<stop offset="0.0945158" stop-color="#F40588"/>
<stop offset="0.447917" stop-color="#C227F4"/>
<stop offset="1" stop-color="#FB924D"/>
</linearGradient>
</defs>
</svg>
