<svg width="15" height="15" viewBox="0 0 15 15" fill="none" xmlns="http://www.w3.org/2000/svg">
<path fill-rule="evenodd" clip-rule="evenodd" d="M9.52875 10.625C8.94937 12.9381 7.93687 14.375 7.5 15C7.06313 14.375 6.05 12.9387 5.47125 10.625H9.52875ZM14.3187 10.625C13.345 12.7444 11.4125 14.3331 9.0775 14.8331C9.89937 13.5406 10.4788 12.1069 10.8131 10.625H14.3187ZM0.68125 10.625H4.18687C4.52375 12.1162 5.10562 13.5487 5.9225 14.8331C3.5875 14.3331 1.655 12.7444 0.68125 10.625ZM9.775 9.375H5.225C5.04375 8.13437 5.04375 6.86625 5.225 5.625H9.77563C9.95563 6.86625 9.95562 8.13437 9.775 9.375ZM3.96312 9.375H0.236875C0.081875 8.77625 0 8.1475 0 7.5C0 6.8525 0.081875 6.22438 0.236875 5.625H3.96312C3.79875 6.8675 3.79875 8.1325 3.96312 9.375ZM14.7631 9.375H11.0363C11.2019 8.1325 11.2019 6.8675 11.0369 5.625H14.7631C14.9175 6.22438 15 6.8525 15 7.5C15 8.1475 14.9175 8.77625 14.7631 9.375ZM9.52875 4.375H5.47125C6.04937 2.06125 7.0625 0.625 7.5 0C8.24625 1.0675 9.0275 2.37438 9.52875 4.375ZM4.18625 4.37437H0.680625C1.655 2.25562 3.5875 0.666875 5.9225 0.16625C5.14937 1.37875 4.53875 2.81437 4.18625 4.37437ZM14.3187 4.37437H10.8131C10.465 2.83563 9.8675 1.40563 9.07687 0.16625C11.4119 0.666875 13.345 2.25562 14.3187 4.37437Z" fill="white"/>
</svg>
