<svg width="15" height="15" viewBox="0 0 15 15" fill="none" xmlns="http://www.w3.org/2000/svg">
<path d="M15 1.77579C14.4481 2.07727 13.855 2.2803 13.2325 2.37182C13.8681 1.90346 14.3562 1.1613 14.5856 0.276866C13.9912 0.710624 13.3325 1.02594 12.6312 1.19591C12.0706 0.459906 11.27 0 10.385 0C8.39812 0 6.93813 2.28107 7.38688 4.64905C4.83 4.49139 2.5625 2.984 1.04438 0.692935C0.238125 2.39489 0.62625 4.62136 1.99625 5.74882C1.4925 5.72882 1.0175 5.55886 0.603125 5.27507C0.569375 7.02933 1.59125 8.67053 3.07125 9.03584C2.63813 9.18042 2.16375 9.21426 1.68125 9.10044C2.0725 10.6047 3.20875 11.6991 4.55625 11.7299C3.2625 12.9781 1.6325 13.5357 0 13.2988C1.36187 14.3732 2.98 15 4.7175 15C10.4313 15 13.6594 9.06199 13.4644 3.73616C14.0656 3.20165 14.5875 2.53486 15 1.77579V1.77579Z" fill="url(#paint0_linear_19_97)"/>
<defs>
<linearGradient id="paint0_linear_19_97" x1="-1.44231" y1="-0.309201" x2="10.7736" y2="11.3702" gradientUnits="userSpaceOnUse">
<stop offset="0.137702" stop-color="#F40489"/>
<stop offset="0.500863" stop-color="#C127F4"/>
<stop offset="1" stop-color="#FB954C"/>
</linearGradient>
</defs>
</svg>
