<svg width="31" height="31" viewBox="0 0 31 31" fill="none" xmlns="http://www.w3.org/2000/svg">
<path d="M25.1875 19.375C21.9803 19.375 19.375 21.9777 19.375 25.1875C19.375 28.3973 21.9803 31 25.1875 31C28.3947 31 31 28.3973 31 25.1875C31 21.9777 28.3947 19.375 25.1875 19.375ZM28.4167 25.8333H25.8333V28.4167H24.5417V25.8333H21.9583V24.5417H24.5417V21.9583H25.8333V24.5417H28.4167V25.8333ZM19.1425 31H0.00645833L0 29.397C0 26.142 0.257042 24.2627 4.10492 23.374C8.45138 22.3704 12.7436 21.4714 10.6795 17.6674C4.56604 6.39246 8.93575 0 15.5 0C24.22 0 25.1952 9.81021 20.2017 17.6687C18.5328 20.2921 16.7917 22.3575 16.7917 25.1875C16.7917 27.444 17.6907 29.49 19.1425 31Z" fill="white"/>
</svg>
