<svg width="28" height="22" viewBox="0 0 28 22" fill="none" xmlns="http://www.w3.org/2000/svg">
<path d="M23.9667 2.95733C21.5592 1.01995 17.7506 0.691546 17.5876 0.679732C17.3348 0.658469 17.0938 0.800228 16.9898 1.03413C16.9804 1.04831 16.8977 1.23968 16.8055 1.53737C18.398 1.80672 20.3542 2.34776 22.1239 3.4464C22.4074 3.62123 22.4948 3.99453 22.32 4.27805C22.2042 4.4647 22.0081 4.56629 21.8049 4.56629C21.6962 4.56629 21.5852 4.53558 21.4859 4.47415C18.4428 2.58639 14.6437 2.49189 13.9113 2.49189C13.1789 2.49189 9.37736 2.58639 6.33663 4.47415C6.05311 4.65135 5.67981 4.56393 5.50498 4.28041C5.32778 3.99453 5.41519 3.62359 5.69871 3.4464C7.46834 2.35013 9.42461 1.80672 11.017 1.53974C10.9249 1.23968 10.8422 1.05067 10.8351 1.03413C10.7288 0.800228 10.4902 0.653744 10.235 0.679732C10.072 0.691546 6.26339 1.01995 3.82277 2.98332C2.5493 4.16228 0 11.0518 0 17.008C0 17.1143 0.0283518 17.2159 0.0803304 17.3081C1.83814 20.3984 6.63668 21.2064 7.73059 21.2419C7.73532 21.2419 7.7424 21.2419 7.74949 21.2419C7.94323 21.2419 8.12515 21.1497 8.23856 20.9938L9.34428 19.4723C6.36025 18.702 4.83635 17.3931 4.74893 17.3152C4.49849 17.0954 4.47486 16.7127 4.69695 16.4622C4.91667 16.2118 5.29942 16.1882 5.54987 16.4079C5.58531 16.441 8.39213 18.8225 13.9113 18.8225C19.4399 18.8225 22.2467 16.4315 22.2751 16.4079C22.5255 16.1905 22.9059 16.2118 23.128 16.4646C23.3477 16.715 23.3241 17.0954 23.0736 17.3152C22.9862 17.3931 21.4623 18.702 18.4783 19.4723L19.584 20.9938C19.6974 21.1497 19.8793 21.2419 20.0731 21.2419C20.0802 21.2419 20.0873 21.2419 20.092 21.2419C21.1859 21.2064 25.9844 20.3984 27.7422 17.3081C27.7942 17.2159 27.8226 17.1143 27.8226 17.008C27.8226 11.0518 25.2733 4.16228 23.9667 2.95733ZM9.97983 14.5887C8.81032 14.5887 7.8629 13.5066 7.8629 12.1693C7.8629 10.832 8.81032 9.74995 9.97983 9.74995C11.1493 9.74995 12.0968 10.832 12.0968 12.1693C12.0968 13.5066 11.1493 14.5887 9.97983 14.5887ZM17.8427 14.5887C16.6732 14.5887 15.7258 13.5066 15.7258 12.1693C15.7258 10.832 16.6732 9.74995 17.8427 9.74995C19.0122 9.74995 19.9597 10.832 19.9597 12.1693C19.9597 13.5066 19.0122 14.5887 17.8427 14.5887Z" fill="url(#paint0_linear_133_48)"/>
<defs>
<linearGradient id="paint0_linear_133_48" x1="13.9113" y1="0.676758" x2="13.9113" y2="21.2419" gradientUnits="userSpaceOnUse">
<stop offset="0.109375" stop-color="#DD13B9"/>
<stop offset="0.5" stop-color="#C734E1"/>
<stop offset="0.822917" stop-color="#FB8F4F"/>
</linearGradient>
</defs>
</svg>
