<svg width="26" height="22" viewBox="0 0 26 22" fill="none" xmlns="http://www.w3.org/2000/svg">
<path d="M26 2.93696C25.0434 3.36163 24.0153 3.64763 22.9363 3.77655C24.0381 3.1168 24.8842 2.07138 25.2818 0.825547C24.2515 1.43655 23.1097 1.88071 21.8942 2.12013C20.9224 1.08338 19.5347 0.435547 18.0007 0.435547C14.5567 0.435547 12.0261 3.64871 12.8039 6.9843C8.372 6.76221 4.44167 4.63888 1.81025 1.41163C0.41275 3.80905 1.0855 6.9453 3.46017 8.53346C2.587 8.5053 1.76367 8.26588 1.04542 7.86613C0.986917 10.3372 2.75817 12.649 5.3235 13.1636C4.57275 13.3673 3.7505 13.415 2.91417 13.2546C3.59233 15.3736 5.56183 16.9152 7.8975 16.9585C5.655 18.7168 2.82967 19.5022 0 19.1686C2.36058 20.682 5.16533 21.5649 8.177 21.5649C18.0808 21.5649 23.6763 13.2005 23.3382 5.69838C24.3804 4.94546 25.285 4.00621 26 2.93696Z" fill="url(#paint0_linear_133_35)"/>
<defs>
<linearGradient id="paint0_linear_133_35" x1="-2.5" y1="-2.24796e-07" x2="14.5" y2="20" gradientUnits="userSpaceOnUse">
<stop offset="0.137702" stop-color="#F40489"/>
<stop offset="0.500863" stop-color="#C127F4"/>
<stop offset="1" stop-color="#FB954C"/>
</linearGradient>
</defs>
</svg>
