<svg width="30" height="30" viewBox="0 0 30 30" fill="none" xmlns="http://www.w3.org/2000/svg">
<path d="M7.73459 10.8978C8.28337 10.3491 8.89216 9.89657 9.53971 9.53908C13.1487 7.55039 17.7765 8.60786 20.0967 12.1252L17.289 14.9314C16.4839 13.0952 14.485 12.0502 12.4962 12.4952C11.7474 12.6627 11.0361 13.0365 10.4548 13.6177L5.07441 19C3.44055 20.6337 3.44055 23.2911 5.07441 24.9248C6.70827 26.5585 9.36595 26.5585 10.9998 24.9248L12.6587 23.2661C14.1675 23.8649 15.7851 24.1036 17.3827 23.9849L13.7212 27.646C10.5823 30.7847 5.49318 30.7847 2.35422 27.646C-0.784741 24.5074 -0.784741 19.4188 2.35422 16.2801L7.73459 10.8978ZM16.2802 2.35305L12.6187 6.01419C14.215 5.89419 15.8339 6.13418 17.3427 6.73167L19.0003 5.07422C20.6342 3.44052 23.2919 3.44052 24.9258 5.07422C26.5596 6.70792 26.5596 9.36533 24.9258 10.999L19.5441 16.3801C17.9053 18.0188 15.2438 18.0051 13.6187 16.3801C13.24 16.0014 12.9137 15.5301 12.7099 15.0664L9.90223 17.8726C10.1973 18.3201 10.5035 18.7063 10.8973 19.1C11.9124 20.115 13.205 20.8712 14.6926 21.23C16.6202 21.6937 18.6853 21.4375 20.4592 20.4587C21.1067 20.1012 21.7155 19.6488 22.2643 19.1L27.6447 13.7189C30.7849 10.5803 30.7849 5.4917 27.6459 2.35305C24.507 -0.784351 19.4191 -0.784351 16.2802 2.35305Z" fill="url(#paint0_linear_60_1751)"/>
<defs>
<linearGradient id="paint0_linear_60_1751" x1="30" y1="-5.5" x2="-7" y2="36" gradientUnits="userSpaceOnUse">
<stop offset="0.273474" stop-color="#FA7A58"/>
<stop offset="0.526042" stop-color="#AE22EE"/>
<stop offset="0.984375" stop-color="#F10991"/>
</linearGradient>
</defs>
</svg>
