<svg width="24" height="24" viewBox="0 0 24 24" fill="none" xmlns="http://www.w3.org/2000/svg">
<path d="M18.871 14.5161C16.4681 14.5161 14.5161 16.4661 14.5161 18.871C14.5161 21.2758 16.4681 23.2258 18.871 23.2258C21.2739 23.2258 23.2258 21.2758 23.2258 18.871C23.2258 16.4661 21.2739 14.5161 18.871 14.5161ZM21.2903 19.3548H19.3548V21.2903H18.3871V19.3548H16.4516V18.3871H18.3871V16.4516H19.3548V18.3871H21.2903V19.3548ZM14.3419 23.2258H0.00483871L0 22.0248C0 19.5861 0.192581 18.1781 3.07548 17.5123C6.33194 16.7603 9.54774 16.0868 8.00129 13.2368C3.42097 4.78936 6.69484 0 11.6129 0C18.1461 0 18.8768 7.35 15.1355 13.2377C13.8852 15.2032 12.5806 16.7506 12.5806 18.871C12.5806 20.5616 13.2542 22.0945 14.3419 23.2258Z" fill="url(#paint0_linear_133_38)"/>
<defs>
<linearGradient id="paint0_linear_133_38" x1="0.500001" y1="-2.5" x2="23" y2="22" gradientUnits="userSpaceOnUse">
<stop stop-color="#F40489"/>
<stop offset="0.479167" stop-color="#BF26F3"/>
<stop offset="1" stop-color="#FB914E"/>
</linearGradient>
</defs>
</svg>
