<svg width="24" height="22" viewBox="0 0 24 22" fill="none" xmlns="http://www.w3.org/2000/svg">
<path d="M10 0V6H14V0H10ZM12 4C11.448 4 11 3.552 11 3C11 2.448 11.448 2 12 2C12.552 2 13 2.448 13 3C13 3.552 12.552 4 12 4ZM16 4V7H8V4H0V22H24V4H16ZM13 19H3V18.583C2.996 17.471 3.044 16.836 4.324 16.54C5.727 16.216 7.111 15.927 6.446 14.699C4.473 11.062 5.883 9 8 9C10.077 9 11.521 10.985 9.556 14.699C8.909 15.919 10.244 16.209 11.677 16.54C12.961 16.837 13.005 17.476 13 18.597V19ZM21 19H15V17H21V19ZM21 15H15V13H21V15ZM21 11H15V9H21V11Z" fill="url(#paint0_linear_133_46)"/>
<defs>
<linearGradient id="paint0_linear_133_46" x1="-6.5" y1="1.5" x2="18.5" y2="22" gradientUnits="userSpaceOnUse">
<stop stop-color="#F40489"/>
<stop offset="0.463542" stop-color="#C127F4"/>
<stop offset="1" stop-color="#FB904E"/>
</linearGradient>
</defs>
</svg>
