<svg width="24" height="24" viewBox="0 0 24 24" fill="none" xmlns="http://www.w3.org/2000/svg">
<path d="M23.2969 22.5938H0.703125C0.314484 22.5938 0 22.9082 0 23.2969C0 23.6855 0.314484 24 0.703125 24H23.2969C23.6855 24 24 23.6855 24 23.2969C24 22.9082 23.6855 22.5938 23.2969 22.5938Z" fill="url(#paint0_linear_133_44)"/>
<path d="M6.375 11.2969H2.10938C1.72073 11.2969 1.40625 11.6114 1.40625 12V15.5156H7.07812V12C7.07812 11.6114 6.76364 11.2969 6.375 11.2969Z" fill="url(#paint1_linear_133_44)"/>
<path d="M7.07812 16.9219H1.40625V21.1875H7.07812V16.9219Z" fill="url(#paint2_linear_133_44)"/>
<path d="M14.1094 5.67188H9.89062C9.50198 5.67188 9.1875 5.98636 9.1875 6.375V15.5156H14.8125V6.375C14.8125 5.98636 14.498 5.67188 14.1094 5.67188Z" fill="url(#paint3_linear_133_44)"/>
<path d="M14.8125 16.9219H9.1875V21.1875H14.8125V16.9219Z" fill="url(#paint4_linear_133_44)"/>
<path d="M21.8906 0H17.625C17.2364 0 16.9219 0.314484 16.9219 0.703125V7.07812H22.5938V0.703125C22.5938 0.314484 22.2793 0 21.8906 0Z" fill="url(#paint5_linear_133_44)"/>
<path d="M22.5938 8.48438H16.9219V21.1875H22.5938V8.48438Z" fill="url(#paint6_linear_133_44)"/>
<defs>
<linearGradient id="paint0_linear_133_44" x1="3.5" y1="8" x2="21" y2="22" gradientUnits="userSpaceOnUse">
<stop stop-color="#F40489"/>
<stop offset="0.479167" stop-color="#BE26F3"/>
<stop offset="0.96468" stop-color="#FC9B4A"/>
</linearGradient>
<linearGradient id="paint1_linear_133_44" x1="3.5" y1="8" x2="21" y2="22" gradientUnits="userSpaceOnUse">
<stop stop-color="#F40489"/>
<stop offset="0.479167" stop-color="#BE26F3"/>
<stop offset="0.96468" stop-color="#FC9B4A"/>
</linearGradient>
<linearGradient id="paint2_linear_133_44" x1="3.5" y1="8" x2="21" y2="22" gradientUnits="userSpaceOnUse">
<stop stop-color="#F40489"/>
<stop offset="0.479167" stop-color="#BE26F3"/>
<stop offset="0.96468" stop-color="#FC9B4A"/>
</linearGradient>
<linearGradient id="paint3_linear_133_44" x1="3.5" y1="8" x2="21" y2="22" gradientUnits="userSpaceOnUse">
<stop stop-color="#F40489"/>
<stop offset="0.479167" stop-color="#BE26F3"/>
<stop offset="0.96468" stop-color="#FC9B4A"/>
</linearGradient>
<linearGradient id="paint4_linear_133_44" x1="3.5" y1="8" x2="21" y2="22" gradientUnits="userSpaceOnUse">
<stop stop-color="#F40489"/>
<stop offset="0.479167" stop-color="#BE26F3"/>
<stop offset="0.96468" stop-color="#FC9B4A"/>
</linearGradient>
<linearGradient id="paint5_linear_133_44" x1="3.5" y1="8" x2="21" y2="22" gradientUnits="userSpaceOnUse">
<stop stop-color="#F40489"/>
<stop offset="0.479167" stop-color="#BE26F3"/>
<stop offset="0.96468" stop-color="#FC9B4A"/>
</linearGradient>
<linearGradient id="paint6_linear_133_44" x1="3.5" y1="8" x2="21" y2="22" gradientUnits="userSpaceOnUse">
<stop stop-color="#F40489"/>
<stop offset="0.479167" stop-color="#BE26F3"/>
<stop offset="0.96468" stop-color="#FC9B4A"/>
</linearGradient>
</defs>
</svg>
