<svg width="28" height="35" viewBox="0 0 28 35" fill="none" xmlns="http://www.w3.org/2000/svg">
<path d="M12.5 13.125L27.5 24.3177L21.146 25.3531L25.1345 33.2602L21.4745 35L17.462 27.0171L12.5 31.1923V13.125ZM12.5 5.83333C9.1865 5.83333 6.5 8.44521 6.5 11.6667C6.5 13.8206 7.715 15.68 9.5 16.6906V14.9042C8.5865 14.1021 8 12.9544 8 11.6667C8 9.25458 10.019 7.29167 12.5 7.29167C14.981 7.29167 17 9.25458 17 11.6667C17 12.0254 16.943 12.3681 16.859 12.7006L18.122 13.6427C18.353 13.0244 18.5 12.3638 18.5 11.6667C18.5 8.44521 15.8135 5.83333 12.5 5.83333ZM9.5 19.9062C6.0095 18.7017 3.5 15.4671 3.5 11.6667C3.5 6.84104 7.5365 2.91667 12.5 2.91667C17.4635 2.91667 21.5 6.84104 21.5 11.6667C21.5 13.036 21.1655 14.3267 20.5865 15.4831L23.012 17.2929C23.9585 15.6231 24.5 13.7069 24.5 11.6667C24.5 5.22375 19.1285 0 12.5 0C5.873 0 0.5 5.22375 0.5 11.6667C0.5 17.1019 4.3265 21.6548 9.5 22.9513V19.9062Z" fill="url(#paint0_linear_50_294)"/>
<defs>
<linearGradient id="paint0_linear_50_294" x1="-5.5" y1="3.40278" x2="32.5951" y2="36.0557" gradientUnits="userSpaceOnUse">
<stop stop-color="#F4028A"/>
<stop offset="0.361242" stop-color="#B023EF"/>
<stop offset="0.770633" stop-color="#FB8951"/>
</linearGradient>
</defs>
</svg>
