<svg width="34" height="32" viewBox="0 0 34 32" fill="none" xmlns="http://www.w3.org/2000/svg">
<path d="M24.0833 14.0805V10.8363C22.4258 10.2456 21.3818 10.0812 20.8533 8.80908C20.3249 7.53408 20.9525 6.66708 21.7033 5.09033L19.4112 2.79675C17.8457 3.5405 16.9702 4.17658 15.691 3.64675C14.416 3.11833 14.2502 2.06575 13.6638 0.416748H10.4196C9.83592 2.05725 9.66875 3.11833 8.39233 3.64675H8.39092C7.11592 4.17658 6.25175 3.54758 4.67217 2.79675L2.38142 5.09033C3.128 6.66283 3.75983 7.53266 3.23142 8.80908C2.70017 10.0855 1.6405 10.2527 0 10.8363V14.0791C1.63625 14.6627 2.70158 14.8313 3.23 16.1063C3.76267 17.3927 3.11525 18.2795 2.38 19.8251L4.67217 22.1187C6.24042 21.3749 7.1145 20.7388 8.39092 21.2687H8.39233C9.66733 21.7971 9.8345 22.8525 10.4196 24.4987H13.6623C14.246 22.8582 14.4132 21.7999 15.6981 21.2658H15.6995C16.966 20.7388 17.8259 21.3664 19.4097 22.1187L21.7019 19.8251C20.9582 18.2568 20.3221 17.3842 20.8505 16.1063C21.3803 14.8327 22.4457 14.6627 24.0833 14.0805ZM12.0417 16.4732C9.826 16.4732 8.02825 14.6755 8.02825 12.4584C8.02825 10.2413 9.826 8.44358 12.0417 8.44358C14.2573 8.44358 16.0551 10.2413 16.0551 12.4584C16.0551 14.6755 14.2573 16.4732 12.0417 16.4732ZM34 22.4303V20.9046C33.2208 20.6269 32.7292 20.549 32.4799 19.9512C32.2306 19.3505 32.5267 18.9439 32.8794 18.2002L31.7999 17.1207C31.0632 17.472 30.651 17.7695 30.0503 17.5216C29.4497 17.2737 29.3717 16.7778 29.0955 16.0015H27.5712C27.2963 16.7736 27.217 17.2722 26.6163 17.5216C26.0157 17.7709 25.6091 17.4748 24.8667 17.1207L23.7873 18.2002C24.1386 18.9411 24.4361 19.3505 24.1867 19.9512C23.9374 20.5518 23.4387 20.6297 22.6667 20.9046V22.4303C23.4373 22.7037 23.9374 22.7845 24.1867 23.3837C24.4375 23.9887 24.1329 24.4066 23.7873 25.1347L24.8667 26.2142C25.6048 25.8629 26.0171 25.5654 26.6163 25.8133C27.217 26.0612 27.2949 26.5585 27.5712 27.3334H29.0955C29.3703 26.5613 29.4497 26.0627 30.0532 25.8119H30.0546C30.651 25.564 31.0548 25.8601 31.7999 26.2142L32.8794 25.1347C32.5295 24.3967 32.2306 23.9844 32.4799 23.3852C32.7292 22.7859 33.2293 22.7037 34 22.4303ZM28.3333 23.5552C27.2907 23.5552 26.4449 22.7094 26.4449 21.6667C26.4449 20.6241 27.2907 19.7783 28.3333 19.7783C29.376 19.7783 30.2218 20.6241 30.2218 21.6667C30.2218 22.7094 29.376 23.5552 28.3333 23.5552ZM22.6667 27.9057V26.7611C22.083 26.5528 21.7132 26.4947 21.5262 26.0457C21.3392 25.5966 21.5602 25.2906 21.8266 24.7324L21.0162 23.9235C20.4652 24.187 20.1563 24.4108 19.7044 24.2238C19.2525 24.0368 19.1958 23.6657 18.9876 23.0834H17.8443C17.6375 23.6628 17.578 24.0368 17.1275 24.2238C16.6784 24.4108 16.3724 24.1898 15.8157 23.9235L15.0053 24.7324C15.2702 25.2892 15.4927 25.5952 15.3057 26.0457C15.1187 26.4962 14.7447 26.5542 14.1652 26.7611V27.9057C14.7432 28.1112 15.1187 28.1721 15.3057 28.6212C15.4941 29.0745 15.266 29.389 15.0053 29.9344L15.8157 30.7433C16.3682 30.4798 16.677 30.256 17.1275 30.443C17.578 30.63 17.6361 31.0026 17.8443 31.5834H18.9876C19.1944 31.004 19.2539 30.63 19.7058 30.443H19.7073C20.1535 30.2574 20.4567 30.4784 21.0162 30.7447L21.8266 29.9358C21.5631 29.3819 21.3392 29.0731 21.5262 28.6226C21.7132 28.1721 22.0887 28.1112 22.6667 27.9057ZM18.4167 28.7501C17.6347 28.7501 17 28.1168 17 27.3334C17 26.55 17.6347 25.9167 18.4167 25.9167C19.1987 25.9167 19.8333 26.55 19.8333 27.3334C19.8333 28.1168 19.1987 28.7501 18.4167 28.7501Z" fill="url(#paint0_linear_133_43)"/>
<defs>
<linearGradient id="paint0_linear_133_43" x1="-3" y1="2.5" x2="29" y2="25.5" gradientUnits="userSpaceOnUse">
<stop offset="0.0945158" stop-color="#F40588"/>
<stop offset="0.447917" stop-color="#C227F4"/>
<stop offset="1" stop-color="#FB924D"/>
</linearGradient>
</defs>
</svg>
