<svg width="24" height="24" viewBox="0 0 24 24" fill="none" xmlns="http://www.w3.org/2000/svg">
<path fill-rule="evenodd" clip-rule="evenodd" d="M15.246 17C14.319 20.701 12.699 23 12 24C11.301 23 9.68 20.702 8.754 17H15.246ZM22.91 17C21.352 20.391 18.26 22.933 14.524 23.733C15.839 21.665 16.766 19.371 17.301 17H22.91ZM1.09 17H6.699C7.238 19.386 8.169 21.678 9.476 23.733C5.74 22.933 2.648 20.391 1.09 17ZM15.64 15H8.36C8.07 13.015 8.07 10.986 8.36 9H15.641C15.929 10.986 15.929 13.015 15.64 15ZM6.341 15H0.379C0.131 14.042 0 13.036 0 12C0 10.964 0.131 9.959 0.379 9H6.341C6.078 10.988 6.078 13.012 6.341 15ZM23.621 15H17.658C17.923 13.012 17.923 10.988 17.659 9H23.621C23.868 9.959 24 10.964 24 12C24 13.036 23.868 14.042 23.621 15ZM15.246 7H8.754C9.679 3.298 11.3 1 12 0C13.194 1.708 14.444 3.799 15.246 7ZM6.698 6.999H1.089C2.648 3.609 5.74 1.067 9.476 0.266C8.239 2.206 7.262 4.503 6.698 6.999ZM22.91 6.999H17.301C16.744 4.537 15.788 2.249 14.523 0.266C18.259 1.067 21.352 3.609 22.91 6.999Z" fill="white"/>
</svg>
