<svg width="16" height="18" viewBox="0 0 16 18" fill="none" xmlns="http://www.w3.org/2000/svg">
<path d="M15.3151 13.7589L10.8011 7.54693V1.50293H12.0511V0.25293H4.55111V1.50293H5.80111V7.54693L1.28111 13.7589C1.00859 14.1334 0.844978 14.5759 0.808385 15.0376C0.771793 15.4993 0.863644 15.9621 1.07378 16.3748C1.28391 16.7875 1.60413 17.134 1.999 17.376C2.39387 17.618 2.84799 17.746 3.31111 17.7459H13.2831C13.7462 17.746 14.2004 17.618 14.5952 17.376C14.9901 17.134 15.3103 16.7875 15.5204 16.3748C15.7306 15.9621 15.8224 15.4993 15.7858 15.0376C15.7492 14.5759 15.5856 14.1334 15.3131 13.7589H15.3151ZM7.04811 7.95293V1.50293H9.54811V7.95293L11.2181 10.2529H5.37811L7.04811 7.95293ZM13.2841 16.4959H3.31211C3.08008 16.4952 2.85273 16.4306 2.65505 16.3091C2.45737 16.1876 2.29701 16.014 2.19159 15.8073C2.08618 15.6006 2.03978 15.3688 2.05752 15.1375C2.07525 14.9061 2.15642 14.6841 2.29211 14.4959L4.47011 11.5029H12.1261L14.3011 14.4939C14.4368 14.6821 14.518 14.9041 14.5357 15.1355C14.5534 15.3668 14.507 15.5986 14.4016 15.8053C14.2962 16.012 14.1359 16.1856 13.9382 16.3071C13.7405 16.4286 13.5131 16.4932 13.2811 16.4939L13.2841 16.4959Z" fill="#00C6B9"/>
</svg>
