<svg width="33" height="33" viewBox="0 0 33 33" fill="none" xmlns="http://www.w3.org/2000/svg">
<path d="M32.0332 31.0664H0.966797C0.432416 31.0664 0 31.4988 0 32.0332C0 32.5676 0.432416 33 0.966797 33H32.0332C32.5676 33 33 32.5676 33 32.0332C33 31.4988 32.5676 31.0664 32.0332 31.0664Z" fill="white"/>
<path d="M8.76562 15.5332H2.90039C2.36601 15.5332 1.93359 15.9656 1.93359 16.5V21.334H9.73242V16.5C9.73242 15.9656 9.30001 15.5332 8.76562 15.5332Z" fill="white"/>
<path d="M9.73242 23.2676H1.93359V29.1328H9.73242V23.2676Z" fill="white"/>
<path d="M19.4004 7.79883H13.5996C13.0652 7.79883 12.6328 8.23124 12.6328 8.76562V21.334H20.3672V8.76562C20.3672 8.23124 19.9348 7.79883 19.4004 7.79883Z" fill="white"/>
<path d="M20.3672 23.2676H12.6328V29.1328H20.3672V23.2676Z" fill="white"/>
<path d="M30.0996 0H24.2344C23.7 0 23.2676 0.432416 23.2676 0.966797V9.73242H31.0664V0.966797C31.0664 0.432416 30.634 0 30.0996 0Z" fill="white"/>
<path d="M31.0664 11.666H23.2676V29.1328H31.0664V11.666Z" fill="white"/>
</svg>
