<svg width="28" height="36" viewBox="0 0 28 36" fill="none" xmlns="http://www.w3.org/2000/svg">
<path d="M12.5 13.5L27.5 25.0125L21.146 26.0775L25.1345 34.2105L21.4745 36L17.462 27.789L12.5 32.0835V13.5ZM12.5 6C9.1865 6 6.5 8.6865 6.5 12C6.5 14.2155 7.715 16.128 9.5 17.1675V15.33C8.5865 14.505 8 13.3245 8 12C8 9.519 10.019 7.5 12.5 7.5C14.981 7.5 17 9.519 17 12C17 12.369 16.943 12.7215 16.859 13.0635L18.122 14.0325C18.353 13.3965 18.5 12.717 18.5 12C18.5 8.6865 15.8135 6 12.5 6ZM9.5 20.475C6.0095 19.236 3.5 15.909 3.5 12C3.5 7.0365 7.5365 3 12.5 3C17.4635 3 21.5 7.0365 21.5 12C21.5 13.4085 21.1655 14.736 20.5865 15.9255L23.012 17.787C23.9585 16.0695 24.5 14.0985 24.5 12C24.5 5.373 19.1285 0 12.5 0C5.873 0 0.5 5.373 0.5 12C0.5 17.5905 4.3265 22.2735 9.5 23.607V20.475Z" fill="white"/>
</svg>
