<svg width="30" height="26" viewBox="0 0 30 26" fill="none" xmlns="http://www.w3.org/2000/svg">
<path d="M0 7.055C3.83875 3.005 9.1425 0.5 15 0.5C20.8587 0.5 26.1612 3.005 30 7.055L27.4513 9.7425C24.265 6.3825 19.8625 4.3025 15 4.3025C10.1375 4.3025 5.735 6.3825 2.54875 9.7425L0 7.055H0ZM7.15 14.5975C9.15875 12.4775 11.9338 11.1675 15 11.1675C18.0662 11.1675 20.8413 12.4775 22.85 14.5975L25.4662 11.8375C22.7875 9.01125 19.0875 7.26375 15 7.26375C10.9125 7.26375 7.2125 9.01125 4.53375 11.8375L7.15 14.5975ZM11.7225 19.4212C12.5613 18.5362 13.72 17.99 15 17.99C16.2787 17.99 17.4387 18.5362 18.2775 19.4212L20.8488 16.7087C19.3525 15.13 17.285 14.1538 15.0013 14.1538C12.7175 14.1538 10.65 15.1313 9.15375 16.7087L11.7225 19.4212ZM15 20.6925C13.6725 20.6925 12.5962 21.7687 12.5962 23.0962C12.5962 24.4237 13.6725 25.5 15 25.5C16.3275 25.5 17.4038 24.4237 17.4038 23.0962C17.4038 21.7687 16.3275 20.6925 15 20.6925Z" fill="white"/>
</svg>
