<svg width="18" height="18" viewBox="0 0 18 18" fill="none" xmlns="http://www.w3.org/2000/svg">
<path d="M2.25 4.5H3.75H15.75" stroke="#B60E0E" stroke-width="1.56522" stroke-linecap="round" stroke-linejoin="round"/>
<path d="M6.00012 4.5V3C6.00012 2.60218 6.15816 2.22064 6.43946 1.93934C6.72077 1.65804 7.1023 1.5 7.50012 1.5H10.5001C10.8979 1.5 11.2795 1.65804 11.5608 1.93934C11.8421 2.22064 12.0001 2.60218 12.0001 3V4.5M14.2501 4.5V15C14.2501 15.3978 14.0921 15.7794 13.8108 16.0607C13.5295 16.342 13.1479 16.5 12.7501 16.5H5.25012C4.8523 16.5 4.47077 16.342 4.18946 16.0607C3.90816 15.7794 3.75012 15.3978 3.75012 15V4.5H14.2501Z" stroke="#B60E0E" stroke-width="1.56522" stroke-linecap="round" stroke-linejoin="round"/>
<path d="M7.49988 8.25V12.75" stroke="#B60E0E" stroke-width="1.56522" stroke-linecap="round" stroke-linejoin="round"/>
<path d="M10.5001 8.25V12.75" stroke="#B60E0E" stroke-width="1.56522" stroke-linecap="round" stroke-linejoin="round"/>
</svg>
