<svg width="36" height="30" viewBox="0 0 36 30" fill="none" xmlns="http://www.w3.org/2000/svg">
<path d="M36 3.83557C34.6755 4.42357 33.252 4.81957 31.758 4.99807C33.2835 4.08457 34.455 2.63707 35.0055 0.912071C33.579 1.75807 31.998 2.37307 30.315 2.70457C28.9695 1.26907 27.048 0.37207 24.924 0.37207C20.1555 0.37207 16.6515 4.82107 17.7285 9.43957C11.592 9.13207 6.15 6.19207 2.5065 1.72357C0.5715 5.04307 1.503 9.38557 4.791 11.5846C3.582 11.5456 2.442 11.2141 1.4475 10.6606C1.3665 14.0821 3.819 17.2831 7.371 17.9956C6.3315 18.2776 5.193 18.3436 4.035 18.1216C4.974 21.0556 7.701 23.1901 10.935 23.2501C7.83 25.6846 3.918 26.7721 0 26.3101C3.2685 28.4056 7.152 29.6281 11.322 29.6281C25.035 29.6281 32.7825 18.0466 32.3145 7.65907C33.7575 6.61657 35.01 5.31607 36 3.83557Z" fill="white"/>
</svg>
