<svg width="20" height="16" viewBox="0 0 20 16" fill="none" xmlns="http://www.w3.org/2000/svg">
<path d="M11.3596 14.4222C11.3596 14.6913 11.2798 14.9543 11.1303 15.178C10.9808 15.4017 10.7683 15.5761 10.5198 15.679C10.2712 15.782 9.99766 15.8089 9.73378 15.7564C9.46989 15.704 9.22749 15.5744 9.03724 15.3841C8.84699 15.1939 8.71742 14.9515 8.66493 14.6876C8.61244 14.4237 8.63938 14.1502 8.74235 13.9016C8.84531 13.653 9.01967 13.4406 9.24339 13.2911C9.4671 13.1416 9.73012 13.0618 9.99917 13.0618C10.36 13.0618 10.706 13.2052 10.9611 13.4603C11.2162 13.7154 11.3596 14.0614 11.3596 14.4222Z" fill="#4AF801"/>
<path d="M6.23717 10.4988L7.20178 11.4605C7.95573 10.7426 8.95661 10.3417 9.99768 10.3406C11.0387 10.3396 12.0405 10.7384 12.7959 11.4547L13.7554 10.4952C12.7448 9.52231 11.3963 8.97937 9.9935 8.98059C8.59074 8.98182 7.24314 9.52712 6.23425 10.5017L6.23717 10.4988Z" fill="#4AF801"/>
<path d="M3.35131 7.61814L4.31373 8.57982C5.83141 7.09458 7.8698 6.26182 9.99332 6.2595C12.1168 6.25718 14.157 7.08548 15.678 8.56741L16.6396 7.60572C14.8643 5.86728 12.4781 4.89422 9.99341 4.89545C7.50866 4.89668 5.12345 5.8721 3.34985 7.61229L3.35131 7.61814Z" fill="#4AF801"/>
<path d="M19.5233 4.72215C16.985 2.21941 13.5635 0.816345 9.99884 0.816345C6.43416 0.816345 3.01272 2.21941 0.474365 4.72215V4.74114L1.42948 5.69041C3.71155 3.43892 6.78806 2.17605 9.99384 2.17482C13.1996 2.17359 16.2771 3.4341 18.5609 5.68384L19.5233 4.72142V4.72215Z" fill="#4AF801"/>
</svg>
