<svg width="24" height="24" viewBox="0 0 24 24" fill="none" xmlns="http://www.w3.org/2000/svg">
<path d="M13 17H17V18H13V17ZM13 16H17V15H13V16ZM22 2V24H2V2H5C6.23 2 7.181 0.916 8 0H16C16.82 0.916 17.771 2 19 2H22ZM11 3C11 3.552 11.448 4 12 4C12.553 4 13 3.552 13 3C13 2.448 12.553 2 12 2C11.448 2 11 2.448 11 3ZM20 4H16L14 6H10.103L8 4H4V22H20V4ZM13 13H17V12H13V13ZM13 11H17V10H13V11ZM6.5 11.077L6.886 10.722C7.335 10.94 7.621 11.105 8.127 11.467C9.079 10.386 9.707 9.84 10.875 9.112L11 9.4C10.037 10.241 9.331 11.177 8.314 13C7.688 12.262 7.27 11.792 6.5 11.077ZM6.598 16.077L6.984 15.722C7.433 15.94 7.719 16.105 8.225 16.467C9.177 15.386 9.805 14.84 10.973 14.112L11.098 14.401C10.135 15.242 9.429 16.178 8.412 18.001C7.785 17.262 7.367 16.792 6.598 16.077Z" fill="white"/>
</svg>
