<svg width="16" height="14" viewBox="0 0 16 14" fill="none" xmlns="http://www.w3.org/2000/svg">
<path d="M15.6539 1.97261C15.0779 2.22829 14.4589 2.40049 13.8093 2.47811C14.4726 2.08088 14.982 1.45146 15.2214 0.701365C14.6011 1.06924 13.9137 1.33666 13.1818 1.48081C12.5968 0.856601 11.7612 0.466553 10.8376 0.466553C8.7641 0.466553 7.24044 2.40114 7.70876 4.40943C5.04038 4.27572 2.674 2.9973 1.08967 1.05423C0.248265 2.49767 0.653315 4.38595 2.08306 5.34216C1.55734 5.3252 1.06163 5.18105 0.629182 4.94037C0.59396 6.42816 1.6604 7.82007 3.20494 8.1299C2.75292 8.25252 2.25786 8.28122 1.75432 8.18469C2.16263 9.4605 3.34843 10.3887 4.75469 10.4147C3.40453 11.4734 1.70345 11.9462 -0.000244141 11.7453C1.42102 12.6565 3.10971 13.1881 4.92298 13.1881C10.8859 13.1881 14.2548 8.15207 14.0513 3.63521C14.6788 3.18189 15.2234 2.61639 15.6539 1.97261Z" fill="white"/>
</svg>
