<svg width="909" height="324" viewBox="0 0 909 324" fill="none" xmlns="http://www.w3.org/2000/svg">
<g opacity="0.542522" filter="url(#filter0_f_313_2873)">
<path d="M59.3019 251.027C53.6422 248.271 59.51 244.841 65.1698 247.597L89.1668 259.284C89.6557 259.523 122.492 243.906 122.492 243.906C125.885 242.221 129.621 241.345 133.41 241.345H161.89C162.31 241.345 186.908 216.879 186.908 216.879C193.038 211.599 201.376 209.679 209.199 211.745L227.818 216.663C228.276 216.784 252.698 203.352 252.698 203.352C259.745 199.113 268.446 198.684 275.876 202.208L296.9 202.681C297.628 203.026 298.497 202.831 299.008 202.208L317.898 179.17C323.041 172.898 330.95 169.571 339.03 170.28L366.476 171.254C400.276 174.222 508.64 108.396 525.769 84.1275C525.769 84.1275 557.571 116.434 566.98 123.91C566.98 123.91 600.299 92.3233 607.313 92.3233C618.476 92.3233 652.031 114.244 652.031 114.244C652.205 114.336 708.524 69.8013 715.754 70.4028C725.731 71.2328 735.265 79.2959 741.466 84.1275C742.36 84.824 773.909 70.4028 773.909 70.4028C781.331 62.9574 783.208 70.0303 792.647 74.6606L811.813 84.0631C812.42 84.3608 851.069 57.2505 851.069 57.2505C856.005 53.3435 820.309 96.4909 811.813 92.3233L780.923 79.171C780.249 78.8402 751.601 104.286 744.717 103.722C739.017 103.255 715.754 84.1275 715.754 84.1275C714.81 83.3704 670.444 132.931 670.444 132.931C664.694 134.264 637.07 135.688 631.851 132.931L614.769 123.91C596.994 114.523 563.004 177.226 556.958 184.893L542.322 157.743C542.322 157.743 513.124 198.266 494.204 202.208C475.283 206.15 448.116 188.388 448.116 188.388L410.711 183.3C409.487 183.891 408.217 184.379 406.913 184.76L373.509 194.511C370.582 195.365 367.52 195.667 364.482 195.4L337.036 192.99C336.459 192.94 335.894 193.177 335.527 193.625L316.637 216.663C309.487 225.382 297.317 228.111 287.13 223.278L266.841 211.745C266.311 211.493 240.921 228.332 240.921 228.332C235.236 231.752 228.41 232.726 221.996 231.031L203.377 223.278C202.818 223.13 168.027 247.597 168.027 247.597C165.834 249.487 157.798 244.993 131.201 248.98C121.785 250.392 99.6356 262.426 99.6356 262.426C92.8165 265.812 88.0671 268.39 81.2224 265.056L59.3019 251.027Z" fill="url(#paint0_linear_313_2873)"/>
</g>
<defs>
<filter id="filter0_f_313_2873" x="0.00682068" y="0.00682068" width="908.521" height="323.595" filterUnits="userSpaceOnUse" color-interpolation-filters="sRGB">
<feFlood flood-opacity="0" result="BackgroundImageFix"/>
<feBlend mode="normal" in="SourceGraphic" in2="BackgroundImageFix" result="shape"/>
<feGaussianBlur stdDeviation="28.4966" result="effect1_foregroundBlur_313_2873"/>
</filter>
<linearGradient id="paint0_linear_313_2873" x1="476.837" y1="-39.9193" x2="367.912" y2="352.836" gradientUnits="userSpaceOnUse">
<stop stop-color="#F4FF05" stop-opacity="0.389719"/>
<stop offset="0.445538" stop-color="#CB3DC4"/>
<stop offset="0.790756" stop-color="#6FBEDA"/>
<stop offset="1" stop-color="#38FFE7" stop-opacity="0.489074"/>
</linearGradient>
</defs>
</svg>
