<svg width="17" height="20" viewBox="0 0 17 20" fill="none" xmlns="http://www.w3.org/2000/svg">
<path d="M16.2579 15.1282L11.2017 8.17006V1.40013H12.6018V0H4.20105V1.40013H5.60118V8.17006L0.538295 15.1282C0.23304 15.5476 0.0497789 16.0433 0.00879103 16.5604C-0.0321968 17.0775 0.0706869 17.5959 0.306057 18.0582C0.541427 18.5205 0.900107 18.9086 1.3424 19.1797C1.7847 19.4507 2.29337 19.5941 2.81211 19.594H13.9818C14.5006 19.5941 15.0092 19.4507 15.4515 19.1797C15.8938 18.9086 16.2525 18.5205 16.4879 18.0582C16.7232 17.5959 16.8261 17.0775 16.7851 16.5604C16.7442 16.0433 16.5609 15.5476 16.2556 15.1282H16.2579ZM6.99795 8.62482V1.40013H9.79822V8.62482L11.6688 11.2011H5.12737L6.99795 8.62482ZM13.9829 18.1939H2.81323C2.55334 18.1931 2.29868 18.1207 2.07726 17.9846C1.85583 17.8486 1.67621 17.6541 1.55813 17.4226C1.44005 17.191 1.38809 16.9314 1.40795 16.6723C1.42782 16.4132 1.51874 16.1645 1.67072 15.9537L4.11032 12.6012H12.6859L15.1221 15.9514C15.2741 16.1623 15.365 16.4109 15.3849 16.6701C15.4047 16.9292 15.3528 17.1888 15.2347 17.4203C15.1166 17.6518 14.937 17.8463 14.7156 17.9824C14.4941 18.1185 14.2395 18.1909 13.9796 18.1917L13.9829 18.1939Z" fill="#00C6B9"/>
</svg>
