<svg width="24" height="18" viewBox="0 0 24 18" fill="none" xmlns="http://www.w3.org/2000/svg">
<path d="M19.9626 2.76725C17.9861 1.17677 14.8594 0.90716 14.7256 0.897461C14.5181 0.880005 14.3202 0.996382 14.2349 1.1884C14.2271 1.20004 14.1592 1.35715 14.0836 1.60154C15.3909 1.82266 16.9969 2.26683 18.4497 3.16875C18.6824 3.31228 18.7542 3.61874 18.6107 3.8515C18.5156 4.00473 18.3546 4.08813 18.1878 4.08813C18.0986 4.08813 18.0074 4.06291 17.926 4.01248C15.4277 2.46273 12.3088 2.38515 11.7076 2.38515C11.1063 2.38515 7.98544 2.46273 5.48916 4.01248C5.2564 4.15796 4.94995 4.08619 4.80641 3.85344C4.66094 3.61874 4.73271 3.31422 4.96546 3.16875C6.41823 2.26877 8.02424 1.82266 9.33154 1.60348C9.25589 1.35715 9.188 1.20198 9.18219 1.1884C9.0949 0.996382 8.899 0.876126 8.68952 0.897461C8.55569 0.90716 5.42903 1.17677 3.42541 2.78859C2.37996 3.75646 0.287109 9.41237 0.287109 14.3021C0.287109 14.3894 0.310385 14.4728 0.353057 14.5485C1.79613 17.0855 5.73549 17.7488 6.63353 17.7779C6.63741 17.7779 6.64323 17.7779 6.64905 17.7779C6.8081 17.7779 6.95745 17.7023 7.05055 17.5743L7.95829 16.3252C5.50855 15.6929 4.2575 14.6183 4.18574 14.5543C3.98014 14.3739 3.96074 14.0597 4.14307 13.8541C4.32345 13.6485 4.63767 13.6291 4.84327 13.8095C4.87236 13.8366 7.17662 15.7918 11.7076 15.7918C16.2463 15.7918 18.5505 13.8289 18.5738 13.8095C18.7794 13.631 19.0917 13.6485 19.274 13.856C19.4544 14.0616 19.435 14.3739 19.2294 14.5543C19.1576 14.6183 17.9066 15.6929 15.4568 16.3252L16.3646 17.5743C16.4577 17.7023 16.607 17.7779 16.7661 17.7779C16.7719 17.7779 16.7777 17.7779 16.7816 17.7779C17.6796 17.7488 21.619 17.0855 23.0621 14.5485C23.1047 14.4728 23.128 14.3894 23.128 14.3021C23.128 9.41237 21.0352 3.75646 19.9626 2.76725ZM8.48005 12.316C7.51994 12.316 6.74215 11.4276 6.74215 10.3298C6.74215 9.23199 7.51994 8.34365 8.48005 8.34365C9.44016 8.34365 10.2179 9.23199 10.2179 10.3298C10.2179 11.4276 9.44016 12.316 8.48005 12.316ZM14.9351 12.316C13.975 12.316 13.1972 11.4276 13.1972 10.3298C13.1972 9.23199 13.975 8.34365 14.9351 8.34365C15.8952 8.34365 16.673 9.23199 16.673 10.3298C16.673 11.4276 15.8952 12.316 14.9351 12.316Z" fill="white"/>
</svg>
