<svg width="27" height="25" viewBox="0 0 27 25" fill="none" xmlns="http://www.w3.org/2000/svg">
<path d="M22.8083 2.08059C20.6118 0.313102 17.1372 0.0134914 16.9885 0.00271364C16.7578 -0.0166855 16.538 0.112643 16.4431 0.326036C16.4345 0.338968 16.3591 0.513562 16.275 0.785152C17.7278 1.03088 19.5125 1.52448 21.127 2.52678C21.3856 2.68628 21.4654 3.02685 21.3059 3.2855C21.2003 3.45579 21.0214 3.54847 20.836 3.54847C20.7368 3.54847 20.6355 3.52045 20.545 3.46441C17.7688 1.74218 14.3028 1.65596 13.6346 1.65596C12.9664 1.65596 9.4982 1.74218 6.7241 3.46441C6.46544 3.62607 6.12488 3.54632 5.96537 3.28766C5.80371 3.02685 5.88346 2.68844 6.14212 2.52678C7.75657 1.52664 9.54131 1.03088 10.9941 0.787307C10.91 0.513562 10.8346 0.341124 10.8281 0.326036C10.7311 0.112643 10.5134 -0.0209962 10.2806 0.00271364C10.1319 0.0134914 6.65728 0.313102 4.43067 2.1043C3.26887 3.17989 0.943115 9.46525 0.943115 14.8992C0.943115 14.9962 0.968981 15.0889 1.0164 15.173C2.62008 17.9923 6.99785 18.7295 7.99583 18.7618C8.00014 18.7618 8.00661 18.7618 8.01307 18.7618C8.18982 18.7618 8.35579 18.6778 8.45926 18.5355L9.46802 17.1474C6.74565 16.4447 5.35537 15.2505 5.27562 15.1794C5.04714 14.979 5.02559 14.6298 5.2282 14.4013C5.42866 14.1728 5.77785 14.1513 6.00633 14.3517C6.03866 14.3819 8.59936 16.5546 13.6346 16.5546C18.6784 16.5546 21.2391 14.3733 21.2649 14.3517C21.4934 14.1534 21.8404 14.1728 22.0431 14.4034C22.2435 14.6319 22.222 14.979 21.9935 15.1794C21.9137 15.2505 20.5235 16.4447 17.8011 17.1474L18.8099 18.5355C18.9133 18.6778 19.0793 18.7618 19.256 18.7618C19.2625 18.7618 19.269 18.7618 19.2733 18.7618C20.2713 18.7295 24.649 17.9923 26.2527 15.173C26.3001 15.0889 26.326 14.9962 26.326 14.8992C26.326 9.46525 24.0002 3.17989 22.8083 2.08059ZM10.0478 12.692C8.98088 12.692 8.11654 11.7048 8.11654 10.4848C8.11654 9.26479 8.98088 8.27758 10.0478 8.27758C11.1148 8.27758 11.9791 9.26479 11.9791 10.4848C11.9791 11.7048 11.1148 12.692 10.0478 12.692ZM17.2213 12.692C16.1543 12.692 15.29 11.7048 15.29 10.4848C15.29 9.26479 16.1543 8.27758 17.2213 8.27758C18.2882 8.27758 19.1526 9.26479 19.1526 10.4848C19.1526 11.7048 18.2882 12.692 17.2213 12.692Z" fill="white"/>
<circle cx="14.3178" cy="18.7621" r="5.2533" fill="#AA1AC1"/>
<path d="M14.3177 15.0093C12.2454 15.0093 10.5653 16.6894 10.5653 18.7616C10.5653 20.8339 12.2454 22.514 14.3177 22.514C16.3899 22.514 18.07 20.8339 18.07 18.7616C18.07 16.6894 16.3899 15.0093 14.3177 15.0093ZM16.1938 19.0743H14.6304V20.6378C14.6304 20.8107 14.4903 20.9505 14.3177 20.9505C14.1451 20.9505 14.005 20.8107 14.005 20.6378V19.0743H12.4415C12.2689 19.0743 12.1288 18.9346 12.1288 18.7616C12.1288 18.5887 12.2689 18.4489 12.4415 18.4489H14.005V16.8855C14.005 16.7125 14.1451 16.5728 14.3177 16.5728C14.4903 16.5728 14.6304 16.7125 14.6304 16.8855V18.4489H16.1938C16.3665 18.4489 16.5065 18.5887 16.5065 18.7616C16.5065 18.9346 16.3665 19.0743 16.1938 19.0743Z" fill="white"/>
</svg>
