<svg width="17" height="17" viewBox="0 0 17 17" fill="none" xmlns="http://www.w3.org/2000/svg">
<g clip-path="url(#clip0_1058_231)">
<path d="M16.8 8.40022C16.8 3.76063 13.0392 0.00012207 8.40014 0.00012207C3.76085 0.00012207 0 3.76063 0 8.40022C0 13.0391 3.76085 16.7999 8.40014 16.7999C13.0392 16.7999 16.8 13.0391 16.8 8.40022Z" fill="#4CFF00"/>
<g clip-path="url(#clip1_1058_231)">
<path d="M11.6255 9.72156V11.7724H5.35219V9.72156H4.14645V12.3753C4.14645 12.708 4.41599 12.9779 4.75022 12.9779H12.2275C12.5614 12.9779 12.8313 12.7083 12.8313 12.3753V9.72156H11.6255Z" fill="white"/>
<path d="M8.37848 9.51833L6.65224 7.43241C6.65224 7.43241 6.38959 7.18444 6.6744 7.18444C6.95922 7.18444 7.64714 7.18444 7.64714 7.18444C7.64714 7.18444 7.64714 7.01762 7.64714 6.76037C7.64714 6.02692 7.64714 4.69211 7.64714 4.14795C7.64714 4.14795 7.6085 4 7.83132 4C8.05593 4 9.03975 4 9.20057 4C9.3611 4 9.3575 4.12459 9.3575 4.12459C9.3575 4.65228 9.3575 6.03321 9.3575 6.7427C9.3575 6.9727 9.3575 7.12185 9.3575 7.12185C9.3575 7.12185 9.90916 7.12185 10.2554 7.12185C10.601 7.12185 10.3407 7.3815 10.3407 7.3815C10.3407 7.3815 8.87203 9.33116 8.66719 9.5357C8.51984 9.68395 8.37848 9.51833 8.37848 9.51833Z" fill="white"/>
</g>
</g>
<defs>
<clipPath id="clip0_1058_231">
<rect width="16.8" height="16.8" fill="white"/>
</clipPath>
<clipPath id="clip1_1058_231">
<rect width="8.978" height="8.978" fill="white" transform="translate(4 4)"/>
</clipPath>
</defs>
</svg>
