<svg width="17" height="15" viewBox="0 0 17 15" fill="none" xmlns="http://www.w3.org/2000/svg">
<path d="M16.4558 12.0126L9.84988 1.38577C9.46729 0.770496 8.95144 0.432373 8.39536 0.432373C7.83887 0.432373 7.32275 0.770769 6.9403 1.38632L0.350109 11.9965C-0.0323426 12.6116 -0.10395 13.1991 0.147562 13.6524C0.400984 14.1087 0.944108 14.3592 1.67737 14.3601L15.133 14.3703H15.1215V14.3717C15.7787 14.3717 16.4023 14.1222 16.6554 13.6675C16.907 13.2154 16.8382 12.6281 16.4558 12.0126ZM8.76202 12.2504C8.66423 12.348 8.53234 12.4033 8.39403 12.4033C8.256 12.4033 8.12165 12.3474 8.02345 12.2499C7.92606 12.1524 7.87082 12.0163 7.87096 11.8771C7.87123 11.7388 7.90356 11.6035 8.00121 11.5068C8.10092 11.4083 8.18548 11.352 8.31697 11.352L8.34152 11.3517C8.47928 11.3517 8.64295 11.4083 8.74197 11.5074C8.83991 11.6048 8.91015 11.7396 8.90988 11.8782C8.90974 12.0176 8.86064 12.1533 8.76202 12.2504ZM8.39567 10.3003C8.25518 10.3003 8.12492 10.2457 8.02563 10.1464C7.92633 10.047 7.87259 9.91482 7.87273 9.77406L7.81763 5.03202C7.81817 4.74177 8.02126 4.50635 8.28423 4.50635H8.34466C8.48528 4.50635 8.64745 4.56105 8.74661 4.66048C8.84604 4.76005 8.91479 4.89194 8.91465 5.0327L8.91806 9.77474C8.91779 10.0644 8.68578 10.3003 8.39567 10.3003Z" fill="#B60E0E"/>
</svg>
