<svg width="25" height="23" viewBox="0 0 25 23" fill="none" xmlns="http://www.w3.org/2000/svg">
<path d="M17.5947 10.0173V7.64724C16.3838 7.21566 15.621 7.09561 15.235 6.16622C14.849 5.23476 15.3075 4.60137 15.856 3.44947L14.1814 1.77388C13.0378 2.31723 12.3982 2.78192 11.4636 2.39485C10.5322 2.00881 10.4111 1.23984 9.98262 0.0351562H7.61257C7.18617 1.23363 7.06405 2.00881 6.13155 2.39485H6.13052C5.19906 2.78192 4.56774 2.3224 3.41377 1.77388L1.74025 3.44947C2.28567 4.59827 2.74726 5.23373 2.36122 6.16622C1.97311 7.09872 1.19896 7.22084 0.000488281 7.64724V10.0162C1.19586 10.4427 1.97414 10.5658 2.36018 11.4973C2.74933 12.437 2.27635 13.0849 1.73921 14.214L3.41377 15.8896C4.55946 15.3463 5.19803 14.8816 6.13052 15.2686H6.13155C7.06301 15.6547 7.18514 16.4257 7.61257 17.6283H9.98158C10.408 16.4299 10.5301 15.6567 11.4688 15.2666H11.4698C12.3951 14.8816 13.0233 15.3401 14.1804 15.8896L15.8549 14.214C15.3116 13.0683 14.8469 12.4308 15.2329 11.4973C15.62 10.5668 16.3983 10.4427 17.5947 10.0173ZM8.7976 11.7653C7.17893 11.7653 5.86557 10.452 5.86557 8.83226C5.86557 7.21256 7.17893 5.8992 8.7976 5.8992C10.4163 5.8992 11.7296 7.21256 11.7296 8.83226C11.7296 10.452 10.4163 11.7653 8.7976 11.7653ZM24.8394 16.1173V15.0027C24.2702 14.7998 23.911 14.7429 23.7289 14.3061C23.5467 13.8673 23.763 13.5703 24.0207 13.0269L23.2321 12.2383C22.6939 12.495 22.3927 12.7123 21.9539 12.5312C21.5151 12.3501 21.4582 11.9878 21.2564 11.4207H20.1428C19.942 11.9847 19.884 12.349 19.4452 12.5312C19.0064 12.7133 18.7093 12.497 18.167 12.2383L17.3784 13.0269C17.6351 13.5682 17.8524 13.8673 17.6703 14.3061C17.4881 14.745 17.1238 14.8019 16.5597 15.0027V16.1173C17.1228 16.317 17.4881 16.376 17.6703 16.8138C17.8534 17.2558 17.6309 17.5611 17.3784 18.093L18.167 18.8817C18.7062 18.625 19.0074 18.4077 19.4452 18.5888C19.884 18.7699 19.9409 19.1332 20.1428 19.6993H21.2564C21.4571 19.1352 21.5151 18.7709 21.956 18.5877H21.957C22.3927 18.4066 22.6877 18.6229 23.2321 18.8817L24.0207 18.093C23.7651 17.5538 23.5467 17.2526 23.7289 16.8149C23.911 16.3771 24.2764 16.317 24.8394 16.1173ZM20.6996 16.9391C19.9378 16.9391 19.32 16.3212 19.32 15.5595C19.32 14.7977 19.9378 14.1799 20.6996 14.1799C21.4613 14.1799 22.0792 14.7977 22.0792 15.5595C22.0792 16.3212 21.4613 16.9391 20.6996 16.9391ZM16.5597 20.1174V19.2812C16.1333 19.129 15.8632 19.0866 15.7266 18.7585C15.59 18.4304 15.7514 18.2069 15.946 17.7991L15.354 17.2081C14.9514 17.4006 14.7258 17.5642 14.3957 17.4276C14.0655 17.2909 14.0241 17.0198 13.872 16.5944H13.0368C12.8857 17.0177 12.8422 17.2909 12.5131 17.4276C12.185 17.5642 11.9614 17.4027 11.5547 17.2081L10.9627 17.7991C11.1563 18.2058 11.3187 18.4294 11.1821 18.7585C11.0455 19.0876 10.7723 19.1301 10.349 19.2812V20.1174C10.7713 20.2675 11.0455 20.312 11.1821 20.6401C11.3198 20.9712 11.1531 21.201 10.9627 21.5995L11.5547 22.1904C11.9583 21.9979 12.184 21.8344 12.5131 21.971C12.8422 22.1076 12.8846 22.3798 13.0368 22.8041H13.872C14.0231 22.3808 14.0665 22.1076 14.3967 21.971H14.3977C14.7237 21.8354 14.9452 21.9969 15.354 22.1914L15.946 21.6005C15.7535 21.1958 15.59 20.9702 15.7266 20.6411C15.8632 20.312 16.1375 20.2675 16.5597 20.1174ZM13.4549 20.7342C12.8836 20.7342 12.4199 20.2716 12.4199 19.6993C12.4199 19.1269 12.8836 18.6643 13.4549 18.6643C14.0262 18.6643 14.4898 19.1269 14.4898 19.6993C14.4898 20.2716 14.0262 20.7342 13.4549 20.7342Z" fill="white"/>
</svg>
