<svg width="15" height="13" viewBox="0 0 15 13" fill="none" xmlns="http://www.w3.org/2000/svg">
<path d="M5.625 6.5L2.83563 9.60563L0 6.5H1.875C1.875 3.39375 4.39375 0.875 7.5 0.875C8.99687 0.875 10.3531 1.46375 11.3619 2.4175L10.1094 3.81187C9.43375 3.15562 8.51375 2.75 7.5 2.75C5.43188 2.75 3.75 4.43187 3.75 6.5H5.625ZM12.1644 3.39438L9.375 6.5H11.25C11.25 8.56812 9.56812 10.25 7.5 10.25C6.48562 10.25 5.56625 9.84375 4.89062 9.18813L3.63812 10.5825C4.64625 11.5363 6.00313 12.125 7.5 12.125C10.6062 12.125 13.125 9.60625 13.125 6.5H15L12.1644 3.39438Z" fill="white"/>
</svg>
