<svg width="12" height="14" viewBox="0 0 12 14" fill="none" xmlns="http://www.w3.org/2000/svg">
<path d="M0.690315 1.16393C0.690086 1.02343 0.723645 0.884934 0.788163 0.760123C0.833535 0.666366 0.897816 0.583009 0.976963 0.515297C1.05611 0.447585 1.14841 0.396981 1.24806 0.366667C1.34771 0.336354 1.45256 0.326986 1.556 0.339154C1.65945 0.351322 1.75926 0.384762 1.84916 0.437371L11.2374 5.99207C11.3668 6.06934 11.4718 6.18143 11.5405 6.31555C11.6419 6.50755 11.6671 6.73079 11.6109 6.94055C11.5547 7.15031 11.4213 7.33108 11.2374 7.44664L1.84916 13.0006C1.73479 13.069 1.60414 13.1053 1.47091 13.1058C1.25713 13.0985 1.05494 13.0068 0.908633 12.8508C0.762321 12.6948 0.683816 12.4871 0.690315 12.2733V1.16393Z" fill="#03902B"/>
</svg>
