<svg width="20" height="16" viewBox="0 0 20 16" fill="none" xmlns="http://www.w3.org/2000/svg">
<path d="M11.0962 14.3901C11.0962 14.6592 11.0165 14.9222 10.867 15.1459C10.7175 15.3696 10.505 15.544 10.2565 15.6469C10.0079 15.7499 9.73436 15.7768 9.47047 15.7243C9.20658 15.6719 8.96419 15.5423 8.77393 15.352C8.58368 15.1618 8.45412 14.9194 8.40163 14.6555C8.34914 14.3916 8.37608 14.1181 8.47904 13.8695C8.58201 13.6209 8.75637 13.4085 8.98008 13.259C9.20379 13.1095 9.46681 13.0297 9.73587 13.0297C10.0967 13.0297 10.4427 13.173 10.6978 13.4282C10.9529 13.6833 11.0962 14.0293 11.0962 14.3901Z" fill="#4AF801"/>
<path d="M5.97314 10.4667L6.93774 11.4283C7.6917 10.7105 8.69258 10.3096 9.73364 10.3085C10.7747 10.3074 11.7764 10.7062 12.5319 11.4225L13.4914 10.463C12.4808 9.49014 11.1322 8.9472 9.72946 8.94843C8.3267 8.94965 6.9791 9.49495 5.97021 10.4696L5.97314 10.4667Z" fill="#4AF801"/>
<path d="M3.08789 7.58597L4.0503 8.54765C5.56799 7.06241 7.60638 6.22966 9.72989 6.22734C11.8534 6.22502 13.8936 7.05332 15.4145 8.53524L16.3762 7.57356C14.6009 5.83511 12.2147 4.86205 9.72998 4.86328C7.24524 4.86451 4.86003 5.83993 3.08643 7.58013L3.08789 7.58597Z" fill="#4AF801"/>
<path d="M19.2599 4.68999C16.7215 2.18725 13.3001 0.78418 9.73541 0.78418C6.17073 0.78418 2.74929 2.18725 0.210938 4.68999V4.70897L1.16605 5.65824C3.44812 3.40676 6.52463 2.14388 9.73041 2.14265C12.9362 2.14142 16.0137 3.40194 18.2975 5.65167L19.2599 4.68926V4.68999Z" fill="#4AF801"/>
</svg>
