<svg width="20" height="25" viewBox="0 0 20 25" fill="none" xmlns="http://www.w3.org/2000/svg">
<g clip-path="url(#clip0_925_204)">
<path d="M3.3339 6.09992H6.73541L3.67096 0H5.62185L8.67616 6.09992H11.0684L14.1111 0.000482894H16.0504L13.0145 6.09992H16.5135C18.3437 6.09992 19.8469 7.60317 19.8469 9.43334V21.3768C19.8469 23.2069 18.3437 24.7102 16.5135 24.7102H3.3339C1.50035 24.7102 0 23.2098 0 21.3768V9.43334C0 7.60027 1.50084 6.09992 3.3339 6.09992ZM5.09984 17.2939L4.30404 16.1383C4.27603 16.1002 4.25864 16.0171 4.25188 15.8887H4.23112V17.2939H3.19V14.0406H4.16883L4.96463 15.1967C4.99264 15.2343 5.01003 15.3174 5.01679 15.4463H5.03755V14.0406H6.07915V17.2939H5.09984ZM7.49162 17.2939H6.39352L7.23665 14.0406H8.84517L9.68831 17.2939H8.58972L8.46996 16.7786H7.61186L7.49162 17.2939ZM7.95182 15.0397L7.73838 15.951H8.33813L8.13001 15.0397H7.95182ZM10.9607 17.2939H9.87277L10.0708 14.0406H11.4291L11.8353 15.696H11.8715L12.2776 14.0406H13.636L13.834 17.2939H12.7465L12.6832 15.7168H12.647L12.2515 17.2939H11.4552L11.0544 15.7168H11.0235L10.9607 17.2939ZM16.4227 16.0654H15.3821V16.5826H16.6574V17.2939H14.341V14.0406H16.6309L16.5015 14.7524H15.3821V15.3111H16.4227V16.0654ZM7.46071 21.1213H12.3862V21.9553H7.46071V21.1213ZM4.86661 18.9729H14.9799V19.8069H4.86661V18.9729ZM9.89209 8.45837L10.5015 7.23665H3.3339C2.12522 7.23665 1.13673 8.22514 1.13673 9.43334V21.3768C1.13673 22.5821 2.12811 23.5734 3.3339 23.5734H16.5135C17.7193 23.5734 18.7102 22.5821 18.7102 21.3768V9.43334C18.7102 8.22514 17.7217 7.23665 16.5135 7.23665H12.4476L11.4504 9.23535C11.7116 9.57338 11.8666 9.99687 11.8666 10.4566C11.8666 11.5605 10.9718 12.4553 9.86794 12.4553C8.76453 12.4553 7.86924 11.5605 7.86924 10.4566C7.86924 9.35269 8.76453 8.45789 9.86794 8.45789L9.89209 8.45837Z" fill="white"/>
</g>
<defs>
<clipPath id="clip0_925_204">
<rect width="19.8469" height="24.7102" fill="white"/>
</clipPath>
</defs>
</svg>
