<svg width="20" height="16" viewBox="0 0 20 16" fill="none" xmlns="http://www.w3.org/2000/svg">
<path d="M11.3596 14.4221C11.3596 14.6912 11.2798 14.9542 11.1303 15.1779C10.9808 15.4016 10.7683 15.576 10.5198 15.679C10.2712 15.7819 9.99766 15.8089 9.73378 15.7564C9.46989 15.7039 9.22749 15.5743 9.03724 15.3841C8.84699 15.1938 8.71742 14.9514 8.66493 14.6875C8.61244 14.4237 8.63938 14.1501 8.74235 13.9016C8.84531 13.653 9.01967 13.4405 9.24339 13.291C9.4671 13.1416 9.73012 13.0618 9.99917 13.0618C10.36 13.0618 10.706 13.2051 10.9611 13.4602C11.2162 13.7153 11.3596 14.0614 11.3596 14.4221Z" fill="#B60E0E"/>
<path d="M6.23717 10.4988L7.20178 11.4604C7.95573 10.7426 8.95661 10.3417 9.99768 10.3406C11.0387 10.3395 12.0405 10.7383 12.7959 11.4546L13.7554 10.4951C12.7448 9.52225 11.3963 8.97931 9.9935 8.98053C8.59074 8.98176 7.24314 9.52706 6.23425 10.5017L6.23717 10.4988Z" fill="#B60E0E"/>
<path d="M3.35131 7.61807L4.31373 8.57976C5.83141 7.09452 7.8698 6.26176 9.99332 6.25944C12.1168 6.25712 14.157 7.08542 15.678 8.56734L16.6396 7.60566C14.8643 5.86722 12.4781 4.89416 9.99341 4.89539C7.50866 4.89662 5.12345 5.87203 3.34985 7.61223L3.35131 7.61807Z" fill="#B60E0E"/>
<path d="M19.5233 4.72209C16.985 2.21935 13.5635 0.816284 9.99884 0.816284C6.43416 0.816284 3.01272 2.21935 0.474365 4.72209V4.74108L1.42948 5.69035C3.71155 3.43886 6.78806 2.17599 9.99384 2.17476C13.1996 2.17353 16.2771 3.43404 18.5609 5.68378L19.5233 4.72136V4.72209Z" fill="#B60E0E"/>
<line x1="0.303725" y1="1.60282" x2="17.3037" y2="14.6028" stroke="#B60E0E"/>
</svg>
