<svg width="20" height="19" viewBox="0 0 20 19" fill="none" xmlns="http://www.w3.org/2000/svg">
<path fill-rule="evenodd" clip-rule="evenodd" d="M5.99499 1.72801C6.75884 1.66685 7.48393 1.36625 8.06699 0.869013C8.7257 0.307918 9.5627 -0.000244141 10.428 -0.000244141C11.2933 -0.000244141 12.1303 0.307918 12.789 0.869013C13.3721 1.36625 14.0971 1.66685 14.861 1.72801C15.7235 1.79703 16.5333 2.17098 17.1452 2.78284C17.757 3.3947 18.131 4.20447 18.2 5.06701C18.2608 5.83095 18.5615 6.55613 19.059 7.13901C19.6201 7.79772 19.9282 8.63472 19.9282 9.50001C19.9282 10.3653 19.6201 11.2023 19.059 11.861C18.5618 12.4441 18.2612 13.1692 18.2 13.933C18.131 14.7956 17.757 15.6053 17.1452 16.2172C16.5333 16.829 15.7235 17.203 14.861 17.272C14.0971 17.3332 13.3721 17.6338 12.789 18.131C12.1303 18.6921 11.2933 19.0003 10.428 19.0003C9.5627 19.0003 8.7257 18.6921 8.06699 18.131C7.48393 17.6338 6.75884 17.3332 5.99499 17.272C5.13245 17.203 4.32268 16.829 3.71082 16.2172C3.09896 15.6053 2.72501 14.7956 2.65599 13.933C2.59483 13.1692 2.29423 12.4441 1.79699 11.861C1.2359 11.2023 0.927734 10.3653 0.927734 9.50001C0.927734 8.63472 1.2359 7.79772 1.79699 7.13901C2.29423 6.55595 2.59483 5.83086 2.65599 5.06701C2.72501 4.20447 3.09896 3.3947 3.71082 2.78284C4.32268 2.17098 5.13245 1.79703 5.99499 1.72801ZM14.828 7.96501C14.9382 7.85477 15.0257 7.72389 15.0854 7.57985C15.145 7.43581 15.1757 7.28142 15.1757 7.12551C15.1757 6.9696 15.145 6.81522 15.0854 6.67118C15.0257 6.52714 14.9382 6.39626 14.828 6.28601C14.7177 6.17577 14.5869 6.08832 14.4428 6.02865C14.2988 5.96899 14.1444 5.93828 13.9885 5.93828C13.8326 5.93828 13.6782 5.96899 13.5342 6.02865C13.3901 6.08832 13.2592 6.17577 13.149 6.28601L9.24099 10.2L7.70499 8.66101C7.59592 8.54573 7.46484 8.45349 7.3195 8.38974C7.17416 8.326 7.01751 8.29205 6.85882 8.2899C6.70013 8.28775 6.54262 8.31745 6.39561 8.37723C6.24859 8.43701 6.11506 8.52567 6.00291 8.63796C5.89075 8.75025 5.80226 8.88388 5.74265 9.03097C5.68304 9.17805 5.65353 9.3356 5.65587 9.49428C5.65821 9.65297 5.69235 9.80958 5.75626 9.95484C5.82018 10.1001 5.91258 10.2311 6.02799 10.34L8.40299 12.715C8.62574 12.9375 8.92768 13.0624 9.24249 13.0624C9.5573 13.0624 9.85924 12.9375 10.082 12.715L14.832 7.96501H14.828Z" fill="#00C6B9"/>
</svg>
