<svg width="19" height="19" viewBox="0 0 19 19" fill="none" xmlns="http://www.w3.org/2000/svg">
<path opacity="0.5" fill-rule="evenodd" clip-rule="evenodd" d="M18.5 9.25C18.5 11.0795 17.9575 12.8679 16.9411 14.389C15.9247 15.9102 14.48 17.0958 12.7898 17.7959C11.0996 18.496 9.23974 18.6792 7.44542 18.3223C5.65109 17.9654 4.0029 17.0844 2.70927 15.7907C1.41563 14.4971 0.534654 12.8489 0.17774 11.0546C-0.179173 9.26026 0.00400805 7.40039 0.704119 5.71018C1.40423 4.01996 2.58982 2.57531 4.11098 1.55891C5.63213 0.542503 7.42053 0 9.25 0C11.7033 0 14.056 0.974551 15.7907 2.70926C17.5255 4.44397 18.5 6.79675 18.5 9.25ZM9.25 5.781C9.04727 5.7812 8.84816 5.83471 8.67264 5.93616C8.49712 6.03761 8.35137 6.18343 8.25 6.359C8.17764 6.49698 8.07813 6.6189 7.95746 6.71745C7.83678 6.816 7.69743 6.88914 7.54777 6.93248C7.39812 6.97581 7.24124 6.98844 7.08658 6.96962C6.93192 6.95079 6.78266 6.9009 6.64777 6.82293C6.51288 6.74496 6.39514 6.64053 6.30163 6.51591C6.20811 6.39129 6.14076 6.24906 6.1036 6.09775C6.06645 5.94644 6.06027 5.78918 6.08543 5.63542C6.11058 5.48166 6.16657 5.33458 6.25 5.203C6.5298 4.71918 6.92235 4.31012 7.39424 4.01065C7.86614 3.71118 8.4034 3.53016 8.96031 3.483C9.51722 3.43584 10.0773 3.52394 10.5928 3.73979C11.1083 3.95565 11.5641 4.29287 11.9213 4.72276C12.2784 5.15265 12.5264 5.66247 12.6442 6.20882C12.7619 6.75518 12.7459 7.32189 12.5975 7.86073C12.4491 8.39957 12.1727 8.89457 11.7918 9.30361C11.411 9.71264 10.9369 10.0236 10.41 10.21V10.41C10.41 10.7166 10.2882 11.0106 10.0714 11.2274C9.85463 11.4442 9.56059 11.566 9.254 11.566C8.94741 11.566 8.65338 11.4442 8.43659 11.2274C8.2198 11.0106 8.098 10.7166 8.098 10.41V9.25C8.098 8.94341 8.2198 8.64938 8.43659 8.43258C8.65338 8.21579 8.94741 8.094 9.254 8.094C9.56073 8.094 9.85489 7.97216 10.0718 7.75527C10.2887 7.53838 10.4105 7.24422 10.4105 6.9375C10.4105 6.63078 10.2887 6.33662 10.0718 6.11973C9.85489 5.90284 9.56073 5.781 9.254 5.781H9.25ZM9.25 15.031C9.47864 15.031 9.70214 14.9632 9.89224 14.8362C10.0823 14.7092 10.2305 14.5286 10.318 14.3174C10.4055 14.1062 10.4284 13.8737 10.3838 13.6495C10.3392 13.4252 10.2291 13.2193 10.0674 13.0576C9.90575 12.8959 9.69977 12.7858 9.47553 12.7412C9.25129 12.6966 9.01885 12.7195 8.80762 12.807C8.59639 12.8945 8.41585 13.0427 8.28883 13.2328C8.1618 13.4229 8.094 13.6464 8.094 13.875C8.094 14.1816 8.2158 14.4756 8.43259 14.6924C8.64938 14.9092 8.94341 15.031 9.25 15.031Z" fill="white"/>
</svg>
