<svg width="19" height="20" viewBox="0 0 19 20" fill="none" xmlns="http://www.w3.org/2000/svg">
<path fill-rule="evenodd" clip-rule="evenodd" d="M9.9281 0C7.50419 2.2954 4.37377 3.58481 1.11765 3.629C0.590898 6.93764 1.18533 10.3364 2.79655 13.2284C4.40778 16.1204 6.93277 18.3207 9.9281 19.443C12.5603 18.4597 14.8391 16.6395 16.4508 14.2328C18.0625 11.8261 18.928 8.95129 18.928 6.004C18.9273 5.20783 18.8639 4.4131 18.7386 3.628C15.4826 3.58409 12.3522 2.29504 9.9281 0ZM11.0536 14.316C11.0538 14.551 10.9879 14.7808 10.8644 14.9763C10.7408 15.1718 10.5651 15.3242 10.3595 15.4143C10.1538 15.5044 9.9275 15.528 9.70912 15.4823C9.49074 15.4366 9.29011 15.3235 9.13262 15.1574C8.97512 14.9913 8.86784 14.7796 8.82433 14.5491C8.78083 14.3187 8.80306 14.0797 8.88822 13.8626C8.97338 13.6455 9.11763 13.4599 9.30273 13.3293C9.48783 13.1987 9.70547 13.129 9.9281 13.129C10.2264 13.129 10.5126 13.254 10.7236 13.4766C10.9346 13.6992 11.0533 14.0011 11.0536 14.316ZM11.0536 6.004C11.0451 5.69502 10.9228 5.4017 10.7128 5.18632C10.5027 4.97094 10.2214 4.85046 9.92858 4.85046C9.63574 4.85046 9.35443 4.97094 9.14438 5.18632C8.93433 5.4017 8.81208 5.69502 8.80359 6.004V9.566C8.81208 9.87498 8.93433 10.1683 9.14438 10.3837C9.35443 10.5991 9.63574 10.7195 9.92858 10.7195C10.2214 10.7195 10.5027 10.5991 10.7128 10.3837C10.9228 10.1683 11.0451 9.87498 11.0536 9.566V6.004Z" fill="#B60E0E"/>
</svg>
