<svg width="21" height="21" viewBox="0 0 21 21" fill="none" xmlns="http://www.w3.org/2000/svg">
<g clip-path="url(#clip0_925_175)">
<path d="M10.8946 15.1699L8.75 17.5H7V19.25H5.25V21H0V19.8686L6.1775 13.6911C5.99025 13.4636 5.81612 13.2247 5.65338 12.978L0 18.6314V16.625L6.00688 10.5446C6.95187 12.6656 8.715 14.3386 10.8946 15.1699ZM21 7C21 10.8658 17.8657 14 14 14C10.1342 14 7 10.8658 7 7C7 3.13425 10.1342 0 14 0C17.8657 0 21 3.13425 21 7ZM18.375 4.375C18.375 3.409 17.591 2.625 16.625 2.625C15.659 2.625 14.875 3.409 14.875 4.375C14.875 5.341 15.659 6.125 16.625 6.125C17.591 6.125 18.375 5.341 18.375 4.375Z" fill="white"/>
</g>
<defs>
<clipPath id="clip0_925_175">
<rect width="21" height="21" fill="white"/>
</clipPath>
</defs>
</svg>
