<svg width="16" height="18" viewBox="0 0 16 18" fill="none" xmlns="http://www.w3.org/2000/svg">
<path d="M0.502465 1.13659C0.502151 0.944175 0.548109 0.75451 0.636465 0.583586C0.698601 0.455187 0.786632 0.341033 0.895021 0.248303C1.00341 0.155572 1.12981 0.0862717 1.26628 0.0447581C1.40275 0.00324446 1.54633 -0.00958384 1.688 0.00707981C1.82967 0.0237435 1.96635 0.0695387 2.08946 0.141586L14.9465 7.74859C15.1236 7.8544 15.2674 8.00792 15.3615 8.19159C15.5004 8.45452 15.5348 8.76025 15.4579 9.04751C15.3809 9.33476 15.1982 9.58233 14.9465 9.74059L2.08946 17.3466C1.93284 17.4402 1.75392 17.4899 1.57147 17.4906C1.27871 17.4807 1.00181 17.3551 0.801445 17.1414C0.601075 16.9278 0.493565 16.6434 0.502465 16.3506V1.13659Z" fill="#18FF59"/>
</svg>
