<svg width="12" height="9" viewBox="0 0 12 9" fill="none" xmlns="http://www.w3.org/2000/svg">
<path d="M10.1713 4.79592C9.95208 6.81734 8.24089 8.3918 6.16164 8.3918C4.95211 8.3918 3.86989 7.85652 3.12974 7.01325L3.68788 6.28117C4.26306 7.01863 5.15653 7.49518 6.16164 7.49518C7.74237 7.49518 9.05053 6.31882 9.26527 4.79592H7.95487L9.7481 2.44231L11.5413 4.79592H10.1713ZM3.05935 3.90872C3.27768 2.39031 4.5836 1.21888 6.16164 1.21888C7.1645 1.21888 8.05708 1.69364 8.63181 2.42841L9.18951 1.69678C8.4498 0.855751 7.36893 0.322266 6.16164 0.322266C4.08508 0.322266 2.37658 1.89179 2.15332 3.90872H0.781952L2.57518 6.26234L4.36841 3.90872H3.05935Z" fill="white"/>
</svg>
