<svg width="16" height="12" viewBox="0 0 16 12" fill="none" xmlns="http://www.w3.org/2000/svg">
<path fill-rule="evenodd" clip-rule="evenodd" d="M13.2269 0C13.8226 0 14.3938 0.236627 14.815 0.657826C15.2362 1.07902 15.4728 1.65029 15.4728 2.24596V9.73204C15.4728 10.3277 15.2362 10.899 14.815 11.3202C14.3938 11.7414 13.8226 11.978 13.2269 11.978H2.7473C2.15164 11.978 1.58037 11.7414 1.15917 11.3202C0.73797 10.899 0.501343 10.3277 0.501343 9.73204V2.24596C0.501343 1.65029 0.73797 1.07902 1.15917 0.657826C1.58037 0.236627 2.15164 0 2.7473 0H13.2269ZM13.9758 4.21142H8.7363C8.51901 4.20127 8.30899 4.12998 8.13042 4.00575C7.95185 3.88152 7.81199 3.70939 7.72692 3.50919L6.98004 1.49708H2.7473C2.54869 1.49708 2.35821 1.57598 2.21777 1.71642C2.07733 1.85687 1.99843 2.04734 1.99843 2.24596V9.73204C1.99843 9.93066 2.07733 10.1211 2.21777 10.2616C2.35821 10.402 2.54869 10.4809 2.7473 10.4809H13.2269C13.4255 10.4809 13.616 10.402 13.7564 10.2616C13.8969 10.1211 13.9758 9.93066 13.9758 9.73204V4.21142Z" fill="#537FF9"/>
</svg>
