<svg width="24" height="24" viewBox="0 0 24 24" fill="none" xmlns="http://www.w3.org/2000/svg">
<path d="M3.44 2L3.001 0H20.995L20.556 2H3.44ZM2 5L1.561 3H22.44L22 5H2ZM12.099 15.716L12.103 15.999H6.164L6.116 15.707C5.983 14.928 5.939 14.483 6.698 14.277C7.54 14.05 8.382 13.848 7.866 12.988C6.239 10.442 7.017 8.998 8.5 8.998C9.954 8.998 11.016 10.388 9.855 12.988C9.507 13.842 10.355 14.044 11.256 14.277C12.057 14.485 12.09 14.932 12.099 15.716ZM18.727 11H13.943L13.915 12H18.59L18.727 11ZM19 9H14L13.972 9.999H18.864L19 9ZM18.452 13H13.886L13.857 13.999H18.316L18.452 13ZM18.179 15H13.828L13.8 15.999H18.041L18.179 15ZM24 18H0L2 24H22L24 18ZM3.375 16L2.29 7.999H21.701L20.582 16H22.603L24 6H0L1.356 16H3.375Z" fill="white"/>
</svg>
