<svg width="28" height="24" viewBox="0 0 28 24" fill="none" xmlns="http://www.w3.org/2000/svg">
<path d="M0 6.45137C3.58283 2.67137 8.533 0.333374 14 0.333374C19.4682 0.333374 24.4172 2.67137 28 6.45137L25.6212 8.95971C22.6473 5.82371 18.5383 3.88237 14 3.88237C9.46167 3.88237 5.35267 5.82371 2.37883 8.95971L0 6.45137H0ZM6.67333 13.491C8.54817 11.5124 11.1382 10.2897 14 10.2897C16.8618 10.2897 19.4518 11.5124 21.3267 13.491L23.7685 10.915C21.2683 8.27721 17.815 6.64621 14 6.64621C10.185 6.64621 6.73167 8.27721 4.2315 10.915L6.67333 13.491ZM10.941 17.9932C11.7238 17.1672 12.8053 16.6574 14 16.6574C15.1935 16.6574 16.2762 17.1672 17.059 17.9932L19.4588 15.4615C18.0623 13.988 16.1327 13.0769 14.0012 13.0769C11.8697 13.0769 9.94 13.9892 8.5435 15.4615L10.941 17.9932ZM14 19.1797C12.761 19.1797 11.7565 20.1842 11.7565 21.4232C11.7565 22.6622 12.761 23.6667 14 23.6667C15.239 23.6667 16.2435 22.6622 16.2435 21.4232C16.2435 20.1842 15.239 19.1797 14 19.1797Z" fill="white"/>
</svg>
